<svg id="Layer_1" data-name="Layer 1" xmlns="http://www.w3.org/2000/svg" viewBox="0 0 400 300"><defs><style>.cls-1{fill:#c4ab83;}</style></defs><title>adijewelry-logo</title><path class="cls-1" d="M186.36,128.94a17.39,17.39,0,0,1-.76,5.4,10.93,10.93,0,0,1-2.16,3.94,8.85,8.85,0,0,1-3.42,2.4,12.08,12.08,0,0,1-4.54.81,15.57,15.57,0,0,1-2.34-.18,18.1,18.1,0,0,1-2.44-.56l.09-.72.06-.73a1,1,0,0,1,.19-.41.62.62,0,0,1,.51-.18,2.15,2.15,0,0,1,.55.09l.77.2c.3.07.64.13,1,.19a9,9,0,0,0,1.35.09,9.56,9.56,0,0,0,3.52-.62,6.76,6.76,0,0,0,2.68-1.89,8.6,8.6,0,0,0,1.69-3.21,16.35,16.35,0,0,0,.57-4.57V104.68h2.65Z"/><path class="cls-1" d="M216.92,104.68v2.18H197.76v14.72h16v2.14h-16v15.17h19.16v2.19H195.11v-36.4Z"/><path class="cls-1" d="M218.49,104.68h2.19a.9.9,0,0,1,.95.69l9.19,29.92c.1.35.19.71.27,1.11s.16.8.24,1.23c.09-.43.17-.84.26-1.23a8.52,8.52,0,0,1,.31-1.11l10.29-29.92a1.14,1.14,0,0,1,.36-.49,1,1,0,0,1,.62-.2h.72a.89.89,0,0,1,.59.19,1.43,1.43,0,0,1,.36.5l10.29,29.92c.12.35.23.71.32,1.08s.18.78.27,1.21c.09-.41.16-.81.23-1.19a11.09,11.09,0,0,1,.26-1.1l9.18-29.92a.92.92,0,0,1,.35-.49,1.05,1.05,0,0,1,.63-.2h2l-11.45,36.4h-2.37l-10.75-31.59a11.88,11.88,0,0,1-.36-1.31,11.88,11.88,0,0,1-.36,1.31l-10.78,31.59H230Z"/><path class="cls-1" d="M294,104.68v2.18H274.83v14.72h15.95v2.14H274.83v15.17H294v2.19H272.18v-36.4Z"/><path class="cls-1" d="M303.16,138.84h17.26v2.24H300.53v-36.4h2.63Z"/><path class="cls-1" d="M328.19,124.62v16.46h-2.63v-36.4h9.29q6.3,0,9.42,2.43a8.52,8.52,0,0,1,3.11,7.14,9.8,9.8,0,0,1-.72,3.81,9,9,0,0,1-2.07,3,11.1,11.1,0,0,1-3.25,2.13,14.43,14.43,0,0,1-4.3,1.1,4,4,0,0,1,1.1,1l12.53,15.74h-2.29a1.51,1.51,0,0,1-.7-.15,2,2,0,0,1-.58-.52l-11.66-14.77a2.53,2.53,0,0,0-.94-.79,3.79,3.79,0,0,0-1.55-.23Zm0-2h6.33a14.83,14.83,0,0,0,4.33-.58,9.18,9.18,0,0,0,3.24-1.66,7,7,0,0,0,2-2.6,8,8,0,0,0,.7-3.42,6.68,6.68,0,0,0-2.55-5.76q-2.55-1.87-7.41-1.88h-6.66Z"/><path class="cls-1" d="M366.55,126.06v15H363.9v-15l-13.46-21.38h2.29a1,1,0,0,1,.58.16,2,2,0,0,1,.42.48L364.15,122a12,12,0,0,1,1.08,2.27,12.07,12.07,0,0,1,.47-1.12,11.82,11.82,0,0,1,.61-1.15l10.4-16.72a1.44,1.44,0,0,1,.38-.46,1,1,0,0,1,.6-.18H380Z"/><path class="cls-1" d="M239.37,192.21h-2a.88.88,0,0,1-.59-.2,1.1,1.1,0,0,1-.36-.5l-4.3-10.57H214.21l-4.27,10.57a1.08,1.08,0,0,1-.36.49,1,1,0,0,1-.62.21h-2l14.89-36.4h2.62ZM215,179h16.31l-7.44-18.39q-.18-.43-.36-1t-.36-1.17q-.18.62-.36,1.17t-.36,1Z"/><path class="cls-1" d="M246.47,175.74v16.47h-2.62v-36.4h9.28c4.21,0,7.34.81,9.42,2.43a8.52,8.52,0,0,1,3.11,7.14,9.78,9.78,0,0,1-.72,3.8,9,9,0,0,1-2.07,3,11.17,11.17,0,0,1-3.25,2.13,14.35,14.35,0,0,1-4.3,1.09,4.3,4.3,0,0,1,1.11,1L269,192.21h-2.28a1.41,1.41,0,0,1-.71-.16,1.79,1.79,0,0,1-.58-.51l-11.65-14.77a2.74,2.74,0,0,0-.94-.8,4.06,4.06,0,0,0-1.56-.23Zm0-2h6.33a14.78,14.78,0,0,0,4.33-.58,9.35,9.35,0,0,0,3.24-1.66,7.08,7.08,0,0,0,2-2.6,8,8,0,0,0,.7-3.42,6.68,6.68,0,0,0-2.55-5.76q-2.55-1.87-7.41-1.88h-6.66Z"/><path class="cls-1" d="M296.1,155.81V158H283.31v34.17h-2.62V158H267.82v-2.23Z"/><path class="cls-1" d="M180.22,155.1a9,9,0,0,1,3.27.59,8.78,8.78,0,0,1,2.69,1.59,7.87,7.87,0,0,1,1.82,2.33,6.54,6.54,0,0,1,.74,2.77l-.65.15a4.32,4.32,0,0,1-.92.13.6.6,0,0,1-.39-.15.87.87,0,0,1-.25-.44,8.38,8.38,0,0,0-.62-1.54,6.59,6.59,0,0,0-1.18-1.65,6.37,6.37,0,0,0-1.87-1.31,6,6,0,0,0-2.64-.54,8,8,0,0,0-2.8.47,6.41,6.41,0,0,0-2.16,1.34,6.08,6.08,0,0,0-1.4,2,6.44,6.44,0,0,0-.51,2.59,8.13,8.13,0,0,0,1.08,4,18.82,18.82,0,0,0,3.35,4.14L189.25,183a18.73,18.73,0,0,0,2.73-7.74,1,1,0,0,1,.21-.53.54.54,0,0,1,.46-.19h1.41a16.73,16.73,0,0,1-.91,5,19.75,19.75,0,0,1-2.46,4.9l7.67,7.51h-2.29a2.33,2.33,0,0,1-.76-.1,2.14,2.14,0,0,1-.68-.47l-5.28-5.17a19.77,19.77,0,0,1-2.54,2.47,16.16,16.16,0,0,1-3,2,17.19,17.19,0,0,1-3.46,1.27,15.78,15.78,0,0,1-3.87.46,11.63,11.63,0,0,1-3.81-.64,10.49,10.49,0,0,1-3.36-1.89,9.66,9.66,0,0,1-2.39-3.06,9.06,9.06,0,0,1-.91-4.13,9.4,9.4,0,0,1,.67-3.54,11.48,11.48,0,0,1,1.82-3.09,13.48,13.48,0,0,1,2.75-2.5,16.2,16.2,0,0,1,3.45-1.81,16.92,16.92,0,0,1-2.74-4,9.6,9.6,0,0,1-.91-4.15,8.49,8.49,0,0,1,.65-3.33,7.92,7.92,0,0,1,1.87-2.67,8.88,8.88,0,0,1,2.89-1.77A10.5,10.5,0,0,1,180.22,155.1Zm-11.73,27.34a7.37,7.37,0,0,0,.76,3.45,7.71,7.71,0,0,0,2,2.46,8.32,8.32,0,0,0,2.69,1.48,9.41,9.41,0,0,0,2.92.49,13.36,13.36,0,0,0,3.4-.42,13.65,13.65,0,0,0,3-1.14,13.82,13.82,0,0,0,2.57-1.74,17.29,17.29,0,0,0,2.15-2.21l-11.81-11.6a1.92,1.92,0,0,1-.28-.29,15.76,15.76,0,0,0-3.08,1.73,11.77,11.77,0,0,0-2.33,2.22,9.79,9.79,0,0,0-1.46,2.64A8.34,8.34,0,0,0,168.49,182.44Z"/><path class="cls-1" d="M97.57,158.53l-.88-5.65q-2.75,6.47-11.14,6.46-6.94,0-10.77-5t-3.84-14.93q0-20.1,16-20.1,7.1,0,9.36,4V99.46H91.36V98h20.17v59.07h4v1.45Zm-10.16-5.45q.89,2.79,3.26,2.79a5.2,5.2,0,0,0,4.12-2.1c1.16-1.4,1.73-3.47,1.73-6.21V130a11.74,11.74,0,0,0-1.37-5.89,4.38,4.38,0,0,0-4-2.42c-1.78,0-3,1.19-3.63,3.55s-1,6.51-1,12.43v4.2Q86.52,150.3,87.41,153.08Z"/><path class="cls-1" d="M117.26,120.12H137v37h4.52v1.45h-24v-1.45H122V121.57h-4.76Z"/><path class="cls-1" d="M150.83,106.5a18.45,18.45,0,0,0-16.1-9.22c-4.87,0-8.31,1.72-9.8,3.52a8.74,8.74,0,0,0-2.25,6.21,7,7,0,0,0,2.1,5.45,7.52,7.52,0,0,0,5.25,1.9,6,6,0,0,0,4.72-1.74,6.35,6.35,0,0,0,1.57-3.83,4.51,4.51,0,0,0-4.41-4.9h0a3.08,3.08,0,0,1,.5-2.85,3.64,3.64,0,0,1,3.39-1.53c12.64,0,20.5,18.5,21.07,35.9,3,44.89-57.46,89.1-83.19,27.47C69.63,153.17,51,101.56,51,101.56H44.37L23.79,157H20v1.53H32.35V157H26.29l6.22-17.43h16l7.8,23.31c27.11,74.87,104.92,31.92,102-28C157.33,118.4,154.53,112.47,150.83,106.5ZM33.23,137.79l7.59-21.14,7,21.14Z"/></svg>