<svg id="Layer_1" data-name="Layer 1" xmlns="http://www.w3.org/2000/svg" viewBox="0 0 400 300"><defs><style>.cls-1{fill:#ffc310;}.cls-2{fill:#3a3a3a;}</style></defs><title>alphawatches-logo</title><path class="cls-1" d="M159.22,212.44h-31l-12.61-33.88Q100.12,215,71.07,215q-22.51,0-36.79-18.86T20,150.25q0-29.92,15.21-47.6T74.53,85q26.94,0,41.05,30.42l10-27.82h29.3l-22.62,59.23ZM108,148.27q-10.75-27.69-17.31-33.94t-14.34-6.24q-10.75,0-18.61,11.12t-7.85,31.41q0,17.69,7.91,29.49t18.55,11.8q11.75,0,18.92-12.86A162,162,0,0,0,108,148.27Z"/><path class="cls-2" d="M151.52,182.15v-7.49l6.63-1.28V128.66l-6.63-1.29v-7.53h25.8v7.53l-6.67,1.29v43.91h17.59l.6-7.83h9.54v17.41Z"/><path class="cls-2" d="M232.53,119.84q10.71,0,16.89,5.5a18.37,18.37,0,0,1,6.18,14.4q0,9-6.18,14.38t-16.89,5.44H222v13.82l6.67,1.28v7.49h-25.8v-7.49l6.63-1.28V128.66l-6.63-1.29v-7.53h29.65ZM222,149.93h10.52q5.24,0,7.9-2.85a10.18,10.18,0,0,0,2.68-7.25,10.63,10.63,0,0,0-2.68-7.43q-2.67-2.93-7.9-2.93H222Z"/><path class="cls-2" d="M254.29,127.37v-7.53H280.1v7.53l-6.67,1.29v18h25.42v-18l-6.68-1.29v-7.53H318v7.53l-6.68,1.29v44.72l6.68,1.28v7.49H292.17v-7.49l6.68-1.28V156.26H273.43v17.12l6.67,1.28v7.49H254.29v-7.49l6.64-1.28V128.66Z"/><path class="cls-2" d="M320.51,174.66,325,174l19-54.18h12.8L375.55,174l4.45.64v7.49H358.77v-7.49l4.32-.76-2.73-8.57H340.15l-2.74,8.57,4.33.76v7.49H320.51Zm22.6-18.53H357.4l-7-21.95h-.25Z"/><path class="cls-2" d="M151.52,182.15v-7.49l6.63-1.28V128.66l-6.63-1.29v-7.53h25.8v7.53l-6.67,1.29v43.91h17.59l.6-7.83h9.54v17.41Z"/><path class="cls-2" d="M232.53,119.84q10.71,0,16.89,5.5a18.37,18.37,0,0,1,6.18,14.4q0,9-6.18,14.38t-16.89,5.44H222v13.82l6.67,1.28v7.49h-25.8v-7.49l6.63-1.28V128.66l-6.63-1.29v-7.53h29.65ZM222,149.93h10.52q5.24,0,7.9-2.85a10.18,10.18,0,0,0,2.68-7.25,10.63,10.63,0,0,0-2.68-7.43q-2.67-2.93-7.9-2.93H222Z"/><path class="cls-2" d="M254.29,127.37v-7.53H280.1v7.53l-6.67,1.29v18h25.42v-18l-6.68-1.29v-7.53H318v7.53l-6.68,1.29v44.72l6.68,1.28v7.49H292.17v-7.49l6.68-1.28V156.26H273.43v17.12l6.67,1.28v7.49H254.29v-7.49l6.64-1.28V128.66Z"/><path class="cls-2" d="M320.51,174.66,325,174l19-54.18h12.8L375.55,174l4.45.64v7.49H358.77v-7.49l4.32-.76-2.73-8.57H340.15l-2.74,8.57,4.33.76v7.49H320.51Zm22.6-18.53H357.4l-7-21.95h-.25Z"/><path class="cls-2" d="M250.57,192.92l-2.11.16,3.28,13.46.63,3.17h.09l.77-3.17,4.56-14.89h1.62L264,206.54l.75,3.21h.09l.67-3.2,3.24-13.46-2.11-.16v-1.27H272v1.27l-1.56.11-4.83,19.39H264l-4.83-15.93-.54-2.19h-.09l-.51,2.19-4.88,15.93h-1.62L246.71,193l-1.56-.11v-1.27h5.42Z"/><path class="cls-2" d="M268.78,211.17l1.53-.12,7.37-19.4h1.62l7.3,19.4,1.55.12v1.25H283v-1.25l1.82-.15-1.72-4.65H273.8L272.08,211l1.81.15v1.25h-5.11Zm5.59-6.32h8.21l-4-11h-.09Z"/><path class="cls-2" d="M304,191.65V196h-1.51l-.13-2.92h-5.76V211l2.32.19v1.25h-6.36v-1.25l2.32-.19V193.11h-5.76L289,196h-1.53v-4.38Z"/><path class="cls-2" d="M322,198.16H320.7l-.25-3.16a6.19,6.19,0,0,0-2.15-1.59,7.38,7.38,0,0,0-3.07-.6,6.74,6.74,0,0,0-5.53,2.53,10.06,10.06,0,0,0-2.06,6.54v.3a10.13,10.13,0,0,0,2,6.55,6.49,6.49,0,0,0,5.34,2.55,8,8,0,0,0,3.19-.61,5.87,5.87,0,0,0,2.24-1.59l.25-3.15H322v3.65a7.24,7.24,0,0,1-2.83,2.24,9.45,9.45,0,0,1-4.17.9,8.22,8.22,0,0,1-6.54-3,11.24,11.24,0,0,1-2.54-7.58v-.27a11.27,11.27,0,0,1,2.54-7.6,8.3,8.3,0,0,1,6.62-3,9,9,0,0,1,4.13.91A7.33,7.33,0,0,1,322,194.5Z"/><path class="cls-2" d="M324.73,192.92v-1.27h6.35v1.27l-2.32.19v8.3h11.81v-8.3l-2.33-.19v-1.27h6.35v1.27l-2.32.19V211l2.32.19v1.25h-6.35v-1.25l2.33-.19v-8.12H328.76V211l2.32.19v1.25h-6.35v-1.25l2.33-.19V193.11Z"/><path class="cls-2" d="M359.2,202.36h-8.52V211h9.82l.13-3.11h1.51v4.55H346.66v-1.25L349,211V193.11l-2.33-.19v-1.27h15.41v4.57h-1.51l-.13-3.11h-9.75v7.8h8.52Z"/><path class="cls-2" d="M379.67,197.81h-1.4l-.24-2.93a5.08,5.08,0,0,0-2.1-1.53,8.18,8.18,0,0,0-3.1-.54,6.42,6.42,0,0,0-4,1.11,3.38,3.38,0,0,0-1.43,2.77,3.22,3.22,0,0,0,1.29,2.61,12,12,0,0,0,4.47,1.85,12.9,12.9,0,0,1,5.1,2.31A4.74,4.74,0,0,1,380,207.3a4.65,4.65,0,0,1-2,3.95,8.63,8.63,0,0,1-5.18,1.47,10.77,10.77,0,0,1-4.13-.78,8,8,0,0,1-3.12-2.24v-3.64H367l.24,3a6,6,0,0,0,2.41,1.62,8.79,8.79,0,0,0,3.2.56,6.71,6.71,0,0,0,4-1.08,3.38,3.38,0,0,0,1.52-2.87,3.48,3.48,0,0,0-1.27-2.78,11.83,11.83,0,0,0-4.42-1.9,13.84,13.84,0,0,1-5.17-2.23,4.42,4.42,0,0,1-1.75-3.69,4.62,4.62,0,0,1,2-3.88,8.33,8.33,0,0,1,5.15-1.5,9.77,9.77,0,0,1,4,.79,7,7,0,0,1,2.8,2.12Z"/></svg>