<svg id="Layer_1" data-name="Layer 1" xmlns="http://www.w3.org/2000/svg" viewBox="0 0 400 300"><defs><style>.cls-1{fill:#85754e;}.cls-2{fill:#8c9091;}</style></defs><title>aviramtoledo-logo</title><path class="cls-1" d="M247.23,101.23a43.46,43.46,0,0,1-.49-4.88c-.13-2-.31-4-.61-5.83-3.75,0-6.63.09-8.77.31-2.38.18-7.38.26-15.12.26s-13.2-.1-16.83-.31c-3.45-.21-6.15-.3-8.16-.3l-2.39,0A102.92,102.92,0,0,0,193.35,103a1,1,0,0,0,.74.37q.82,0,1-1c.39-1.84,1.87-3.92,4.41-6.27s6.59-3.51,12.21-3.51c.79,0,2.23,0,4.24.16.58,7.84.84,15.79.84,23.85,0,3.67,0,6.75-.05,9.31-7.48-7-17.51-11.06-27.42-12.94-3.89-10.65-7.05-18.48-9.46-23.38h-1.78c-3.34,7.22-6.41,14.78-9.27,22.64-7.13.91-12.77,3.14-15.24,6.31a.87.87,0,0,0,.46,1.17,68.59,68.59,0,0,1,11,2.9c-1.91,5.21-3.4,9.1-4.49,11.6-1.34,3.12-3.24,5.09-5.54,5.81a3.4,3.4,0,0,1-.8.12c-1,0-1.54.27-1.54.74s.3.71.94.71h15.45c1,0,1.51-.24,1.51-.76s-.53-.65-1.6-.65c-3.6,0-5.52-1.93-5.7-4.5s.74-4.28,3.61-12.47c10.52,3.63,22.75,9.28,23.22,13.63,0,1.19-.06,1.27-.27,1.65-.37.74-2.61,1.64-4.65,1.64-1.22,0-1.85.23-1.85.75s.33.71,1,.71h20c1,0,1.48-.24,1.48-.76s-.51-.65-1.57-.65c-3.76-.06-4.55-1.59-6.12-4.11q-1.93-3.94-6.23-16c-.66-1.88-1.32-3.68-2-5.42,11.65,2.49,22.61,8.67,26.21,20.76a6.47,6.47,0,0,1-1.82,3,7.15,7.15,0,0,1-5,1.73c-1.19,0-1.84.23-1.84.75s.36.71,1,.71h24c1,0,1.49-.24,1.49-.76s-.5-.65-1.57-.65c-4.42,0-6.94-1.51-7.65-4.5s-1.07-12.82-1.07-29.5c0-5,.12-9.53.42-13.43a88.81,88.81,0,0,1,10.88.61,11.19,11.19,0,0,1,4.89,2.08,18.62,18.62,0,0,1,4.21,4.78,18.83,18.83,0,0,0,1.49,2.2,1.28,1.28,0,0,0,.86.34c.51,0,.81-.33.81-.94,0-.24,0-.45,0-.66m-70.67-3.09c.69,1.86,2.09,5.43,4.21,10.77l1.22,3.15a67.54,67.54,0,0,0-11.21,0c2.13-5.76,4.06-10.43,5.78-13.94m-20.05,19.94c2-1.84,6.3-3.32,11.75-4.12-.08.19-.14.37-.2.56-.68,1.94-1.33,3.73-1.94,5.41a84,84,0,0,0-9.61-1.85m28.3,1.59.7,2.16,2,5.77a98.91,98.91,0,0,0-19.58-7.21l.21-.72c.72-2.09,1.42-4.06,2.1-5.94a64.42,64.42,0,0,1,12.38-.09c.89,2.34,1.65,4.36,2.23,6"/><path class="cls-2" d="M34.46,152.72h1q2.48,5.07,6.83,17.37a76.74,76.74,0,0,0,3.84,9.61,4.1,4.1,0,0,0,3.36,2c.49.06.74.18.74.45s-.13.33-.39.33h-.3c-1.37-.12-3.09-.19-5.19-.19a59.12,59.12,0,0,0-6.2.19c-.46,0-.69-.16-.69-.41s.17-.3.51-.36a7,7,0,0,0,2.61-.63,1.7,1.7,0,0,0,.72-1.47,21.75,21.75,0,0,0-1.36-4.8l-1.3-3.8q-1.15,0-10.3.15c-1.54,4.07-2.31,6.68-2.31,7.75a2.2,2.2,0,0,0,1.14,2,5.17,5.17,0,0,0,2.24.73c.55,0,.83.18.83.49,0,.1-.09.23-.27.35-2.36-.13-3.78-.19-4.27-.19-2.48,0-4.16,0-5,.11-.47,0-.71-.16-.71-.41s.21-.39.62-.46c1.71-.19,3-1.37,3.9-3.44s2.3-5.82,4.21-11.24c1.75-4.92,3.65-9.62,5.73-14.14m-.88,4.84a112.33,112.33,0,0,0-4.83,12.22c1.53-.06,2.62-.1,3.29-.1l6.22.1c-.55-1.53-1.31-3.56-2.3-6.11-1.21-3-2-5.06-2.38-6.11"/><path class="cls-2" d="M57.85,182.3H56.54c-.69-2.25-1.79-5.27-3.28-9.12l-4.19-10.79a48.1,48.1,0,0,0-2.71-6.25,4.73,4.73,0,0,0-1.5-1.67,4.28,4.28,0,0,0-2.06-.56c-.37,0-.55-.16-.55-.41s.18-.43.55-.43H54.41c.73,0,1.09.15,1.09.38s-.24.51-.71.51c-1.95,0-2.92.83-2.92,2.48a10.22,10.22,0,0,0,.26,1.9,25.46,25.46,0,0,0,.92,3.22c.43,1.28,1.37,3.88,2.82,7.83s2.35,6.36,2.75,7.23l4.74-13.13c1.36-3.73,2-6.05,2-7,0-1.55-1-2.4-2.88-2.56-.38,0-.58-.17-.58-.43a.32.32,0,0,1,.21-.32,4.74,4.74,0,0,1,1.24-.09h7.4a6.48,6.48,0,0,1,1.2.06.3.3,0,0,1,.22.32c0,.28-.3.46-.87.53a3.88,3.88,0,0,0-2.49,1.21,15.18,15.18,0,0,0-1.6,2.3q-.77,1.35-4.08,10.69c-.78,2.17-2.56,6.91-5.32,14.12"/><path class="cls-2" d="M74,153.07l4,.1,6.2-.1c.74,0,1.11.17,1.11.46s-.2.36-.6.43c-1.64.18-2.67.79-3.07,1.75s-.61,4.58-.61,10.83c0,2.29.06,4.85.18,7.73a36.47,36.47,0,0,0,.4,5.11,2.45,2.45,0,0,0,.84,1.37,4.2,4.2,0,0,0,2.3.76c.37.05.56.22.56.44s-.17.4-.51.4l-5.51,0-4.68.08c-.52,0-.78-.17-.78-.46s.21-.47.62-.47c1.38,0,2.18-.46,2.42-1.38a53.87,53.87,0,0,0,.35-8.46q0-6.93-.12-11.18c-.08-2.86-.33-4.6-.72-5.25a3,3,0,0,0-2.26-1.2c-.41,0-.62-.22-.62-.5s.15-.41.46-.41"/><path class="cls-2" d="M104.85,167.46a11.13,11.13,0,0,1,4.27,2.79,9.58,9.58,0,0,1,1.77,4.5c.51,2.64,1.2,4.43,2.08,5.32a4.82,4.82,0,0,0,3.47,1.47c.39,0,.59.2.59.45s-.22.39-.69.39a38.63,38.63,0,0,1-7.52-.42c-.88-.26-1.53-1.79-2-4.52a33.44,33.44,0,0,0-1.25-5.87,5.67,5.67,0,0,0-2.09-2.85,8.09,8.09,0,0,0-4.45-1,14.56,14.56,0,0,0-2.62.26c-.07.9-.11,1.88-.11,2.88,0,3.81,0,6.26.15,7.38a4,4,0,0,0,1,2.43,3.93,3.93,0,0,0,2.62.76c.54,0,.8.17.8.4s-.33.44-1,.44h-11c-.64,0-1-.15-1-.44s.25-.4.75-.4a4,4,0,0,0,2.33-.47,3.34,3.34,0,0,0,1-1.62,13,13,0,0,0,.38-3.88l0-4.5,0-6.87a67.38,67.38,0,0,0-.23-7,4.15,4.15,0,0,0-.83-2.29,5.6,5.6,0,0,0-2.78-.89c-.3-.06-.46-.17-.46-.38s.31-.36.94-.36l13.11-.3c3.61,0,6.23.71,7.88,2.1a6.42,6.42,0,0,1,2.44,5.09,6.5,6.5,0,0,1-1,3.47,6.13,6.13,0,0,1-2.34,2.28,30,30,0,0,1-4.34,1.62m-8.4-.57a34,34,0,0,0,6.38-.61,6.86,6.86,0,0,0,3.63-2.23,6.1,6.1,0,0,0,1.49-4.11,6.4,6.4,0,0,0-1.66-4.36c-1.11-1.24-2.84-1.67-5.27-1.67a20.29,20.29,0,0,0-4.45.49c-.18,4.06-.27,7.15-.27,9.56,0,.84,0,1.8.15,2.93"/><path class="cls-2" d="M132.17,152.72h1A181.93,181.93,0,0,1,140,170.09a75.51,75.51,0,0,0,3.86,9.61,4,4,0,0,0,3.34,2c.5.06.73.18.73.45s-.11.33-.37.33h-.31c-1.35-.12-3.07-.19-5.17-.19a59.22,59.22,0,0,0-6.21.19c-.46,0-.69-.16-.69-.41s.17-.3.51-.36a6.82,6.82,0,0,0,2.6-.63,1.68,1.68,0,0,0,.72-1.47,21.81,21.81,0,0,0-1.34-4.8l-1.32-3.8c-.76,0-4.2,0-10.29.15-1.54,4.07-2.31,6.68-2.31,7.75a2.2,2.2,0,0,0,1.14,2,5.13,5.13,0,0,0,2.25.73c.55,0,.81.18.81.49,0,.1-.08.23-.26.35-2.36-.13-3.79-.19-4.27-.19-2.49,0-4.15,0-5,.11-.46,0-.7-.16-.7-.41s.2-.39.62-.46c1.69-.19,3-1.37,3.9-3.44s2.31-5.82,4.22-11.24c1.74-4.92,3.65-9.62,5.71-14.14m-.89,4.84a111.27,111.27,0,0,0-4.8,12.22c1.52-.06,2.61-.1,3.28-.1l6.22.1c-.54-1.53-1.31-3.56-2.3-6.11-1.21-3-2-5.06-2.4-6.11"/><path class="cls-2" d="M158.4,153.3c1.47,3.25,2.87,6.1,4.16,8.57,1.54,3,2.76,5.45,3.63,7.42a56.55,56.55,0,0,0,3,5.83,179.81,179.81,0,0,0,10.67-21.82l8.8,0c.33.06.48.19.48.43s-.18.36-.53.37a5.62,5.62,0,0,0-3.14.94,4.06,4.06,0,0,0-1,2.5c-.11,1.15-.22,3.34-.36,6.51S184,169.9,184,172c0,4.08,0,6.43.1,7.09a2.41,2.41,0,0,0,.75,1.64,5,5,0,0,0,2.6.83c.37.07.56.23.56.44s-.24.33-.7.33l-8.61,0h-2.27c-.51,0-.74-.14-.74-.35s.16-.33.5-.39a5.63,5.63,0,0,0,2.47-.68,2.86,2.86,0,0,0,.92-1.56,33.64,33.64,0,0,0,.29-5.69l.42-10.66.21-5.25c0-.41,0-.6-.18-.6s-.32.13-.43.35l-4.39,8.67c-2.81,5.55-4.53,9.08-5.18,10.66l-1.37,3.32a11.56,11.56,0,0,1-.77,1.68.44.44,0,0,1-.32.15c-.18,0-.32-.17-.43-.56a93.29,93.29,0,0,0-4.11-8.74q-1.94-4.16-4.63-9.48c-1.78-3.55-2.77-5.39-2.91-5.54s-.26-.25-.33-.25-.23.19-.23.56l-.23,13.41-.07,4.46c0,2.34.32,3.87,1,4.58a3.56,3.56,0,0,0,2.77,1.07c.75,0,1.14.19,1.14.51s-.19.36-.56.36l-.46,0-1.44,0-3.12,0c-1.35,0-3.1.09-5.25.21a.43.43,0,0,1-.27-.36c0-.29.26-.41.78-.43a4,4,0,0,0,3.25-1.47c.7-.92,1.05-3,1.05-6.25l0-3.9.3-9.9c0-2.31-.33-3.88-1-4.73a4.37,4.37,0,0,0-3-1.51c-.57-.08-.84-.23-.84-.47s.19-.4.61-.4l.8,0Z"/><path class="cls-2" d="M217.76,154.52c-1.11,0-1.94-.08-2.44-.08-3.19,0-5.48.66-6.92,2a8.11,8.11,0,0,0-2.52,3.57c-.08.37-.25.56-.57.56a.62.62,0,0,1-.43-.22,58.92,58.92,0,0,1,.89-7.1l1.35,0c1.13,0,2.67.06,4.64.18s5.27.18,9.52.18c4.43,0,7.31-.07,8.63-.16a47.53,47.53,0,0,1,5-.17c.15,1.06.29,2.14.36,3.32a19.15,19.15,0,0,0,.25,2.76,2.3,2.3,0,0,1,0,.38c0,.35-.18.53-.48.53a.62.62,0,0,1-.45-.19,10,10,0,0,1-.86-1.25,11.1,11.1,0,0,0-2.38-2.71,6.53,6.53,0,0,0-2.77-1.2,53.41,53.41,0,0,0-6.22-.35c-.14,2.25-.25,4.78-.25,7.65,0,9.48.19,15.06.59,16.79s1.88,2.5,4.38,2.5c.59,0,.88.15.88.38s-.27.46-.83.46H213.53c-.36,0-.56-.15-.56-.43s.35-.42,1-.42a4,4,0,0,0,2.82-1,4,4,0,0,0,1.26-2.64c.08-1.14.15-4.38.15-9.74,0-4.58-.15-9.09-.48-13.56"/><path class="cls-2" d="M234.86,167.63a14.35,14.35,0,0,1,1.83-6.58,15,15,0,0,1,5.29-5.9,13.81,13.81,0,0,1,7.86-2.33A13.11,13.11,0,0,1,260,157.2a14.29,14.29,0,0,1,4,10,15.3,15.3,0,0,1-4.44,10.71,14,14,0,0,1-10.64,4.78,13.48,13.48,0,0,1-10-4.16,15.11,15.11,0,0,1-4-10.92m4.95-.73a26.5,26.5,0,0,0,1.11,7.42,9.63,9.63,0,0,0,3.47,5.51,8.2,8.2,0,0,0,5,1.71c2.93,0,5.23-1.42,7-4.25a18.19,18.19,0,0,0,2.65-9.81,17.1,17.1,0,0,0-2.67-9.5,8.09,8.09,0,0,0-7-4.1,7.38,7.38,0,0,0-5.4,2.19,12.74,12.74,0,0,0-3.17,5.22,18.42,18.42,0,0,0-1,5.61"/><path class="cls-2" d="M287.31,182.43l-1.23.06c-.55,0-1.55,0-3-.09s-4.4-.1-8.92-.1h-5.64c-.21,0-.94,0-2.28.13s-2.1.08-2.37.08c-1.13,0-1.66-.12-1.66-.4s.19-.37.65-.39a4.66,4.66,0,0,0,3-1,3.75,3.75,0,0,0,1.14-2.22,52,52,0,0,0,.31-8l0-7.95a26,26,0,0,0-.34-5.38,3.8,3.8,0,0,0-1.42-2.34,4.45,4.45,0,0,0-2.42-.93c-.46,0-.71-.19-.71-.47s.25-.42.64-.42l.61,0c2.33.17,5.06.23,8.21.23l3.9-.06c.41,0,.6.16.6.44s-.21.41-.65.41a5,5,0,0,0-2.59.61,3.08,3.08,0,0,0-1.4,1.43,8.74,8.74,0,0,0-.34,3.16l-.21,10.47,0,5.85a17.85,17.85,0,0,0,.23,3.56,3.25,3.25,0,0,0,1,1.48,4,4,0,0,0,2.63.65l4-.16a9,9,0,0,0,5.43-2.94,14.28,14.28,0,0,0,3.22-4.57c.19-.38.36-.59.6-.59s.37.19.37.55a44.3,44.3,0,0,1-.64,4.42c-.42,2.57-.68,4-.78,4.4"/><path class="cls-2" d="M312.94,153.58a69.83,69.83,0,0,1,1.28,6.94q-.14.18-.24.18a.5.5,0,0,1-.34-.18,19.35,19.35,0,0,0-2.91-3.75,9.65,9.65,0,0,0-2.81-1.81,15.07,15.07,0,0,0-4.84-.55,26.17,26.17,0,0,0-5.14.39,1.4,1.4,0,0,0-.15.81c0,.1,0,.27-.05.55-.18,1.17-.25,4.38-.25,9.59,0,.23,0,.53,0,.93,1.14.06,1.92.08,2.34.08a7.35,7.35,0,0,0,4-.85,6.6,6.6,0,0,0,2.19-3.58c.13-.31.24-.47.46-.47s.41.2.41.65l-.09.88a30.24,30.24,0,0,0-.2,3.61c0,2,0,3.83.13,5.44,0,.52-.15.76-.42.76s-.33-.18-.41-.54a5.89,5.89,0,0,0-1.94-3.77c-1-.75-3.14-1.14-6.49-1.14,0,1.08,0,2.82,0,5.24a29.52,29.52,0,0,0,.34,5.94,3.33,3.33,0,0,0,1.59,2,8.73,8.73,0,0,0,4.29.75c5.73,0,9.45-2,11.1-5.93.23-.52.44-.73.65-.73s.35.12.35.46a2.91,2.91,0,0,1-.09.6c-.1.27-.32,1.32-.66,3.14-.06.39-.36,1.53-.83,3.45l-9.3,0c-1.33,0-3.26-.06-5.86-.14s-4.84-.19-6.85-.2a16.76,16.76,0,0,1-3.12-.14.25.25,0,0,1-.1-.23c0-.29.22-.46.73-.46,1.63,0,2.71-.38,3.21-1.29s.77-2.95.77-6.36l0-4.53.07-4.26c0-.84-.05-2.46-.14-4.84a30.34,30.34,0,0,0-.28-4.09,1.86,1.86,0,0,0-.68-1,6.69,6.69,0,0,0-2.49-1c-.38-.12-.56-.28-.56-.49s.24-.4.79-.4l4.51.22q2.37.14,11.75.14c4.13,0,6.22,0,6.29,0"/><path class="cls-2" d="M326.35,153.32l4.57-.07c5.79,0,10.14,1.4,13.1,4.21a13.93,13.93,0,0,1,4.43,10.59,14.38,14.38,0,0,1-2.13,7.9A14.23,14.23,0,0,1,341,181a18.38,18.38,0,0,1-8.51,1.7c-.81,0-1.81-.06-3.05-.16-2.16-.15-3.41-.25-3.66-.25-4.83,0-7.69.06-8.57.16-.46,0-.73-.12-.73-.36a.3.3,0,0,1,.29-.34,11.42,11.42,0,0,1,1.63-.3,3.2,3.2,0,0,0,2.5-1.42c.45-.74.78-3.19.87-7.31l.35-11.72a26.14,26.14,0,0,0-.27-3.92,4.33,4.33,0,0,0-.86-2.46,3.46,3.46,0,0,0-1.85-.72c-.62-.11-1-.28-1-.52s.15-.48.46-.48,1.22.08,2.71.19,3.18.19,5,.19m-.77,21.43a15.87,15.87,0,0,0,.39,4.17,4,4,0,0,0,1.69,2.05,7.9,7.9,0,0,0,4.07.82,10.66,10.66,0,0,0,6.53-1.92,12.39,12.39,0,0,0,3.91-5.09,16.12,16.12,0,0,0,1.41-6.73,15.38,15.38,0,0,0-3.22-9.53q-3.19-4.28-10-4.28a16.08,16.08,0,0,0-3.51.2c-.32.13-.52.53-.52,1.17s-.05,1.6-.12,3.08c-.18,2.15-.27,3.85-.31,5.06l-.2,6.08c-.09,2.84-.14,4.5-.14,4.92"/><path class="cls-2" d="M350.86,167.63a15,15,0,0,1,1.81-6.58,15.64,15.64,0,0,1,5.31-5.9,13.93,13.93,0,0,1,7.89-2.33A13.19,13.19,0,0,1,376,157.2a14.45,14.45,0,0,1,4,10,15.22,15.22,0,0,1-4.44,10.71,14,14,0,0,1-10.65,4.78,13.4,13.4,0,0,1-10-4.16,15.13,15.13,0,0,1-4-10.92m4.93-.73a26.16,26.16,0,0,0,1.12,7.42,10,10,0,0,0,3.46,5.51,8.4,8.4,0,0,0,5.08,1.71c2.92,0,5.22-1.42,7-4.25a18.36,18.36,0,0,0,2.64-9.81,17,17,0,0,0-2.69-9.5,8.06,8.06,0,0,0-7-4.1,7.28,7.28,0,0,0-5.4,2.19,13,13,0,0,0-3.17,5.22,17.67,17.67,0,0,0-1,5.61"/><path class="cls-1" d="M22.76,191.5c0,.13.11.17.3.19.85.1,1.31.43,1.39,1s.12,2.32.12,5.2c0,2.33,0,3.89-.09,4.6a2.34,2.34,0,0,1-.55,1.53,1.64,1.64,0,0,1-1.21.53.75.75,0,0,1-.53-.2.45.45,0,0,1-.21-.41.83.83,0,0,1,.18-.43,1.23,1.23,0,0,0,.11-.43.76.76,0,0,0-.23-.56.87.87,0,0,0-.63-.26.93.93,0,0,0-.66.28,1.09,1.09,0,0,0-.26.74,1.46,1.46,0,0,0,.63,1.26,2.65,2.65,0,0,0,1.55.43,3.83,3.83,0,0,0,2.42-1,3.93,3.93,0,0,0,1.23-3.23v-3.8c0-1.1,0-2.16.08-3.14a3.25,3.25,0,0,1,.42-1.78,1.76,1.76,0,0,1,1.16-.33q.27,0,.27-.18c0-.15-.1-.22-.32-.22h-.51c-.39,0-.84,0-1.36,0-1.2,0-2.14,0-2.88-.07H23c-.16,0-.25,0-.25.23m19.1,8.34c.48,0,.74,0,.78-.11s.08-.15.08-.32a3.36,3.36,0,0,0-1.13-2.49,3.6,3.6,0,0,0-2.52-1,3.83,3.83,0,0,0-2.79,1.38,4.66,4.66,0,0,0-1.3,3.37,4.35,4.35,0,0,0,1.18,3.11,3.78,3.78,0,0,0,2.9,1.24,4.66,4.66,0,0,0,2.12-.49,3.07,3.07,0,0,0,1.34-1.24c0-.16-.07-.27-.17-.27s-.19.12-.4.28a3.33,3.33,0,0,1-2.31,1,2.69,2.69,0,0,1-2.13-1,3.7,3.7,0,0,1-.87-2.47c0-.21,0-.48,0-.83ZM37.65,197a2.3,2.3,0,0,1,1.48-.74,1.93,1.93,0,0,1,1.4.67,2.11,2.11,0,0,1,.6,1.49.94.94,0,0,1-.33.8,1.82,1.82,0,0,1-1,.22l-.55,0c-.84,0-1.7,0-2.6-.06a4.19,4.19,0,0,1,1-2.41m15.44.08c0-.24.25-.44.74-.5.27,0,.4-.12.4-.29s-.09-.11-.29-.11l-1,0-2.33,0c-.32,0-.47,0-.47.21s.12.17.35.18a.74.74,0,0,1,.49.2,4.18,4.18,0,0,1,.67,1.19l1.17,2.74c.48,1.12,1,2.4,1.56,3.85.12.28.23.43.31.43a.18.18,0,0,0,.14-.05,10.51,10.51,0,0,0,.54-1.27l1.07-2.59c.4-1,.69-1.75.89-2.38l.07,0c.31.86.81,2.11,1.5,3.66.51,1.2.81,1.9.89,2.1.13.35.23.55.32.55s.16-.09.22-.27l1-2.61c.61-1.64,1-2.73,1.18-3.4a5.56,5.56,0,0,1,.59-1.49,1.66,1.66,0,0,1,.77-.62c.28-.1.42-.22.42-.33s-.07-.11-.2-.13a5.47,5.47,0,0,0-.89,0q-1.05,0-1.38,0c-.22,0-.33.09-.33.14s.12.25.38.28c.44,0,.67.22.67.57a12.29,12.29,0,0,1-.58,2c-.37,1.18-.79,2.36-1.26,3.49l-1.25-2.84c-.38-.9-.63-1.52-.76-1.9a3.13,3.13,0,0,1-.19-.67c0-.25.2-.48.62-.6.22-.07.33-.17.33-.28s-.05-.11-.16-.13-.6,0-1.48,0l-1.83.05c-.18,0-.27,0-.27.2s.08.19.25.2a.9.9,0,0,1,.54.12,1.26,1.26,0,0,1,.37.5,1.32,1.32,0,0,1,.19.7,23.79,23.79,0,0,1-1.77,4.84,36.91,36.91,0,0,1-2.21-5.66m25.6,2.79c.48,0,.74,0,.78-.11s.07-.15.07-.32a3.33,3.33,0,0,0-1.13-2.49,3.58,3.58,0,0,0-2.51-1,3.83,3.83,0,0,0-2.79,1.38,4.67,4.67,0,0,0-1.31,3.37A4.36,4.36,0,0,0,73,203.73,3.8,3.8,0,0,0,75.9,205a4.65,4.65,0,0,0,2.11-.49,3.07,3.07,0,0,0,1.34-1.24c0-.16-.07-.27-.18-.27s-.18.12-.39.28a3.31,3.31,0,0,1-2.31,1,2.68,2.68,0,0,1-2.13-1,3.65,3.65,0,0,1-.87-2.47c0-.21,0-.48,0-.83ZM74.48,197a2.3,2.3,0,0,1,1.47-.74,1.89,1.89,0,0,1,1.4.67,2.07,2.07,0,0,1,.6,1.49.89.89,0,0,1-.33.8,1.78,1.78,0,0,1-1,.22l-.55,0q-1.26,0-2.61-.06a4.26,4.26,0,0,1,1-2.41m15.7-6.38a10.24,10.24,0,0,1-2.83.48c-.22,0-.33.09-.33.2s.14.17.41.22a1.58,1.58,0,0,1,1,.48,1.42,1.42,0,0,1,.43.91c0,.38.07,1.52.07,3.37l0,5.91a4,4,0,0,1-.29,1.76,1.33,1.33,0,0,1-1.24.56c-.18,0-.28.08-.28.17s.11.22.32.22l.2,0a7.87,7.87,0,0,1,1.44-.11,20.58,20.58,0,0,1,2.54.13h.18c.18,0,.26-.07.26-.21s-.1-.14-.33-.17a1.43,1.43,0,0,1-1.09-.48,2.4,2.4,0,0,1-.24-1.26l0-3.1,0-6.45c0-.87,0-1.72-.06-2.62ZM102.62,196l-1.89.12-.94.08c-.05,0-.08.06-.08.14s.12.2.37.21c.6,0,1,.27,1,.7a33.29,33.29,0,0,1,.13,4.08,10.92,10.92,0,0,1-.15,2.64c-.1.28-.37.37-.8.41s-.47.09-.47.22.12.14.35.14h3.3c.32,0,.48-.08.48-.19s-.07-.16-.18-.17c-.46-.07-.74-.15-.85-.38a7.44,7.44,0,0,1-.16-2.27,13.71,13.71,0,0,1,.18-2.89,2.74,2.74,0,0,1,.73-1.25,1.58,1.58,0,0,1,1.06-.61,1,1,0,0,1,.87.69c.18.36.41.58.68.58.54,0,.83-.32.83-1a1.24,1.24,0,0,0-.42-.93,1.38,1.38,0,0,0-1-.42,2.46,2.46,0,0,0-1.54.62,5.29,5.29,0,0,0-1.39,1.73c-.06-1.12-.12-1.87-.17-2.25m15.79,1.24c0-.38.28-.67.82-.79.3-.09.44-.2.44-.27s-.07-.23-.24-.23l-.31.05a17,17,0,0,1-2,.07,9.39,9.39,0,0,1-1.38-.09l-.24,0a.21.21,0,0,0-.24.24c0,.07.12.16.34.2a1.08,1.08,0,0,1,.68.41,12.84,12.84,0,0,1,1.19,2.37c.57,1.34,1.1,2.63,1.57,3.75a8.8,8.8,0,0,1,.71,2.43,5.31,5.31,0,0,1-.92,2.45c-.6,1-1.16,1.56-1.65,1.56-.32,0-.49-.17-.51-.54a.82.82,0,0,0-.92-.87,1,1,0,0,0-1,1,1.39,1.39,0,0,0,.47,1,1.64,1.64,0,0,0,1.27.45,2.54,2.54,0,0,0,1.6-.6,5.93,5.93,0,0,0,1.55-2.23c.5-1.08,1.17-2.82,2-5.22s1.42-4,1.74-4.7a2,2,0,0,1,1.31-1.2c.18,0,.27-.14.27-.2s-.08-.21-.25-.21a2,2,0,0,0-.3,0c-.3,0-.91.05-1.83.05h-.66l-.54,0c-.17,0-.24.06-.24.19s.09.17.29.2c.72.07,1.08.38,1.08.92a6.33,6.33,0,0,1-.32,1.76c-.22.74-.69,2.12-1.45,4.16a50,50,0,0,1-2.35-6m27.73-.19c0-.24.23-.44.73-.5.27,0,.4-.12.4-.29s-.09-.11-.29-.11l-1,0-2.33,0c-.32,0-.48,0-.48.21s.13.17.35.18a.79.79,0,0,1,.5.2,4.18,4.18,0,0,1,.67,1.19l1.17,2.74c.47,1.12,1,2.4,1.56,3.85.12.28.22.43.31.43a.2.2,0,0,0,.14-.05s.22-.47.55-1.27l1.06-2.59c.39-1,.7-1.75.89-2.38l.07,0c.31.86.81,2.11,1.5,3.66.51,1.2.8,1.9.88,2.1.14.35.24.55.34.55s.16-.09.2-.27l1-2.61c.6-1.64,1-2.73,1.18-3.4a5.84,5.84,0,0,1,.6-1.49,1.56,1.56,0,0,1,.75-.62c.29-.1.43-.22.43-.33s-.08-.11-.2-.13a5.47,5.47,0,0,0-.89,0c-.7,0-1.15,0-1.38,0s-.33.09-.33.14.12.25.39.28.65.22.65.57a11.7,11.7,0,0,1-.57,2c-.38,1.18-.79,2.36-1.27,3.49l-1.25-2.84c-.37-.9-.63-1.52-.75-1.9a3.13,3.13,0,0,1-.19-.67c0-.25.21-.48.6-.6.24-.07.35-.17.35-.28s0-.11-.17-.13-.59,0-1.47,0l-1.84.05c-.18,0-.25,0-.25.2s.06.19.23.2a.86.86,0,0,1,.54.12,1.18,1.18,0,0,1,.38.5,1.41,1.41,0,0,1,.19.7,24.51,24.51,0,0,1-1.77,4.84,37.44,37.44,0,0,1-2.2-5.66m20.05-5.94a.93.93,0,0,0-.26.69.83.83,0,0,0,.3.69,1,1,0,0,0,.7.23.73.73,0,0,0,.69-.28,1,1,0,0,0,.27-.68.83.83,0,0,0-.31-.62.93.93,0,0,0-.7-.28.89.89,0,0,0-.69.25m.24,4.87a6.66,6.66,0,0,0-1.23.15c-.06.05-.07.07-.07.11s.07.19.23.19a1.33,1.33,0,0,1,1,.34,4.15,4.15,0,0,1,.26,2l-.08,4.28a1.84,1.84,0,0,1-.16,1c-.1.15-.35.2-.73.24s-.56.16-.56.3.06.16.23.16a.66.66,0,0,0,.21,0,12.41,12.41,0,0,1,1.84-.09,11.56,11.56,0,0,1,1.78.14l.18,0c.15,0,.21-.07.21-.18s-.19-.21-.56-.24a1.41,1.41,0,0,1-.72-.2,1.33,1.33,0,0,1-.25-1V200.4l0-2.17v-2.36c-.29,0-.82,0-1.59.11m16.68.7c.11-.1.14-.27.15-.58,0-.11-.21-.16-.58-.16l-2.27,0V194.4c0-.35,0-.67,0-1a.71.71,0,0,0,0-.16c0-.22,0-.28-.19-.28s-.18.08-.21.36a3.07,3.07,0,0,1-1.19,2.12,8.26,8.26,0,0,1-1.41.88c-.17.06-.25.15-.25.21s.07.16.24.17l.6,0a8.48,8.48,0,0,1,1,.09c-.14,2.46-.18,4.19-.18,5.19a3.92,3.92,0,0,0,.53,2.21,1.89,1.89,0,0,0,1.58.71,2.9,2.9,0,0,0,1.78-.54c.5-.36.74-.61.74-.8a.11.11,0,0,0-.12-.11,1.71,1.71,0,0,0-.29.11,2.29,2.29,0,0,1-1.22.41,1.35,1.35,0,0,1-1.16-.48,4.11,4.11,0,0,1-.42-2.23c0-1.48.06-3,.16-4.47,1.43-.12,2.34-.18,2.7-.18m10.55-.86,0-5.17q-1.19.09-2.19.09a4.09,4.09,0,0,0-.66,0s-.07.05-.07.11.11.13.3.18a1.23,1.23,0,0,1,.79.65,4,4,0,0,1,.37,1.83c0,.85,0,2.62,0,5.28,0,1.52,0,2.73-.11,3.71a4.54,4.54,0,0,1-.32,1.68,1.33,1.33,0,0,1-.67.27c-.16,0-.23.09-.23.16s.09.17.31.17.72,0,1.15,0l2.08,0c.16,0,.26-.07.26-.18s-.1-.14-.27-.17c-.4-.1-.67-.24-.74-.53a5.42,5.42,0,0,1-.15-1.68c0-1.23,0-2.3.13-3.2a3.14,3.14,0,0,1,.79-2,2.1,2.1,0,0,1,1.56-.68,1.64,1.64,0,0,1,1.47.82,7.08,7.08,0,0,1,.56,3.53,21.24,21.24,0,0,1-.13,3.07c-.11.32-.38.48-.87.55-.17,0-.24.1-.24.21s.06.11.17.14h3.07c.29,0,.42-.07.42-.15s-.06-.15-.28-.15a1.49,1.49,0,0,1-.5-.19.81.81,0,0,1-.3-.51,15.68,15.68,0,0,1,0-1.58l.07-2.77a4.11,4.11,0,0,0-.73-2.74,2.82,2.82,0,0,0-2.08-.78,3.74,3.74,0,0,0-3,1.56c0-.45,0-1,0-1.61M220,191.3c0,.15.12.25.28.29a1.19,1.19,0,0,1,1,.53,5.77,5.77,0,0,1,.33,2.43c0,1.32.07,3.06.07,5.19a35.71,35.71,0,0,1-.13,4c-.13.43-.51.62-1.14.63-.22,0-.27.09-.27.26s.07.18.36.18l2.13,0,2.58,0c.19,0,.23-.08.23-.16s0-.21-.25-.23a2.31,2.31,0,0,1-1.08-.35,1.49,1.49,0,0,1-.4-.63c0-.25-.09-1.06-.15-2.38s-.1-2.55-.1-3.62a25.57,25.57,0,0,1,.27-5.05,1.67,1.67,0,0,1,1.43-.79c.23,0,.28-.11.28-.23s-.15-.18-.49-.18l-2.9,0-1.89,0c-.12,0-.21.08-.21.15m15.17,4.64-.86,0c-.18,0-.3.08-.3.21s.16.17.41.25a1,1,0,0,1,.68.53,5.61,5.61,0,0,1,.24,2.29c0,1.29,0,2.39,0,3.29a3.16,3.16,0,0,1-.24,1.51.81.81,0,0,1-.62.32c-.32.07-.52.18-.52.3s.18.15.47.15l.85,0q1.62,0,1.86,0l.58,0a.18.18,0,0,0,.2-.17c0-.08-.09-.16-.21-.17-.5-.07-.8-.21-.94-.48a7.18,7.18,0,0,1-.15-1.76,8.21,8.21,0,0,1,.82-4.31,2.25,2.25,0,0,1,2-1.35,1.78,1.78,0,0,1,1.35.72,5.31,5.31,0,0,1,.54,2.91c0,.55,0,1.24,0,2a7.08,7.08,0,0,1-.14,1.51,1.31,1.31,0,0,1-.23.36,2.08,2.08,0,0,1-.75.24c-.16,0-.24.1-.24.19s.15.14.39.14c.64,0,1.27-.06,1.8-.06a7.26,7.26,0,0,1,1.4.09h.17a.13.13,0,0,0,.14-.12c0-.09-.08-.18-.36-.27a1,1,0,0,1-.68-.39,2.93,2.93,0,0,1-.12-1.16l0-3.47a4.78,4.78,0,0,0-.35-2.2,2,2,0,0,0-1-.93,3.57,3.57,0,0,0-1.35-.26,3.23,3.23,0,0,0-1.68.53,5.1,5.1,0,0,0-1.42,1.49,7.21,7.21,0,0,0-.29-2.06l-1.39,0m23,5.14a1.77,1.77,0,0,0-.6-.75,6.45,6.45,0,0,0-1.47-.79c-1.17-.54-1.81-.87-1.95-.93s-.22-.29-.37-.45a1.08,1.08,0,0,1-.18-.64,1.19,1.19,0,0,1,.45-1,2,2,0,0,1,1.25-.36,2,2,0,0,1,1,.23,2,2,0,0,1,.88,1,5.83,5.83,0,0,1,.51,1.06c.08.19.17.29.23.29s.21-.11.21-.33,0-.82-.08-1.36a2.87,2.87,0,0,0-.13-.89c0-.06,0-.09-.1-.09a.72.72,0,0,0-.23.12c-.07.14-.12.2-.2.2a.47.47,0,0,1-.28-.09,4.14,4.14,0,0,0-1.88-.5,2.69,2.69,0,0,0-1.94.71,2.16,2.16,0,0,0-.81,1.76,2.73,2.73,0,0,0,.24,1,2,2,0,0,0,.71.73,14.65,14.65,0,0,0,1.81.9c1.29.56,2,1.23,2,2a1.39,1.39,0,0,1-.51,1.19,2.06,2.06,0,0,1-1.25.44,2.33,2.33,0,0,1-1.7-.84,8,8,0,0,1-1.12-2c0-.15-.07-.23-.16-.23s-.2.15-.2.39,0,.57,0,1.17,0,1.15,0,1.32.08.29.18.29.18-.09.32-.28.17-.19.3-.19a1.8,1.8,0,0,1,.63.23,4.65,4.65,0,0,0,1.72.48,2.89,2.89,0,0,0,2.1-.89,2.58,2.58,0,0,0,.92-2,2.14,2.14,0,0,0-.25-.95m9.37-5.13a2.9,2.9,0,0,0-.95.08.2.2,0,0,0-.07.16c0,.06.07.13.21.15.51,0,.8.2.92.42a5.66,5.66,0,0,1,.16,1.64v1.68l0,2.81c0,.42,0,1.51-.07,3.23a8.89,8.89,0,0,1-.31,2.95,1.79,1.79,0,0,1-1.2.45c-.12,0-.21,0-.21.15s.1.21.23.21c.29,0,1,0,2.21,0,.51,0,1.17,0,2,0h.07l0-.12c0-.14-.12-.21-.31-.23a1.24,1.24,0,0,1-1-.82l0-.41a8.37,8.37,0,0,1-.09-1.39,18.66,18.66,0,0,1,.21-2.8,4.21,4.21,0,0,0,2.32.69,4.31,4.31,0,0,0,3-1.22,4.16,4.16,0,0,0,1.25-3.13,4.58,4.58,0,0,0-1.13-3,3.43,3.43,0,0,0-2.69-1.29,2.66,2.66,0,0,0-1.24.27,7.88,7.88,0,0,0-1.53,1.24c0-.37.06-.7.06-.88a6.73,6.73,0,0,0-.06-.83Zm2.31,1.68a2,2,0,0,1,1.72-.88,2.35,2.35,0,0,1,1.93,1.07,4.82,4.82,0,0,1,.79,2.85,4.56,4.56,0,0,1-.77,2.6,2.44,2.44,0,0,1-2,1.08,2.23,2.23,0,0,1-1.51-.43,1.61,1.61,0,0,1-.65-1,13.91,13.91,0,0,1-.12-2.4,5.3,5.3,0,0,1,.63-2.88m15-6.52a1,1,0,0,0-.28.69.93.93,0,0,0,.31.69,1,1,0,0,0,.7.23c.32,0,.56-.05.7-.28a.91.91,0,0,0,.29-.68.82.82,0,0,0-.33-.62.93.93,0,0,0-.7-.28.89.89,0,0,0-.69.25m.25,4.87a6.73,6.73,0,0,0-1.25.15c0,.05-.06.07-.06.11s.06.19.25.19a1.3,1.3,0,0,1,1,.34,4.26,4.26,0,0,1,.24,2l-.06,4.28c0,.54,0,.89-.14,1s-.35.2-.74.24-.56.16-.56.3.05.16.24.16a.45.45,0,0,0,.18,0,12.62,12.62,0,0,1,1.83-.09,11.23,11.23,0,0,1,1.79.14l.19,0c.14,0,.23-.07.23-.18s-.21-.21-.58-.24a1.31,1.31,0,0,1-.71-.2,1.23,1.23,0,0,1-.27-1V200.4l0-2.17v-2.36c-.29,0-.79,0-1.57.11m13.48,0-1.88.12-1,.08s-.05.06-.05.14.09.2.37.21a1,1,0,0,1,1,.7c.06.45.1,1.8.1,4.08a15.46,15.46,0,0,1-.12,2.64c-.13.28-.38.37-.83.41s-.47.09-.47.22.12.14.35.14h3.3c.32,0,.51-.08.51-.19s-.07-.16-.22-.17c-.45-.07-.74-.15-.83-.38a7.64,7.64,0,0,1-.17-2.27,15.3,15.3,0,0,1,.18-2.89,2.58,2.58,0,0,1,.73-1.25,1.58,1.58,0,0,1,1.06-.61,1.1,1.1,0,0,1,.9.69c.16.36.4.58.65.58.55,0,.85-.32.85-1a1.28,1.28,0,0,0-.42-.93,1.43,1.43,0,0,0-1-.42,2.53,2.53,0,0,0-1.56.62,5.55,5.55,0,0,0-1.39,1.73c-.06-1.12-.12-1.87-.16-2.25m17.93,8.59a1.06,1.06,0,0,0,.79.26c1.35,0,2-.16,2-.4s-.07-.18-.22-.18l-.19,0-.29,0c-.34,0-.57-.2-.7-.67a10.31,10.31,0,0,1-.18-2.2l.07-2.76a4.31,4.31,0,0,0-.21-1.68,1.9,1.9,0,0,0-.86-.78,5,5,0,0,0-1.91-.33,4.12,4.12,0,0,0-2.34.61,1.57,1.57,0,0,0-.88,1.34.91.91,0,0,0,.28.66.81.81,0,0,0,.51.2c.43,0,.69-.31.83-.93a2.74,2.74,0,0,1,.47-1.19,1.76,1.76,0,0,1,1-.28,1.54,1.54,0,0,1,1.24.54,2.19,2.19,0,0,1,.45,1.44,1.37,1.37,0,0,1-.33.92,6.9,6.9,0,0,1-2,.89,16.64,16.64,0,0,0-1.6.67,2.57,2.57,0,0,0-.84.84,2.75,2.75,0,0,0-.35,1.27,1.9,1.9,0,0,0,.62,1.45,2.27,2.27,0,0,0,1.63.59,3.46,3.46,0,0,0,1.57-.37,3.54,3.54,0,0,0,1.22-1.1,3,3,0,0,0,.21,1.15m-.12-3.33a4,4,0,0,1-.28,1.67,2.41,2.41,0,0,1-.75,1,2.06,2.06,0,0,1-1.14.37,1.22,1.22,0,0,1-.95-.47,1.53,1.53,0,0,1-.39-1.11,1.69,1.69,0,0,1,.45-1.23,5.35,5.35,0,0,1,1.57-1.06,3.81,3.81,0,0,0,1.4-1c.06.69.09,1.34.09,1.87m15.85-4.58a1.22,1.22,0,0,0,.12-.58c0-.11-.19-.16-.58-.16l-2.27,0V194.4c0-.35,0-.67,0-1v-.16c0-.22-.06-.28-.16-.28s-.23.08-.26.36a2.94,2.94,0,0,1-1.14,2.12,9.08,9.08,0,0,1-1.42.88c-.19.06-.27.15-.27.21s.07.16.24.17l.6,0a8.45,8.45,0,0,1,1,.09c-.09,2.46-.17,4.19-.17,5.19a3.85,3.85,0,0,0,.52,2.21A1.92,1.92,0,0,0,330,205a3,3,0,0,0,1.81-.54c.47-.36.74-.61.74-.8s-.05-.11-.16-.11a1.75,1.75,0,0,0-.28.11,2.27,2.27,0,0,1-1.22.41,1.35,1.35,0,0,1-1.14-.48,3.88,3.88,0,0,1-.4-2.23c0-1.48.05-3,.12-4.47,1.44-.12,2.37-.18,2.73-.18m8.9-5.57a1.11,1.11,0,0,0-.24.69.89.89,0,0,0,.3.69,1,1,0,0,0,.7.23.74.74,0,0,0,.69-.28.88.88,0,0,0,.26-.68.73.73,0,0,0-.32-.62.87.87,0,0,0-.7-.28,1,1,0,0,0-.69.25m.25,4.87a6.63,6.63,0,0,0-1.22.15c-.07.05-.09.07-.09.11s.09.19.26.19a1.38,1.38,0,0,1,1,.34,4.5,4.5,0,0,1,.25,2l-.09,4.28a2.49,2.49,0,0,1-.13,1c-.12.15-.35.2-.73.24s-.6.16-.6.3.08.16.27.16l.19,0a12.22,12.22,0,0,1,1.84-.09,11.66,11.66,0,0,1,1.78.14l.17,0c.16,0,.24-.07.24-.18s-.22-.21-.6-.24a1.5,1.5,0,0,1-.72-.2,1.46,1.46,0,0,1-.23-1V200.4l0-2.17,0-2.36c-.29,0-.83,0-1.6.11m12,7.61a4.18,4.18,0,0,0,3.08,1.33,4.31,4.31,0,0,0,3.18-1.42,4.61,4.61,0,0,0,1.38-3.31,4.09,4.09,0,0,0-1.31-3.08,4.15,4.15,0,0,0-3.09-1.25,4.32,4.32,0,0,0-3.22,1.39,4.61,4.61,0,0,0-1.3,3.18,4.33,4.33,0,0,0,1.28,3.16m1.15-6.12a2.28,2.28,0,0,1,1.95-1.18,2.4,2.4,0,0,1,2.1,1.3,5,5,0,0,1,.81,2.86,4.72,4.72,0,0,1-.83,3,2.43,2.43,0,0,1-1.95,1.11,2.34,2.34,0,0,1-2-1.19,4.84,4.84,0,0,1-.84-2.92,5.13,5.13,0,0,1,.77-2.93m15.64-1.53-.81,0c-.23,0-.31.08-.31.21s.12.17.39.25a1.06,1.06,0,0,1,.7.53,6.73,6.73,0,0,1,.24,2.29c0,1.29,0,2.39-.07,3.29a5.26,5.26,0,0,1-.19,1.51.9.9,0,0,1-.66.32c-.33.07-.48.18-.48.3s.14.15.46.15l.8,0c1.08,0,1.71,0,1.92,0l.53,0c.16,0,.24-.06.24-.17s-.08-.16-.25-.17c-.46-.07-.77-.21-.89-.48a4.62,4.62,0,0,1-.19-1.76,8.67,8.67,0,0,1,.8-4.31,2.36,2.36,0,0,1,2-1.35,1.74,1.74,0,0,1,1.37.72,5.38,5.38,0,0,1,.55,2.91c0,.55,0,1.24-.06,2a9.39,9.39,0,0,1-.11,1.51.68.68,0,0,1-.25.36,1.94,1.94,0,0,1-.74.24c-.12,0-.19.1-.19.19s.11.14.38.14c.63,0,1.23-.06,1.8-.06a7.33,7.33,0,0,1,1.4.09h.13c.12,0,.19-.06.19-.12s-.14-.18-.36-.27-.6-.2-.68-.39a2,2,0,0,1-.19-1.16l.07-3.47a4.89,4.89,0,0,0-.36-2.2,1.89,1.89,0,0,0-1-.93,4,4,0,0,0-1.35-.26,3.05,3.05,0,0,0-1.7.53,4.34,4.34,0,0,0-1.42,1.49,6.43,6.43,0,0,0-.31-2.06l-1.4,0"/></svg>