<svg width="540" height="540" viewBox="0 0 540 540" fill="none" xmlns="http://www.w3.org/2000/svg">
<g clip-path="url(#clip0_757_55633)">
<g clip-path="url(#clip1_757_55633)">
<path d="M226.01 85.8328C225.183 86.2553 224.688 85.7182 224.201 85.1525C219.139 79.2478 212.473 76.2757 204.133 74.4746C202.382 74.0449 199.666 73.7441 196.93 73.6009C195.335 73.515 194.153 72.8346 193.738 71.2483C193.311 69.6263 194.139 68.5126 195.472 67.7034C196.514 67.0696 197.678 66.8655 198.868 66.7545C203.75 66.2997 208.475 67.0159 213.028 68.7776C218.129 70.7506 222.467 73.7585 225.344 78.5388C226.322 80.1645 227.121 81.9011 227.246 83.8526C227.307 84.8051 226.809 85.4282 226.014 85.8328H226.01Z" fill="black"/>
<path d="M197.603 86.9885C201.135 83.3719 205.613 83.329 210.094 84.0057C215.393 84.8078 219.168 88.1773 222.46 92.1591C222.94 92.7392 223.112 93.3694 222.546 93.903C221.837 94.569 221.282 94.0748 220.755 93.4983C219.627 92.2737 218.531 91.0061 217.295 89.8925C215.611 88.3743 213.813 86.9814 211.448 86.3297C212.466 90.4475 211.56 93.4661 208.941 95.0202C207.264 96.0156 204.961 95.8079 203.449 94.5296C201.45 92.8323 201.006 89.5882 202.5 86.122C200.508 86.7128 198.989 87.5543 197.668 88.7717C197.356 89.0582 196.994 89.3876 196.589 89.0081C196.177 88.6178 196.525 88.2418 196.776 87.9195C197.03 87.5901 197.313 87.2821 197.607 86.9849L197.603 86.9885Z" fill="black"/>
<path d="M169.679 86.4741C169.06 86.8787 168.805 86.0623 168.472 85.7293C167.43 84.6837 166.47 83.5522 164.926 82.7107C165.348 84.4223 165.449 86.1446 165.241 87.3621C164.775 90.0871 162.375 92.4146 160.158 92.2857C157.847 92.1532 156.013 89.6681 155.931 86.714C155.891 85.3354 156.375 84.1 156.862 82.6964C154.827 83.4161 153.398 84.6658 151.944 85.8725C151.564 86.1876 151.138 86.603 150.729 86.1482C150.389 85.7687 150.952 85.4285 151.138 85.0991C154.652 78.8864 163.375 79.2302 167.279 82.1306C168.225 82.836 169.063 83.6918 169.658 84.7553C169.991 85.3533 170.382 86.0193 169.679 86.4777V86.4741Z" fill="black"/>
<path d="M5.06854 343.531C13.2108 329.25 23.3089 316.409 33.2781 303.525C48.3411 284.058 64.3283 265.307 79.8784 246.216C88.7586 235.316 98.4985 225.434 111.899 220.197C130.365 212.983 149.727 208.674 169.167 202.879C169.167 202.879 172.492 195.149 173.57 191.778C173.781 191.123 176.167 191.979 176.167 191.979C175.189 197.305 173.305 205.518 173.212 208.971C172.868 221.827 175.15 225.197 187.773 228.475C215.431 235.653 238.117 227.117 256.852 206.392C258.926 204.096 260.899 202.141 257.231 198.763C253.957 195.747 253.316 190.89 253.162 186.531L253.137 186.517C251.493 178.328 252.449 166.566 252.728 158.299C252.958 151.461 253.567 144.645 254.856 137.914C255 137.169 254.792 136.994 254.222 136.793C253.226 136.438 252.248 136.037 251.202 135.633C250.346 138.96 249.594 142.309 248.62 145.594C241.262 170.377 224.422 185.166 199.827 191.735C198.398 192.119 196.972 192.685 195.493 192.71C137.591 193.641 138.146 147.044 138.146 147.044C137.791 144.576 137.788 142.055 137.691 139.555C137.261 128.472 138.955 117.648 141.384 106.874C142.781 100.684 144.533 94.5879 145.891 88.3949C148.183 77.9573 148.276 67.2511 149.501 56.681C149.888 53.3463 150.042 49.9615 151.038 46.7414C149.981 44.363 149.34 41.8664 149.107 39.3341C148.362 36.5939 148.441 33.7213 149.093 30.7591C149.956 26.8405 152.034 23.7458 154.81 21.1346C155.233 20.6045 155.677 20.0851 156.146 19.5801C158.493 17.0333 159.886 14.7051 156.042 11.7393C154.312 10.3997 154.015 8.05718 155.118 5.82926C156.286 3.47597 157.927 5.43526 159.266 5.44242C164.41 5.47466 169.583 6.07283 174.623 4.8335C184.359 2.44082 194.278 1.08329 204.33 0.212893C217.172 -0.897486 229.512 0.130511 240.782 8.00346C247.627 12.7817 254.297 17.8178 259.581 24.5374C259.592 24.5481 259.603 24.5553 259.613 24.566C262.031 19.512 262.207 19.7591 265.384 24.0466C266.939 26.142 268.368 28.395 268.146 30.931C268.082 31.6617 267.824 32.3673 267.537 33.0407C276.801 45.3408 279.208 59.9728 276.596 75.9157C275.543 82.3523 273.989 88.6922 272.244 94.9784C271.94 96.0744 272.119 96.6977 273.129 97.4284C276.629 99.9679 278.542 103.51 279.043 107.805C279.924 115.331 277.377 121.85 273.011 127.76C269.228 132.882 264.743 137.029 257.847 137.212C256.841 137.237 256.948 137.932 256.852 138.566C255.874 144.859 255.193 151.181 254.939 157.554C254.631 165.273 255.626 180.585 256.877 188.411L256.98 188.487C257.658 194.561 260.097 198.394 266.667 200.722C280.526 205.633 294.586 209.974 308.306 215.336C331.178 224.277 346.721 240.23 355.125 262.929C362.944 284.047 369.829 305.51 377.28 326.768C377.997 328.81 377.947 330.185 376.331 331.407C374.586 332.725 374.895 333.903 376.134 335.39C377.667 337.227 378.81 336.446 380.067 335.128C383.642 331.382 387.4 327.803 390.803 323.91C402.714 310.27 412.095 294.85 420.66 279.047C433.678 255.027 454.343 245.696 480.404 246.835C490.036 247.254 499.654 247.448 509.279 247.609C511.45 247.645 513.539 247.845 515.552 248.701C521.201 251.108 522.286 255.432 518.403 260.135C515.308 263.881 511.078 265.525 506.582 266.955C502.061 268.394 497.25 267.424 491.849 268.853C494.657 270.97 496.674 272.686 498.877 274.115C503.505 277.113 508.323 279.756 513.406 281.966C519.804 284.749 526.596 286.11 533.251 287.998C537.879 289.309 540.999 294.467 539.717 299.102C538.703 302.77 535.164 303.092 531.876 303.447C530.507 303.593 528.444 302.877 527.853 304.224C525.392 309.83 520.391 309.5 515.652 309.898C514.187 310.019 512.876 310.213 511.984 311.635C510.415 314.135 507.814 314.651 505.124 315.152C488.37 318.279 472.544 314.708 457.291 308.139C453.48 306.498 452.319 306.982 450.879 310.696C443.626 329.433 436.196 348.13 426.338 365.692C416.727 382.814 406.726 399.727 391.082 412.307C376.12 424.342 360.867 423.271 348.114 409.019C337.336 396.973 329.917 382.71 322.412 368.54C318.887 361.881 315.431 355.18 309.334 349.631C309.334 350.806 309.312 351.479 309.334 352.149C310.512 383.541 311.487 414.939 312.97 446.317C313.675 461.257 314.607 476.207 316.792 491.054C317.333 494.726 319.314 499.042 315.939 502.276C314.166 503.977 314.313 505.396 314.524 507.42C316.466 526.02 318.304 544.632 320.148 563.243C322.047 582.377 323.831 601.519 325.822 620.642C328.144 642.954 330.648 665.244 333.048 687.548C334.663 702.596 336.211 717.65 337.83 732.698C339.789 750.933 341.899 769.154 343.744 787.404C345.736 807.079 347.427 826.786 349.379 846.465C351.507 867.927 353.545 889.394 354.591 910.949C354.845 916.218 354.362 920.595 348.447 921.595C355.834 934.833 367.239 943.233 379.419 950.873C385.641 954.773 391.315 959.405 395.585 965.53C398.902 970.283 401.446 975.412 401.406 981.286C401.342 991.226 396.079 996.703 384.137 998.719C367.96 1001.45 351.811 999.944 335.752 997.315C321.85 995.041 308.925 989.213 295.256 986.043C287.844 984.324 285.477 981.623 286.06 974.047C287.078 960.906 286.963 947.692 288.736 934.582C289.155 931.473 289.589 926.351 286.304 925.327C281.242 923.744 280.25 920.42 279.434 916.344C271.238 875.442 263.067 834.537 254.867 793.636C247.119 754.998 239.371 716.361 231.576 677.734C225.042 645.368 218.53 612.995 211.788 580.672C210.559 574.78 210.111 568.763 208.965 562.878C208.668 583.044 209.044 603.152 208.593 623.239C207.428 675.359 205.602 727.465 204.606 779.588C203.742 824.744 202.578 869.89 201.285 915.036C201.192 918.292 200.314 921.014 197.438 921.942C190.968 924.027 192.648 929.095 193.673 932.924C197.123 945.797 198.932 958.706 197.355 972.013C196.037 983.145 193.995 984.893 182.719 986.061C170.851 987.29 158.901 987.967 147.101 989.453C124.211 992.337 101.307 993.604 78.2808 993.472C72.381 993.44 66.5349 992.791 60.7533 991.702C55.86 990.782 54.3734 987.591 54.5167 982.73C54.9573 967.682 63.3181 958.803 76.6617 953.96C89.7974 949.193 101.923 942.516 113.662 935.123C119.777 931.273 126.053 927.412 130.706 920.835C124.784 919.607 123.18 915.77 122.986 910.577C122.005 884.003 120.851 857.433 119.773 830.862C118.591 801.795 117.437 772.729 116.248 743.662C114.539 701.919 113.046 660.172 112.2 618.404C111.634 590.555 110.986 562.709 110.452 534.86C110.398 532.084 110.015 530.985 106.626 530.218C95.7725 527.765 85.9466 522.843 80.5841 512.456C76.9482 505.407 73.7243 498.021 73.3696 489.765C73.2908 487.927 72.6102 486.079 71.1881 484.202C60.4452 470.014 49.7668 455.751 39.6973 441.083C25.2003 419.965 10.9504 398.674 2.35681 374.185C-1.44028 363.368 -0.684455 353.661 5.07208 343.564L5.06854 343.531ZM181.999 141.872C181.999 138.115 175.368 135.067 171.61 135.067C167.853 135.067 161.222 138.115 161.222 141.872C161.222 145.63 181.999 145.63 181.999 141.872ZM244.558 83.0973C242.437 76.3527 242.229 69.5471 243.39 62.6484C244.672 55.0155 242.516 50.359 235.785 46.5945C227.804 42.1315 219.16 40.1113 210.072 39.6349C200.733 39.1442 191.785 41.2432 182.823 43.4174C177.679 44.6639 168.913 45.7026 163.554 45.4161C161.562 45.3086 159.635 44.9791 157.866 44.1338C157.579 43.9976 157.346 43.9188 157.146 43.8902C156.795 44.0979 156.436 44.3093 156.078 44.5242C156.017 44.6209 155.956 44.7319 155.892 44.8501C151.651 51.5017 152.775 57.6159 151.35 64.3391C153.517 63.5475 155.817 63.0639 158.206 62.8132C163.06 62.301 167.81 62.8419 172.402 64.5576C173.523 64.9766 174.594 65.4781 175.433 66.3592C176.507 67.4875 177.016 68.7806 176.178 70.2348C175.361 71.6568 174.043 72.0078 172.481 71.6712C169.805 71.0981 167.104 70.679 165.299 70.636C159.796 70.353 154.81 70.6503 150.282 72.1869C150.053 73.9098 149.849 75.493 149.834 75.8082C149.455 84.2972 147.184 92.4245 144.999 100.562C142.695 109.145 142.813 117.584 146.188 125.886C146.539 126.753 146.765 127.688 147.596 128.472C151.454 123.726 156.064 120.628 162.691 121.914C160.928 115.982 163.164 110.735 165.277 105.556C168.397 97.9227 171.994 90.501 175.97 83.2692C176.253 82.757 176.468 82.166 177.098 81.9511C177.593 81.7828 177.872 82.1517 178.162 82.4383C178.775 83.0436 178.227 83.545 177.965 84.0286C175.003 89.516 172.259 95.1145 169.658 100.781C167.48 105.527 165.403 110.294 164.349 115.459C163.017 121.989 168.032 126.853 174.584 125.277C177.22 124.643 179.742 123.397 182.568 123.748C183.274 123.837 183.99 123.863 184.692 123.984C187.1 124.407 188.443 123.501 188.826 121.062C188.927 120.42 188.97 119.804 189.776 119.858C190.517 119.908 190.667 120.503 190.707 121.151C190.782 122.441 190.234 123.529 189.407 124.744C195.858 123.332 201.912 123.966 207.808 126.237C212.608 128.086 216.38 131.316 219.597 135.231C220.303 136.091 220.758 136.424 221.908 135.826C235.588 128.687 243.315 117.447 245.439 102.207C245.951 98.5387 246.044 94.853 246.399 91.1852C246.678 88.2731 245.378 85.7157 244.554 83.0901L244.558 83.0973ZM266.373 131.528C271.94 126.624 275.568 120.524 276.707 113.11C277.295 109.299 276.725 105.627 274.784 102.257C271.854 97.1705 266.294 95.6983 261.096 98.6211C257.718 100.52 255.397 103.432 253.624 106.813C252.886 108.217 253.477 109.75 253.438 111.226C252.84 117.863 252.32 124.504 251.593 131.127C251.414 132.746 251.808 133.594 253.262 134.107C258.145 135.822 262.579 134.87 266.373 131.528ZM318.78 356.408C327.589 370.195 334.219 385.285 343.787 398.649C346.599 402.575 349.551 406.35 353.025 409.717C362.851 419.245 376.714 419.736 387.479 411.261C403.881 398.348 414.202 380.869 424.128 363.095C433.237 346.784 439.746 329.29 447.057 312.154C449.378 306.713 450.328 302.831 444.492 299.589C443.783 299.195 443.389 298.239 443.124 296.978C452.832 303.085 462.944 308.142 474.106 310.797C485.444 313.494 496.749 314.024 508.119 310.725C497.061 308.54 485.684 307.727 476.109 300.861C481.525 300.692 486.285 303.397 491.437 304.321C496.677 305.259 501.828 306.685 507.238 306.656C512.679 306.627 518.206 307.605 523.35 304.245C515.888 303.404 508.498 302.361 501.366 300.101C498.665 299.245 495.975 298.332 493.339 297.293C492.3 296.885 490.645 296.398 491.254 294.861C491.917 293.195 493.271 294.202 494.424 294.607C503.168 297.694 512.185 299.571 521.384 300.678C526.567 301.301 531.482 300.205 537.285 299.464C535.164 297.44 533.692 296.845 531.872 296.852C521.677 296.881 512.468 292.998 503.147 289.553C501.836 289.069 499.912 288.646 500.779 286.852C501.417 285.534 502.96 286.687 504.128 287.024C513.32 289.674 522.254 293.357 531.951 294.012C533.112 294.091 534.688 295.208 535.171 293.525C535.716 291.634 533.627 291.34 532.481 291.003C527.72 289.61 522.763 288.818 518.117 287.142C507.012 283.13 496.409 278.141 488.191 269.229C486.49 267.381 484.956 265.475 484.183 261.807C489.581 264.279 494.589 265.611 499.998 264.856C504.648 264.207 509.143 263.212 513.08 260.708C515.194 259.361 518.306 257.767 517.11 254.59C515.867 251.284 512.116 249.69 509.201 250.224C500.542 251.807 491.988 250.532 483.402 250.363C476.259 250.22 469.141 250.03 462.066 251.273C445.298 254.217 433.381 263.713 424.887 278.194C415.52 294.166 406.289 310.234 394.36 324.544C384.993 335.78 372.914 344.129 363.303 355.09C362.944 354.768 362.59 354.449 362.232 354.127C364.743 350.903 366.888 347.274 369.88 344.581C372.387 342.321 372.197 339.559 372.484 337.034C372.752 334.681 371.921 332.743 368.142 332.857C349.92 333.398 334.767 341.962 319.59 350.584C316.953 352.081 316.921 353.518 318.769 356.408H318.78ZM397.151 975.437C393.393 965.666 386.734 956.69 377.388 954.143C369.023 951.865 358.739 952.302 349.794 956.382C347.581 957.392 345.367 958.638 341.584 957.836C350.944 950.93 360.835 950.07 371.9 950.672C365.742 944.547 359.316 942.835 352.173 944.726C345.782 946.417 339.564 948.742 332.965 949.888C340.663 944.056 349.461 941.334 359.516 940.697C355.297 935.782 350.16 934.815 344.525 935.926C339.474 936.921 334.581 938.53 329.777 940.45C328.577 940.929 326.707 943.014 325.74 940.869C324.716 938.594 327.284 938.071 328.832 937.441C336.114 934.482 343.608 932.38 351.994 932.254C350.031 929.342 348.129 926.688 346.416 923.916C345.535 922.49 344.407 922.698 343.171 922.938C327.391 925.997 311.53 927.845 295.435 926.158C291.856 925.782 293.88 929.02 292.77 930.324C291.48 931.832 292.233 933.128 294.171 933.927C298.251 935.607 302.32 936.391 306.622 934.858C311.73 933.039 316.853 931.266 322.864 929.163C315.499 936.295 304.749 941.499 291.373 936.929C290.918 946.607 290.538 956.16 289.972 965.702C289.836 968.001 290.742 968.71 292.802 969.226C308.789 973.234 323.953 980.251 340.488 982.257C355.049 984.023 369.618 984.6 384.262 983.088C388.758 982.622 392.057 979.728 396.097 978.46C397.906 977.894 397.562 976.515 397.151 975.441V975.437ZM293.16 982.146C295.811 983.11 298.584 983.754 301.324 984.435C312.504 987.204 323.125 991.971 334.52 993.923C350.883 996.728 367.426 998.601 383.85 995.442C394.245 993.443 397.903 991.233 398.028 980.921C384.412 988.944 369.442 986.491 354.86 986.434C334.13 986.351 314.868 979.306 295.417 973.213C293.597 972.643 290.366 970.158 289.55 973.188C288.722 976.261 288.783 980.556 293.157 982.146H293.16ZM67.5594 989.403C87.7126 991.369 107.826 990.209 127.904 988.328C146.31 986.605 164.683 984.517 183.088 982.78C192.731 981.87 193.942 980.753 193.555 971.909C148.362 978.26 103.238 985.857 56.7448 979.854C58.9335 988.515 58.9299 988.558 67.5594 989.399V989.403ZM124.383 932.032C129.67 933.515 134.958 934.98 140.231 936.492C141.689 936.911 143.963 937.007 143.254 939.257C142.509 941.617 140.342 939.93 139.195 939.622C135.262 938.565 131.017 937.992 127.467 936.334C120.722 933.186 116.61 936.857 111.283 940.668C118.114 941.169 123.867 942.677 129.305 945.253C130.946 946.03 132.336 947.205 132.672 949.125C132.733 949.476 132.185 950.228 131.816 950.303C129.792 950.719 127.761 950.138 126.318 948.91C119.347 942.968 106.849 942.359 98.4519 948.279C105.828 947.936 111.412 950.658 117.366 955.418C111.079 955.973 107.142 952.467 102.743 950.826C98.9463 949.411 95.776 949.06 92.0757 950.883C85.2266 954.258 77.8545 956.461 71.1093 960.125C65.8686 962.972 62.247 967.095 59.6822 972.418C57.8302 976.257 59.0087 977.092 62.9599 977.536C76.4933 979.051 90.0553 978.482 103.607 978.829C121.012 979.277 137.963 975.702 155.097 973.732C165.514 972.536 176.063 972.328 186.322 969.925C194.808 967.937 194.69 967.833 194.314 958.939C193.945 950.181 192.584 941.603 190.309 933.006C176.425 940.367 162.981 936.954 151.174 929.346C146.263 926.179 141.617 923.651 136.186 922.1C135.334 921.856 133.826 921.362 133.754 922.028C133.138 927.662 126.919 927.691 124.38 932.025L124.383 932.032ZM189.278 926.129C189.081 924.596 187.762 924.904 186.763 925.123C175.329 927.598 163.826 927.609 152.231 926.369C162.028 931.516 171.969 935.621 183.249 932.408C184.94 931.928 186.544 931.119 188.142 930.359C190.098 929.428 189.467 927.626 189.278 926.129ZM113.207 511.091C113.687 538.51 113.959 565.929 114.543 593.345C114.991 614.224 115.729 635.099 116.47 655.97C117.756 692.18 119.132 728.382 120.5 764.587C121.274 785.093 122.098 805.599 122.922 826.106C124.036 853.919 125.247 881.728 126.228 909.545C126.396 914.363 128.263 916.777 132.945 918.088C152.045 923.45 171.138 926.208 190.822 921.007C196.313 919.556 197.982 917.16 198.111 911.512C199.498 850.48 201.199 789.456 202.815 728.428C204.226 674.535 205.992 620.65 205.587 566.721C205.555 562.645 204.194 560.603 200.583 559.196C194.307 556.746 188.139 554.013 181.97 551.298C181.135 550.929 179.785 550.366 180.286 549.03C180.706 547.92 181.569 547.691 182.869 548.264C190.979 551.831 199.114 555.352 207.31 558.726C210.158 559.898 211.236 562.09 211.784 564.783C222.567 618.024 233.345 671.265 244.121 724.509C250.669 756.868 257.238 789.219 263.733 821.589C269.737 851.522 275.651 881.47 281.611 911.411C281.991 913.324 282.539 915.208 282.833 917.135C283.385 920.746 285.871 922.203 289.059 922.587C308.324 924.919 327.352 923.292 346.252 919.159C350.35 918.263 351.7 916.254 351.353 912.135C349.923 895.261 348.831 878.361 347.401 861.487C345.972 844.631 344.367 827.785 342.691 810.951C340.749 791.458 338.622 771.987 336.616 752.502C335.047 737.275 333.607 722.031 331.987 706.811C330.443 692.301 328.674 677.816 327.116 663.31C325.461 647.911 323.945 632.495 322.348 617.089C320.696 601.154 318.991 585.221 317.365 569.282C315.775 553.701 314.263 538.109 312.701 522.524C312.418 519.688 312.024 516.861 311.759 514.025C310.946 505.353 310.921 505.177 302.449 506.983C276.328 512.549 249.77 513.509 223.233 514.29C201.998 514.917 180.713 514.988 159.517 513.222C145.339 512.04 131.085 510.951 117.176 507.785C113.261 506.893 113.167 508.061 113.221 511.091H113.207ZM114.575 503.752C129.817 507.717 145.493 508.77 161.079 510.017C179.233 511.467 197.481 511.8 215.692 511.163C244.35 510.16 273.136 510.153 301.317 503.777C316.118 500.428 314.589 503.043 312.98 487.544C311.472 473.009 310.283 458.423 309.595 443.827C307.672 403.008 306.067 362.171 304.362 321.342C303.871 309.575 303.423 297.809 303.065 286.039C303.008 284.194 302.306 282.066 304.498 280.297C306.25 281.733 306.056 283.589 306.131 285.355C306.898 303.898 307.636 322.445 308.445 340.985C308.535 343.055 307.819 345.562 309.624 347.052C312.049 349.055 313.915 350.602 318.071 348.145C333.65 338.936 349.461 329.856 368.54 329.902C375.07 329.92 374.966 329.584 372.831 323.462C367.05 306.875 360.86 290.409 355.751 273.613C346.921 244.568 328.871 224.914 299.845 215.293C288.754 211.618 277.467 208.466 266.702 203.817C264.485 202.857 263.031 203.104 261.193 205.497C248.519 222.013 232.486 232.651 210.946 233.844C202.636 234.302 194.622 233.711 186.63 231.555C173.57 228.034 169.92 223.868 169.4 210.322C169.253 206.557 167.899 206.203 164.94 207.08C151.167 211.156 137.426 215.354 123.595 219.23C106.2 224.101 93.1002 234.779 82.0062 248.601C66.8286 267.517 51.436 286.264 35.9289 304.912C33.6434 307.659 33.7259 309.127 36.1689 311.452C46.2742 321.059 55.62 331.364 64.099 342.446C68.2149 347.822 74.6699 350.86 78.4885 357.006C87.358 346.268 96.6358 336.146 106.641 326.714C108.364 325.092 107.905 323.125 107.912 321.231C107.945 307.304 107.927 293.374 107.941 279.448C107.941 278.023 107.905 276.575 108.142 275.182C108.238 274.62 109.023 274.176 109.496 273.678C109.986 274.154 110.821 274.577 110.9 275.114C111.136 276.69 111.101 278.309 111.122 279.914C111.785 331.163 110.434 382.402 109.743 433.637C109.474 453.563 109.886 473.61 107.282 493.501C106.283 501.133 107.053 501.789 114.582 503.748L114.575 503.752ZM4.5885 370.707C10.5564 389.358 20.2784 406.046 30.9102 422.314C44.3613 442.896 58.5968 462.893 74.2652 481.852C75.1177 482.884 75.5977 483.905 75.6694 485.194C75.9989 491.305 78.3667 496.907 79.9178 502.727C83.2349 515.182 92.1402 521.887 103.345 526.357C109.335 528.746 110.237 528.087 110.212 521.883C110.201 519.028 110.123 516.17 110.126 513.315C110.126 509.472 110.706 505.811 106.014 503.458C102.815 501.853 103.61 497.727 103.94 494.589C105.498 479.667 105.168 464.667 106.017 449.737C107.375 425.818 106.3 401.909 107.024 378.01C107.443 364.095 107.654 350.172 107.88 336.253C107.909 334.573 108.453 332.761 107.164 330.805C98.7994 337.99 91.9252 346.35 84.7358 354.409C83.4319 355.871 82.1854 357.39 80.7847 358.758C79.9035 359.621 78.8504 360.219 77.4175 359.954C75.6945 359.635 75.3935 355.867 72.8825 357.905C69.4292 360.71 65.8901 363.475 63.2214 367.104C62.5121 368.067 63.0673 369.084 63.5223 370.105C73.2371 392.015 80.8779 414.803 91.6029 436.287C94.8662 442.824 98.0543 449.39 103.252 454.702C103.911 455.375 105.283 456.099 104.112 457.234C103.32 458.001 102.174 457.9 101.207 457.094C98.975 455.235 97.4238 452.839 95.9337 450.414C85.2803 433.067 78.5853 413.879 70.3355 395.411C66.3773 386.546 63.9414 377.058 59.1628 368.554C58.0881 366.645 59.4959 365.936 60.4237 365.04C64.1455 361.459 67.9498 357.959 72.0585 354.116C61.8422 346.451 55.337 335.752 46.8222 326.89C42.6167 322.513 38.3683 318.179 34.2524 313.719C32.5545 311.878 31.6553 311.706 29.7926 313.852C20.5148 324.522 12.6269 336.099 5.96051 348.55C2.09535 355.771 2.1455 363.06 4.5957 370.718L4.5885 370.707Z" fill="black"/>
</g>
</g>
<defs>
<clipPath id="clip0_757_55633">
<rect width="540" height="540" fill="white"/>
</clipPath>
<clipPath id="clip1_757_55633">
<rect width="540" height="1000" fill="white" transform="matrix(-1 0 0 1 540 0)"/>
</clipPath>
</defs>
</svg>
