<svg width="540" height="540" viewBox="0 0 540 540" fill="none" xmlns="http://www.w3.org/2000/svg">
<g clip-path="url(#clip0_757_55635)">
<path d="M230.687 599.779C229.994 572.933 229.297 546.679 228.656 520.425C228.525 515.071 228.573 509.713 229.36 504.389C229.998 500.071 231.218 499.474 234.562 502.05C236.673 503.675 239.095 504.552 241.643 505.006C260.376 508.361 279.323 509.654 298.299 510.201C335.12 511.265 371.813 509.983 408.031 502.379C409.948 501.977 410.825 502.154 411.074 504.389C412.027 512.95 413.195 521.483 414.242 530.033C416.543 548.849 418.886 567.658 421.076 586.488C423.049 603.439 424.879 620.405 426.695 637.373C428.677 655.888 430.542 674.416 432.51 692.931C434.351 710.243 436.26 727.551 438.142 744.86C440.045 762.341 441.944 779.823 443.861 797.305C445.739 814.44 447.864 831.551 449.465 848.71C451.274 868.105 453.52 887.458 455.142 906.877C455.659 913.047 453.607 913.809 449.191 914.71C431.765 918.266 414.242 918.294 396.608 916.724C390.622 916.19 387.021 913.636 386.078 907.605C385.895 906.423 385.409 905.29 385.191 904.112C378.19 866.386 371.29 828.639 364.199 790.931C354.661 740.215 345.032 689.514 335.335 638.826C330.164 611.799 324.56 584.866 317.569 558.238C316.664 554.793 314.904 552.616 311.299 551.528C304.874 549.584 298.635 547.081 292.833 543.591C292.005 543.092 290.886 541.598 289.773 543.269C288.657 544.946 290.019 545.702 291.142 546.551C295.908 550.149 301.408 552.322 307.078 553.639C312.117 554.81 313.843 557.028 313.878 562.348C314.211 616.433 313.23 670.517 314.169 724.605C315.16 781.961 314.53 839.339 315.909 896.691C315.968 899.107 316.134 901.523 316.363 903.928C317.06 911.265 316.502 912.211 309.293 914.648C299.668 917.902 289.596 917.888 279.622 918.505C269.508 919.129 259.7 917.265 250.034 914.568C247.417 913.84 245.129 913.033 245.084 909.161C244.724 878.069 243.23 847.019 241.165 815.989C239.411 789.631 238.475 763.218 236.638 736.867C233.443 691.018 233.398 645.04 230.687 599.769V599.779ZM221.149 267.949C218.553 269.796 218.557 272.074 218.595 274.264C218.883 290.155 217.822 306.24 220.016 321.871C221.981 335.859 217.108 344.617 206.191 351.59C206.045 351.684 205.886 351.767 205.768 351.888C203.498 354.238 201.429 354.096 199.242 351.646C187.732 338.77 174.856 327.184 163.786 313.868C160.573 310.004 160.643 307.085 163.616 303.481C177.133 287.094 189.336 269.793 200.708 251.83C209.92 237.28 222.667 226.633 239.802 222.318C251.507 219.372 263.051 216.052 273.813 210.479C276.045 209.324 276.738 209.401 277.663 212.052C281.819 223.943 289.672 232.258 302.472 234.417C328.594 238.819 350.495 231.201 367.307 210.378C369.401 207.782 371.428 206.437 374.905 206.139C389.842 204.864 404.728 203.065 419.489 200.337C430.233 198.352 441.002 196.511 451.877 194.584C448.852 222.824 451.881 237.353 466.271 261.95C468.274 265.371 465.332 264.969 464.136 265.509C451.756 271.107 439.265 276.444 426.528 281.199C422.841 282.575 419.333 284.464 415.812 286.245C414.665 286.824 412.821 288.301 414.907 289.119C417.59 290.172 416.498 291.846 416.418 293.284C415.216 314.513 415.049 335.762 415.285 357.007C415.763 400.518 413.431 444.069 417.323 487.531C418.169 496.979 417.988 496.913 408.003 498.899C386.654 503.148 365.1 505.307 343.362 506.51C313.933 508.136 284.664 506.628 255.42 503.793C250.328 503.301 245.112 502.791 240.225 500.968C237.685 500.022 236.136 499.384 237.643 495.51C239.681 490.276 244.197 485.275 241.619 478.804C241.431 478.333 241.885 477.425 242.298 476.929C245.712 472.808 242.249 469.582 241.632 465.804C241.123 462.702 245.372 458.886 243.518 454.412C242.683 452.398 241.431 450.838 239.834 449.525C236.357 446.662 232.645 444.101 228.279 442.836C225.454 442.018 224.327 440.742 224.369 437.533C224.979 388.64 224.109 339.765 222.283 290.907C221.995 283.251 221.541 275.602 221.163 267.949H221.149ZM503.009 33.5472C501.969 33.2214 501.422 33.918 500.905 34.6112C493.831 44.0799 492.078 41.023 487.004 33.516C486.623 32.9511 486.411 32.2718 486.054 31.686C484.138 28.5356 484.488 25.9917 487.593 23.6488C491.031 21.0528 494.178 18.0687 497.498 15.3099C498.476 14.4989 499.238 13.421 501.013 14.4053C507.095 17.7811 511.715 22.148 511.785 29.6031C511.84 35.6406 511.75 41.7023 511.265 47.7156C510.318 59.4752 510.589 71.0442 513.296 82.6513C522.082 120.328 531.533 157.86 536.368 196.369C538.371 212.34 535.13 224.917 519.808 232.823C513.233 236.216 506.648 239.595 500.056 242.964C489.676 248.267 478.419 252.041 469.529 260.432C465.651 255.143 462.677 249.525 460.448 243.577C455 229.028 452.02 214.121 454.629 198.501C454.979 196.407 455.271 194.515 457.53 193.465C462.674 191.073 467.63 187.68 473.237 187.136C479.344 186.547 480.62 183.344 480.502 178.309C480.474 177.102 480.585 175.893 480.62 174.683C481.334 149.785 480.374 124.973 476.405 100.351C474.485 88.4496 472.69 76.4093 461.381 68.8087C458.865 67.1174 456.969 64.4383 454.969 62.0607C450.065 56.2346 445.448 50.1798 443.708 42.5584C442.163 35.7827 447.93 28.1717 454.387 28.3866C458.005 28.5079 461.623 28.903 465.217 29.3397C471.109 30.0606 476.651 31.4746 481.091 35.9768C483.368 38.285 483.022 39.7511 480.627 41.1929C475.598 44.222 470.208 44.6552 464.732 42.7178C461.963 41.737 459.312 41.1027 456.484 41.9657C456.484 43.0991 457.087 43.4249 457.78 43.5774C460.857 44.2497 472.905 45.3207 476.256 51.7741C477.857 54.6126 479.136 57.6348 480.485 60.6085C480.904 61.5304 480.973 62.8405 482.439 62.1785C483.396 61.7488 483.084 60.7818 482.928 59.9153C482.339 56.6228 480.72 53.7843 479.102 50.9423C478.603 50.0654 475.722 46.2218 476.617 46.1074C480.935 45.5529 484.349 38.8673 490.227 43.3833C497.315 44.6622 502.444 39.9278 502.999 33.5507L503.009 33.5472ZM158.667 312.738C170.319 327.732 183.704 340.257 196.351 353.472C198.264 355.469 197.817 356.37 195.97 357.832C191.911 361.045 187.992 364.435 184.02 367.755C183.049 368.566 181.961 368.868 182.817 370.899C192.716 394.352 200.583 418.571 209.549 442.378C210.131 443.924 210.592 445.03 209.237 446.503C204.336 451.84 203.768 458.46 203.654 465.336C203.557 471.217 202.77 477.085 202.257 483.383C198.919 480.703 197.394 477.647 195.897 474.527C194.636 471.897 193.61 468.895 191.627 466.909C179.771 455.042 171.744 440.527 162.819 426.584C152.862 411.026 144.426 394.636 135.397 378.565C128.542 366.362 129.946 353.975 136.746 342.704C142.956 332.414 150.921 323.181 158.671 312.731L158.667 312.738ZM223.471 941.314C227.488 937.89 231.637 937.966 236.136 939.356C239.723 940.465 242.478 942.728 245.313 944.971C246.11 945.601 247.126 946.326 248.016 945.251C248.8 944.305 248.346 943.279 247.531 942.513C246.405 941.456 245.247 940.423 244.041 939.456C240.808 936.867 236.635 936.153 232.94 934.334C237.012 929.01 241.303 931.908 245.59 933.332C250.054 934.816 253.357 938.829 258.466 939.64C258.435 936.607 256.373 935.647 254.792 934.573C252.38 932.941 249.833 931.381 247.129 930.341C244.138 929.191 244.36 927.908 245.691 925.468C249.781 917.968 249.67 917.954 258.137 919.815C261.495 920.554 264.892 921.469 268.292 921.576C271.695 921.684 274.045 923.212 276.443 925.25C281.555 929.589 286.474 934.23 293.319 935.918C296.462 936.694 299.453 936.646 302.427 935.457C303.425 935.058 304.347 934.303 303.841 933.131C303.449 932.22 302.413 932.417 301.567 932.695C295.18 934.791 290.168 931.676 285.351 928.241C283.039 926.595 281.056 924.48 278.606 922.294C287.822 921.292 296.511 920.47 305.154 919.334C307.553 919.018 307.224 920.366 307.404 921.666C309.022 933.447 310.419 945.234 310.662 957.156C310.766 962.258 310.752 965.107 303.914 965.381C294.015 965.776 284.311 968.93 274.333 969.682C256.962 970.989 239.601 972.583 222.206 973.429C209.875 974.028 197.394 975.401 185.264 971.301C178.935 969.162 178.142 966.237 182.81 961.222C183.625 960.348 184.598 959.593 185.597 958.927C194.251 953.178 203.668 948.887 213.386 945.386C220.91 942.676 227.506 946.055 230.576 953.462C231.224 955.021 231.512 957.489 233.606 956.643C235.844 955.739 234.697 953.486 233.997 951.698C232.06 946.742 227.918 943.979 223.468 941.318L223.471 941.314ZM432.607 942.589C439.321 938.867 444.724 935.159 451.157 934.628C458.05 934.06 466.049 934.902 468.375 940.874C457.683 939.099 448.006 941.716 438.887 946.79C437.38 947.629 434.399 948.076 435.487 950.384C436.305 952.114 438.68 950.637 440.097 949.809C449.046 944.579 458.688 943.3 468.933 943.494C474.409 943.598 477.809 946.062 481.334 949.687C469.172 947.39 458.005 948.675 448.741 957.503C452.422 957.791 455.319 955.573 458.456 954.224C467.086 950.509 476.818 950.083 484.664 952.984C493.18 956.13 500.337 963.471 506.218 971.082C507.66 972.947 506.641 974.513 505.05 975.962C496.715 983.563 486.796 986.2 475.865 984.838C465.276 983.518 454.744 981.75 444.214 980C428.899 977.452 414.006 973.345 399.658 967.381C397.713 966.573 395.488 966.053 395.554 962.899C395.824 949.947 395.856 936.992 395.956 924.037C395.97 922.106 396.323 920.71 398.788 920.741C406.135 920.827 413.486 920.772 421.732 920.772C416.834 928.435 411.008 933.124 403.248 935.315C402.111 935.633 400.625 935.346 400.888 937.197C401.134 938.94 402.583 938.604 403.733 938.569C404.583 938.541 405.494 938.465 406.257 938.132C413.673 934.888 420.151 930.417 424.237 923.233C425.08 921.749 425.398 920.54 427.443 920.976C433.671 922.297 439.802 920.855 445.961 920.217C447.556 920.051 449.535 918.987 450.502 921.219C452.068 924.837 455.038 927.51 457.277 930.899C442.984 932.428 436.136 935.429 432.611 942.6L432.607 942.589ZM360.182 162.556C359.305 172.243 363.294 203.173 363.294 203.173C365.512 206.274 365.356 207.876 363.01 210.444C346.97 228.009 327.187 234.965 303.792 231.145C291.028 229.062 283.833 220.436 279.781 208.773L277.601 190.269L272.492 188.294C277.199 193.364 276.78 205.439 270.524 208.524C261.218 213.116 251.396 216.429 241.32 218.616C224.775 222.207 211.414 230.944 202.108 244.513C188.349 264.57 173.913 284.121 159.949 304.001C151.562 315.944 142.554 327.492 134.673 339.775C127.412 351.098 124.788 363.69 130.809 376.181C144.901 405.408 160.774 433.766 181.025 459.163C189.752 470.112 196.206 482.371 204.655 493.368C208.998 499.017 214.422 502.635 221.565 502.906C224.622 503.02 225.669 503.571 225.617 506.888C224.934 552.349 227.714 597.717 229.277 643.123C230.091 666.771 230.601 690.432 231.796 714.062C233.158 740.961 235.155 767.828 236.603 794.723C237.733 815.75 239.563 836.739 240.062 857.808C240.489 875.765 241.39 893.707 242.114 911.657C242.156 912.645 242.197 914.215 242.759 914.502C246.959 916.658 245.951 919.264 243.757 922.172C242.034 924.46 241.605 927.499 237.217 927.419C233.061 927.347 229.97 931.353 227.183 934.105C224.442 936.812 221.371 938.261 218.127 939.668C209.13 943.574 200.233 947.743 191.211 951.549C178.564 956.883 175.133 966.975 174.586 979.251C174.433 982.648 176.897 983.195 179.022 984.044C186.82 987.16 195.097 988.089 203.359 988.186C234.479 988.553 265.516 987.025 296.4 983.067C312.422 981.012 313.992 979.067 313.899 963.128C313.819 949.306 313.14 935.523 310.689 921.905C309.989 918.003 311.864 916.519 314.907 915.542C318.997 914.229 320.037 911.553 319.929 907.321C317.202 799.7 317.715 692.051 317.742 584.408C317.742 581.57 317.742 578.735 318.075 575.882C323.503 596.151 327.461 616.675 331.328 637.228C338.676 676.278 346.28 715.279 353.676 754.318C360.462 790.151 367.11 826.012 373.827 861.86C376.551 876.399 379.136 890.966 382.117 905.449C383.351 911.452 384.734 917.677 391.804 920.131C393.617 920.758 392.67 922.872 392.667 924.297C392.632 940.711 392.625 957.129 392.372 973.539C392.32 976.981 393.312 978.731 396.635 979.989C414.807 986.866 432.649 994.792 451.936 998.164C467.754 1000.93 483.607 1000.97 498.933 995.475C513.576 990.224 516.706 975.747 505.328 964.975C492.913 953.219 479.167 943.002 465.554 932.67C460.993 929.208 456.858 925.35 453.839 920.384C452.619 918.374 452.432 917.077 455.028 916.187C458.653 914.942 459.163 912.048 458.816 908.666C456.473 885.85 454.224 863.028 451.843 840.215C449.389 816.727 446.859 793.243 444.291 769.765C441.65 745.605 438.853 721.462 436.267 697.298C433.994 676.042 432.046 654.748 429.72 633.495C426.833 607.106 423.801 580.735 420.65 554.377C418.727 538.299 416.505 522.255 414.322 506.209C413.84 502.667 414.412 500.209 418.526 499.606C421.257 499.208 421.818 497.308 421.541 494.685C416.474 446.967 418.896 399.079 418.56 351.261C418.418 331.246 418.945 311.196 420.248 291.191C420.432 288.387 421.298 286.89 423.967 285.909C438.51 280.561 452.706 274.385 466.76 267.869C467.994 267.298 469.363 266.66 470.662 266.67C473.175 266.691 474.371 265.97 474.6 263.232C474.88 259.856 477.244 257.829 480.204 256.398C490.438 251.452 500.67 246.503 510.859 241.467C517.829 238.025 524.587 234.206 530.552 229.156C536.35 224.252 539.698 218.19 539.941 210.375C540.475 193.156 536.874 176.458 534.039 159.645C529.287 131.468 521.277 104.018 515.399 76.087C512.634 62.941 514.11 49.9302 515.399 36.9333C516.522 25.5966 512.599 17.5385 502.759 12.0105C491.749 5.83085 480.082 1.95257 467.536 0.115674C456.906 -1.44049 444.273 13.0433 446.641 23.1774C447.181 25.496 446.991 26.7957 445.497 28.6153C438.96 36.5625 438.558 42.5931 443.743 51.9058C448.321 60.1337 454.3 67.3357 461.402 73.4183C467.12 78.319 469.879 84.3495 471.29 91.503C476.769 119.251 478.09 147.275 477.49 175.467C477.383 180.496 475.854 182.45 470.583 184.464C438.773 196.615 405.147 198.469 372.004 203.11C368.042 203.665 365.498 202.053 364.327 197.95C364.327 197.95 362.012 168.05 362.317 161.825M220.148 344.097C222.473 375.917 220.491 407.155 221.135 438.365C221.236 443.258 216.98 440.392 215.053 441.772C212.966 443.265 212.603 441.082 212.11 439.73C204.056 417.639 196.091 395.513 187.884 373.481C186.806 370.59 187.42 369.062 189.655 367.429C194.875 363.617 199.443 359.087 205.331 355.957C210.662 353.126 214.966 348.357 220.144 344.097H220.148ZM213.081 474.947C210.319 476.565 225.839 480.305 234.503 479.598C237.186 479.38 238.926 479.206 238.978 482.516C239.023 485.372 238.745 487.736 234.916 487.51C230.784 487.268 226.625 487.396 222.501 487.084C219.032 486.824 212.159 485.147 211.649 487.029C211.14 488.911 215.295 489.479 217.313 489.514C222.317 489.597 227.322 489.652 232.327 489.722C233.699 489.739 235.266 489.545 235.82 491.198C236.323 492.702 235.311 493.832 234.34 494.834C230.459 498.83 221.073 500.802 216.616 498.591C207.175 493.905 203.702 488.328 204.943 480.125C205.917 473.685 207.258 467.336 207.175 460.706C207.074 452.696 212.353 445.397 217.954 444.926C226.514 444.208 233.304 448.163 239.088 453.947C241.404 456.262 241.161 459.486 239.525 462.12C237.702 465.055 234.992 463.731 232.621 462.698C230.42 461.742 218.051 459.402 217.202 459.475C215.878 459.59 213.982 459.198 214.048 461.146C214.117 463.17 216.11 462.594 217.33 462.525C224.726 462.092 231.127 465.083 237.383 468.375C241.137 470.351 241.244 474.156 237.778 476.513C235.74 477.9 233.623 478.277 230.965 477.667C225.225 476.35 215.639 473.446 213.081 474.943V474.947ZM179.379 972.857C185.056 974.78 190.778 976.548 196.809 977.019C209.092 977.983 221.295 976.752 233.519 975.893C257.586 974.201 281.739 973.349 305.432 968.16C307.057 967.803 309.657 966.362 310.235 968.909C310.786 971.342 311.365 974.59 308.035 976.149C306.485 976.874 304.898 977.653 303.245 977.99C297.682 979.119 292.119 980.426 286.491 981.005C262.091 983.525 237.57 984.1 213.081 985.115C203.387 985.517 193.793 984.741 184.384 982.18C176.194 979.951 177.036 980.475 179.375 972.85L179.379 972.857ZM508.378 977.702C508.88 984.689 506.381 988.858 500.541 991.382C487.267 997.114 473.21 997.592 459.412 995.932C437.955 993.35 418.273 984.169 398.122 976.898C397.8 976.78 397.484 976.638 397.183 976.475C394.504 975.019 395.194 972.309 395.856 970.538C396.715 968.237 398.368 970.718 399.654 970.94C401.137 971.193 402.493 972.122 403.941 972.659C423.856 980.055 444.672 983.764 465.519 987.087C480.679 989.503 495.901 990.453 508.381 977.705L508.378 977.702ZM481.704 6.97458C479.244 8.44756 477.13 9.60862 475.123 10.9326C471.245 14.6895 468.33 21.4479 464.59 25.8738C464.008 27.0176 464.219 27.8771 465.29 28.4663C465.8 28.747 466.063 29.0416 466.839 28.1925C474.204 20.1725 476.676 13.7572 481.732 10.6033C487.506 7.00231 490.57 7.68854 495.388 12.6343C490.615 19.3476 477.864 21.441 483.659 34.3547C476.038 26.2065 466.389 26.3764 456.879 25.9362C449.715 25.6035 448.058 22.9556 450.609 16.3046C451.222 14.7034 451.874 13.0918 452.716 11.6049C456.38 5.14461 463.887 2.01842 470.569 4.27122C465.048 9.10261 455.981 16.6685 452.179 22.9625C451.441 24.1825 450.63 25.704 452.061 26.6259C453.389 27.482 454.116 25.853 454.782 24.9242C458.625 19.5417 467.044 12.2531 471.584 7.52911C474.769 4.21577 477.785 3.66123 481.704 6.96765V6.97458Z" fill="black"/>
<path d="M335.456 89.6561C334.76 90.2245 334.185 89.819 333.606 89.3823C327.606 84.8351 320.695 83.3899 312.44 83.4003C310.693 83.3552 308.066 83.6255 305.449 84.0518C303.924 84.2979 302.67 83.8959 301.949 82.4818C301.21 81.0366 301.765 79.8097 302.86 78.7734C303.713 77.9624 304.773 77.5291 305.875 77.1791C310.398 75.7477 315.015 75.4566 319.68 76.1878C324.906 77.0093 329.627 78.964 333.328 82.8943C334.59 84.2321 335.699 85.7085 336.216 87.5316C336.469 88.4188 336.125 89.112 335.456 89.6561Z" fill="black"/>
<path d="M311.59 92.5857C309.663 93.1576 308.194 93.9721 306.915 95.1505C306.613 95.4277 306.263 95.7466 305.871 95.3792C305.473 95.0014 305.809 94.6375 306.052 94.3256C306.298 94.0067 306.572 93.7087 306.856 93.421C310.273 89.9205 314.605 89.8789 318.941 90.534C324.067 91.3103 327.72 94.5717 330.905 98.4257C331.37 98.9872 331.536 99.5971 330.988 100.114C330.302 100.758 329.765 100.28 329.256 99.7219C328.164 98.5366 327.103 97.3097 325.908 96.2318C324.279 94.7623 322.539 93.4141 320.251 92.7833C320.251 92.7833 315.496 90.8182 311.597 92.5823L311.59 92.5857Z" fill="black"/>
<path d="M265.284 87.6318C266.778 88.4463 277.653 91.1947 278.665 92.2067C278.988 92.529 280.135 91.8393 279.813 91.2605C279.237 90.2346 268.479 87.7496 267.561 87.0703L265.284 87.6318Z" fill="black"/>
<path d="M265.041 92.8472C266.729 93.062 277.861 91.6688 279.167 92.2441C279.587 92.4278 280.405 91.3672 279.892 90.9479C278.984 90.1992 268.056 91.797 266.954 91.4955L265.037 92.8472H265.041Z" fill="black"/>
<path d="M372.299 110.559C372.95 110.233 373.709 110.056 374.437 109.977C375.064 109.907 375.525 110.302 375.601 110.989C375.678 111.661 375.445 112.039 374.7 112.17C372.08 112.628 370.444 114.517 368.767 116.347C368.24 116.922 368.531 117.168 368.996 117.543C370.583 118.818 371.536 120.468 371.838 122.499C372.378 126.131 370.739 128.962 368.538 131.593C368.049 132.175 367.505 132.581 366.809 131.874C366.216 131.271 366.282 130.713 366.857 130.082C367.911 128.928 368.725 127.6 369.256 126.127C370.295 123.24 369.633 120.672 367.398 118.835C366.362 120.246 365.703 121.837 365.294 123.504C365.086 124.353 364.74 124.779 363.901 124.568C363.069 124.356 362.858 123.694 363.104 122.939C364.791 117.796 367.152 113.13 372.288 110.559H372.299Z" fill="black"/>
<path d="M252.449 112.793C253.801 106.804 255.495 100.906 256.809 94.9131C259.027 84.8137 259.117 74.4543 260.303 64.2266C260.677 60.9999 260.826 57.7246 261.789 54.6088C260.767 52.3075 260.147 49.8918 259.921 47.4415C259.2 44.7901 259.277 42.0105 259.907 39.1442C260.743 35.3526 262.753 32.3581 265.439 29.8315C265.848 29.3186 266.278 28.816 266.732 28.3273C269.002 25.8631 270.35 23.6103 266.631 20.7406C264.957 19.4444 264.669 17.1777 265.737 15.022C266.867 12.7449 268.454 14.6407 269.75 14.6477C274.727 14.6789 279.732 15.2576 284.608 14.0585C294.029 11.7433 303.626 10.4297 313.351 9.58753C325.776 8.51312 337.716 9.50781 348.619 17.1257C355.242 21.7492 361.696 26.6221 366.808 33.1241C366.818 33.1345 366.829 33.1414 366.839 33.1518C369.179 28.2615 369.348 28.5006 372.423 32.6492C373.927 34.6768 375.31 36.8568 375.095 39.3106C375.032 40.0176 374.783 40.7004 374.506 41.352C383.468 53.2537 385.797 67.4117 383.271 82.8381C382.252 89.0663 380.748 95.2008 379.06 101.283C378.765 102.344 378.938 102.947 379.916 103.654C383.302 106.111 385.153 109.539 385.638 113.695C386.49 120.976 384.026 127.284 379.801 133.003C376.141 137.959 371.802 141.972 365.13 142.149C364.157 142.173 364.261 142.846 364.167 143.459C363.221 149.549 362.562 155.666 362.316 161.832L360.181 162.556C360.403 155.94 360.992 149.344 362.24 142.832C362.379 142.111 362.178 141.941 361.626 141.747C360.663 141.404 359.717 141.016 358.705 140.624C357.876 143.844 357.149 147.084 356.206 150.263C349.087 174.243 332.794 188.553 308.998 194.91C307.615 195.28 306.235 195.828 304.804 195.852C248.782 196.753 249.319 151.666 249.319 151.666C248.976 149.278 248.973 146.838 248.879 144.419C248.463 133.696 250.103 123.222 252.452 112.797L252.449 112.793ZM360.698 139.144C365.422 140.804 369.712 139.882 373.383 136.649C378.769 131.904 382.279 126.002 383.382 118.827C383.95 115.14 383.399 111.587 381.52 108.326C378.685 103.404 373.306 101.98 368.277 104.808C365.009 106.645 362.763 109.463 361.048 112.734C360.334 114.093 360.906 115.576 360.867 117.004C360.289 123.427 359.786 129.852 359.083 136.261C358.909 137.827 359.29 138.649 360.698 139.144ZM264.773 142.108C265.193 142.839 272.034 161.159 288.761 161.724C297.124 162.005 316.321 150.613 315.593 143.282C297.19 161.766 277.032 164.095 267.896 140.739C283.395 145.861 312.671 137.851 312.706 137.196C308.162 136.905 281.597 140.347 267.605 137.786C264.001 137.127 262.84 138.739 264.773 142.108ZM257.107 131.194C257.447 132.032 257.665 132.937 258.469 133.696C262.202 129.104 266.662 126.106 273.074 127.35C271.369 121.611 273.532 116.533 275.576 111.521C278.595 104.136 282.075 96.9545 285.922 89.957C286.196 89.4614 286.404 88.8895 287.014 88.6815C287.492 88.5186 287.762 88.8756 288.043 89.1529C288.636 89.7386 288.106 90.2238 287.853 90.6917C284.986 96.0014 282.331 101.419 279.815 106.901C277.708 111.494 275.698 116.107 274.679 121.105C273.39 127.423 278.242 132.129 284.581 130.604C287.132 129.991 289.572 128.785 292.306 129.124C292.989 129.211 293.682 129.235 294.361 129.353C296.69 129.762 297.99 128.885 298.361 126.525C298.458 125.905 298.5 125.309 299.279 125.361C299.997 125.409 300.142 125.984 300.181 126.612C300.253 127.859 299.723 128.913 298.922 130.088C305.164 128.722 311.022 129.336 316.726 131.533C321.371 133.322 325.02 136.448 328.133 140.236C328.815 141.068 329.255 141.39 330.368 140.811C343.604 133.904 351.08 123.028 353.139 108.281C353.634 104.732 353.724 101.166 354.067 97.6165C354.338 94.7988 353.08 92.3241 352.283 89.7837C350.231 83.2575 350.03 76.6724 351.153 69.9972C352.393 62.6115 350.307 58.1059 343.795 54.4633C336.073 50.1448 327.71 48.1901 318.917 47.7291C309.881 47.2543 301.224 49.2853 292.552 51.3891C287.575 52.5952 279.094 53.6003 273.909 53.323C271.982 53.219 270.118 52.9002 268.406 52.0822C268.128 51.9505 267.903 51.8743 267.709 51.8466C267.369 52.0476 267.023 52.2521 266.676 52.46C266.617 52.5536 266.558 52.661 266.496 52.7754C262.33 59.312 263.515 65.3079 262.039 71.9311C261.876 72.6589 261.751 73.3937 261.626 74.125C261.613 74.2151 261.692 74.3191 261.734 74.4196C267.948 72.4822 275.358 72.9743 281.212 75.7817C282.318 76.3119 283.295 77.012 284.092 77.9444C285.063 79.0777 285.267 80.3254 284.418 81.5835C283.603 82.7896 282.491 82.5193 281.333 82.0687C277.4 80.5403 273.365 79.4589 269.088 79.601C266.465 79.6877 263.997 80.3601 261.644 81.5072C261.103 81.7707 260.673 82.0098 260.642 82.7342C260.275 90.9482 258.077 98.8122 255.963 106.687C253.735 114.991 253.849 123.156 257.114 131.19L257.107 131.194Z" fill="black"/>
<path d="M317.326 102.584C314.436 102.584 312.093 100.241 312.093 97.3506C312.093 94.4603 314.436 92.1172 317.326 92.1172C320.216 92.1172 322.56 94.4603 322.56 97.3506C322.56 100.241 320.216 102.584 317.326 102.584Z" fill="black"/>
</g>
<defs>
<clipPath id="clip0_757_55635">
<rect width="540" height="540" fill="white"/>
</clipPath>
</defs>
</svg>
