<svg width="541" height="540" viewBox="0 0 541 540" fill="none" xmlns="http://www.w3.org/2000/svg">
<g clip-path="url(#clip0_757_55634)">
<g clip-path="url(#clip1_757_55634)">
<path d="M355.351 81.1253C354.646 81.6963 354.064 81.2932 353.482 80.8454C347.436 76.255 340.46 74.7995 332.131 74.8107C330.373 74.7659 327.719 75.0346 325.077 75.4712C323.543 75.7176 322.267 75.3145 321.55 73.8926C320.811 72.4371 321.371 71.1943 322.468 70.1531C323.33 69.3358 324.394 68.8991 325.514 68.5409C330.071 67.0966 334.728 66.8055 339.442 67.5444C344.715 68.3729 349.473 70.3434 353.213 74.3068C354.489 75.6616 355.609 77.1507 356.124 78.9868C356.381 79.8825 356.034 80.5767 355.362 81.1365L355.351 81.1253Z" fill="black"/>
<path d="M326.566 86.667C326.219 86.8909 325.905 87.2715 325.513 86.9021C325.11 86.5214 325.446 86.1519 325.692 85.8384C325.939 85.5138 326.219 85.2227 326.499 84.9316C329.947 81.4048 334.313 81.36 338.691 82.0206C343.864 82.8043 347.547 86.096 350.761 89.981C351.231 90.5408 351.399 91.1678 350.839 91.6828C350.145 92.3322 349.607 91.8507 349.092 91.2909C347.995 90.093 346.92 88.8614 345.711 87.7754C345.711 87.7754 337.18 79.8821 326.555 86.6781L326.566 86.667Z" fill="black"/>
<path d="M286.741 80.7339C284.759 81.4392 283.36 82.6596 281.938 83.8352C281.568 84.1375 281.154 84.5517 280.751 84.1039C280.415 83.7344 280.964 83.3985 281.154 83.0851C284.58 77.0168 293.1 77.3527 296.907 80.1853C297.836 80.8682 298.654 81.7079 299.225 82.7492C299.549 83.3314 299.93 83.9807 299.247 84.4286C298.643 84.8205 298.396 84.0255 298.072 83.7008C297.053 82.682 296.112 81.5736 294.612 80.7563C294.612 80.7563 289.551 79.1664 286.741 80.7451V80.7339Z" fill="black"/>
<path d="M392.511 102.207C393.171 101.882 393.932 101.703 394.671 101.625C395.31 101.557 395.769 101.949 395.847 102.643C395.925 103.326 395.69 103.707 394.94 103.83C392.298 104.289 390.652 106.204 388.95 108.04C388.413 108.622 388.715 108.868 389.185 109.249C390.786 110.537 391.749 112.205 392.052 114.254C392.6 117.915 390.943 120.77 388.726 123.423C388.234 124.006 387.685 124.42 386.98 123.703C386.386 123.099 386.442 122.539 387.024 121.901C388.088 120.736 388.905 119.393 389.443 117.915C390.495 115.004 389.824 112.418 387.573 110.559C386.532 111.981 385.86 113.582 385.446 115.273C385.233 116.124 384.886 116.56 384.046 116.347C383.207 116.135 382.994 115.463 383.24 114.702C384.942 109.518 387.327 104.804 392.511 102.218V102.207Z" fill="black"/>
<path d="M155.691 977.472C156.643 969.993 159.14 963.432 165.051 958.293C171.657 952.56 179.45 949.325 187.522 946.492C197.912 942.842 207.876 938.453 216.105 930.84C217.091 929.933 218.389 929.206 219.677 928.802C222.924 927.772 228.421 921.368 228.813 918.054C228.97 916.744 228.332 916.05 227.38 915.591C222.554 913.273 222.521 909.12 222.689 904.563C224.458 854.919 224.872 805.254 225.891 755.599C227.626 670.923 227.985 586.214 231.019 501.56C231.119 498.705 231.892 495.66 227.727 494.607C225.521 494.059 226.518 490.364 226.518 490.364C226.495 484.307 233.493 362.874 233.493 356.694C230.582 359.863 227.66 362.919 224.2 365.405C217.281 370.376 210.026 374.44 201.17 374.608C191.855 374.776 184.264 371.383 178.823 363.759C172.553 354.97 171.366 344.905 172.127 334.515C172.732 326.274 174.758 318.303 177.468 310.51C177.949 309.122 177.793 308.45 176.483 307.633C172.609 305.192 172.194 303.647 174.109 299.773C181.745 284.289 189 268.637 195.986 252.85C200.677 242.237 205.682 231.791 212.187 222.128C218.289 213.082 225.544 205.301 235.609 200.554C242.853 197.139 250.433 194.653 258.102 192.403C259.154 192.089 259.591 191.686 259.692 190.555C259.826 188.887 260.229 187.241 260.532 185.596C261.595 179.897 262.771 174.198 263.084 168.41C263.387 162.868 262.592 157.415 260.968 152.086C260.599 150.888 260.52 149.69 260.912 148.503C261.741 145.973 263.846 144.719 266.992 145.043C268.212 145.167 268.694 145.223 268.481 143.666C268.134 141.259 268.134 138.796 268.033 136.355C267.619 125.54 269.264 114.971 271.638 104.458C273.004 98.4117 274.706 92.4666 276.038 86.4207C278.277 76.2323 278.367 65.7863 279.565 55.4748C279.946 52.2167 280.091 48.9139 281.065 45.7678C280.035 43.4502 279.408 41.0094 279.184 38.5351C278.456 35.8592 278.535 33.0602 279.173 30.1716C280.013 26.3426 282.039 23.3308 284.749 20.7781C285.163 20.2631 285.6 19.7593 286.059 19.2554C288.354 16.7699 289.709 14.4971 285.958 11.5973C284.267 10.2874 283.976 8.00338 285.062 5.83134C286.204 3.53615 287.805 5.45068 289.115 5.45068C294.131 5.48427 299.18 6.06646 304.107 4.85729C313.612 2.51731 323.286 1.19617 333.093 0.345267C345.622 -0.740753 357.669 0.266894 368.663 7.9474C375.347 12.6162 381.852 17.5201 387.014 24.081C387.014 24.081 387.036 24.1033 387.047 24.1033C389.41 19.1659 389.578 19.4122 392.679 23.5995C394.19 25.6484 395.59 27.8428 395.377 30.3172C395.31 31.0337 395.064 31.7167 394.784 32.3772C403.83 44.3794 406.17 58.6656 403.629 74.2282C402.599 80.5092 401.087 86.7006 399.385 92.8361C399.083 93.8997 399.262 94.5155 400.247 95.232C403.662 97.7064 405.532 101.166 406.013 105.364C406.875 112.709 404.39 119.068 400.124 124.846C396.43 129.839 392.052 133.892 385.323 134.071C384.338 134.094 384.45 134.777 384.349 135.392C383.397 141.539 382.726 147.708 382.479 153.922C382.177 161.535 381.774 169.171 383.017 176.728C383.666 180.703 384.159 184.913 389.174 186.458C391.503 187.174 393.507 188.876 395.691 190.074C408.846 197.307 422.057 204.461 435.168 211.772C442.054 215.601 448.413 220.169 453.619 226.193L466.987 240.087C483.154 258.661 502.098 274.649 513.977 297.209C519.463 307.633 526.763 317.183 533.559 326.901C541.777 338.657 543.188 350.01 536.201 361.307C535.608 362.27 535.16 363.333 534.6 364.307C518.735 391.525 500.072 416.425 480.568 440.609C475.228 447.226 469.965 453.82 466.327 461.792C464.267 466.315 461.378 470.334 457.023 472.484C451.357 475.283 446.633 479.504 441.147 482.549C437.978 484.307 434.877 486.468 433.085 489.804C432.403 491.069 431.641 491.875 430.79 492.301C430.981 492.872 431.037 497.709 431.037 497.709C429.335 498.448 427.487 499.948 427.711 502.254C428.271 508.143 428.461 514.066 428.988 519.966C431.641 549.815 432.268 579.776 434.015 609.681C435.302 631.759 436.377 653.849 437.519 675.939C438.818 700.985 440.105 726.03 441.359 751.076C442.49 773.513 443.52 795.961 444.696 818.398C446.286 848.661 447.965 878.924 449.622 909.187C449.824 912.792 449.421 916.364 446.476 918.715C443.946 920.73 444.405 922.555 445.446 925.029C449.745 935.184 454.839 944.79 462.744 952.695C470.245 960.207 474.421 969.388 475.821 979.868C476.616 985.824 474.802 990.526 469.294 993.393C466.998 994.591 464.67 995.789 462.24 996.684C449.611 1001.33 436.433 999.741 423.434 999.718C412.048 999.696 401.591 996.124 392.007 990.011C387.081 986.865 384.606 982.7 384.696 976.576C384.976 959.155 384.842 941.723 384.898 924.29C384.898 922.152 385.166 919.812 382.121 919.834C378.202 919.857 377.43 917.214 376.657 914.236C370.768 891.475 368.932 868.03 365.17 844.921C360.96 819.047 357.893 792.972 354.332 766.997C350.436 738.603 346.338 710.233 342.196 681.873C337.023 646.493 332.03 611.091 325.659 575.723C324.831 589.617 324.024 603.523 323.174 617.417C321.371 646.784 319.792 676.174 317.676 705.519C314.877 744.224 311.642 782.906 308.574 821.6C306.268 850.743 304.431 879.909 301.341 908.997C300.759 914.494 299.113 918.256 293.549 919.823C292.709 920.058 290.369 919.767 291.466 922.264C293.191 926.171 292.787 930.482 293.314 934.602C294.903 947.041 295.956 959.547 295.743 972.098C295.598 980.54 293.974 982.432 285.779 984.1C279.319 985.41 272.78 986.541 266.219 987.145C236.874 989.821 207.484 991.713 178.016 989.239C172.004 988.735 165.925 988.097 160.327 985.298C156.99 983.63 155.255 981.39 155.747 977.494L155.691 977.472ZM175.273 303.983C175.419 304.162 175.542 304.352 175.688 304.532C176.471 305.461 177.367 306.648 178.52 306.547C179.304 306.48 179.282 304.923 179.651 304.039C180.2 302.729 180.648 301.374 181.241 299.773C179.125 300.199 177.401 300.546 175.822 301.441C174.669 302.091 174.445 302.908 175.262 303.972L175.273 303.983ZM258.908 194.082C257.609 194.508 256.378 194.911 255.157 195.303C249.492 197.15 243.849 199.02 238.352 201.337C228.88 205.334 221.894 212.242 215.971 220.427C208.862 230.257 203.51 241.05 198.595 252.067C191.687 267.562 184.723 283.024 177.177 298.228C177.132 298.329 177.132 298.452 177.065 298.754C180.211 297.982 183.301 297.4 186.458 297.165C188.921 296.985 191.34 297.086 193.736 297.545C194.463 297.68 194.9 297.545 195.382 296.974C205.604 284.759 215.792 272.522 226.16 260.419C227.85 258.448 227.828 256.288 228.119 254.116C229.395 244.879 230.772 235.653 232.351 226.461C232.485 225.655 232.855 225.073 233.65 225.129C234.669 225.196 234.557 226.058 234.422 226.73C233.426 231.97 232.609 237.232 231.858 242.505C231.243 246.849 230.616 251.193 229.933 255.952C232.071 253.41 233.997 251.171 235.867 248.898C241.006 242.662 245.909 236.269 250.421 229.551C253.993 224.233 255.874 218.333 256.77 212.074C257.542 206.622 258.192 201.147 258.886 195.683C258.942 195.235 258.886 194.765 258.886 194.06L258.908 194.082ZM270.742 148.234C269.22 146.644 267.384 146.454 265.447 146.857C263.263 147.316 262.267 149.253 262.995 151.604C264.752 157.325 265.447 163.181 265.122 169.137C264.864 173.94 263.935 178.688 263.062 183.412C261.606 191.283 260.218 199.165 259.602 207.137C258.695 219.016 253.836 229.137 246.738 238.508C238.542 249.312 229.53 259.423 220.897 269.846C210.037 282.957 198.595 295.597 188.429 309.279C185.999 312.537 183.928 316.03 181.991 319.601C181.644 320.251 181.42 321.393 180.3 320.867C179.114 320.307 179.774 319.422 180.177 318.661C183.738 311.843 188.238 305.651 193.232 299.493C190.108 298.732 187.175 299.079 184.23 299.381C183.603 299.448 183.525 299.852 183.357 300.288C179.785 309.581 176.427 318.963 174.87 328.838C173.381 338.243 173.404 347.603 177.199 356.571C180.76 364.968 186.716 370.667 195.953 372.212C202.648 373.331 208.962 371.921 214.941 368.775C222.678 364.699 228.858 358.888 234.489 352.238C243.29 341.859 248.854 329.711 254.34 317.497C262.412 299.549 269.421 281.154 277.102 263.039C278.725 259.199 280.382 255.381 282.263 251.652C283.248 249.704 284.603 248.305 286.562 247.308C290.436 245.327 294.355 243.457 298.027 241.083C301.655 238.732 304.722 235.799 306.95 232.149C309.279 228.309 312.403 225.633 316.523 223.931C319.501 222.688 321.517 220.46 322.569 217.348C323.162 215.601 322.737 214.123 321.651 212.824C320.554 211.503 319.177 210.91 317.34 211.257C314.373 211.828 311.507 212.724 308.63 213.586C307.801 213.832 306.917 214.19 306.581 213.127C306.234 212.018 307.286 211.906 308.037 211.626C310.645 210.664 313.343 210.025 316.042 209.376C317.755 208.962 319.501 208.951 321.17 209.678C321.573 209.857 321.886 210.216 322.211 209.454C323.509 206.398 323.89 202.11 321.259 199.109C319.703 197.329 317.911 196.769 315.661 197.161C311.72 197.833 307.824 198.673 303.95 199.669C303.558 199.77 303.155 199.882 302.763 199.904C302.125 199.938 301.408 199.994 301.218 199.154C301.017 198.27 301.722 198.079 302.338 197.911C306.939 196.724 311.552 195.65 316.266 195.023C316.949 194.933 317.743 194.821 318.337 195.067C319.893 195.728 320.352 194.9 320.845 193.668C321.718 191.474 321.729 189.223 321.304 186.984C320.845 184.588 318.908 183.233 316.21 183.076C311.754 182.83 307.443 183.827 303.11 184.644C301.073 185.025 299.08 185.64 297.064 186.155C296.348 186.335 295.788 186.155 295.497 185.45C295.183 184.7 295.732 184.342 296.281 184.174C301.834 182.528 306.626 179.27 311.798 176.807C319.076 173.347 326.297 169.798 333.541 166.282C334.896 165.622 336.239 164.928 337.449 164.01C338.333 163.338 339.15 162.576 339.576 161.524C340.147 160.113 340.27 158.691 339.251 157.415C338.266 156.172 336.9 155.993 335.456 156.329C330.888 157.404 326.454 158.915 322.009 160.393C310.265 164.323 298.542 168.298 287.682 174.377C282.599 177.221 277.852 180.557 273.485 184.409C272.926 184.901 272.355 185.618 271.604 184.733C270.877 183.883 271.604 183.323 272.153 182.841C273.553 181.621 275.008 180.468 276.441 179.281C276.923 178.878 277.471 178.576 277.415 177.77C276.956 171.175 277.482 164.502 275.669 158.031C274.661 154.437 273.407 150.989 270.731 148.212L270.742 148.234ZM334.616 135.448C334.403 134.586 333.564 134.844 332.993 134.956C327.63 135.975 322.256 136.803 316.803 137.161C307.286 137.8 298.038 136.848 289.35 132.549C289.249 132.493 289.138 132.459 289.037 132.403C288.511 132.112 287.962 131.821 287.469 132.403C286.876 133.108 287.637 133.455 287.984 133.803C290.783 136.579 294.12 138.55 297.747 140.016C299.729 140.822 301.8 141.416 303.894 141.83C306.122 142.267 308.395 142.345 310.656 142.368C318.762 142.368 326.286 140.016 333.519 136.579C334 136.344 334.806 136.176 334.616 135.437V135.448ZM281.647 175.609C280.864 174.78 280.102 173.985 279.218 173.045V177.064C280.192 176.773 280.864 176.135 281.647 175.609ZM372.313 81.2593C370.242 74.676 370.04 68.0368 371.171 61.2967C372.425 53.8513 370.32 49.3057 363.748 45.6334C355.956 41.2781 347.525 39.3076 338.658 38.8374C329.544 38.356 320.811 40.4048 312.067 42.5321C307.051 43.7525 298.497 44.7601 293.258 44.4802C291.321 44.3794 289.429 44.0548 287.704 43.2262C287.425 43.0919 287.201 43.0135 286.999 42.9911C286.652 43.1927 286.305 43.4054 285.958 43.6069C285.902 43.7077 285.835 43.8084 285.779 43.9204C281.58 50.5149 282.767 56.5608 281.278 63.2448C281.11 63.9726 280.987 64.7227 280.864 65.4617C280.852 65.5512 280.931 65.652 280.976 65.7528C287.245 63.7934 294.713 64.2973 300.625 67.1299C301.744 67.6673 302.73 68.3726 303.524 69.3131C304.499 70.4551 304.711 71.7203 303.849 72.9854C303.032 74.2058 301.901 73.9259 300.737 73.478C296.762 71.933 292.698 70.847 288.387 70.9925C285.745 71.0821 283.248 71.7538 280.875 72.9182C280.326 73.1869 279.901 73.4221 279.867 74.161C279.498 82.4461 277.281 90.3841 275.154 98.3221C272.903 106.697 273.026 114.937 276.318 123.032C276.665 123.883 276.878 124.79 277.695 125.551C281.457 120.916 285.958 117.893 292.429 119.147C290.705 113.358 292.888 108.242 294.959 103.181C298.005 95.7359 301.509 88.492 305.394 81.4273C305.674 80.9234 305.887 80.3524 306.491 80.1397C306.973 79.9718 307.242 80.33 307.533 80.6099C308.126 81.2033 307.6 81.696 307.342 82.1662C304.454 87.5291 301.778 92.9816 299.236 98.5125C297.109 103.148 295.083 107.794 294.053 112.832C292.754 119.203 297.647 123.95 304.039 122.416C306.615 121.8 309.078 120.58 311.832 120.927C312.526 121.017 313.22 121.039 313.903 121.162C316.254 121.576 317.564 120.692 317.934 118.307C318.035 117.68 318.079 117.076 318.863 117.132C319.591 117.176 319.736 117.759 319.77 118.397C319.848 119.662 319.311 120.714 318.505 121.901C324.797 120.524 330.709 121.14 336.463 123.357C341.143 125.159 344.827 128.316 347.962 132.134C348.645 132.974 349.093 133.299 350.212 132.717C363.558 125.753 371.104 114.78 373.175 99.9008C373.679 96.318 373.769 92.7241 374.116 89.1414C374.384 86.2976 373.119 83.8008 372.313 81.2369V81.2593ZM393.597 128.529C399.027 123.748 402.565 117.792 403.685 110.548C404.256 106.831 403.696 103.248 401.804 99.9568C398.949 94.9969 393.519 93.5526 388.447 96.4076C385.144 98.2662 382.882 101.099 381.158 104.402C380.442 105.779 381.013 107.268 380.979 108.712C380.397 115.183 379.882 121.677 379.176 128.137C379.008 129.716 379.389 130.544 380.811 131.048C385.569 132.728 389.902 131.787 393.608 128.529H393.597ZM385.536 187.017C382.591 185.092 381.819 181.934 381.192 178.811C379.591 170.817 380.005 162.722 380.285 154.661C380.509 147.988 381.102 141.337 382.356 134.765C382.49 134.038 382.289 133.87 381.74 133.668C380.766 133.321 379.815 132.929 378.796 132.537C377.956 135.784 377.228 139.053 376.277 142.256C369.1 166.439 352.664 180.871 328.66 187.286C327.26 187.656 325.849 187.992 324.428 188.238C323.677 188.372 323.509 188.675 323.577 189.391C323.801 191.653 323.33 193.78 322.144 195.728C321.785 196.31 321.729 196.668 322.244 197.217C326.073 201.304 326.152 205.883 323.857 210.72C323.666 211.134 323.353 211.436 323.7 211.974C324.528 213.261 324.954 214.683 324.954 216.25C324.954 217.336 325.861 216.956 326.387 216.933C331.615 216.777 336.777 216.06 341.849 214.739C354.937 211.324 366.794 205.491 377.094 196.646C380.094 194.071 382.916 191.294 385.413 188.215C385.67 187.902 386.364 187.566 385.547 187.029L385.536 187.017ZM436.769 214.996C420.904 205.838 404.513 197.631 388.682 188.395C388.066 188.036 387.753 188.148 387.305 188.742C386.409 189.951 385.413 191.104 384.383 192.201C374.362 202.905 362.147 210.126 348.376 214.873C341.378 217.28 334.202 218.915 326.768 218.826C324.92 218.803 323.991 219.027 323.151 220.83C321.729 223.875 318.796 225.398 315.851 226.719C313.355 227.838 311.339 229.383 309.839 231.779C307.645 235.273 305.092 238.519 301.733 241.05C297.243 244.431 292.116 246.625 287.1 249.01C285.991 249.536 285.23 250.231 284.681 251.339C282.924 254.866 281.367 258.471 279.811 262.087C271.414 281.658 263.913 301.609 255.079 321.001C249.783 332.622 244.409 344.222 235.766 353.884C235.475 354.209 235.184 354.533 235.24 355.104C235.855 361.889 228.332 484.049 228.533 490.834C228.533 490.834 230.828 492.939 234.478 493.857C246.816 497.809 259.546 499.534 272.321 500.799C292.429 502.792 312.616 503.575 330.16 503.072C359.841 503.251 386.79 502.422 413.47 497.765C418.161 496.947 422.774 495.716 427.454 494.831C427.286 493.992 427.118 493.141 427.084 492.335C426.491 492.122 425.875 491.831 425.237 491.472C422.449 489.905 419.617 488.785 419.001 484.464C418.855 483.445 413.56 485.539 410.872 482.874C410.749 482.751 410.57 482.672 410.469 482.538C410.469 482.538 407.592 480.646 407.312 476.85C406.808 474.857 405.42 474.723 404.547 473.962C400.057 470.077 399.173 467.11 401.871 462.262C403.069 460.101 403.304 459.149 401.098 457.022C395.915 451.995 396.486 447.494 401.087 442.075C407.122 434.977 414.892 431.394 423.322 429.11C422.919 413.145 416.672 302.18 416.997 292.025C413.179 288.611 415.832 291.298 409.786 285.118C403.741 278.937 405.23 268.514 406.696 261.561C410.357 244.252 419.986 231.6 436.299 224.3C439.299 222.957 442.513 222.252 445.95 221.412C442.96 218.915 439.96 216.821 436.803 215.008L436.769 214.996ZM425.315 428.584C426.928 428.192 428.551 427.834 430.186 427.498C430.186 427.498 435.47 426.647 438.516 422.471C448.973 409.808 462.845 383.318 466.786 373.79C470.548 364.688 474.791 355.922 480.031 347.782C481.52 345.464 481.464 343.908 479.068 341.736C475.44 338.433 472.216 334.627 468.756 331.111C466.741 329.062 465.117 326.05 461.725 328.827C460.023 330.215 458.12 327.674 456.597 326.353C447.45 318.437 438.348 310.443 429.212 302.516C427.812 301.307 426.289 300.266 424.061 298.553L418.777 293.683C419.012 303.748 424.767 412.764 425.315 428.595V428.584ZM499.176 278.702C486.905 265.759 474.802 252.649 462.666 239.583C459.184 235.832 451.447 226.663 451.447 226.663C448.973 223.718 446.622 223.024 442.938 224.076C428.529 228.197 418.631 237.366 412.238 250.645C409.07 257.239 407.738 264.259 407.693 271.738C407.693 271.738 408.723 279.721 411.085 282.352C413.448 284.983 440.755 308.349 458.198 323.878C459.43 324.976 460.247 326.521 461.938 324.304C469.977 313.824 480.77 306.312 489.57 296.638C492.895 292.977 496.086 289.159 499.624 285.744C502.232 283.237 501.785 281.456 499.165 278.702H499.176ZM430.745 486.949C432.391 483.725 435.862 482.258 438.739 480.355C444.125 476.794 449.555 473.312 455.075 469.965C458.433 467.938 461.221 465.218 462.733 461.601C468.185 448.647 478.015 439.377 486.054 428.629C502.479 406.651 519.15 384.953 533.022 360.848C539.571 349.473 538.944 339.083 530.76 327.595C523.068 316.791 515.847 305.64 508.401 294.645C506.733 292.182 504.852 289.865 503.71 286.663C492.503 298.878 480.546 309.76 468.655 320.721C465.621 323.52 466.215 325.144 469.394 327.987C474.22 332.309 478.396 337.437 483.121 341.893C485.629 344.266 484.352 345.879 483.401 347.636C471.197 369.917 461.333 393.675 447.931 415.261C442.199 424.497 436.086 430.308 425.562 431.887C416.874 433.186 409.518 437.384 403.573 443.979C399.889 448.065 399.464 451.211 402.621 455.096C404.524 457.448 405.319 456.933 406.842 454.895C414.332 444.93 418.038 447.741 424.117 445.054C424.789 444.762 426.021 444.236 426.603 445.77C427.196 447.338 426.39 447.897 425.181 448.289C423.535 448.827 419.37 449.577 417.702 450.069C410.223 452.253 408.398 458.075 404.345 464.378C402.722 466.897 403.181 468.946 405.577 471.096C407.379 472.719 408.297 472.999 409.596 470.715C412.888 464.938 418.083 461.299 423.826 458.466C424.991 457.895 426.637 456.283 427.622 458.119C428.853 460.392 426.334 460.717 425.08 461.366C419.964 464.008 415.273 467.211 412.205 472.316C411.242 473.906 409.283 475.563 410.861 478.138C412.574 480.926 415.049 481.642 417.825 481.262C418.441 481.172 419.079 481.138 419.717 481.071C425.383 475.149 428.551 470.021 435.47 469.327C435.493 471.252 433.847 471.555 432.783 472.372C429.514 474.88 426.245 477.455 423.804 480.847C422.74 482.325 419.393 484.027 422.46 486.389C424.711 488.125 428.002 492.312 430.745 486.949ZM394.459 987.447C403.125 993.046 412.798 995.665 422.987 996.292C436.724 997.132 450.495 997.681 463.651 992.475C470.805 989.653 471.981 987.481 471.51 980.763C442.759 993.572 415.261 991.086 388.357 975.68C386.767 981.861 390.417 984.839 394.459 987.447ZM391.044 973.352C410.257 985.163 431.07 987.391 452.847 984.1C458.646 983.226 463.718 980.629 468.196 976.867C470.66 974.807 471.219 972.557 469.809 969.511C467.502 964.552 464.726 959.849 460.65 956.311C457.079 953.221 452.04 954.8 447.708 953.904C434.116 951.094 420.736 952.874 407.603 957.017C406.282 957.431 404.939 957.767 403.584 958.024C402.587 958.214 401.266 958.506 400.863 957.308C400.303 955.662 401.848 955.337 402.946 954.945C416.426 950.153 430.286 948.429 444.517 950.064C448.626 950.534 452.746 951.083 456.877 952.325C454.47 948.978 452.499 946.257 447.304 945.552C434.418 943.794 421.789 942.439 409.283 947.231C407.103 948.067 405.028 948.347 403.058 948.071C409.271 940.569 427.174 938.666 450.439 943.111C448.536 938.185 445.715 935.509 440.128 934.68C431.216 933.37 422.516 933.247 413.716 934.949C412.362 935.207 410.29 936.382 409.742 934.065C409.204 931.758 411.443 931.949 412.854 931.579C423.177 928.847 433.477 929.452 444.382 932.318C441.591 925.518 436.9 922.227 430.309 922.443C418.284 922.869 406.271 923.081 394.313 921.402C390.003 920.797 387.786 921.547 387.92 926.854C388.268 940.603 388.044 954.374 387.898 968.145C387.876 970.743 388.805 971.997 391.055 973.374L391.044 973.352ZM298.061 905.067C301.117 869.519 304.375 833.994 307.197 798.424C309.638 767.534 311.563 736.611 313.724 705.698C316.075 672.009 318.527 638.32 320.755 604.62C321.763 589.326 322.267 573.999 323.174 558.705C323.375 555.335 322.155 553.812 319.053 552.704C313.008 550.554 306.984 548.214 301.845 544.172C300.949 543.467 299.472 542.84 300.569 541.329C301.442 540.119 302.45 541.06 303.301 541.552C309.492 545.102 316.008 547.934 322.737 550.263C325.894 551.36 326.734 553.924 327.014 556.813C329.634 584.523 335.612 611.73 339.486 639.249C344.065 671.752 348.846 704.232 353.459 736.734C358.318 770.96 363.009 805.209 367.913 839.424C370.925 860.394 373.455 881.443 377.452 902.257C378.034 905.313 379.042 908.302 379.523 911.37C380.094 914.986 382.132 916.509 385.637 916.879C402.442 918.636 419.236 920.517 436.176 918.368C445.2 917.226 446.14 915.882 445.625 907.026C444.696 891.027 444.17 875.005 443.375 859.006C442.165 834.655 440.867 810.314 439.602 785.974C438.426 763.369 437.228 740.753 436.064 718.148C434.429 686.139 432.806 654.129 431.193 622.131C430.018 598.82 428.954 575.51 427.667 552.211C426.748 535.697 425.472 519.205 424.52 502.691C424.33 499.433 422.483 499.5 420.333 499.937C405.14 503.072 389.768 504.717 374.284 505.378C345.185 506.621 316.098 506.789 286.999 505.378C270.821 504.594 254.777 502.613 239.046 498.694C235.06 497.697 234.187 498.436 234.142 502.501C233.751 540.31 232.105 578.096 231.858 615.917C231.668 645.363 230.828 674.808 230.089 714.162C230.571 737.887 228.925 771.498 228.69 805.142C228.455 838.416 227.201 871.691 226.182 904.966C226.059 908.985 227.156 911.549 230.627 913.475C236.639 916.789 242.864 919.275 249.839 919.331C262.021 919.409 274.236 920.484 286.339 918.245C296.314 916.397 297.165 915.334 298.038 905.089L298.061 905.067ZM292.16 959.155C291.836 947.477 289.227 935.99 289.574 924.302C289.63 922.611 289.63 920.909 287.245 921.435C279.229 923.227 270.966 921.962 262.301 923.126C265.29 927.75 268.985 930.571 273.295 932.822C277.706 935.139 282.733 932.631 288.376 934.568C282.207 937.882 276.833 938.084 271.896 935.755C266.622 933.27 261.304 930.18 259.244 924.122C258.449 921.783 256.994 922.969 255.952 922.98C248.932 923.092 242.058 922.477 235.598 919.465C233.549 918.513 232.183 918.704 231.097 921.032C229.72 923.988 227.906 926.742 226.283 929.575C228.97 931.03 231.746 932.363 234.333 933.975C236.382 935.251 238.274 936.808 240.132 938.364C240.838 938.957 242.036 939.797 241.017 940.883C240.121 941.835 239.091 941.107 238.263 940.435C234.445 937.345 230.145 935.162 225.622 933.27C221.312 931.467 218.02 932.273 215.019 936.181C221.177 938.577 228.029 939.808 230.728 946.94C224.413 944.544 219.733 938.711 212.344 939.17C209.388 939.36 206.846 940.961 204.126 942.775C210.149 944.421 214.225 947.869 216.441 953.4C217.012 954.822 218.3 956.692 216.643 957.599C214.616 958.707 213.978 956.255 213.62 954.99C211.627 947.825 206.287 945.932 199.737 945.787C199.244 945.776 198.696 945.798 198.248 945.988C188.507 950.053 177.972 952.314 169.373 958.942C167.011 960.756 164.805 962.693 163.092 965.167C159.42 970.474 160.203 972.87 166.373 974.359C168.713 974.919 171.209 975.087 173.639 975.065C211.235 974.662 248.82 974.482 285.969 967.138C291.578 966.029 292.306 964.328 292.16 959.166V959.155ZM161.066 981.995C167.156 984.973 173.695 985.914 180.278 986.115C190.187 986.417 200.118 986.194 205.76 986.194C233.034 986.888 255.896 985.264 278.658 982.017C281.401 981.625 284.144 981.178 286.842 980.573C291.41 979.532 293.616 975.792 292.631 971.292C291.981 968.302 289.966 969.802 288.522 970.004C277.538 971.549 266.566 973.206 255.583 974.796C239.192 977.169 222.644 977.147 206.152 977.729C195.37 978.11 184.577 977.964 173.784 978.009C170.134 978.02 166.507 977.875 162.947 976.744C161.749 976.363 160.024 974.281 159.084 976.834C158.334 978.849 158.558 980.763 161.066 981.995Z" fill="black"/>
<path d="M331.324 93.4655C329.08 93.4655 327.26 91.4453 327.26 88.9534C327.26 86.4615 329.08 84.4414 331.324 84.4414C333.569 84.4414 335.389 86.4615 335.389 88.9534C335.389 91.4453 333.569 93.4655 331.324 93.4655Z" fill="black"/>
<path d="M286.82 89.1998C284.86 89.1998 283.271 87.1797 283.271 84.6878C283.271 82.1959 284.86 80.1758 286.82 80.1758C288.78 80.1758 290.369 82.1959 290.369 84.6878C290.369 87.1797 288.78 89.1998 286.82 89.1998Z" fill="black"/>
</g>
</g>
<defs>
<clipPath id="clip0_757_55634">
<rect width="540" height="540" fill="white" transform="translate(0.646484)"/>
</clipPath>
<clipPath id="clip1_757_55634">
<rect width="540" height="1000" fill="white" transform="matrix(-1 0 0 1 540.646 0)"/>
</clipPath>
</defs>
</svg>
