<svg id="Layer_1" data-name="Layer 1" xmlns="http://www.w3.org/2000/svg" xmlns:xlink="http://www.w3.org/1999/xlink" viewBox="0 0 400 300"><defs><style>.cls-1{fill:url(#linear-gradient);}.cls-2{fill:#453a42;}</style><linearGradient id="linear-gradient" x1="76.7" y1="222.8" x2="76.7" y2="89.47" gradientUnits="userSpaceOnUse"><stop offset="0" stop-color="#c4136e"/><stop offset="1" stop-color="#e50647"/></linearGradient></defs><title>clixscale-logo</title><path class="cls-1" d="M20,222.76V89.51a0,0,0,0,1,.07,0L70.88,140.3a7.26,7.26,0,0,1,.5,9.9,7.1,7.1,0,0,1-10.33.31L34.24,123.7s-.07,0-.07,0v64.81a0,0,0,0,0,.07,0L60.8,162a7.1,7.1,0,0,1,10.33.32,7.28,7.28,0,0,1-.5,9.9L20.07,222.79A0,0,0,0,1,20,222.76Zm113.39,0v-72s0,0,0,0l-32.16-9s0,0,0-.06l18-18a0,0,0,0,1,.06,0v7.61a7.08,7.08,0,0,0,7.53,7.07,7.27,7.27,0,0,0,6.64-7.35V89.5a0,0,0,0,0-.06,0L82.57,140.24a7.08,7.08,0,0,0,3.09,11.83l33.53,9.43a0,0,0,0,1,0,0v27a0,0,0,0,1-.06,0L92.34,161.75a7.09,7.09,0,0,0-10.32.32,7.27,7.27,0,0,0,.49,9.9l50.82,50.82A0,0,0,0,0,133.39,222.76Z"/><path class="cls-2" d="M189.25,137.78a1.54,1.54,0,0,1,1.17.54l3.23,3.48a25.69,25.69,0,0,1-8.94,6.66A30.69,30.69,0,0,1,172,150.85a29.8,29.8,0,0,1-11.73-2.24,25.87,25.87,0,0,1-9-6.29,28.32,28.32,0,0,1-5.78-9.7,36.2,36.2,0,0,1-2.06-12.44,35.1,35.1,0,0,1,2.14-12.45,28.63,28.63,0,0,1,6-9.72,26.89,26.89,0,0,1,9.28-6.3,30.84,30.84,0,0,1,11.95-2.24,29.07,29.07,0,0,1,11.31,2,28.64,28.64,0,0,1,8.63,5.57l-2.68,3.73a2.26,2.26,0,0,1-.65.69,1.88,1.88,0,0,1-1.07.27,3.32,3.32,0,0,1-1.84-.81,29.53,29.53,0,0,0-2.85-1.83,21.15,21.15,0,0,0-10.9-2.63,21.71,21.71,0,0,0-8.5,1.61,18.42,18.42,0,0,0-6.64,4.67,21.51,21.51,0,0,0-4.34,7.46,29.82,29.82,0,0,0-1.55,9.93,29.07,29.07,0,0,0,1.61,10,22.4,22.4,0,0,0,4.4,7.44,18.65,18.65,0,0,0,6.58,4.63,21,21,0,0,0,8.19,1.59,33.76,33.76,0,0,0,4.84-.31,19.48,19.48,0,0,0,4-1,16.59,16.59,0,0,0,3.4-1.69,25.79,25.79,0,0,0,3.12-2.46A2.14,2.14,0,0,1,189.25,137.78Zm47.89,5.57v6.83H203.08v-60h8.08v53.21Zm17.09,6.83h-8.12v-60h8.12Zm61.13,0h-8a2.08,2.08,0,0,1-1.45-.48,4.5,4.5,0,0,1-.85-1.07L288.93,123.4a9.3,9.3,0,0,1-.76,1.72L272.5,148.63a9.42,9.42,0,0,1-.9,1.07,1.78,1.78,0,0,1-1.32.48h-7.54l20.66-30.84-19.82-29.2h8.08a2.34,2.34,0,0,1,1.3.29,3,3,0,0,1,.76.84l15.67,24a11,11,0,0,1,.88-1.93l14.79-22a3.13,3.13,0,0,1,.79-1,1.78,1.78,0,0,1,1.09-.35h7.75L294.79,119ZM177.81,171.47a3.13,3.13,0,0,1-.81.95,1.8,1.8,0,0,1-1.07.31,3,3,0,0,1-1.68-.71,26.16,26.16,0,0,0-2.41-1.57,19.17,19.17,0,0,0-3.47-1.57,14.87,14.87,0,0,0-4.93-.72,14.4,14.4,0,0,0-4.8.74,10.19,10.19,0,0,0-3.47,2,8.21,8.21,0,0,0-2.12,3,9.49,9.49,0,0,0-.71,3.67,6.77,6.77,0,0,0,1.24,4.17,10.62,10.62,0,0,0,3.26,2.82,25.11,25.11,0,0,0,4.61,2q2.58.86,5.28,1.78t5.28,2.07a18.77,18.77,0,0,1,4.61,2.91,13.57,13.57,0,0,1,3.27,4.32,14.41,14.41,0,0,1,1.23,6.28,20.17,20.17,0,0,1-1.34,7.4,17,17,0,0,1-3.92,6,18,18,0,0,1-6.32,4A23.22,23.22,0,0,1,161,222.8a25.82,25.82,0,0,1-10.64-2.12A24.87,24.87,0,0,1,142.2,215l2.35-3.85a2.83,2.83,0,0,1,.81-.77,1.92,1.92,0,0,1,1.07-.32,2.42,2.42,0,0,1,1.24.44c.46.29,1,.66,1.57,1.11s1.26.94,2,1.47a15.71,15.71,0,0,0,2.58,1.46,16.9,16.9,0,0,0,3.29,1.11,17.47,17.47,0,0,0,4.14.44,15.54,15.54,0,0,0,5.16-.79,11,11,0,0,0,3.83-2.24,9.77,9.77,0,0,0,2.41-3.46,11.5,11.5,0,0,0,.84-4.48,7.45,7.45,0,0,0-1.24-4.46A10.22,10.22,0,0,0,169,197.7a22.91,22.91,0,0,0-4.6-2q-2.61-.81-5.28-1.67t-5.28-2a17.27,17.27,0,0,1-4.61-2.94,13.43,13.43,0,0,1-3.25-4.5,16.1,16.1,0,0,1-1.23-6.68,15.94,15.94,0,0,1,1.23-6.16,15.75,15.75,0,0,1,3.6-5.28,17.51,17.51,0,0,1,5.83-3.69,21.27,21.27,0,0,1,7.94-1.38,25.25,25.25,0,0,1,9.15,1.59,21.59,21.59,0,0,1,7.27,4.61ZM232,209.73a1.57,1.57,0,0,1,1.18.54l3.22,3.48a25.6,25.6,0,0,1-8.94,6.66,30.69,30.69,0,0,1-12.72,2.39,29.8,29.8,0,0,1-11.73-2.24,25.87,25.87,0,0,1-9-6.29,28.48,28.48,0,0,1-5.78-9.7,36.16,36.16,0,0,1-2-12.44,35,35,0,0,1,2.13-12.44,28.49,28.49,0,0,1,6-9.72,26.73,26.73,0,0,1,9.28-6.31,30.93,30.93,0,0,1,11.94-2.24,29.07,29.07,0,0,1,11.31,2.05,28.51,28.51,0,0,1,8.63,5.57l-2.68,3.73a2.15,2.15,0,0,1-.65.69,1.79,1.79,0,0,1-1.07.28,3.35,3.35,0,0,1-1.84-.82,29.69,29.69,0,0,0-2.85-1.82,21,21,0,0,0-10.89-2.64,21.94,21.94,0,0,0-8.51,1.61,18.63,18.63,0,0,0-6.64,4.67,21.67,21.67,0,0,0-4.34,7.46,29.82,29.82,0,0,0-1.55,9.93,28.83,28.83,0,0,0,1.62,10,21.88,21.88,0,0,0,4.4,7.44,18.49,18.49,0,0,0,6.57,4.63,21,21,0,0,0,8.19,1.59,33.66,33.66,0,0,0,4.84-.31,19.48,19.48,0,0,0,4-1,16.59,16.59,0,0,0,3.4-1.69,24.21,24.21,0,0,0,3.12-2.45A2.15,2.15,0,0,1,232,209.73Zm64,12.4h-6.29a2.67,2.67,0,0,1-1.76-.55,3.25,3.25,0,0,1-1-1.38l-5.62-14.49H254.41L248.8,220.2a2.89,2.89,0,0,1-1,1.34,2.67,2.67,0,0,1-1.76.59h-6.28l24-60H272Zm-16.93-22.29-9.43-24.43c-.28-.72-.57-1.57-.88-2.53s-.6-2-.88-3.08a45.64,45.64,0,0,1-1.8,5.66l-9.43,24.38Zm57.57,15.46v6.83H302.6v-60h8.09V215.3Zm43.34.21,0,6.62H343v-60h37v6.62H351.09v19.94h23.38V195H351.09v20.49Z"/></svg>