<svg width="240" height="90" viewBox="0 0 240 90" fill="none" xmlns="http://www.w3.org/2000/svg">
<g clip-path="url(#clip0_14_1037)">
<path d="M0.756711 1.13281L34.4282 34.8043C36.2178 36.5939 36.4166 39.444 34.7596 41.3662C33.0362 43.2884 30.0535 43.4873 28.1313 41.7639C28.0651 41.6976 27.9988 41.6314 27.9325 41.5651L10.1025 23.8014H10.0362V66.7524M10.1025 66.7524L27.7336 49.1875C29.5896 47.3316 32.5723 47.3316 34.3619 49.1875C34.4282 49.2538 34.4944 49.3201 34.5607 49.3864C36.2178 51.3086 36.0189 54.1587 34.2293 55.9483L0.690428 89.4872H0.624146V1.13281M75.8547 1.13281L42.1832 34.738C40.3273 36.5939 40.3273 39.5103 42.1832 41.3662C42.7797 41.9628 43.4426 42.3605 44.238 42.5593L66.4426 48.7898V66.6861H66.3763L48.6126 48.9887C46.7567 47.1328 43.774 47.1328 41.9844 48.9887C41.9181 49.055 41.8518 49.1213 41.7855 49.1875C40.1284 51.1097 40.3273 53.9599 42.1169 55.7495L75.7884 89.421L75.8547 41.6976L54.5117 35.7322C54.5117 35.7322 54.5117 35.7322 54.5117 35.6659L66.4426 23.7351H66.5088V28.7726C66.5088 31.3576 68.5636 33.4786 71.2149 33.4786C73.8662 33.4786 75.9872 31.0925 75.9209 28.5737L75.8547 1.13281Z" fill="url(#paint0_linear_14_1037)"/>
<path d="M112.907 33.0814C113.238 33.0814 113.503 33.214 113.702 33.4128L115.823 35.7327C114.166 37.5886 112.177 39.1131 109.924 40.1736C107.273 41.3004 104.356 41.8307 101.506 41.7644C98.8546 41.8307 96.2033 41.3004 93.7509 40.3062C91.4973 39.3782 89.4425 37.92 87.7855 36.1304C86.0621 34.2745 84.8028 32.0872 83.9411 29.701C83.0132 27.0497 82.5492 24.2659 82.5492 21.482C82.5492 18.6981 83.0132 15.848 83.9411 13.263C84.8028 10.8768 86.1947 8.6895 87.918 6.83359C89.6414 5.04397 91.7624 3.58576 94.0823 2.6578C96.601 1.66357 99.3186 1.13331 101.97 1.19959C104.555 1.13331 107.074 1.59728 109.46 2.52524C111.581 3.38691 113.503 4.64627 115.16 6.23705L113.37 8.6895C113.238 8.88835 113.105 9.02091 112.973 9.15348C112.774 9.28604 112.509 9.35232 112.244 9.35232C111.78 9.28604 111.382 9.08719 111.051 8.82206C110.454 8.35809 109.791 7.96039 109.128 7.62898C106.941 6.4359 104.422 5.83936 101.904 5.90564C99.9814 5.90564 98.0592 6.23705 96.2696 6.96616C94.6126 7.62898 93.0881 8.6895 91.895 10.0814C90.6356 11.5396 89.6414 13.1967 89.0448 15.0526C88.3157 17.1736 87.9843 19.4272 87.9843 21.6146C87.918 23.8682 88.3157 26.1218 89.0448 28.2428C89.7077 30.0324 90.7019 31.7558 91.9613 33.1477C93.1544 34.4733 94.6788 35.5339 96.3359 36.1967C98.0593 36.9258 99.9152 37.2572 101.771 37.2572C102.832 37.2572 103.892 37.1909 104.953 37.0584C105.881 36.9258 106.742 36.7269 107.604 36.3955C108.399 36.1304 109.128 35.7327 109.858 35.2687C110.587 34.8048 111.249 34.2082 111.912 33.6117C112.177 33.214 112.509 33.1477 112.907 33.0814ZM144.589 36.7932V41.3004H121.987V1.531H127.356V36.7932H144.589ZM155.924 41.3004H150.555V1.531H155.924V41.3004ZM196.489 41.3004H191.186C190.855 41.3004 190.523 41.2341 190.192 40.969C189.993 40.7702 189.794 40.505 189.595 40.2399L178.924 23.5368C178.791 23.9344 178.659 24.3321 178.394 24.6636L167.987 40.2399C167.788 40.505 167.589 40.7039 167.391 40.969C167.125 41.1679 166.86 41.3004 166.529 41.3004H161.558L175.278 20.8855L162.154 1.531H167.523C167.855 1.531 168.12 1.59728 168.385 1.72985C168.584 1.86241 168.783 2.06126 168.915 2.26011L179.321 18.1679C179.454 17.7039 179.653 17.3062 179.918 16.9085L189.728 2.32639C189.86 2.06126 190.059 1.86241 190.258 1.66357C190.457 1.531 190.722 1.39844 190.987 1.46472H196.157L182.967 20.6866L196.489 41.3004ZM105.284 55.4186C105.151 55.6837 104.953 55.8826 104.754 56.0151C104.555 56.1477 104.29 56.214 104.025 56.214C103.627 56.1477 103.229 56.0151 102.898 55.75C102.368 55.3523 101.837 55.0209 101.307 54.6895C100.578 54.2918 99.7826 53.8941 98.9872 53.629C97.9267 53.2975 96.7999 53.0987 95.7394 53.165C94.6788 53.165 93.5521 53.2975 92.5578 53.629C91.6961 53.8941 90.9008 54.3581 90.2379 54.9546C89.6414 55.4849 89.1774 56.214 88.846 56.9431C88.5146 57.7385 88.382 58.5339 88.382 59.3955C88.3157 60.3898 88.6472 61.384 89.1774 62.1794C89.774 62.9748 90.5031 63.5713 91.3647 64.0353C92.359 64.5656 93.3532 65.0295 94.4137 65.3609C95.5405 65.7586 96.7336 66.1563 97.9267 66.554C99.1198 66.9517 100.313 67.4157 101.44 67.946C102.566 68.4099 103.561 69.0728 104.489 69.8681C105.417 70.6635 106.146 71.6578 106.676 72.7183C107.272 74.0439 107.538 75.4359 107.471 76.8941C107.471 78.5511 107.206 80.2082 106.61 81.799C106.013 83.3235 105.151 84.6491 104.025 85.7759C102.832 86.969 101.373 87.8307 99.8489 88.4272C98.0593 89.09 96.1371 89.4214 94.2149 89.4214C91.7624 89.4877 89.3763 88.9575 87.1889 88.0295C85.1342 87.1678 83.2783 85.8422 81.7538 84.2514L83.3446 81.6664C83.4771 81.4676 83.676 81.2687 83.8748 81.1362C84.0737 81.0036 84.3388 80.9373 84.6039 80.9373C84.8691 80.9373 85.2005 81.0699 85.3993 81.2024C85.7307 81.4013 86.0621 81.6664 86.4598 81.9315C86.8575 82.1967 87.3215 82.5281 87.7855 82.9258C88.3157 83.3235 88.9123 83.6549 89.5088 83.92C90.2379 84.2514 90.967 84.5165 91.6961 84.6491C92.6241 84.848 93.4858 84.9805 94.4137 84.9142C95.6068 84.9142 96.7336 84.7817 97.8604 84.384C98.7884 84.0526 99.65 83.5886 100.379 82.9258C101.042 82.2629 101.639 81.5338 101.97 80.6059C102.368 79.6779 102.566 78.6837 102.5 77.6232C102.566 76.5627 102.235 75.5684 101.705 74.6405C101.108 73.8451 100.379 73.1823 99.5175 72.652C98.5232 72.1217 97.529 71.6578 96.4685 71.3264C95.3417 70.9949 94.1486 70.5972 92.9555 70.1996C91.7624 69.8019 90.6356 69.4042 89.4425 68.8739C88.3157 68.4099 87.3215 67.7471 86.3936 66.9517C85.4656 66.09 84.7365 65.0958 84.2062 63.969C83.6097 62.5771 83.3446 61.0526 83.4108 59.5281C83.4108 58.1362 83.676 56.7442 84.2062 55.4186C84.7365 54.0929 85.5982 52.8998 86.5924 51.9056C87.7192 50.8451 89.0448 49.9834 90.4368 49.4532C92.0938 48.7903 93.8835 48.5252 95.6731 48.5252C97.7278 48.5252 99.7826 48.8566 101.705 49.5857C103.494 50.2486 105.151 51.3091 106.543 52.6347L105.284 55.4186ZM141.209 80.8047C141.54 80.8047 141.806 80.9373 142.004 81.1362L144.126 83.456C142.468 85.3119 140.48 86.8364 138.226 87.8969C135.575 89.0238 132.659 89.554 129.809 89.4877C127.157 89.554 124.506 89.0238 122.053 88.0295C119.8 87.1016 117.745 85.6433 116.088 83.8537C114.365 81.9978 113.105 79.8105 112.244 77.4243C111.316 74.773 110.852 71.9892 110.918 69.2053C110.918 66.4215 111.382 63.5713 112.31 60.9863C113.172 58.6001 114.564 56.4128 116.287 54.5569C118.01 52.7673 120.131 51.3091 122.451 50.3811C124.97 49.3869 127.687 48.8566 130.339 48.9229C132.924 48.8566 135.443 49.3206 137.829 50.3148C139.95 51.1765 141.872 52.4359 143.529 54.0266L141.739 56.4791C141.607 56.6779 141.474 56.8105 141.342 56.9431C141.143 57.0756 140.878 57.1419 140.613 57.1419C140.149 57.0756 139.751 56.8768 139.419 56.6117C138.823 56.1477 138.16 55.75 137.497 55.4186C135.31 54.1592 132.791 53.5627 130.272 53.6952C128.35 53.6952 126.428 54.0267 124.638 54.7558C122.981 55.4186 121.457 56.4791 120.264 57.871C119.004 59.3292 118.01 60.9863 117.414 62.8422C116.685 64.9632 116.353 67.2169 116.353 69.4042C116.287 71.6578 116.685 73.9114 117.414 76.0324C118.077 77.822 119.071 79.5454 120.33 80.9373C121.523 82.2629 123.048 83.3235 124.705 83.9863C126.428 84.7154 128.284 85.0468 130.14 85.0468C131.2 85.0468 132.261 84.9805 133.321 84.848C134.249 84.7154 135.111 84.5165 135.973 84.1851C136.768 83.92 137.497 83.5223 138.226 83.0583C138.955 82.5944 139.618 82.0641 140.281 81.4676C140.546 80.9373 140.878 80.8047 141.209 80.8047ZM183.63 89.0238H179.454C179.056 89.0238 178.592 88.8912 178.261 88.6261C177.93 88.3609 177.731 88.0958 177.598 87.6981L173.886 78.0872H156.056L152.345 87.6981C152.212 88.0295 152.013 88.3609 151.682 88.5598C151.35 88.8249 150.953 88.9575 150.489 88.9575H146.313L162.221 49.188H167.656L183.63 89.0238ZM172.428 74.2428L166.198 58.0699C165.999 57.6059 165.8 57.0094 165.601 56.4128C165.402 55.8163 165.203 55.0872 165.004 54.3581C164.673 55.6174 164.275 56.8768 163.811 58.1362L157.581 74.3091L172.428 74.2428ZM210.54 84.5165V89.0238H188.004V49.2543H193.373V84.5165H210.54ZM239.307 84.6491V89.0238H214.783V49.2543H239.307V53.629H220.151V66.8192H235.661V70.9949H220.151V84.5828L239.307 84.6491Z" fill="#453A42"/>
</g>
<defs>
<linearGradient id="paint0_linear_14_1037" x1="38.2927" y1="89.4508" x2="38.2927" y2="1.10299" gradientUnits="userSpaceOnUse">
<stop stop-color="#C4136E"/>
<stop offset="1" stop-color="#E50647"/>
</linearGradient>
<clipPath id="clip0_14_1037">
<rect width="240" height="89.4465" fill="white" transform="translate(0 0.276367)"/>
</clipPath>
</defs>
</svg>
