<svg id="Layer_1" data-name="Layer 1" xmlns="http://www.w3.org/2000/svg" viewBox="0 0 400 300"><defs><style>.cls-1{fill:#f12828;}.cls-2{fill:#f6f6f6;}</style></defs><title>flixspoort-logo</title><path d="M62.05,176.73,60,188.59H41.23l-1.15,6.6H53.56l-2,11.26H38.13l-3.17,18H20l8.36-47.71Z"/><path d="M74.31,213.12H88.73l-2,11.32H57.4l8.35-47.71h15Z"/><path d="M113.46,176.73l-8.36,47.71h-15l8.36-47.71Z"/><path d="M146.07,200.85l12.53,23.59H140.88l-6.6-12.4-9.44,12.4h-17l20-24.6-12.33-23.11H133.2l6.33,11.93,9.1-11.93h17.05Z"/><path d="M192.62,218.74a17.27,17.27,0,0,1-6.64,4.52,25,25,0,0,1-9.36,1.65q-8.84,0-13.75-4.11t-5-11.66h15.91c-.27,2.74.71,4.11,3,4.11a3.27,3.27,0,0,0,2.16-.74,2.67,2.67,0,0,0,.87-2.16,3.19,3.19,0,0,0-1.58-2.69,32.45,32.45,0,0,0-5-2.56,47.75,47.75,0,0,1-6.3-3.07,13.93,13.93,0,0,1-4.35-4.18,11.48,11.48,0,0,1-1.82-6.63,22,22,0,0,1,.34-3.44,12.33,12.33,0,0,1,6.3-8.76,24.35,24.35,0,0,1,12.5-3.1q9.22,0,13.75,4t4.71,11.39h-16.1q.33-3.76-2.43-3.77a2.54,2.54,0,0,0-2.62,2.76,2.86,2.86,0,0,0,1.51,2.46,31.79,31.79,0,0,0,4.82,2.33,53.54,53.54,0,0,1,6.37,3,13.75,13.75,0,0,1,4.38,4.11,11.52,11.52,0,0,1,1.85,6.71,20.77,20.77,0,0,1-.34,3.43A12.79,12.79,0,0,1,192.62,218.74Z"/><path d="M213.34,209.28s-.68,4.43-1.47,8.45c-1.35,1.43-15.69,4.28-15.69,4.28l7.93-45.28H225q7.69,0,11.66,3.44a11.81,11.81,0,0,1,4,9.43,22.16,22.16,0,0,1-.34,3.5,19,19,0,0,1-10.75,14,23.38,23.38,0,0,1-10.27,2.16Zm11.79-16.18a7.31,7.31,0,0,0,.07-1.07c0-2.2-1.33-3.31-4-3.31H217l-1.55,8.76h4.24Q224.32,197.48,225.13,193.1Z"/><path d="M331.32,180.2a11.57,11.57,0,0,1,4,9.2,15.07,15.07,0,0,1-.27,3,16.93,16.93,0,0,1-4.22,8.53,18.74,18.74,0,0,1-8.59,5.29l7.21,18.26H313L307,207.32l-3,17.12H289l8.35-47.71h22.24Q327.31,176.73,331.32,180.2Zm-22.61,17.15h5.93q4.38,0,5.05-4a4.28,4.28,0,0,0,.07-.88,3,3,0,0,0-.91-2.32,3.85,3.85,0,0,0-2.73-.85h-5.93Z"/><path d="M380,176.73l-2.09,11.86H365.24L359,224.44H344l6.27-35.85H337.75l2.09-11.86Z"/><path class="cls-1" d="M274.52,226.69a27.6,27.6,0,0,1-17.57-.32c-10.67,7.5-33.1,13.76-87,9.15,65.45,10.62,93.27-.38,104.53-8.83"/><path class="cls-1" d="M244.08,216.85a27.8,27.8,0,0,0,8.56,7.55c-13.49,6.67-43.83,16.11-96.79,5.37,41.68,4,73.83-4,88.23-12.92"/><path class="cls-1" d="M242.14,213.83c-13.73,7-40.79,17.15-77.84,13.16,32.15.41,62.06-7.45,74.57-23.1a27.23,27.23,0,0,0,3.27,9.94"/><path d="M266.2,175.92a24.5,24.5,0,1,0,24.49,24.49A24.49,24.49,0,0,0,266.2,175.92Zm0,37.39a12.9,12.9,0,1,1,12.9-12.9A12.9,12.9,0,0,1,266.2,213.31Z"/><rect class="cls-1" x="155" y="60.11" width="90" height="90"/><path class="cls-2" d="M245,112.17c0,10.37-11.69,13.68-14.95,13.68h-8.6l-6.78-10.42h13.2c1.2,0,3.55-1.76,0-3.31-4.86-2.12-14-6.7-14-14.27,0-10.37,11-13.45,14.95-13.45s12.56-.08,16.21,0l-5,10.3c-3.34,0-9.05,0-9.05,0-1.2,0-3.56,1.76,0,3.31,4.86,2.12,14,6.56,14,14.13Z"/><polygon class="cls-2" points="218.58 84.36 204.35 84.36 197.83 94.28 191.31 84.36 177.09 84.36 190.72 105.11 177.09 125.85 191.31 125.85 197.83 115.93 204.35 125.85 218.58 125.85 204.94 105.11 218.58 84.36"/><polygon class="cls-2" points="184.35 110.38 167.93 110.38 167.93 125.83 155 125.83 155 84.38 174.2 84.38 181.12 94.92 167.93 94.92 167.93 99.84 184.36 99.84 187.82 105.11 184.35 110.38"/></svg>