<svg id="Layer_1" data-name="Layer 1" xmlns="http://www.w3.org/2000/svg" viewBox="0 0 400 300"><defs><style>.cls-1{fill:#f12828;}</style></defs><title>flixspoort-logo</title><path d="M62.05,132.75,60,144.6H41.23l-1.15,6.61H53.56l-2,11.25H38.13l-3.17,18H20l8.36-47.7Z"/><path d="M74.31,169.13H88.73l-2,11.32H57.4l8.35-47.7h15Z"/><path d="M113.46,132.75l-8.36,47.7h-15l8.36-47.7Z"/><path d="M146.07,156.87l12.53,23.58H140.88l-6.6-12.4-9.44,12.4h-17l20-24.59-12.33-23.11H133.2l6.33,11.92,9.1-11.92h17.05Z"/><path d="M192.62,174.76a17.26,17.26,0,0,1-6.64,4.51,25,25,0,0,1-9.36,1.65q-8.84,0-13.75-4.11t-5-11.65h15.91c-.27,2.74.71,4.11,3,4.11a3.27,3.27,0,0,0,2.16-.74,2.7,2.7,0,0,0,.87-2.16,3.19,3.19,0,0,0-1.58-2.7,33.37,33.37,0,0,0-5-2.56,46.6,46.6,0,0,1-6.3-3.06,14,14,0,0,1-4.35-4.18,11.52,11.52,0,0,1-1.82-6.64,21.92,21.92,0,0,1,.34-3.43,12.29,12.29,0,0,1,6.3-8.76,24.25,24.25,0,0,1,12.5-3.1q9.22,0,13.75,4t4.71,11.39h-16.1q.33-3.78-2.43-3.78a2.55,2.55,0,0,0-2.62,2.77,2.86,2.86,0,0,0,1.51,2.46,32,32,0,0,0,4.82,2.32,51.9,51.9,0,0,1,6.37,3,13.75,13.75,0,0,1,4.38,4.11,11.49,11.49,0,0,1,1.85,6.7,20.88,20.88,0,0,1-.34,3.44A12.79,12.79,0,0,1,192.62,174.76Z"/><path d="M213.34,165.29s-.68,4.44-1.47,8.45c-1.35,1.44-15.69,4.28-15.69,4.28l7.93-45.27H225q7.69,0,11.66,3.43a11.83,11.83,0,0,1,4,9.44,22.38,22.38,0,0,1-.34,3.5,19.26,19.26,0,0,1-3.54,8.19,19,19,0,0,1-7.21,5.82,23.38,23.38,0,0,1-10.27,2.16Zm11.79-16.17a7.47,7.47,0,0,0,.07-1.08q0-3.3-4-3.3H217l-1.55,8.76h4.24Q224.32,153.5,225.13,149.12Z"/><path d="M331.32,136.22a11.56,11.56,0,0,1,4,9.19,15.17,15.17,0,0,1-.27,3,16.94,16.94,0,0,1-4.22,8.52,18.74,18.74,0,0,1-8.59,5.29l7.21,18.26H313L307,163.34l-3,17.11H289l8.35-47.7h22.24Q327.31,132.75,331.32,136.22Zm-22.61,17.14h5.93c2.92,0,4.6-1.34,5.05-4a4.11,4.11,0,0,0,.07-.87,3,3,0,0,0-.91-2.33,3.9,3.9,0,0,0-2.73-.84h-5.93Z"/><path d="M380,132.75l-2.09,11.85H365.24L359,180.45H344l6.27-35.85H337.75l2.09-11.85Z"/><path class="cls-1" d="M274.52,182.7a27.69,27.69,0,0,1-17.57-.31c-10.67,7.49-33.1,13.75-87,9.14,65.45,10.62,93.27-.37,104.53-8.83"/><path class="cls-1" d="M244.08,172.86a27.68,27.68,0,0,0,8.56,7.55c-13.49,6.67-43.83,16.12-96.79,5.37,41.68,4.05,73.83-4,88.23-12.92"/><path class="cls-1" d="M242.14,169.85c-13.73,7-40.79,17.14-77.84,13.15,32.15.42,62.06-7.45,74.57-23.09a27.23,27.23,0,0,0,3.27,9.94"/><path d="M266.2,131.94a24.49,24.49,0,1,0,24.49,24.49A24.48,24.48,0,0,0,266.2,131.94Zm0,37.39a12.9,12.9,0,1,1,12.9-12.9A12.91,12.91,0,0,1,266.2,169.33Z"/></svg>