<svg width="80" height="80" viewBox="0 0 80 80" fill="none" xmlns="http://www.w3.org/2000/svg">
<circle cx="40" cy="40" r="38" stroke="#6189E0" stroke-width="4"/>
<path d="M60.7224 48.7527C59.291 52.1378 57.0522 55.1207 54.2017 57.4406C51.3511 59.7605 47.9757 61.3469 44.3704 62.0609C40.7652 62.775 37.0399 62.595 33.5203 61.5367C30.0006 60.4784 26.7938 58.5741 24.1802 55.9901C21.5666 53.4062 19.6258 50.2214 18.5274 46.7141C17.429 43.2068 17.2064 39.4838 17.8793 35.8706C18.5521 32.2574 20.0998 28.8641 22.387 25.9872C24.6743 23.1104 27.6314 20.8376 30.9999 19.3677" stroke="#6189E0" stroke-width="4" stroke-linecap="round" stroke-linejoin="round"/>
<path d="M62.5 40C62.5 37.0453 61.918 34.1194 60.7873 31.3896C59.6566 28.6598 57.9992 26.1794 55.9099 24.0901C53.8206 22.0008 51.3402 20.3434 48.6104 19.2127C45.8806 18.082 42.9547 17.5 40 17.5V40H62.5Z" stroke="#6189E0" stroke-width="4" stroke-linecap="round" stroke-linejoin="round"/>
</svg>
