<svg width="80" height="80" viewBox="0 0 80 80" fill="none" xmlns="http://www.w3.org/2000/svg">
<circle cx="40" cy="40" r="38" stroke="#358ABB" stroke-width="4"/>
<path d="M52.7254 62.6179V57.527C52.7254 54.8266 51.6526 52.2369 49.7432 50.3274C47.8337 48.4179 45.244 47.3452 42.5436 47.3452H22.18C19.4796 47.3452 16.8899 48.4179 14.9804 50.3274C13.7863 51.5215 12.9194 52.9817 12.4375 54.5686" stroke="#358ABB" stroke-width="4" stroke-linecap="round" stroke-linejoin="round"/>
<path d="M32.3615 37.1634C37.9847 37.1634 42.5432 32.6048 42.5432 26.9816C42.5432 21.3583 37.9847 16.7998 32.3615 16.7998C26.7382 16.7998 22.1797 21.3583 22.1797 26.9816C22.1797 32.6048 26.7382 37.1634 32.3615 37.1634Z" stroke="#358ABB" stroke-width="4" stroke-linecap="round" stroke-linejoin="round"/>
<path d="M60.3633 47.6758C62.5476 48.2398 64.4828 49.5132 65.8649 51.2962C66.5786 52.2169 67.124 53.2465 67.4848 54.3377" stroke="#358ABB" stroke-width="4" stroke-linecap="round" stroke-linejoin="round"/>
<path d="M50.1797 17.1309C52.3698 17.6916 54.311 18.9654 55.6973 20.7513C57.0835 22.5372 57.836 24.7337 57.836 26.9945C57.836 29.2553 57.0835 31.4517 55.6973 33.2377C54.311 35.0236 52.3698 36.2973 50.1797 36.8581" stroke="#358ABB" stroke-width="4" stroke-linecap="round" stroke-linejoin="round"/>
</svg>
