<svg width="80" height="80" viewBox="0 0 80 80" fill="none" xmlns="http://www.w3.org/2000/svg">
<circle cx="40" cy="40" r="38" stroke="#358ABB" stroke-width="4"/>
<path d="M40.0742 12V68" stroke="#358ABB" stroke-width="4" stroke-linecap="round" stroke-linejoin="round"/>
<path d="M52.8008 22.1821H33.7099C31.347 22.1821 29.081 23.1208 27.4102 24.7915C25.7394 26.4623 24.8008 28.7284 24.8008 31.0912C24.8008 33.4541 25.7394 35.7201 27.4102 37.3909C29.081 39.0617 31.347 40.0003 33.7099 40.0003H46.4371C48.8 40.0003 51.066 40.9389 52.7368 42.6097C54.4076 44.2805 55.3462 46.5466 55.3462 48.9094C55.3462 51.2722 54.4076 53.5383 52.7368 55.2091C51.066 56.8799 48.8 57.8185 46.4371 57.8185H24.8008" stroke="#358ABB" stroke-width="4" stroke-linecap="round" stroke-linejoin="round"/>
</svg>
