<svg xmlns="http://www.w3.org/2000/svg" viewBox="0 0 400 300"><defs><style>.cls-1{isolation:isolate;}.cls-2{fill:#394240;}.cls-3{fill:#fafafa;}.cls-4{fill:#d1d3d4;}.cls-5{fill:#5cce7b;}.cls-6{mix-blend-mode:multiply;}.cls-7{fill:#399799;}.cls-8{fill:#fff;}</style></defs><title>iqmaster-logo</title><g class="cls-1"><g id="Layer_1" data-name="Layer 1"><path class="cls-2" d="M96.33,174.28v-48.1h3.32v48.1Z"/><path class="cls-2" d="M127.67,175.12q-10.2,0-16.26-6.78t-6-17.61q0-11.5,6.22-18.43t17-6.93q9.74,0,15.75,6.66t6,17.46q0,11.94-6.17,18.79a19.26,19.26,0,0,1-4.26,3.59l11.67,8.89H146l-9.09-7.32A24.08,24.08,0,0,1,127.67,175.12Zm.33-46.73a17.7,17.7,0,0,0-13.8,6.07q-5.43,6.07-5.42,15.9t5.13,15.82q5.13,5.9,13.69,5.89,8.93,0,14.12-5.82t5.2-16.22q0-10.2-5.08-15.92T128,128.39Z"/><path class="cls-2" d="M201.46,174.28V154.49a6.37,6.37,0,0,0-.88-3.71,3.36,3.36,0,0,0-2.9-1.22,3.63,3.63,0,0,0-3.09,1.49,6.83,6.83,0,0,0-1.11,4.14v19.09H179.19V154.83q0-5.27-3.59-5.27a3.81,3.81,0,0,0-3.29,1.53,7.4,7.4,0,0,0-1.1,4.37v18.82H156.92V139.93h14.29v5.44h.13a11.16,11.16,0,0,1,2.57-2.94,15.05,15.05,0,0,1,4-2.41,12.3,12.3,0,0,1,4.8-.93,12.08,12.08,0,0,1,6.16,1.45A11.21,11.21,0,0,1,193,145.1a12.24,12.24,0,0,1,4.83-4.45,14.39,14.39,0,0,1,6.71-1.56q5.4,0,8.29,3.53t2.88,10.16v21.5Z"/><path class="cls-2" d="M239.88,174.28v-5.23h-.14a11.23,11.23,0,0,1-10.46,6.07,10,10,0,0,1-7.62-2.88,10.76,10.76,0,0,1-2.75-7.72q0-10.12,12.45-11.74l8.52-1.11a3.27,3.27,0,0,0-1.51-2.75,6.93,6.93,0,0,0-4.06-1.07,26.63,26.63,0,0,0-12.18,3.29v-9.3a33.22,33.22,0,0,1,7-2,41,41,0,0,1,7.18-.77c5.83,0,10.07,1.25,12.69,3.74s4,6.66,4,12.5v18.95Zm-8.46-11.67a3.16,3.16,0,0,0,.89,2.31,3.37,3.37,0,0,0,2.53.91,4.52,4.52,0,0,0,3.65-1.68,6.54,6.54,0,0,0,1.39-4.29v-1.31l-4.83.67Q231.42,159.82,231.42,162.61Z"/><path class="cls-2" d="M285.9,162.88a10.5,10.5,0,0,1-4.44,9q-4.45,3.2-12.4,3.2a43.69,43.69,0,0,1-5.72-.47,34.62,34.62,0,0,1-5.55-1.14v-10q6.34,2.82,10.6,2.82c2.8,0,4.19-.73,4.19-2.18a1.73,1.73,0,0,0-1-1.5,35.18,35.18,0,0,0-5.1-2,14.38,14.38,0,0,1-6.64-3.82,9.09,9.09,0,0,1-2.08-6.21A9.92,9.92,0,0,1,262,142.2q4.25-3.1,11.93-3.11a38,38,0,0,1,9.53,1.31V150a28.89,28.89,0,0,0-4.63-1.51,18.86,18.86,0,0,0-4.23-.6,4.53,4.53,0,0,0-2.25.47,1.43,1.43,0,0,0-.84,1.3,1.84,1.84,0,0,0,.91,1.58,16.13,16.13,0,0,0,3.62,1.44q5.26,1.54,7.55,4A8.68,8.68,0,0,1,285.9,162.88Z"/><path class="cls-2" d="M314,173.81a13.58,13.58,0,0,1-3.19.89,29,29,0,0,1-5.33.42q-6,0-9.34-3.29t-3.37-9.36V149.83h-5.4v-9.9h5.4v-6.74l14.09-3.89v10.63H314v9.9h-7.14v10.3c0,3,1.19,4.52,3.58,4.52a9.76,9.76,0,0,0,3.56-.73Z"/><path class="cls-2" d="M329.38,161.17a4.83,4.83,0,0,0,2.55,3.47,11.45,11.45,0,0,0,5.77,1.26,23.71,23.71,0,0,0,9.46-1.92V173a33.93,33.93,0,0,1-12.61,2.08q-9,0-14-4.6t-5-12.64a20.92,20.92,0,0,1,2.19-9.76,15.87,15.87,0,0,1,6.51-6.63,19.25,19.25,0,0,1,9.51-2.4,18.8,18.8,0,0,1,9.13,2.08,13.89,13.89,0,0,1,5.75,5.84,18.71,18.71,0,0,1,2,8.79v5.37Zm8.59-7.48q0-5.94-4.26-5.94a3.62,3.62,0,0,0-3,1.62,8.26,8.26,0,0,0-1.41,4.32Z"/><path class="cls-2" d="M380,152.18a11.36,11.36,0,0,0-2.18-.68,11.15,11.15,0,0,0-2.28-.3q-7.08,0-7.08,8.19v14.89H354.17V139.93h14.29v6h.13a10.8,10.8,0,0,1,3.73-4.95,9.56,9.56,0,0,1,5.63-1.69,4.81,4.81,0,0,1,2.05.4Z"/><path class="cls-3" d="M26.26,176.39a6.56,6.56,0,0,1-3.9-10.27l.1-.12,24-24.82L50.6,122.3A3.75,3.75,0,0,1,48.3,118a3.79,3.79,0,0,1,4.49-2.88l13.51,3a3.77,3.77,0,0,1-1,7.45l-4.13,18.88L72.6,177l0,.14a6.56,6.56,0,0,1-7.83,7.7Z"/><path class="cls-4" d="M71.55,177.35,60,144.48l4.42-20.21.52.11a2.67,2.67,0,0,0,3.18-2h0a2.68,2.68,0,0,0-2-3.18l-3.86-.84a2.66,2.66,0,0,1,2,3.18h0a2.66,2.66,0,0,1-3.18,2l-.51-.11-4.43,20.22,11.55,32.87a5.44,5.44,0,0,1-6.5,6.39l3.86.85A5.44,5.44,0,0,0,71.55,177.35Z"/><path class="cls-2" d="M67.36,126a1,1,0,0,1-.24,0l-7.93-1.73a1.11,1.11,0,0,1,.47-2.16l7.93,1.74a1.1,1.1,0,0,1-.23,2.18Z"/><path class="cls-2" d="M66.06,119.16a2.67,2.67,0,1,1-1.14,5.21l-.52-.11L60,144.47l11.55,32.88a5.44,5.44,0,0,1-6.5,6.39l-19.27-4.21L26.5,175.31a5.44,5.44,0,0,1-3.24-8.52l24.22-25,4.42-20.21-.51-.12a2.67,2.67,0,1,1,1.14-5.21l13.53,3m.47-2.16-13.51-3a4.87,4.87,0,0,0-3.68,8.86l-3.88,17.73-23.81,24.6a1.81,1.81,0,0,0-.18.23,7.64,7.64,0,0,0,4.54,12l19.26,4.21,19.27,4.22a7.64,7.64,0,0,0,9.12-9l-.07-.29L62.23,144.31l3.88-17.73a4.89,4.89,0,0,0,4.08-3.79A4.79,4.79,0,0,0,66.53,117Z"/><path class="cls-5" d="M26.26,176.39a6.56,6.56,0,0,1-3.9-10.27l.1-.12s18.42-20,25-17.52c2.83,1.06,5.66,5.54,9,7.38A18.27,18.27,0,0,0,65.37,158a1.15,1.15,0,0,1,.81.72L72.58,177l0,.14a6.5,6.5,0,0,1-1.83,6,6.57,6.57,0,0,1-6,1.74Z"/><path class="cls-2" d="M66.2,186.07a7.56,7.56,0,0,1-1.64-.18L26,177.46a7.66,7.66,0,0,1-4.54-12l.14-.17c2-2.14,19.16-20.5,26.2-17.85,1.7.64,3.26,2.2,4.9,3.85A21.26,21.26,0,0,0,57,154.9a17.26,17.26,0,0,0,8.34,2h.15l.15,0a2.24,2.24,0,0,1,1.6,1.39l6.48,18.5a7.66,7.66,0,0,1-7.48,9.22ZM26.49,175.32,65,183.75a5.49,5.49,0,0,0,5-1.45,5.4,5.4,0,0,0,1.51-5l-6.38-18.21a19.56,19.56,0,0,1-9.27-2.31,22.53,22.53,0,0,1-4.72-4c-1.47-1.47-2.86-2.87-4.12-3.34-4.28-1.61-16.86,9.73-23.79,17.25a5.46,5.46,0,0,0,3.23,8.57Z"/><g class="cls-6"><path class="cls-7" d="M71.55,177.35l-.1-.27a.28.28,0,0,1,0-.12l-.08-.24a0,0,0,0,0,0,0l-.28-.78c0-.12-.08-.24-.14-.39l-.15-.37-.21-.59-.07-.2-.3-.88-.08-.24a1.23,1.23,0,0,1-.11-.34l0-.07c-.11-.32-.24-.67-.36-1l-.1-.29c-.25-.69-.5-1.44-.78-2.21l-.1-.27c-.24-.66-.47-1.34-.71-2l-.3-.88c-.49-1.4-1-2.84-1.52-4.31l-.39-1.1-.21-.59-.35-1-3.85-.85,6.4,18.23a5.45,5.45,0,0,1-6.51,6.39l3.86.84A5.46,5.46,0,0,0,71.55,177.35Z"/></g><circle class="cls-8" cx="44.51" cy="158.64" r="5.13"/><circle class="cls-8" cx="37.43" cy="165.94" r="2.84"/></g></g></svg>