<?xml version="1.0" encoding="utf-8"?>
<!-- Generator: Adobe Illustrator 24.0.2, SVG Export Plug-In . SVG Version: 6.00 Build 0)  -->
<svg version="1.1" id="Layer_1" xmlns="http://www.w3.org/2000/svg" xmlns:xlink="http://www.w3.org/1999/xlink" x="0px" y="0px"
	 viewBox="0 0 400 100" style="enable-background:new 0 0 400 100;" xml:space="preserve">
<style type="text/css">
	.st0{fill:#3D364C;}
	.st1{fill:#FFB000;}
	.st2{fill:#FF1E6E;}
	.st3{fill:#00AAFF;}
</style>
<title>konelix-logo</title>
<g id="Layer_1-2">
	<path class="st0" d="M87.7,61.3c0-18.4,12.5-33.6,32.4-33.6s32.3,15.1,32.3,33.6S140.1,95,120.1,95S87.7,79.9,87.7,61.3z M140,61.3
		c0-12.1-7-23-19.9-23s-19.9,10.9-19.9,23s7.1,23,19.9,23S140,73.4,140,61.3z"/>
	<path class="st0" d="M200.1,52.4c0-10.6-5.4-14-13.6-14c-7,0-13.6,3.5-17.6,9.3v45.7h-12v-64h12v9c5.7-6.6,14-10.5,22.7-10.6
		c13.5,0,20.5,7.2,20.5,20.7v44.9h-12L200.1,52.4z"/>
	<path class="st0" d="M248.5,27.8c19.2,0,31.1,15,31.1,34.7v2.9H229c1,10.9,8.9,19.9,21.8,19.9c6.8,0,14.1-2.6,18.9-7.6l5.6,7.8
		c-6.3,6.2-15.4,9.5-25.6,9.5c-19.1,0-33.2-13.5-33.2-33.7C216.4,42.8,229.8,27.8,248.5,27.8z M228.9,56.7H268
		c-0.3-8.5-5.9-19.1-19.4-19.1S229.5,47.9,228.9,56.7z"/>
	<path class="st0" d="M283,5h12v88.4h-12V5z"/>
	<path class="st0" d="M348.6,68.4l-18,24.9H317l24-32.9l-22.5-31.1H332l16.6,23l16.5-23h13.5l-22.7,31.1L380,93.4h-13.5L348.6,68.4z
		"/>
	<path class="st0" d="M301,29.4h11.9v64H301V29.4z"/>
	<path class="st0" d="M299.1,12.7c0.1-4.2,3.4-7.6,7.6-7.7c4.2,0,7.7,3.3,7.7,7.6c0,0,0,0,0,0v0.1c0,4.2-3.4,7.6-7.5,7.6
		c0,0,0,0,0,0h-0.2C302.5,20.2,299.1,16.8,299.1,12.7z"/>
	<path class="st1" d="M83.6,31.6c-5.2-5.1-13.5-5.1-18.7,0L46.4,50.1v31.8c0,3.5-1.3,6.8-3.8,9.3l41-40.9
		C88.7,45.1,88.7,36.8,83.6,31.6z"/>
	<path class="st2" d="M33.2,95C26,95,20.1,89.2,20,82V18.1C20.6,10.9,27,5.4,34.3,6c6.4,0.5,11.6,5.6,12.1,12.1v63.7
		C46.4,89.1,40.5,95,33.2,95C33.2,95,33.2,95,33.2,95z"/>
	<path class="st3" d="M72.4,61.4L53.8,80l11.2,11.2c5.1,5.2,13.5,5.2,18.6,0.1s5.2-13.5,0.1-18.6L72.4,61.4z"/>
</g>
</svg>
