<svg id="Layer_1" data-name="Layer 1" xmlns="http://www.w3.org/2000/svg" viewBox="0 0 400 300"><defs><style>.cls-1{fill:#472a12;}</style></defs><title>mona-logo</title><path class="cls-1" d="M203.75,99.65c-8.16.43-16.27-1.58-24.38,0-2.22.44-9.67,16.83-9.72,16.84,6.52-1.27,24.31-.33,24,1s-.62,2.92-.91,4.38c-.61,3-1.14,6.07-1.65,9.11a303.19,303.19,0,0,0-3.86,39.21,191.84,191.84,0,0,0,2.1,33.09c.68,5,1.4,10,1.84,15-10.44-5.75-37.13-20.18-41-33.31,0-.12,6.24-.67,9.14-.85,2-.13,4.9-6.54,5.7-7.93.28-.49,4.25-8.92,4-8.91-4.71.3-9.49.53-13.94,2.21-5.15,1.95-8,7.35-10.6,11.85-2.79,4.82-5.93,10-5.24,15.77.49,4.19,2.46,7.77,5,11.09,11.21,14.81,30.41,23,46.18,31.84,1.59.9,9.34-14.45,9.77-16.4,4.25-19.67-2.92-39.84-3.24-59.56C196.58,142.73,203.77,99.8,203.75,99.65Z"/><path class="cls-1" d="M130.29,149.21c-10.69,1.87-6.12,26.25-4.11,32.23-10-11.6-15.43-45.11-4.12-47.08C127.35,139.34,130.29,149.21,130.29,149.21Z"/><path class="cls-1" d="M205.87,38.68c2.9,3.5,6.13,6.73,8.85,10.38.24.31,6.36-9.55,7.11-11.22.11-.24,1-1.83.67-2.25-2.73-3.64-5.95-6.88-8.86-10.37-.32-.39-4.37,6-4.56,6.34a53.87,53.87,0,0,0-2.55,4.88c-.09.2-1,1.85-.66,2.24Z"/><path class="cls-1" d="M166.2,233.39c-8.26-4.28-15.59-10.41-22.42-16.76.08.07-7.82,9.84-6.08,11.45a96,96,0,0,0,21.92,15.55C160.73,244.21,166.2,233.39,166.2,233.39Z"/><path class="cls-1" d="M227.47,211.41l6.43,17.09-3.9,2.79-6.12-11.95L219,221.46l4.6,11.95a67.69,67.69,0,0,0-8.51,4.68l-1.31-5.38a23.52,23.52,0,0,1,3.5-1.86l-3.63-7a5,5,0,0,1-3.24.58l-1.35-5.89a12.42,12.42,0,0,0,4.64-1.08Z"/><path class="cls-1" d="M236.45,205.8,245.12,222l-3.49,3.12L234.17,214a4.76,4.76,0,0,1-2.56.63l-2.09-5.66a12.38,12.38,0,0,0,4.48-1.66Z"/><path class="cls-1" d="M245.58,199.47l5.33,10.28-3.33,2.86-3.83-4.68a5.22,5.22,0,0,1-2.57.89l-2.54-5.48a12.36,12.36,0,0,0,4.34-2Z"/><path class="cls-1" d="M269.49,203.21l-2.55,3.63a20.28,20.28,0,0,1-4.42-2.93l-.38.32,1.52,3a8.66,8.66,0,0,1-1.43,3.27,13.55,13.55,0,0,1-2.36,2.89l-.23,0L257,208.71l.18-.16a11.08,11.08,0,0,0,1.7-2.05,9.11,9.11,0,0,0,1.28-2.46,2.47,2.47,0,0,0-.47-2.72l-3.23-3.21L254,200.23a4.68,4.68,0,0,1-2.78,1.4l-3.05-5.22a9.91,9.91,0,0,0,3.85-2.19l5.25-4.54,6.2,7.73A38.93,38.93,0,0,0,269.49,203.21Z"/><path class="cls-1" d="M264.69,181.94l12.7,13.25-2.52,3.95-10.18-8.75a4.8,4.8,0,0,1-2.3,1.31l-3.54-4.9a12.38,12.38,0,0,0,3.87-2.8Z"/><path class="cls-1" d="M278.93,163.68l7.93,7.57a7.63,7.63,0,0,1,2.47,4.24q.45,3-1.83,7.85l-1.34,2.83c-.37.73-1.35,3.27-2.94,7.64l-3.9-3.95a43.53,43.53,0,0,1,1.93-5.05L273,181.36a10.42,10.42,0,0,1-2.41,2.25l-4.21-4.52a9.35,9.35,0,0,0,3.16-2.81l2.07-2.78,11.78,7.39.67-1.36c1-2,.84-3.43-.41-4.36l-3.88-2.88a8.46,8.46,0,0,1-2.36,2.35l-4.17-4.79a10.64,10.64,0,0,0,3.32-3Z"/><path class="cls-1" d="M169.58,256.13l-1.45,18.21-4.73.86L163,261.78l-5.31-.15-.93,12.77a65.49,65.49,0,0,0-9.69.6l1.1-5.42a22.77,22.77,0,0,1,4-.19l-.28-7.93a5,5,0,0,1-3.18-.86l1.29-5.9a12.27,12.27,0,0,0,4.66,1Z"/><path class="cls-1" d="M180.19,255.1l.63,18.35-4.51,1.26-1.76-13.3a4.93,4.93,0,0,1-2.58-.56l.63-6a12.3,12.3,0,0,0,4.75.49Z"/><path class="cls-1" d="M191.22,253.56l.13,11.58-4.27,1.05-1.3-5.91a5.24,5.24,0,0,1-2.7-.36l.21-6a12.41,12.41,0,0,0,4.77.16Z"/><path class="cls-1" d="M213.12,248.28l3.66,18-4.11,2-4.15-12.76-6.15,1.61,2.86,12.22L201,271.23l-4.15-12.63a5.33,5.33,0,0,1-2.44-.14l-.45-6a12.65,12.65,0,0,0,4.77-.36Z"/><path class="cls-1" d="M231,244l5.28,14.58-4,2.71-5.93-12.05L219.65,252a3.93,3.93,0,0,1-2.77.31l-1.23-5.91a12.38,12.38,0,0,0,4.66-1l7.24-3Q230.06,241.37,231,244Z"/><path class="cls-1" d="M242.62,234.65l1.43,4.95-1.63,1.52,6,11.12-3.47,3-7.64-11.11a6.85,6.85,0,0,1-3,.74l-1.84-5.75a12.4,12.4,0,0,0,4.55-1.46Z"/><path class="cls-1" d="M260.9,222.32l7.83,12a3.93,3.93,0,0,1,.75,1.87q.25,3.51-4.93,7.13a10.14,10.14,0,0,1-2.16,1.27l-2-5,.57-.35.57-.4c1.48-1,2.22-1.85,2.21-2.43a3.75,3.75,0,0,0-.94-1.65l-3.58-4.31-5,3.48,5.52,11.6L256.34,249l-.12-.16-6.67-11.44a5.23,5.23,0,0,1-2.69,1l-2.66-5.39a12.7,12.7,0,0,0,4.51-2.1Z"/><path class="cls-1" d="M272.92,113.1c-3.19-7.6-10.09-15.36-17.37-9.6-3.36,2.66-16.16,26.51-19,32.51-3.63,7.83-7.56,19.91-8.33,37.28,7.62-5.48,15.55-13.06,15.55-16.76,0-26.52,13.25-41.6,16.76-40.23,28.95,14.32-36.57,73.14-41.14,71.77-4.79-21.94-3.16-34.9-2.29-57.14,1-25.8,4.56-57.91,3-83.72-.07-1.14-4.09,4.72-4.43,5.28-1.51,2.45-5.58,7.6-5.39,10.69,1.6,25.81-2.63,65-3.65,90.83-.9,22.57,3.6,56.94,3.65,56.92,11.58-4.88,50.75-26.06,64-73.66C276.32,129.82,275.89,120.16,272.92,113.1Z"/><path class="cls-1" d="M242.17,99.65c0-1.07-6.54,10.59-6.89,11.16-1.62,2.65-.47,25.6-2.11,33.9,0,.07,7.77-18.24,9.89-19.57C243.06,125.14,242.15,105.3,242.17,99.65Z"/><path class="cls-1" d="M163.1,105.15c-.14-1.61-.33-3.89-.54-5.5-8.17.43-29.71-1.58-37.82,0-2.22.44-9.67,16.83-9.72,16.84,6.52-1.27,36.19-.53,40,1,5,7.85-8.92,48.19-13.28,48-2.88,1.83-9.8,17-8.93,16.49,24.49-17.85,29.86-51.71,30.58-63.41A90.29,90.29,0,0,0,163.1,105.15Z"/></svg>