<svg id="Layer_1" data-name="Layer 1" xmlns="http://www.w3.org/2000/svg" xmlns:xlink="http://www.w3.org/1999/xlink" viewBox="0 0 400 300"><defs><style>.cls-1{fill:url(#linear-gradient);}.cls-2{fill:url(#linear-gradient-6);}.cls-3{fill:url(#linear-gradient-9);}.cls-4{fill:#005a82;}.cls-5{fill:#fff;}.cls-6{fill:#d150a9;stroke:#763e92;stroke-linecap:round;stroke-linejoin:round;stroke-width:2px;}</style><linearGradient id="linear-gradient" x1="102.95" y1="148.88" x2="380" y2="148.88" gradientUnits="userSpaceOnUse"><stop offset="0" stop-color="#d150a9"/><stop offset="1" stop-color="#005a82"/></linearGradient><linearGradient id="linear-gradient-6" x1="102.95" y1="149.18" x2="380" y2="149.18" xlink:href="#linear-gradient"/><linearGradient id="linear-gradient-9" x1="102.95" y1="148.74" x2="380" y2="148.74" xlink:href="#linear-gradient"/></defs><title>noyhouzer-logo</title><path class="cls-1" d="M103,167.53V130.22h5.37L120.22,149a121.38,121.38,0,0,1,6.7,12.18l.11-.06c-.44-5-.56-9.52-.56-15.27V130.22H131v37.31h-4.87L114.3,148.6a120.12,120.12,0,0,1-7-12.45l-.16,0c.28,4.71.39,9.19.39,15.39v15.94Z"/><path class="cls-1" d="M169.1,148.82c0,12.4-7.92,19.32-17.33,19.32-10.07,0-16.77-7.92-16.77-19,0-11.46,7.14-19.49,17.44-19.49C163.06,129.61,169.1,138,169.1,148.82Zm-28.95.11c0,8.47,4.32,15.28,11.9,15.28,7.86,0,11.95-7.14,11.95-15.28,0-7.64-3.7-15.39-11.89-15.39C144.36,133.54,140.15,140.52,140.15,148.93Z"/><path class="cls-1" d="M179.9,167.53V151.75l-11.8-21.53h5.48l5.26,10.3c1.44,2.88,2.55,5.15,3.71,7.69h.11c1-2.43,2.33-4.87,3.77-7.69l5.36-10.3h5.43l-12.46,21.42v15.89Z"/><path class="cls-1" d="M203.75,130.22v15.67H221.8V130.22h4.81v37.31H221.8V150H203.75v17.49h-4.87V130.22Z"/><path class="cls-1" d="M264.7,148.82c0,12.4-7.92,19.32-17.33,19.32-10.07,0-16.77-7.92-16.77-19,0-11.46,7.14-19.49,17.44-19.49C258.66,129.61,264.7,138,264.7,148.82Zm-28.95.11c0,8.47,4.31,15.28,11.9,15.28,7.86,0,12-7.14,12-15.28,0-7.64-3.71-15.39-11.9-15.39C240,133.54,235.75,140.52,235.75,148.93Z"/><path class="cls-2" d="M273.55,130.22v22.2c0,8.24,3.66,11.79,8.69,11.79,5.48,0,9.08-3.66,9.08-11.79v-22.2h4.82V152c0,11.46-6,16.11-14.06,16.11-7.64,0-13.4-4.32-13.4-15.89v-22Z"/><path class="cls-1" d="M299.79,164.76l20.65-30.33v-.17H301.56v-4h25.19v2.94l-20.59,30.16v.17H327v4H299.79Z"/><path class="cls-1" d="M350,150H335.55v13.5h16.16v4h-21V130.22h20.2v4H335.55v11.84H350Z"/><path class="cls-3" d="M355.65,130.72a51,51,0,0,1,9.29-.77c5.15,0,8.47.94,10.8,3a9.52,9.52,0,0,1,2.93,7.09,9.8,9.8,0,0,1-7,9.52v.11c2.88,1,4.6,3.76,5.48,7.58,1.22,5.26,2.11,8.8,2.88,10.24h-5c-.61-1.05-1.44-4.26-2.49-8.91-1.11-5.1-3.1-7.09-7.47-7.25h-4.54v16.16h-4.87Zm4.87,17h4.92c5.15,0,8.42-2.82,8.42-7.08,0-4.87-3.49-6.92-8.58-7a19.54,19.54,0,0,0-4.76.44Z"/><path class="cls-4" d="M165.27,194.38a8.71,8.71,0,0,1-3.58.64c-3.83,0-6.71-2.42-6.71-6.87a6.75,6.75,0,0,1,7.09-7.12,7.3,7.3,0,0,1,3.22.6l-.42,1.43a6.44,6.44,0,0,0-2.74-.56c-3.18,0-5.3,2-5.3,5.59,0,3.33,1.92,5.46,5.22,5.46a7.07,7.07,0,0,0,2.86-.56Z"/><path class="cls-4" d="M167.4,180.52h1.77v6.08h.05a3.27,3.27,0,0,1,1.26-1.24,3.6,3.6,0,0,1,1.82-.51c1.3,0,3.4.81,3.4,4.17v5.8h-1.77v-5.6c0-1.57-.59-2.9-2.26-2.9a2.54,2.54,0,0,0-2.37,1.77,2,2,0,0,0-.13.85v5.88H167.4Z"/><path class="cls-4" d="M179.56,190.27a3.12,3.12,0,0,0,3.34,3.38,6.43,6.43,0,0,0,2.7-.5l.3,1.27a7.91,7.91,0,0,1-3.24.6c-3,0-4.79-2-4.79-4.91s1.73-5.26,4.57-5.26c3.18,0,4,2.8,4,4.59a6.67,6.67,0,0,1-.06.83Zm5.19-1.27c0-1.13-.46-2.88-2.45-2.88-1.79,0-2.58,1.65-2.72,2.88Z"/><path class="cls-4" d="M188.66,187.71c0-1,0-1.83-.08-2.64h1.55l.08,1.57h.06a3.36,3.36,0,0,1,3.06-1.79,2.88,2.88,0,0,1,2.76,2h0a3.83,3.83,0,0,1,1.09-1.27,3.26,3.26,0,0,1,2.15-.69c1.29,0,3.2.85,3.2,4.23v5.74h-1.73V189.3c0-1.87-.68-3-2.11-3a2.3,2.3,0,0,0-2.1,1.61,3,3,0,0,0-.14.89v6h-1.73V189c0-1.55-.68-2.68-2-2.68a2.43,2.43,0,0,0-2.2,1.77,2.52,2.52,0,0,0-.14.87v5.88h-1.73Z"/><path class="cls-4" d="M207.42,182.34a1.1,1.1,0,0,1-2.19,0,1.07,1.07,0,0,1,1.1-1.11A1,1,0,0,1,207.42,182.34Zm-2,12.48v-9.75h1.77v9.75Z"/><path class="cls-4" d="M217.1,194.46a6.55,6.55,0,0,1-2.8.56,4.63,4.63,0,0,1-4.85-5,5,5,0,0,1,5.24-5.18,5.76,5.76,0,0,1,2.45.51l-.4,1.37a4,4,0,0,0-2.05-.47,3.38,3.38,0,0,0-3.45,3.69,3.34,3.34,0,0,0,3.39,3.64,5.05,5.05,0,0,0,2.17-.48Z"/><path class="cls-4" d="M224.57,194.82l-.14-1.23h-.06a3.61,3.61,0,0,1-3,1.45,2.78,2.78,0,0,1-3-2.8c0-2.35,2.09-3.64,5.86-3.62v-.2a2,2,0,0,0-2.22-2.26,4.77,4.77,0,0,0-2.53.73l-.41-1.17a6,6,0,0,1,3.21-.87c3,0,3.7,2,3.7,4v3.64a13.88,13.88,0,0,0,.16,2.34Zm-.26-5c-1.94,0-4.13.3-4.13,2.19a1.57,1.57,0,0,0,1.67,1.69,2.42,2.42,0,0,0,2.36-1.63,1.84,1.84,0,0,0,.1-.56Z"/><path class="cls-4" d="M228.88,180.52h1.77v14.3h-1.77Z"/><path class="cls-4" d="M247.44,194.38a8.81,8.81,0,0,1-3.59.64c-3.82,0-6.7-2.42-6.7-6.87a6.75,6.75,0,0,1,7.09-7.12,7.34,7.34,0,0,1,3.22.6l-.42,1.43a6.44,6.44,0,0,0-2.74-.56c-3.18,0-5.3,2-5.3,5.59,0,3.33,1.91,5.46,5.22,5.46a7,7,0,0,0,2.85-.56Z"/><path class="cls-4" d="M258.17,189.87a4.76,4.76,0,0,1-4.86,5.17c-2.63,0-4.67-1.93-4.67-5,0-3.26,2.14-5.18,4.83-5.18S258.17,186.89,258.17,189.87Zm-7.73.1c0,2.13,1.22,3.74,2.95,3.74s3-1.59,3-3.78c0-1.65-.82-3.75-2.91-3.75S250.44,188.11,250.44,190Z"/><path class="cls-4" d="M260.4,187.71c0-1,0-1.83-.08-2.64h1.57l.1,1.61h0a3.59,3.59,0,0,1,3.22-1.83c1.35,0,3.44.81,3.44,4.15v5.82h-1.77V189.2c0-1.57-.58-2.88-2.25-2.88a2.52,2.52,0,0,0-2.38,1.81,2.64,2.64,0,0,0-.12.83v5.86H260.4Z"/><path class="cls-4" d="M271.33,193a4.65,4.65,0,0,0,2.33.7c1.29,0,1.9-.64,1.9-1.45s-.51-1.31-1.81-1.79c-1.76-.62-2.58-1.59-2.58-2.76,0-1.57,1.27-2.86,3.36-2.86a4.8,4.8,0,0,1,2.4.61l-.45,1.29a3.71,3.71,0,0,0-2-.57c-1.05,0-1.63.61-1.63,1.33s.58,1.17,1.85,1.65c1.69.65,2.56,1.49,2.56,2.94,0,1.71-1.33,2.92-3.65,2.92a5.56,5.56,0,0,1-2.73-.66Z"/><path class="cls-4" d="M287.7,192.16c0,1,0,1.89.08,2.66h-1.57l-.11-1.59h0a3.67,3.67,0,0,1-3.22,1.81c-1.53,0-3.36-.85-3.36-4.27v-5.7h1.77v5.4c0,1.85.57,3.1,2.18,3.1a2.49,2.49,0,0,0,2.49-2.52v-6h1.78Z"/><path class="cls-4" d="M290.63,180.52h1.77v14.3h-1.77Z"/><path class="cls-4" d="M297.52,182.28v2.79h2.53v1.35h-2.53v5.26c0,1.21.34,1.89,1.33,1.89a3.92,3.92,0,0,0,1-.12l.08,1.33a4.33,4.33,0,0,1-1.57.24,2.46,2.46,0,0,1-1.91-.74,3.64,3.64,0,0,1-.68-2.54v-5.32h-1.51v-1.35h1.51v-2.33Z"/><path class="cls-4" d="M307.44,194.82l-.14-1.23h-.06a3.61,3.61,0,0,1-3,1.45,2.78,2.78,0,0,1-3-2.8c0-2.35,2.09-3.64,5.86-3.62v-.2a2,2,0,0,0-2.22-2.26,4.77,4.77,0,0,0-2.53.73l-.4-1.17a6,6,0,0,1,3.2-.87c3,0,3.7,2,3.7,4v3.64a13.88,13.88,0,0,0,.16,2.34Zm-.26-5c-1.93,0-4.13.3-4.13,2.19a1.57,1.57,0,0,0,1.67,1.69,2.42,2.42,0,0,0,2.36-1.63,1.84,1.84,0,0,0,.1-.56Z"/><path class="cls-4" d="M311.75,187.71c0-1,0-1.83-.08-2.64h1.57l.1,1.61h0a3.59,3.59,0,0,1,3.22-1.83c1.35,0,3.44.81,3.44,4.15v5.82h-1.77V189.2c0-1.57-.58-2.88-2.26-2.88a2.52,2.52,0,0,0-2.37,1.81,2.64,2.64,0,0,0-.12.83v5.86h-1.77Z"/><path class="cls-4" d="M325,182.28v2.79h2.54v1.35H325v5.26c0,1.21.34,1.89,1.33,1.89a3.94,3.94,0,0,0,1-.12l.08,1.33a4.37,4.37,0,0,1-1.57.24,2.45,2.45,0,0,1-1.91-.74,3.59,3.59,0,0,1-.69-2.54v-5.32h-1.51v-1.35h1.51v-2.33Z"/><path class="cls-5" d="M59.66,75.38,41.12,86.08,23.67,96.16a2.72,2.72,0,0,0-1,3.71l1.63,2.82a2.71,2.71,0,0,0,3.71,1L31,102,97.14,216.49a17.08,17.08,0,0,0,23,6.44h0l.35-.18a17.08,17.08,0,0,0,6.26-23.34L60.61,84.86l3.39-2a2.71,2.71,0,0,0,1-3.71l-1.62-2.82A2.71,2.71,0,0,0,59.66,75.38Z"/><path class="cls-4" d="M121.64,224.75l-.34.18a19.53,19.53,0,0,1-26.16-7.28l-65-112.54-1,.57a5,5,0,0,1-6.87-1.84L20.67,101a5,5,0,0,1,1.84-6.86l36-20.78a5,5,0,0,1,6.87,1.84L67,78a5,5,0,0,1-1.84,6.87l-1.4.8,65,112.54A19.42,19.42,0,0,1,121.64,224.75ZM24.82,98.16a.4.4,0,0,0-.14.55l1.62,2.82a.42.42,0,0,0,.56.15l5-2.89L99.15,215.34A14.85,14.85,0,0,0,119,220.9a2.1,2.1,0,0,1,.26-.13h0a14.79,14.79,0,0,0,5.45-20.2L57.45,84l5.39-3.12a.4.4,0,0,0,.15-.55l-1.63-2.82a.4.4,0,0,0-.55-.15Z"/><path class="cls-6" d="M69.75,110.19l51.34,88.45c3.71,6.42,2.07,14.32-3.62,17.8h0c-.08.05-.15.11-.24.16-5.89,3.4-13.72.88-17.49-5.64,0,0-51.5-89.8-57.9-100.81,0-4.09,7.2-3.08,15.2-.06C65.73,113.36,69.75,110.19,69.75,110.19Z"/><path class="cls-5" d="M128.05,96.31,109.51,85.6,92.06,75.53a2.71,2.71,0,0,0-3.71,1l-1.62,2.82a2.71,2.71,0,0,0,1,3.71l3,1.74L24.59,199.33a17.07,17.07,0,0,0,5.92,23.12h0l.33.22a17.08,17.08,0,0,0,23.34-6.26l66.13-114.54,3.4,2a2.71,2.71,0,0,0,3.71-1l1.63-2.82A2.72,2.72,0,0,0,128.05,96.31Z"/><path class="cls-4" d="M29.69,224.67l-.33-.2a19.54,19.54,0,0,1-6.77-26.3l65-112.54-1-.57a5,5,0,0,1-1.84-6.87l1.63-2.82a5,5,0,0,1,6.87-1.84l36,20.78a5,5,0,0,1,1.84,6.86L129.42,104a5,5,0,0,1-6.87,1.84l-1.39-.8-65,112.54A19.41,19.41,0,0,1,29.69,224.67ZM90.91,77.53a.41.41,0,0,0-.55.15L88.73,80.5a.4.4,0,0,0,.15.55l5,2.89L26.59,200.49a14.86,14.86,0,0,0,5.12,20l.24.16h0a14.8,14.8,0,0,0,20.22-5.38L119.47,98.71l5.39,3.12a.42.42,0,0,0,.56-.15L127,98.86a.4.4,0,0,0-.14-.55Z"/><path class="cls-6" d="M64.86,139.2,30.07,198.64c-3.71,6.42-2.07,14.32,3.62,17.8h0c.08.05.15.11.24.16,5.89,3.4,13.72.88,17.49-5.64,0,0,35-60.79,41.35-71.81,0-4.08-7.2-3.07-15.2-.05C68.89,142.37,64.86,139.2,64.86,139.2Z"/></svg>