<svg id="Layer_1" data-name="Layer 1" xmlns="http://www.w3.org/2000/svg" xmlns:xlink="http://www.w3.org/1999/xlink" viewBox="0 0 400 300"><defs><style>.cls-1{fill:url(#linear-gradient);}.cls-2{fill:url(#linear-gradient-6);}.cls-3{fill:url(#linear-gradient-9);}.cls-4{fill:#005a82;}.cls-5{fill:#fff;}.cls-6,.cls-7{fill:#d150a9;stroke:#763e92;stroke-linecap:round;stroke-linejoin:round;}.cls-6{stroke-width:1.37px;}.cls-7{stroke-width:1.12px;}</style><linearGradient id="linear-gradient" x1="61.48" y1="187.85" x2="338.52" y2="187.85" gradientUnits="userSpaceOnUse"><stop offset="0" stop-color="#d150a9"/><stop offset="1" stop-color="#005a82"/></linearGradient><linearGradient id="linear-gradient-6" x1="61.48" y1="188.15" x2="338.52" y2="188.15" xlink:href="#linear-gradient"/><linearGradient id="linear-gradient-9" x1="61.48" y1="187.71" x2="338.52" y2="187.71" xlink:href="#linear-gradient"/></defs><title>noyhouzer-logo</title><path class="cls-1" d="M61.48,206.5V169.19h5.36L78.74,188a119.4,119.4,0,0,1,6.7,12.18l.11-.06c-.44-5-.55-9.52-.55-15.27V169.19h4.54V206.5H84.67L72.82,187.57a118.16,118.16,0,0,1-7-12.45l-.17,0c.28,4.71.39,9.19.39,15.39V206.5Z"/><path class="cls-1" d="M127.62,187.79c0,12.4-7.91,19.32-17.32,19.32-10.08,0-16.77-7.92-16.77-19,0-11.46,7.14-19.49,17.43-19.49C121.59,168.58,127.62,177,127.62,187.79Zm-28.95.11c0,8.47,4.32,15.28,11.9,15.28,7.86,0,12-7.14,12-15.28,0-7.64-3.71-15.39-11.9-15.39C102.88,172.51,98.67,179.49,98.67,187.9Z"/><path class="cls-1" d="M138.42,206.5V190.72l-11.79-21.53h5.48l5.26,10.3c1.44,2.88,2.54,5.15,3.7,7.69h.11c1-2.43,2.33-4.87,3.77-7.69l5.37-10.3h5.42l-12.45,21.42V206.5Z"/><path class="cls-1" d="M162.28,169.19v15.67h18V169.19h4.82V206.5h-4.82V189h-18V206.5h-4.87V169.19Z"/><path class="cls-1" d="M223.22,187.79c0,12.4-7.92,19.32-17.32,19.32-10.08,0-16.78-7.92-16.78-19,0-11.46,7.15-19.49,17.44-19.49C217.19,168.58,223.22,177,223.22,187.79Zm-28.95.11c0,8.47,4.32,15.28,11.9,15.28,7.86,0,12-7.14,12-15.28,0-7.64-3.71-15.39-11.9-15.39C198.48,172.51,194.27,179.49,194.27,187.9Z"/><path class="cls-2" d="M232.08,169.19v22.2c0,8.24,3.65,11.79,8.69,11.79,5.48,0,9.08-3.66,9.08-11.79v-22.2h4.81V191c0,11.46-6,16.11-14.06,16.11-7.64,0-13.39-4.32-13.39-15.89v-22Z"/><path class="cls-1" d="M258.32,203.73,279,173.4v-.17H260.09v-4h25.18v2.94l-20.59,30.16v.17h20.87v4H258.32Z"/><path class="cls-1" d="M308.52,189H294.08v13.5h16.16v4h-21V169.19h20.2v4H294.08V185h14.44Z"/><path class="cls-3" d="M314.17,169.69a51.12,51.12,0,0,1,9.3-.77c5.15,0,8.47.94,10.79,3a9.49,9.49,0,0,1,2.94,7.09,9.8,9.8,0,0,1-7,9.52v.11c2.87,1,4.59,3.76,5.48,7.58,1.21,5.26,2.1,8.8,2.87,10.24h-5c-.61-1.05-1.44-4.26-2.49-8.91-1.11-5.09-3.1-7.09-7.47-7.25H319V206.5h-4.87Zm4.87,17H324c5.14,0,8.41-2.82,8.41-7.08,0-4.87-3.49-6.92-8.58-7a19.6,19.6,0,0,0-4.76.44Z"/><path class="cls-4" d="M110.46,234.52a10.24,10.24,0,0,1-4.22.76c-4.51,0-7.9-2.84-7.9-8.09,0-5,3.39-8.4,8.35-8.4a8.61,8.61,0,0,1,3.79.71l-.49,1.69a7.54,7.54,0,0,0-3.23-.67c-3.75,0-6.24,2.4-6.24,6.6,0,3.92,2.25,6.43,6.14,6.43a8.32,8.32,0,0,0,3.37-.66Z"/><path class="cls-4" d="M113,218.2h2.09v7.16h0a3.9,3.9,0,0,1,1.49-1.47,4.39,4.39,0,0,1,2.14-.59c1.54,0,4,.95,4,4.91v6.84h-2.09v-6.6c0-1.85-.69-3.42-2.66-3.42a3,3,0,0,0-2.8,2.09,2.52,2.52,0,0,0-.14,1v6.93H113Z"/><path class="cls-4" d="M127.3,229.68a3.68,3.68,0,0,0,3.94,4,7.64,7.64,0,0,0,3.18-.59l.35,1.49a9.31,9.31,0,0,1-3.82.71c-3.53,0-5.64-2.32-5.64-5.79s2-6.19,5.38-6.19c3.75,0,4.75,3.3,4.75,5.41a8.57,8.57,0,0,1-.07,1Zm6.12-1.49c0-1.33-.54-3.39-2.89-3.39-2.11,0-3,1.94-3.21,3.39Z"/><path class="cls-4" d="M138,226.67c0-1.19,0-2.16-.09-3.11h1.83l.09,1.85h.07a4,4,0,0,1,3.61-2.11,3.39,3.39,0,0,1,3.25,2.3h.05a4.51,4.51,0,0,1,1.28-1.49,3.89,3.89,0,0,1,2.54-.81c1.52,0,3.77,1,3.77,5v6.77h-2v-6.51c0-2.2-.81-3.53-2.49-3.53a2.71,2.71,0,0,0-2.47,1.9,3.23,3.23,0,0,0-.17,1v7.1h-2v-6.89c0-1.82-.8-3.15-2.39-3.15a3.13,3.13,0,0,0-2.76,3.11v6.93h-2Z"/><path class="cls-4" d="M160.13,220.33a1.23,1.23,0,0,1-1.32,1.29,1.24,1.24,0,0,1-1.26-1.29,1.27,1.27,0,0,1,1.3-1.3A1.23,1.23,0,0,1,160.13,220.33Zm-2.32,14.72V223.56h2.09v11.49Z"/><path class="cls-4" d="M171.55,234.62a7.81,7.81,0,0,1-3.3.66c-3.47,0-5.72-2.35-5.72-5.86a5.84,5.84,0,0,1,6.17-6.1,6.87,6.87,0,0,1,2.89.6l-.47,1.61a4.9,4.9,0,0,0-2.42-.54c-2.64,0-4.06,1.94-4.06,4.34,0,2.66,1.71,4.29,4,4.29a5.94,5.94,0,0,0,2.56-.57Z"/><path class="cls-4" d="M180.35,235.05l-.17-1.45h-.07a4.29,4.29,0,0,1-3.51,1.71,3.27,3.27,0,0,1-3.51-3.3c0-2.78,2.46-4.3,6.9-4.27v-.24a2.37,2.37,0,0,0-2.61-2.66,5.75,5.75,0,0,0-3,.86l-.47-1.38a7.09,7.09,0,0,1,3.77-1c3.51,0,4.36,2.4,4.36,4.7v4.29a16.54,16.54,0,0,0,.19,2.76Zm-.31-5.87c-2.28,0-4.87.36-4.87,2.59a1.85,1.85,0,0,0,2,2,2.86,2.86,0,0,0,2.78-1.92,2.19,2.19,0,0,0,.12-.66Z"/><path class="cls-4" d="M185.42,218.2h2.09v16.85h-2.09Z"/><path class="cls-4" d="M207.3,234.52a10.26,10.26,0,0,1-4.23.76c-4.51,0-7.9-2.84-7.9-8.09,0-5,3.39-8.4,8.35-8.4a8.66,8.66,0,0,1,3.8.71l-.5,1.69a7.51,7.51,0,0,0-3.23-.67c-3.74,0-6.24,2.4-6.24,6.6,0,3.92,2.26,6.43,6.15,6.43a8.32,8.32,0,0,0,3.37-.66Z"/><path class="cls-4" d="M219.94,229.21c0,4.25-2.94,6.1-5.72,6.1-3.11,0-5.5-2.28-5.5-5.91,0-3.85,2.51-6.1,5.69-6.1S219.94,225.7,219.94,229.21Zm-9.11.12c0,2.51,1.44,4.41,3.49,4.41s3.48-1.87,3.48-4.46c0-1.95-1-4.41-3.44-4.41S210.83,227.14,210.83,229.33Z"/><path class="cls-4" d="M222.57,226.67c0-1.19,0-2.16-.09-3.11h1.85l.12,1.9h0a4.23,4.23,0,0,1,3.8-2.16c1.59,0,4.06.95,4.06,4.89v6.86h-2.09v-6.62c0-1.86-.69-3.4-2.66-3.4a3,3,0,0,0-2.8,2.14,3.15,3.15,0,0,0-.14,1v6.91h-2.09Z"/><path class="cls-4" d="M235.45,232.91a5.53,5.53,0,0,0,2.76.83c1.51,0,2.22-.76,2.22-1.71s-.59-1.54-2.13-2.11c-2.06-.74-3-1.87-3-3.25,0-1.85,1.5-3.37,4-3.37a5.72,5.72,0,0,1,2.82.71l-.52,1.52a4.54,4.54,0,0,0-2.35-.66c-1.24,0-1.92.71-1.92,1.56s.68,1.38,2.18,1.95c2,.76,3,1.75,3,3.46,0,2-1.56,3.44-4.29,3.44a6.61,6.61,0,0,1-3.23-.78Z"/><path class="cls-4" d="M254.74,231.91c0,1.19,0,2.23.09,3.14H253l-.12-1.88h-.05a4.33,4.33,0,0,1-3.8,2.14c-1.8,0-4-1-4-5v-6.72h2.09v6.36c0,2.18.66,3.65,2.56,3.65a2.93,2.93,0,0,0,2.94-3v-7.05h2.09Z"/><path class="cls-4" d="M258.2,218.2h2.09v16.85H258.2Z"/><path class="cls-4" d="M266.32,220.26v3.3h3v1.59h-3v6.19c0,1.43.4,2.23,1.56,2.23a4.69,4.69,0,0,0,1.21-.14l.1,1.57a5.32,5.32,0,0,1-1.85.28,2.9,2.9,0,0,1-2.26-.88,4.24,4.24,0,0,1-.8-3v-6.27H262.5v-1.59h1.78v-2.75Z"/><path class="cls-4" d="M278,235.05l-.16-1.45h-.08a4.27,4.27,0,0,1-3.51,1.71,3.28,3.28,0,0,1-3.51-3.3c0-2.78,2.47-4.3,6.91-4.27v-.24a2.37,2.37,0,0,0-2.61-2.66,5.72,5.72,0,0,0-3,.86l-.48-1.38a7.11,7.11,0,0,1,3.77-1c3.52,0,4.37,2.4,4.37,4.7v4.29a16.54,16.54,0,0,0,.19,2.76Zm-.31-5.87c-2.27,0-4.86.36-4.86,2.59a1.85,1.85,0,0,0,2,2,2.85,2.85,0,0,0,2.77-1.92,1.92,1.92,0,0,0,.12-.66Z"/><path class="cls-4" d="M283.09,226.67c0-1.19,0-2.16-.1-3.11h1.85l.12,1.9H285a4.23,4.23,0,0,1,3.79-2.16c1.6,0,4.06.95,4.06,4.89v6.86h-2.09v-6.62c0-1.86-.68-3.4-2.65-3.4a3,3,0,0,0-2.8,2.14,2.86,2.86,0,0,0-.15,1v6.91h-2.08Z"/><path class="cls-4" d="M298.67,220.26v3.3h3v1.59h-3v6.19c0,1.43.41,2.23,1.57,2.23a4.69,4.69,0,0,0,1.21-.14l.09,1.57a5.21,5.21,0,0,1-1.84.28,2.9,2.9,0,0,1-2.26-.88,4.24,4.24,0,0,1-.81-3v-6.27h-1.78v-1.59h1.78v-2.75Z"/><path class="cls-5" d="M232.26,80.79l-12.72-7.35-12-6.91a1.85,1.85,0,0,0-2.54.68l-1.12,1.94a1.85,1.85,0,0,0,.68,2.54l2.06,1.19-45.38,78.61a11.71,11.71,0,0,0,4.06,15.87h0l.23.15a11.72,11.72,0,0,0,16-4.29L227,84.61,229.28,86a1.85,1.85,0,0,0,2.54-.68l1.12-1.94A1.85,1.85,0,0,0,232.26,80.79Z"/><path class="cls-4" d="M164.75,168.88l-.22-.14a13.4,13.4,0,0,1-4.65-18l44.59-77.24-.68-.39a3.46,3.46,0,0,1-1.27-4.72l1.12-1.93a3.45,3.45,0,0,1,4.72-1.26l24.69,14.25a3.46,3.46,0,0,1,1.27,4.72l-1.12,1.93a3.45,3.45,0,0,1-4.71,1.27l-1-.56L182.94,164A13.33,13.33,0,0,1,164.75,168.88Zm42-101a.29.29,0,0,0-.38.1l-1.12,1.94a.29.29,0,0,0,.1.38l3.44,2-46.18,80A10.19,10.19,0,0,0,166.14,166l.17.11h0a10.16,10.16,0,0,0,13.88-3.7l46.18-80,3.7,2.14a.29.29,0,0,0,.38-.1l1.12-1.94a.29.29,0,0,0-.1-.38Z"/><path class="cls-6" d="M211.08,87.16c-6,2.24-8.72.07-8.72.07L165,151c-2.55,4.41-1.43,9.83,2.48,12.22l.17.11c4,2.34,9.41.6,12-3.87,0,0,37.45-64.71,41.85-72.27C221.52,84.4,216.57,85.09,211.08,87.16Zm1.06,9.14a2.64,2.64,0,1,1,2.64-2.64A2.64,2.64,0,0,1,212.14,96.3Zm-7.84,6.2a3.43,3.43,0,1,1,3.43-3.43A3.43,3.43,0,0,1,204.3,102.5Z"/><path class="cls-7" d="M241.81,68.29c.56,1.41-2.62,3.51-4.94,4.43s-9.14,2.18-9.7.78,5.36-5,7.68-5.88S241.25,66.89,241.81,68.29Z"/><circle class="cls-7" cx="210.88" cy="79.71" r="2.97"/></svg>