<svg width="240" height="53" viewBox="0 0 240 53" fill="none" xmlns="http://www.w3.org/2000/svg">
<path d="M121.069 0C122.587 6.5368e-05 124.08 0.379097 125.413 1.10254C126.712 1.8215 127.79 2.88025 128.532 4.16504L128.5 4.08691C129.256 5.43978 129.652 6.9636 129.652 8.5127C129.652 10.0618 129.256 11.5856 128.5 12.9385C127.752 14.2281 126.67 15.2929 125.367 16.0205C124.056 16.7546 122.576 17.1369 121.072 17.1299C121.261 17.4024 121.437 17.6817 121.605 17.9736C122.956 20.3986 123.665 23.1276 123.665 25.9023C123.665 28.6773 122.956 31.4069 121.605 33.832C120.27 36.1434 118.332 38.0498 115.997 39.3477C113.632 40.6773 110.958 41.3643 108.244 41.3398C107.109 41.3418 105.977 41.2257 104.865 40.9951C105.301 42.0731 105.521 43.2262 105.515 44.3887C105.538 45.9404 105.14 47.4699 104.364 48.8145C103.621 50.1035 102.541 51.1672 101.239 51.8906C99.9087 52.6187 98.4157 52.9999 96.8984 53C95.3811 53 93.8873 52.6188 92.5566 51.8906C91.2527 51.1656 90.1684 50.1026 89.418 48.8145C88.6557 47.4626 88.2559 45.9371 88.2559 44.3857C88.2559 42.8344 88.6556 41.3088 89.418 39.957C90.1689 38.6727 91.2535 37.6146 92.5566 36.8945C93.6926 36.2707 94.9539 35.9069 96.248 35.8301C95.724 35.2037 95.2522 34.5356 94.8379 33.832C93.4744 31.4111 92.7578 28.6799 92.7578 25.9023C92.7579 23.125 93.4745 20.3945 94.8379 17.9736C96.1812 15.6686 98.1266 13.7705 100.466 12.4834C102.852 11.1714 105.539 10.5008 108.264 10.5371C109.803 10.5398 111.334 10.7588 112.812 11.1865C112.554 10.3455 112.423 9.47043 112.423 8.59082C112.401 7.0376 112.803 5.5073 113.586 4.16504C114.335 2.87907 115.42 1.82054 116.725 1.10254C118.058 0.379013 119.552 0 121.069 0ZM12.1523 17.1172C14.1383 17.0916 16.0949 17.5975 17.8184 18.583C19.5089 19.5605 20.8811 21.005 21.7695 22.7422C22.7519 24.6787 23.2414 26.8279 23.1934 28.998C23.2389 31.1741 22.7497 33.3283 21.7695 35.2725C20.8824 37.0208 19.5108 38.478 17.8184 39.4707C16.1002 40.4715 14.1412 40.9858 12.1523 40.957C10.1441 41.0044 8.16491 40.4654 6.45898 39.4062C4.93504 38.4711 3.7109 37.1199 2.93066 35.5127V51.5459H0V17.4805H2.93066V22.5674C3.70612 20.9613 4.92384 19.6091 6.44043 18.668C8.15128 17.6038 10.1374 17.0645 12.1523 17.1172ZM96.918 40.7236C96.0065 40.7236 95.1319 41.0852 94.4873 41.7285C93.885 42.5103 93.5827 43.4819 93.6357 44.4668C93.5847 45.4416 93.8872 46.4023 94.4873 47.1729C95.132 47.8163 96.0065 48.1777 96.918 48.1777C97.8293 48.1776 98.7031 47.8162 99.3477 47.1729C99.9478 46.4023 100.25 45.4416 100.199 44.4668C100.252 43.4819 99.95 42.5103 99.3477 41.7285C98.7031 41.0853 97.8292 40.7237 96.918 40.7236ZM229.355 17.1172C231.884 17.0147 234.373 17.7611 236.426 19.2383C238.28 20.6633 239.55 22.7142 240 25.0068H236.81C236.458 23.4317 235.531 22.044 234.21 21.1143C232.769 20.1295 231.049 19.6306 229.304 19.6924C227.842 19.6646 226.399 20.0209 225.118 20.7246C223.842 21.462 222.815 22.5623 222.168 23.8848C221.4 25.4911 221.028 27.258 221.083 29.0371C221.028 30.8286 221.4 32.6076 222.168 34.2275C222.813 35.5568 223.84 36.6641 225.118 37.4072C226.402 38.1233 227.853 38.4881 229.323 38.4648C231.069 38.5266 232.788 38.0287 234.229 37.0439C235.565 36.0969 236.494 34.6806 236.829 33.0791H240C239.52 35.3568 238.238 37.3878 236.387 38.8027C234.35 40.3019 231.864 41.0659 229.336 40.9697C227.29 41.0143 225.27 40.5074 223.487 39.5029C221.786 38.5282 220.399 37.0873 219.491 35.3506C218.542 33.3867 218.048 31.2336 218.048 29.0527C218.048 26.872 218.542 24.7196 219.491 22.7559L219.511 22.7422C220.416 21.0022 221.803 19.5583 223.507 18.583C225.29 17.5815 227.31 17.0757 229.355 17.1172ZM36.7031 17.1172C38.7264 17.0584 40.7226 17.5906 42.4473 18.6484C43.9629 19.5725 45.1679 20.9279 45.9053 22.541V17.4805H48.8809V40.6318H45.9053V35.5059C45.136 37.1123 43.9198 38.4641 42.4023 39.3994C40.6915 40.4636 38.7054 41.0028 36.6904 40.9502C34.6994 40.9779 32.7376 40.4638 31.0166 39.4639C29.3276 38.4691 27.9588 37.0121 27.0723 35.2656C26.0922 33.3215 25.6038 31.1673 25.6494 28.9912C25.5924 26.826 26.07 24.6796 27.04 22.7422C27.9279 21.0067 29.2972 19.5627 30.9844 18.583C32.7256 17.5939 34.7001 17.0882 36.7031 17.1172ZM179.038 17.1172C181.055 17.0622 183.045 17.5942 184.764 18.6484C186.279 19.5725 187.483 20.928 188.221 22.541V17.4805H191.197V40.6318H188.207V35.5059C187.438 37.1123 186.222 38.4641 184.705 39.3994C182.994 40.4636 181.008 41.0028 178.993 40.9502C177.004 40.979 175.044 40.4648 173.326 39.4639C171.634 38.4712 170.262 37.014 169.375 35.2656C168.395 33.3215 167.907 31.1673 167.952 28.9912C167.905 26.8232 168.394 24.6767 169.375 22.7422C170.263 21.0049 171.636 19.5605 173.326 18.583C175.065 17.593 177.037 17.0872 179.038 17.1172ZM57.8105 17.4805H64.1787V19.9785L57.8105 19.959V34.3506C57.8105 35.7651 58.0768 36.7388 58.6162 37.2773C59.1556 37.8158 60.104 38.082 61.4619 38.082H64.1787V40.626H60.9941C58.902 40.6259 57.3447 40.1391 56.3223 39.166C55.302 38.1927 54.7949 36.5697 54.7949 34.3506V19.959H51.5459V17.4805H54.7949V11.6406H57.8105V17.4805ZM200.146 17.4805H206.514V19.9785L200.146 19.959V34.3506C200.146 35.7651 200.412 36.7388 200.951 37.2773C201.49 37.8158 202.439 38.082 203.797 38.082H206.514V40.626H203.329C201.237 40.6259 199.68 40.1391 198.657 39.166C197.637 38.1927 197.13 36.5697 197.13 34.3506V19.959H193.881V17.4805H197.13V11.6406H200.146V17.4805ZM70.3389 21.4062C71.0647 20.0188 72.1984 18.8859 73.5879 18.1611C75.0674 17.4139 76.7014 17.0216 78.3594 17.0137C80.0173 17.0058 81.6541 17.3832 83.1406 18.1162V18.1289C84.5651 18.8884 85.7222 20.0661 86.4551 21.5029C87.309 23.2203 87.726 25.1215 87.6699 27.0381V40.6064H84.7393V27.3818C84.7392 24.8643 84.1093 22.9413 82.8486 21.6133C82.1768 20.9383 81.3694 20.4125 80.4805 20.0693C79.5916 19.7262 78.6402 19.573 77.6885 19.6211C76.6963 19.5747 75.7055 19.7406 74.7822 20.1064C73.859 20.4723 73.0243 21.0301 72.334 21.7432C70.9996 23.1577 70.3345 25.2369 70.3389 27.9795V40.6123H67.3623V9.2334H70.3389V21.4062ZM156.112 17.0518C157.327 17.0097 158.538 17.2141 159.672 17.6523C160.805 18.0906 161.838 18.7536 162.708 19.6016C164.415 21.3319 165.27 23.8135 165.274 27.0449V40.6123H162.344V27.3818C162.344 24.8643 161.735 22.9413 160.518 21.6133C159.879 20.9398 159.101 20.4132 158.238 20.0693C157.375 19.7254 156.448 19.5719 155.521 19.6211C154.548 19.5829 153.58 19.7576 152.682 20.1318C151.784 20.5062 150.978 21.0719 150.321 21.7891C149.022 23.2296 148.372 25.3211 148.372 28.0635V40.6123H145.441V27.3818C145.441 24.8643 144.833 22.9413 143.615 21.6133C142.974 20.9451 142.197 20.4217 141.336 20.0781C140.475 19.7346 139.551 19.5785 138.625 19.6211C137.653 19.5829 136.683 19.7575 135.785 20.1318C134.887 20.5062 134.082 21.072 133.426 21.7891C132.126 23.2296 131.477 25.321 131.477 28.0635V40.6123H128.5V17.4805H131.477V21.4639C132.161 20.0744 133.257 18.9281 134.615 18.1807C136.009 17.4203 137.576 17.0315 139.164 17.0518C141.03 17.015 142.867 17.5177 144.454 18.499C145.999 19.4985 147.159 20.9928 147.742 22.7363C148.286 20.999 149.421 19.5066 150.952 18.5186C152.491 17.5353 154.286 17.025 156.112 17.0518ZM213.525 40.6123H210.549V17.4805L213.525 17.4609V40.6123ZM37.249 19.7256C35.7071 19.702 34.1858 20.0819 32.8369 20.8281C31.5202 21.5753 30.4491 22.6897 29.7559 24.0342C28.9715 25.5758 28.5851 27.289 28.6318 29.0176C28.5914 30.7456 28.9773 32.4572 29.7559 34.001C30.4473 35.3567 31.518 36.4834 32.8369 37.2451C34.1818 38.0036 35.7046 38.3907 37.249 38.3672C38.7763 38.3819 40.2796 37.9879 41.6025 37.2256C42.927 36.4565 44.0101 35.3327 44.7285 33.9814C45.4811 32.4507 45.873 30.7677 45.873 29.0625C45.873 27.3574 45.481 25.6751 44.7285 24.1445V24.1182C44.0126 22.7649 42.929 21.6407 41.6025 20.874C40.2813 20.1068 38.7773 19.71 37.249 19.7256ZM179.591 19.7256C178.047 19.7011 176.523 20.081 175.172 20.8281C173.855 21.5753 172.785 22.6897 172.092 24.0342C171.307 25.5759 170.92 27.2889 170.967 29.0176C170.926 30.7456 171.313 32.4572 172.092 34.001C172.783 35.3566 173.853 36.4834 175.172 37.2451C176.519 38.0042 178.044 38.3912 179.591 38.3672C181.118 38.3812 182.621 37.9873 183.944 37.2256C185.266 36.4544 186.346 35.331 187.063 33.9814C187.816 32.4507 188.208 30.7677 188.208 29.0625C188.208 27.3574 187.816 25.6752 187.063 24.1445V24.1182C186.348 22.7667 185.268 21.6427 183.944 20.874C182.623 20.1073 181.119 19.7106 179.591 19.7256ZM11.5547 19.7061C10.0264 19.6911 8.5217 20.0877 7.2002 20.8545C5.87701 21.6232 4.79631 22.7472 4.08105 24.0986C3.32463 25.6282 2.93066 27.3117 2.93066 29.0176C2.93071 30.7233 3.32472 32.4061 4.08105 33.9355C4.79883 35.2852 5.87898 36.4085 7.2002 37.1797C8.52345 37.9415 10.0273 38.3364 11.5547 38.3223C13.1011 38.3462 14.6257 37.9582 15.9727 37.1992C17.2889 36.434 18.3586 35.3083 19.0537 33.9551C19.8293 32.4102 20.2151 30.6994 20.1777 28.9717C20.2182 27.2521 19.8321 25.5491 19.0537 24.0146C18.3559 22.6734 17.2859 21.5602 15.9727 20.8086C14.6219 20.0617 13.0986 19.6817 11.5547 19.7061ZM108.276 19.3105C106.644 19.3107 105.079 19.9569 103.923 21.1074C102.935 22.5383 102.405 24.2354 102.405 25.9736C102.405 27.712 102.934 29.4098 103.923 30.8408C105.079 31.9913 106.644 32.6376 108.276 32.6377C109.909 32.6377 111.475 31.9915 112.631 30.8408C113.619 29.4098 114.148 27.712 114.148 25.9736C114.148 24.2355 113.619 22.5383 112.631 21.1074C111.475 19.9567 109.909 19.3105 108.276 19.3105ZM212.037 8.71973C212.607 8.71973 213.155 8.94126 213.564 9.33691C213.776 9.53486 213.944 9.77571 214.056 10.043C214.168 10.3102 214.221 10.5981 214.214 10.8877C214.22 11.1799 214.165 11.4701 214.054 11.7402C213.942 12.0104 213.775 12.2551 213.564 12.458C213.364 12.6593 213.126 12.8187 212.864 12.9277C212.602 13.0368 212.321 13.0928 212.037 13.0928C211.753 13.0928 211.472 13.0368 211.21 12.9277C210.948 12.8187 210.71 12.6593 210.51 12.458C210.299 12.2551 210.132 12.0104 210.021 11.7402C209.909 11.4701 209.854 11.1799 209.86 10.8877C209.853 10.5981 209.907 10.3102 210.019 10.043C210.131 9.77574 210.298 9.53485 210.51 9.33691C210.919 8.94127 211.467 8.71974 212.037 8.71973ZM121.085 4.85352C120.174 4.85358 119.299 5.21496 118.654 5.8584C118.096 6.65676 117.798 7.60749 117.798 8.58105C117.798 9.55441 118.096 10.5045 118.654 11.3027C119.299 11.9462 120.174 12.3076 121.085 12.3076C121.996 12.3076 122.871 11.9462 123.516 11.3027C124.07 10.5031 124.367 9.55364 124.367 8.58105C124.367 7.60835 124.07 6.65816 123.516 5.8584C122.871 5.21503 121.996 4.85352 121.085 4.85352Z" fill="url(#paint0_linear_49_3192)"/>
<defs>
<linearGradient id="paint0_linear_49_3192" x1="93.25" y1="53" x2="125" y2="-1.99423e-06" gradientUnits="userSpaceOnUse">
<stop stop-color="#076761"/>
<stop offset="1" stop-color="#119E96"/>
</linearGradient>
</defs>
</svg>
