<svg id="Layer_1" data-name="Layer 1" xmlns="http://www.w3.org/2000/svg" viewBox="0 0 400 300"><defs><style>.cls-1{fill:#dc1e5a;}.cls-2{fill:#504664;}</style></defs><title>popvod-logo</title><path class="cls-1" d="M213.93,120.23l11.69,39,11.61-39h18.9l-19.06,56.69h-23L195,120.23Z"/><path class="cls-1" d="M380,163a26.11,26.11,0,0,1-10.29,10.21,31.53,31.53,0,0,1-15.58,3.72H330.48V120.23H354.1a32.38,32.38,0,0,1,15.58,3.6,25.38,25.38,0,0,1,10.29,10,29.23,29.23,0,0,1,3.6,14.57A29.54,29.54,0,0,1,380,163ZM362,157.78q3.53-3.28,3.52-9.37T362,139q-3.52-3.27-9.53-3.28h-4.24v25.31h4.24Q358.5,161.07,362,157.78Z"/><path class="cls-1" d="M41.35,158.7v18H23.57V120H48.39q10.41,0,16,5.28t5.56,14.18a19.23,19.23,0,0,1-2.48,9.72,17.69,17.69,0,0,1-7.33,6.93,24.79,24.79,0,0,1-11.73,2.56Zm10.57-19.21c0-3.47-1.85-5.21-5.53-5.21h-5v10.41h5C50.07,144.69,51.92,143,51.92,139.49Z"/><path class="cls-1" d="M166.8,158.7v18H149V120h24.82q10.41,0,16,5.28t5.56,14.18a19.34,19.34,0,0,1-2.48,9.72,17.69,17.69,0,0,1-7.33,6.93,24.79,24.79,0,0,1-11.73,2.56Zm10.57-19.21c0-3.47-1.85-5.21-5.53-5.21h-5v10.41h5C175.52,144.69,177.37,143,177.37,139.49Z"/><path class="cls-2" d="M72.9,151.25a35.55,35.55,0,1,0,32.55-38.32A35.54,35.54,0,0,0,72.9,151.25Zm41.73,4.45a13.5,13.5,0,1,1-14.55-12.37A13.51,13.51,0,0,1,114.63,155.7Z"/><path class="cls-2" d="M324.29,141.64a35.55,35.55,0,1,0-28.18,41.63A35.54,35.54,0,0,0,324.29,141.64Zm-42,.12a13.51,13.51,0,1,1,15.82,10.71A13.52,13.52,0,0,1,282.32,141.76Z"/></svg>