<svg id="Layer_1" data-name="Layer 1" xmlns="http://www.w3.org/2000/svg" xmlns:xlink="http://www.w3.org/1999/xlink" viewBox="0 0 400 300"><defs><style>.cls-1{fill:none;}.cls-2{fill:#f59fac;}.cls-3{fill:#df7f8f;}.cls-4{fill:#7f401f;}.cls-5{clip-path:url(#clip-path);}.cls-6{fill:url(#linear-gradient);}</style><clipPath id="clip-path"><path id="SVGID" class="cls-1" d="M329.4,132.35c-5.11,3.08.12,10.82,5.06,7.41,9-6.2,22-3.22,24.19,2.14,5.84-1.29,8.36-7.11,3.69-10.84-.37-.31-4.67-5.11-13.45-5.11-5,0-11.47,1.56-19.49,6.4"/></clipPath><linearGradient id="linear-gradient" x1="-2538.87" y1="1074.61" x2="-2537.87" y2="1074.61" gradientTransform="matrix(37.47, 0, 0, -37.47, 95466.86, 40403.68)" gradientUnits="userSpaceOnUse"><stop offset="0" stop-color="#42210b"/><stop offset="1" stop-color="#7f401f"/></linearGradient></defs><title>sodmatok-logo</title><path class="cls-2" d="M324.77,98.28a22.42,22.42,0,1,1-22.41-22.41,22.41,22.41,0,0,1,22.41,22.41"/><path class="cls-3" d="M304.88,75.57c-17.79-.21-25.09,16.78-24.89,23.6,8.31-9.51,7.61,15.25,20.12,18.29-8.18-7.07-11.35-27.28,13.36-25.52,3.55.25,4.61.61,6.8,1.83a3,3,0,0,1,.58,3.48c-.85,2.33-3.06,7.41-3,8.67.41,4.43,2.33,4.65,3,4.83,1.25-1.61,3-10.59,3-10.59L321,88.49"/><path class="cls-4" d="M326.53,99.11c0,5.4.53-8-15.37-9.09-23.5-1.67-18.3,21.37-11.75,26.75-10.61-4.59-11.62-27.63-19.52-18.58-.2-6.49,5.7-23.45,22.62-23.25a24.1,24.1,0,0,1,24,24.17"/><path class="cls-4" d="M326.21,97.52a29.94,29.94,0,0,1,.35,7.32c-.07,2.42-1.19,5.34-3.6,5.52-1.88.14-3.46-1.65-3.79-3.5a11.65,11.65,0,0,1,.87-5.53c.59-1.79,4-5.7-.32-9.24l3.21-2.53s3.14,7.82,3.28,8"/><path class="cls-4" d="M369.63,145.06c-1.19-8.12-6-15.31-14-18a25.79,25.79,0,0,0-14.38-.25,4.72,4.72,0,0,0-3.85-.67c-15.44,3.54-24.36,19.39-29.58,33.05-4.35,11.38-9.86,30.93,2.95,39.15,6.72,4.32,15.05,2.15,21.84-.76A74.75,74.75,0,0,0,352.77,185c11-9.77,19.07-24.91,16.86-39.95m-21.87,31.15a60.2,60.2,0,0,1-14.28,10.11c-4.31,2.25-10.14,5.44-15.2,4.54-10.5-1.88-3.75-21.11-1.74-26.84,2.81-8,7.3-17.76,14.31-23.64a6.22,6.22,0,0,0,3.12-.55c5.34-2.4,11.53-5.1,17.5-3.68,5.18,1.24,7.77,5.57,8.51,10.6,1.61,10.91-4.67,22.09-12.22,29.46"/><path class="cls-4" d="M293.38,131.68c-5.64,23.26-8.14,40.29-10.4,64.12-.65,6.87,10.08,6.83,10.73,0,2.17-22.88,4.59-38.94,10-61.27,1.62-6.71-8.72-9.57-10.35-2.85"/><path class="cls-4" d="M269,157.86c-3.43-.14-7.12.65-10.51,1.1l-.74.11a114.19,114.19,0,0,1,8.14-10c2.46-2.85,4.89-5.74,7.12-8.78s4.68-6.9,3.15-10.95c-3.15-8.34-14.24-3.75-20.06-1.71a119.39,119.39,0,0,0-22.54,10.65c-5.3,3.21-.46,11.55,4.86,8.32A107.38,107.38,0,0,1,256,137.86q4.46-1.68,9-3a1,1,0,0,1-.08.11c-7,9.75-16.14,17.5-20.58,29-1.45,3.78,2.72,6.49,5.93,5.93,4.87-.85,9.76-1.57,14.68-2.1,1.34-.15,3.72-1.12,4.2.36S267.7,172,267.05,173a103.19,103.19,0,0,1-17.92,21.08c-4.6,4.18,2.24,11,6.82,6.81a113.94,113.94,0,0,0,13.26-14.34c3.65-4.7,8.38-10.21,9.38-16.25,1.05-6.34-3-12.19-9.64-12.47"/><path class="cls-4" d="M204.07,129.18q-5.41,16.13-10.82,32.25-2.72,8.07-5.42,16.13l-1.08,3.21c-3.69-12.18-6.93-24.5-10.15-36.81-1.31-5-9.12-5.2-10.34,0-4.35,18.43-9.2,39.79-13.11,58.32-1.42,6.74,8.92,9.62,10.35,2.86,2.44-11.58,5.69-26,8.3-37.52,2.68,9.73,5.52,20.12,8.75,29.69.86,2.54,3.77,4.83,6.6,3.75,5.86-2.25,6.95-8.5,8.77-13.93L202,169l12.41-37c2.2-6.55-8.16-9.37-10.35-2.85"/><path class="cls-4" d="M156.2,136.41C154,126,142.54,128.1,135,130.13a94.69,94.69,0,0,0-26.42,11.69c-5,3.16-1.76,10.39,2.92,10.11.14,5.11.07,16.66-.29,21.77-.4,5.53-.89,11.36-3.08,16.52-3.86,9.1-12.91,19.66-20.9,24.72-5.82,3.69-.44,13,5.41,9.27,9.62-6.1,19.89-17.91,24.79-28.63,5.38-11.78,5.23-32.93,4.75-45.63,0-1.22-.18-1.84-.18-3.74a69.53,69.53,0,0,1,12.24-4.69c3.29-1,6.94-2.29,10.39-2.56a8.39,8.39,0,0,1,1.23,0l-.07.3c-.37,1.28-.45,2.87-.78,4.2-4,16.22-7.34,34.56-11.37,50.77-1.67,6.7,8.68,9.56,10.34,2.85,2.52-10.13,4.33-16,6.84-26.1,1.29-5.18,6.3-30.33,5.42-34.54"/><path class="cls-4" d="M92,127.84a346.75,346.75,0,0,0-6.39,67.95c0,6.9,10.76,6.92,10.72,0a332.31,332.31,0,0,1,6-65.1c1.28-6.75-9.06-9.63-10.34-2.85"/><path class="cls-4" d="M62.58,132a85.26,85.26,0,0,0-30.22,8.74c-5.35,2.68-.65,10.7,4.69,8A73.14,73.14,0,0,1,62,141.36a72,72,0,0,1,12-.26c.3,0,1,.44,1.17.32a9.22,9.22,0,0,1-.85,2.12c-.84,1.86-1.85,3.67-2.79,5.48-7.61,14.69-16,30-15.09,47,.33,6,9.62,6,9.29,0-.55-10,2.57-19.5,6.8-28.5,2.21-4.68,4.64-9.26,7-13.86,2-3.84,5-8.28,4.86-12.79C84,130.11,70,131.29,62.58,132"/><path class="cls-4" d="M63.66,212.37c-2.64.9-9.85,5.24-12.16,2-1.26-1.77-1.14-5.38-1.42-7.48-.38-2.79-.68-5.6-.92-8.4a196.14,196.14,0,0,1,0-33.23c.49-6-8.81-5.94-9.29,0A198.25,198.25,0,0,0,40.93,208c.79,5.9,1.26,12.42,7.2,15.41,6.12,3.09,12.17-.11,18-2.09,5.64-1.91,3.22-10.9-2.47-9"/><g class="cls-5"><rect class="cls-6" x="324.29" y="125.95" width="42.73" height="17.22"/></g></svg>