<svg width="230" height="80" viewBox="0 0 230 80" fill="none" xmlns="http://www.w3.org/2000/svg">
<path d="M59.875 18.1841C59.7084 18.1841 59.5418 18.1841 59.4307 18.1841C59.7084 19.6764 59.875 21.1687 59.875 22.7162C59.875 30.4541 55.9871 37.2523 50.0996 41.3423C52.599 43.8847 56.0426 45.4323 59.875 45.4323C67.4288 45.4323 73.5939 39.2973 73.5939 31.7805C73.5939 24.2638 67.4843 18.1841 59.875 18.1841Z" fill="#FF00CE"/>
<path d="M59.4302 18.1839C57.3196 7.79309 48.0996 0 37.0467 0C29.5485 0 22.939 3.59256 18.7733 9.11957C8.66469 9.11957 0.5 17.2443 0.5 27.3035C0.5 37.3626 8.66469 45.4873 18.7733 45.4873C21.8837 45.4873 33.6031 45.4873 37.0467 45.4873C41.9344 45.4873 46.4333 43.995 50.0991 41.3973C47.6552 38.9102 46.1556 35.594 46.1556 31.8356C46.2111 24.4294 52.0986 18.4602 59.4302 18.1839Z" fill="#26A3FF"/>
<path d="M59.8743 22.7162C59.8743 21.1687 59.7077 19.6211 59.43 18.1841C52.0984 18.4052 46.2109 24.4296 46.2109 31.8358C46.2109 35.5389 47.7106 38.9104 50.1544 41.3975C56.0419 37.2523 59.8743 30.4541 59.8743 22.7162Z" fill="#1E1E9A"/>
<path fill-rule="evenodd" clip-rule="evenodd" d="M140.411 73.012C140.633 72.3488 140.744 71.575 140.744 70.7459C140.744 69.9638 140.614 69.2681 140.507 68.6972L140.507 68.6957L140.504 68.6827C140.491 68.6132 140.479 68.5456 140.467 68.4798C140.244 67.8166 139.911 67.3192 139.522 66.877C139.134 66.4349 138.634 66.1585 138.134 65.9374C137.578 65.7163 137.023 65.6058 136.468 65.6058C135.69 65.6058 134.968 65.7716 134.301 66.1585C133.635 66.5454 133.135 67.0981 132.802 67.8719V61.4053H130.58V75.8308H132.746V73.7305C133.079 74.449 133.524 75.0017 134.135 75.3886C134.746 75.7755 135.468 75.9966 136.301 75.9966C136.912 75.9966 137.467 75.8861 138.023 75.665C138.578 75.4439 139.078 75.1123 139.467 74.6701C139.856 74.228 140.189 73.6753 140.411 73.012ZM137.745 73.2331C137.301 73.8411 136.579 74.1727 135.579 74.1727C134.524 74.1727 133.746 73.8963 133.191 73.2331C132.691 72.5698 132.469 71.7961 132.469 70.8012C132.469 70.3038 132.524 69.8616 132.635 69.4194C132.746 68.9773 132.968 68.6457 133.191 68.314C133.468 68.0377 133.746 67.7613 134.135 67.5955C134.524 67.4297 134.968 67.3192 135.468 67.3192C136.468 67.3192 137.19 67.6508 137.689 68.2588C138.189 68.8667 138.467 69.6958 138.467 70.7459C138.467 71.7961 138.245 72.6251 137.745 73.2331ZM146.021 79.8103L152.019 65.7164H149.798L147.132 72.2383L146.687 73.5648L146.243 72.2383L143.521 65.7164H141.244L145.521 75.7203L143.743 79.8103H146.021ZM162.128 65.9927V75.8861H159.962V62.6212H162.628L168.404 72.2935L168.959 73.5094L168.904 72.1829V62.6212H171.07V75.8861H168.571L162.572 65.8269L161.961 64.7215L162.128 65.9927ZM181.179 75.3333C181.956 74.8912 182.512 74.2832 182.956 73.62L181.123 72.5698C180.79 73.1225 180.457 73.5094 180.012 73.7858C179.568 74.0621 179.013 74.2279 178.346 74.2279C177.402 74.2279 176.624 73.9516 176.124 73.4542C175.625 72.9567 175.347 72.2935 175.236 71.4092H183.178V70.6354C183.178 69.9169 183.123 69.2536 182.901 68.6456C182.734 68.0377 182.401 67.485 182.012 67.0428C181.623 66.6007 181.123 66.2138 180.512 65.9374C179.901 65.6611 179.179 65.4953 178.346 65.4953C177.513 65.4953 176.791 65.6611 176.124 65.9374C175.458 66.2138 174.902 66.6007 174.458 67.0981C174.014 67.5955 173.625 68.1482 173.403 68.8115C173.125 69.4747 173.014 70.1379 173.014 70.8565C173.014 71.575 173.125 72.2382 173.347 72.9014C173.569 73.5647 173.903 74.1174 174.347 74.5596C174.791 75.057 175.347 75.3886 176.013 75.665C176.68 75.9413 177.457 76.0519 178.346 76.0519C179.512 76.0519 180.457 75.7755 181.179 75.3333ZM176.291 68.0377C176.791 67.5402 177.457 67.3192 178.346 67.3192C179.235 67.3192 179.901 67.5955 180.401 68.0929C180.846 68.5904 181.068 69.2536 181.123 70.0274H175.347C175.458 69.1983 175.791 68.5351 176.291 68.0377ZM191.343 73.8964V75.665C191.065 75.7755 190.787 75.8861 190.51 75.9413C190.232 75.9966 189.899 76.0519 189.51 76.0519C188.399 76.0519 187.621 75.7755 187.122 75.1676C186.622 74.6149 186.4 73.7305 186.4 72.6251V67.485H184.067V65.6611H186.4V63.0634L188.455 61.8474V65.6611H191.343V67.485H188.455V72.3488C188.455 73.012 188.566 73.4542 188.843 73.7305C189.121 74.0069 189.51 74.1174 190.01 74.1174C190.288 74.1174 190.51 74.1174 190.732 74.0622C190.898 74.0622 191.121 74.0069 191.343 73.8964ZM197.842 62.6212L192.676 75.8861H195.009L196.009 73.1225H202.174L203.229 75.8861H205.562L200.396 62.6212H197.842ZM196.675 71.4644L198.675 66.1032L199.119 64.6662L199.619 66.1032L201.618 71.4644H196.675ZM217.281 70.7459C217.281 71.575 217.17 72.3488 216.948 73.012C216.726 73.6752 216.392 74.2279 216.003 74.6701C215.615 75.1123 215.115 75.4439 214.559 75.665C214.004 75.886 213.449 75.9966 212.782 75.9966C211.949 75.9966 211.227 75.7755 210.616 75.3886C210.005 75.0017 209.561 74.449 209.227 73.7305V79.755H207.006V65.6611H209.227V67.8719C209.561 67.0981 210.06 66.4901 210.727 66.1032C211.393 65.7163 212.116 65.4953 212.949 65.4953C213.504 65.4953 214.059 65.6058 214.615 65.8269C215.115 66.048 215.615 66.3243 216.003 66.7665C216.392 67.2086 216.726 67.7061 216.948 68.3693C217.17 69.0878 217.281 69.8616 217.281 70.7459ZM212.06 74.1727C213.06 74.1727 213.782 73.841 214.226 73.2331C214.726 72.6251 214.948 71.7961 214.948 70.7459C214.948 69.6958 214.67 68.8667 214.171 68.2588C213.671 67.6508 212.949 67.3192 211.949 67.3192C211.449 67.3192 211.005 67.4297 210.616 67.5955C210.227 67.7613 209.949 68.0377 209.672 68.314C209.45 68.6457 209.227 68.9773 209.116 69.4194C209.005 69.8616 208.95 70.3038 208.95 70.8012C208.95 71.7961 209.172 72.5698 209.672 73.2331C210.283 73.8963 211.005 74.1727 212.06 74.1727ZM229.167 73.012C229.39 72.3488 229.501 71.575 229.501 70.7459C229.501 69.8616 229.39 69.0878 229.167 68.3693C228.945 67.7061 228.612 67.2086 228.223 66.7665C227.834 66.3243 227.335 66.048 226.835 65.8269C226.279 65.6058 225.724 65.4953 225.168 65.4953C224.335 65.4953 223.613 65.7163 222.947 66.1032C222.28 66.4901 221.78 67.0981 221.447 67.8719V65.6611H219.225V79.755H221.447V73.7305C221.78 74.449 222.225 75.0017 222.836 75.3886C223.447 75.7755 224.169 75.9966 225.002 75.9966C225.668 75.9966 226.224 75.886 226.779 75.665C227.335 75.4439 227.834 75.1123 228.223 74.6701C228.612 74.2279 228.945 73.6752 229.167 73.012ZM226.501 73.2331C226.057 73.841 225.335 74.1727 224.335 74.1727C223.28 74.1727 222.502 73.8963 221.947 73.2331C221.447 72.5698 221.225 71.7961 221.225 70.8012C221.225 70.3038 221.28 69.8616 221.392 69.4194C221.503 68.9773 221.669 68.5904 221.947 68.314C222.225 68.0377 222.502 67.7613 222.891 67.5955C223.28 67.4297 223.724 67.3192 224.224 67.3192C225.224 67.3192 225.946 67.6508 226.446 68.2588C226.946 68.8667 227.224 69.6958 227.224 70.7459C227.224 71.7961 227.001 72.6251 226.501 73.2331Z" fill="#0E3348"/>
<path fill-rule="evenodd" clip-rule="evenodd" d="M97.1991 31.9461L91.3672 38.9101C96.7548 43.8291 103.586 46.0952 110.418 46.0952C120.138 46.0952 126.97 41.1209 126.97 32.2224V32.1119C126.97 24.3188 121.86 21.1131 112.695 18.6812C104.919 16.6362 102.975 15.7519 102.975 12.7673V12.6568C102.975 10.3907 104.864 8.73259 108.752 8.73259C112.64 8.73259 116.417 10.3907 120.471 13.1542L125.637 5.748C121.027 2.10017 115.528 0.0551758 108.918 0.0551758C99.643 0.0551758 93.1445 5.47165 93.1445 13.5964V13.7069C93.1445 22.5501 98.9209 25.1478 108.085 27.4139C115.584 29.2378 117.139 30.6196 117.139 33.1067V33.2173C117.139 35.815 114.75 37.4178 110.64 37.4178C105.475 37.4178 101.309 35.2623 97.1991 31.9461ZM140.299 11.1645H130.524V55.7122H140.299V40.9551C142.632 43.7186 145.854 46.0952 151.075 46.0952C159.239 46.0952 166.793 39.7944 166.793 28.3535V28.2429C166.793 16.802 159.128 10.5012 151.075 10.5012C145.909 10.5012 142.688 12.8226 140.299 16.0835V11.1645ZM156.962 28.2429V28.3535C156.962 34.1568 153.13 37.8599 148.52 37.8599C143.91 37.8599 140.133 34.0463 140.133 28.3535V28.2429C140.133 22.4948 143.965 18.7365 148.52 18.7365C153.074 18.7365 156.962 22.5501 156.962 28.2429ZM169.459 28.5193V28.4087C169.459 18.5707 177.457 10.5565 188.177 10.5565C198.785 10.5565 206.783 18.3496 206.783 28.2982V28.4087C206.783 38.2468 198.785 46.261 188.066 46.261C177.402 46.261 169.459 38.4126 169.459 28.5193ZM197.119 28.5193V28.4087C197.119 23.3239 193.453 18.9023 188.066 18.9023C182.456 18.9023 179.123 23.1028 179.123 28.2429V28.3535C179.123 33.4383 182.789 37.8599 188.177 37.8599C193.786 37.8599 197.119 33.6041 197.119 28.5193ZM211.616 19.455V35.7597C211.616 43.6633 215.726 46.0399 221.669 46.0399C224.946 46.0399 227.334 45.2662 229.389 44.0502V36.2571C227.889 37.0862 226.279 37.4731 224.557 37.4731C222.446 37.4731 221.391 36.4229 221.391 34.1569V19.5103H229.5V11.1645H221.391V2.37653H211.616V11.1645H207.505V19.455H211.616Z" fill="#0E3348"/>
</svg>
