<svg id="Layer_1" data-name="Layer 1" xmlns="http://www.w3.org/2000/svg" viewBox="0 0 400 300"><defs><style>.cls-1{fill:#00a082;}</style></defs><title>thebirdwatcher-logo</title><path class="cls-1" d="M28.52,185.42H20V180H43.5v5.38H34.93v25.19H28.52Z"/><path class="cls-1" d="M45.56,180H52V192H63.12V180h6.42v30.57H63.12v-13H52v13H45.56Z"/><path class="cls-1" d="M75.06,180H94v5.38H81.47v6.7H92.1v5.38H81.47v7.73h13v5.38H75.06Z"/><path class="cls-1" d="M106.2,180h10.25q11.14,0,11.14,7.58a7.68,7.68,0,0,1-1.12,4,5.79,5.79,0,0,1-3,2.57v.19a7.81,7.81,0,0,1,4.12,2.46,7.05,7.05,0,0,1,1.55,4.75,7.63,7.63,0,0,1-3.28,6.72,14.69,14.69,0,0,1-8.57,2.27H106.2Zm9.87,12.36a6.41,6.41,0,0,0,4-1,3.38,3.38,0,0,0,1.29-2.83,3,3,0,0,0-1.27-2.72,7.22,7.22,0,0,0-3.93-.84h-3.51v7.4Zm.66,13.25q6.13,0,6.14-4.45a3.36,3.36,0,0,0-1.53-3.07,8.78,8.78,0,0,0-4.61-1h-4.12v8.48Z"/><path class="cls-1" d="M132.56,180H139v30.57h-6.41Z"/><path class="cls-1" d="M161.07,210.61,155,199.28h-4.07v11.33h-6.42V180h10.77q5.34,0,8.48,2.17c2.09,1.46,3.14,3.85,3.14,7.19a9.6,9.6,0,0,1-1.5,5.5,8.81,8.81,0,0,1-4.17,3.3l7.07,12.41Zm-10.16-16.43h3.79a6.91,6.91,0,0,0,4.4-1.2,4.29,4.29,0,0,0,1.5-3.58,3.67,3.67,0,0,0-1.45-3.28,8.09,8.09,0,0,0-4.45-1h-3.79Z"/><path class="cls-1" d="M171,180h8.48q7.22,0,11.21,3.79t4,11.38q0,7.59-4,11.49t-10.89,3.91H171Zm8.11,25.37q9,0,9-10.2,0-5.29-2.31-7.63t-6.67-2.34h-1.69v20.17Z"/><path class="cls-1" d="M195.58,180h6.6l2.29,14.65,1.31,9.7H206l1.87-9.7L211.31,180h5.47l3.42,14.65,1.08,5.43.84,4.27h.19q.88-6.88,1.31-9.7l2.3-14.65h6.13l-5.57,30.57h-8.06L215.19,196c-.5-2.34-.92-4.69-1.26-7.07h-.19l-.37,2.16c-.38,2.18-.69,3.82-.94,4.91l-3.14,14.61h-7.91Z"/><path class="cls-1" d="M248.86,203h-9.6l-2.06,7.63h-6.56L240.38,180H248l9.69,30.57h-6.79Zm-1.31-5-.85-3.14c-.37-1.37-.93-3.53-1.68-6.46l-.89-3.47h-.19q-1.4,6-2.48,9.93l-.84,3.14Z"/><path class="cls-1" d="M262.06,185.42h-8.52V180H277v5.38h-8.56v25.19h-6.42Z"/><path class="cls-1" d="M284.18,209.35A13,13,0,0,1,279.1,204a20.12,20.12,0,0,1,0-17.05,13.66,13.66,0,0,1,5.2-5.54,13.9,13.9,0,0,1,7.16-1.92,11.59,11.59,0,0,1,5.08,1.1,13.78,13.78,0,0,1,4,2.83l-3.41,4.12a10,10,0,0,0-2.6-1.85,7.13,7.13,0,0,0-6.95.61,8.14,8.14,0,0,0-2.79,3.56,13.44,13.44,0,0,0-1,5.4,12.4,12.4,0,0,0,2.08,7.59,6.72,6.72,0,0,0,5.65,2.76,8,8,0,0,0,6.13-2.95l3.42,4a12.29,12.29,0,0,1-9.79,4.49A14.26,14.26,0,0,1,284.18,209.35Z"/><path class="cls-1" d="M303.07,180h6.42V192h11.14V180h6.42v30.57h-6.42v-13H309.49v13h-6.42Z"/><path class="cls-1" d="M332.57,180h18.92v5.38H339v6.7h10.62v5.38H339v7.73h13v5.38H332.57Z"/><path class="cls-1" d="M372.79,210.61l-6.09-11.33h-4.07v11.33h-6.41V180H367q5.34,0,8.48,2.17c2.09,1.46,3.14,3.85,3.14,7.19a9.6,9.6,0,0,1-1.5,5.5,8.81,8.81,0,0,1-4.17,3.3L380,210.61Zm-10.16-16.43h3.79a6.89,6.89,0,0,0,4.4-1.2,4.29,4.29,0,0,0,1.5-3.58,3.67,3.67,0,0,0-1.45-3.28,8.09,8.09,0,0,0-4.45-1h-3.79Z"/><path class="cls-1" d="M180.79,110.83q0-8.88-7.32-8.88H152.13V88.83h25.6q8.76,0,13.84,5.53t5.09,17.32v46.55H180.79Z"/><path class="cls-1" d="M208.25,145.1h22.1a11.86,11.86,0,0,0,9.9-4.55q3.56-4.56,3.56-12.58v-9q0-7.65-3.12-12.34a10.32,10.32,0,0,0-9.14-4.68h-7.87l-2,10.34a14.77,14.77,0,0,0-.33,3A6.33,6.33,0,0,0,223,120a11,11,0,0,0,5.36,2.5l-2.51,10.94q-9.75-.25-14.12-4.87t-4.37-12.52a30.4,30.4,0,0,1,.43-5.34l4.38-21.88h23.08q11.39,0,17.83,8.38t6.46,22.61v7.3q0,14.58-6.89,22.85t-18.6,8.26H208.25Z"/><path class="cls-1" d="M302.33,129.79l14.44,28.44H264.48V145.1h29.76L265.68,88.83h15.86l12.37,24.43,9-24.43h15.53Z"/><path class="cls-1" d="M327.6,125.05l2.19-8.14h13.67v41.32H327.6Zm36.54-14.22q0-8.88-7.33-8.88H328.26V88.83h32.81q8.76,0,13.84,5.53T380,111.68v46.55H364.14Z"/><path class="cls-1" d="M141.3,89.36l-76.44,38.3c-22.33-12.2-29.1-1.39-28.63,4,.47,5.55,3.64,5.87,3.64,5.87-.55-2.38-.08-3.09.79-2.86s3.65,3.49,3.65,3.49c33.92,27.74,72.74,17.91,72.74,17.91s-8-4.08-19.07-10c22-1.63,31.91-19.76,31.91-19.76L88.05,139.92l46.6-20.29,4.27-12-61.49,25.2,63.87-30.9Z"/><path class="cls-1" d="M53.34,120.74,20.06,92.05C19,113,33.85,127.55,33.85,127.55,35.12,116.46,53.34,120.74,53.34,120.74Z"/></svg>