<svg id="Layer_1" data-name="Layer 1" xmlns="http://www.w3.org/2000/svg" xmlns:xlink="http://www.w3.org/1999/xlink" viewBox="0 0 400 300"><defs><style>.cls-1{fill:#706f6f;}.cls-2{fill:url(#linear-gradient);}.cls-3{fill:#9c9ea1;}.cls-4{fill:#575756;}.cls-5{fill:#e30613;}</style><linearGradient id="linear-gradient" x1="30.08" y1="88.71" x2="50.92" y2="124.8" gradientUnits="userSpaceOnUse"><stop offset="0" stop-color="#e30613"/><stop offset="0.21" stop-color="#dc0714"/><stop offset="0.52" stop-color="#c90c15"/><stop offset="0.82" stop-color="#b01117"/></linearGradient></defs><title>traficare-logo</title><path class="cls-1" d="M61,210.85c0,1.55-1.11,2.19-2.46,1.44L22.46,192.14A5.29,5.29,0,0,1,20,188V146.15c0-1.55,1.11-2.2,2.46-1.44l36.09,20.15A5.29,5.29,0,0,1,61,169Z"/><path class="cls-2" d="M20,139.1c0,1.55,1.11,2.2,2.46,1.45L58.55,120.4A5.31,5.31,0,0,0,61,116.21V74.41c0-1.55-1.11-2.2-2.46-1.45L22.46,93.11A5.32,5.32,0,0,0,20,97.3Z"/><path class="cls-3" d="M63.88,210.85c0,1.55,1.1,2.19,2.45,1.44l36.1-20.15a5.28,5.28,0,0,0,2.45-4.18V146.15c0-1.55-1.1-2.2-2.45-1.44l-36.1,20.15A5.28,5.28,0,0,0,63.88,169Z"/><path class="cls-4" d="M134.67,214c0,6.06-3.68,9.27-8.17,9.27-4.65,0-7.92-3.61-7.92-8.93,0-5.59,3.48-9.25,8.18-9.25S134.67,208.74,134.67,214Zm-13.66.28c0,3.76,2,7.13,5.62,7.13s5.64-3.31,5.64-7.31c0-3.5-1.83-7.16-5.62-7.16S121,210.39,121,214.25Z"/><path class="cls-4" d="M150.67,219.5c0,1.31,0,2.46.1,3.45h-2l-.13-2.06h0a4.75,4.75,0,0,1-4.18,2.35c-2,0-4.36-1.1-4.36-5.54v-7.39h2.3v7c0,2.4.73,4,2.82,4a3.32,3.32,0,0,0,3-2.09,3.38,3.38,0,0,0,.21-1.17v-7.76h2.3Z"/><path class="cls-4" d="M159.59,206.68v3.63h3.29v1.75h-3.29v6.82c0,1.56.44,2.45,1.72,2.45a5,5,0,0,0,1.33-.16l.11,1.73a5.74,5.74,0,0,1-2,.31,3.21,3.21,0,0,1-2.48-1,4.71,4.71,0,0,1-.89-3.29v-6.9h-2v-1.75h2v-3Z"/><path class="cls-4" d="M167.74,220.6a6.06,6.06,0,0,0,3,.91c1.67,0,2.46-.83,2.46-1.88s-.66-1.69-2.35-2.32c-2.27-.81-3.35-2.06-3.35-3.58,0-2,1.65-3.71,4.37-3.71a6.23,6.23,0,0,1,3.1.79l-.57,1.67a4.88,4.88,0,0,0-2.59-.73c-1.35,0-2.11.78-2.11,1.72s.76,1.51,2.4,2.14c2.19.84,3.32,1.93,3.32,3.81,0,2.22-1.73,3.79-4.73,3.79a7.24,7.24,0,0,1-3.55-.86Z"/><path class="cls-4" d="M183.71,206.68v3.63H187v1.75h-3.29v6.82c0,1.56.44,2.45,1.72,2.45a5,5,0,0,0,1.33-.16l.11,1.73a5.74,5.74,0,0,1-2,.31,3.21,3.21,0,0,1-2.48-1,4.66,4.66,0,0,1-.89-3.29v-6.9h-2v-1.75h2v-3Z"/><path class="cls-4" d="M199.08,223l-.18-1.59h-.08a4.71,4.71,0,0,1-3.86,1.88,3.6,3.6,0,0,1-3.87-3.63c0-3.06,2.72-4.73,7.6-4.7v-.26a2.61,2.61,0,0,0-2.87-2.93,6.3,6.3,0,0,0-3.29.94l-.53-1.51a7.86,7.86,0,0,1,4.16-1.13c3.86,0,4.8,2.64,4.8,5.17v4.73a17.43,17.43,0,0,0,.21,3Zm-.34-6.45c-2.51-.05-5.35.39-5.35,2.85a2,2,0,0,0,2.17,2.19,3.13,3.13,0,0,0,3.05-2.12,2.29,2.29,0,0,0,.13-.73Z"/><path class="cls-4" d="M206.93,213.73c0-1.3,0-2.38-.1-3.42h2l.13,2.09h.06a4.65,4.65,0,0,1,4.18-2.38c1.75,0,4.46,1,4.46,5.38V223h-2.3v-7.29c0-2-.75-3.73-2.92-3.73a3.26,3.26,0,0,0-3.08,2.35,3.17,3.17,0,0,0-.16,1.07V223h-2.3Z"/><path class="cls-4" d="M234.73,204.41v15.28c0,1.12,0,2.4.1,3.26h-2.06l-.11-2.19h0a4.66,4.66,0,0,1-4.31,2.48c-3.05,0-5.4-2.59-5.4-6.43,0-4.2,2.58-6.79,5.66-6.79a4.25,4.25,0,0,1,3.82,1.93h.05v-7.54Zm-2.3,11.05a4,4,0,0,0-.11-1,3.38,3.38,0,0,0-3.31-2.67c-2.38,0-3.79,2.09-3.79,4.89,0,2.56,1.25,4.67,3.74,4.67a3.44,3.44,0,0,0,3.36-2.74,3.9,3.9,0,0,0,.11-1Z"/><path class="cls-4" d="M243.36,206.76a1.36,1.36,0,0,1-1.46,1.41,1.37,1.37,0,0,1-1.39-1.41,1.41,1.41,0,0,1,1.44-1.44A1.37,1.37,0,0,1,243.36,206.76ZM240.8,223V210.31h2.3V223Z"/><path class="cls-4" d="M249.15,213.73c0-1.3,0-2.38-.11-3.42h2l.13,2.09h0a4.66,4.66,0,0,1,4.18-2.38c1.75,0,4.47,1,4.47,5.38V223h-2.3v-7.29c0-2-.76-3.73-2.93-3.73a3.27,3.27,0,0,0-3.08,2.35,3.46,3.46,0,0,0-.15,1.07V223h-2.3Z"/><path class="cls-4" d="M276.9,210.31c0,.91-.1,1.93-.1,3.47v7.34c0,2.9-.58,4.68-1.8,5.77a6.72,6.72,0,0,1-4.6,1.52,8.12,8.12,0,0,1-4.2-1l.57-1.75a7.06,7.06,0,0,0,3.71,1c2.35,0,4.07-1.23,4.07-4.42v-1.41h-.05a4.49,4.49,0,0,1-4,2.12c-3.14,0-5.38-2.67-5.38-6.17,0-4.28,2.79-6.71,5.69-6.71a4.2,4.2,0,0,1,3.95,2.2h.05l.1-1.91Zm-2.37,5a3.47,3.47,0,0,0-.13-1.05,3.32,3.32,0,0,0-3.22-2.43c-2.19,0-3.76,1.86-3.76,4.78,0,2.49,1.26,4.55,3.74,4.55a3.35,3.35,0,0,0,3.18-2.35,4,4,0,0,0,.19-1.23Z"/><path class="cls-4" d="M291.45,205.58a24.12,24.12,0,0,1,4.36-.36c2.43,0,4,.44,5.09,1.43a4.4,4.4,0,0,1,1.39,3.35,4.62,4.62,0,0,1-3.32,4.49v.08c1.36.47,2.17,1.72,2.59,3.55a27.27,27.27,0,0,0,1.36,4.83h-2.35a22.86,22.86,0,0,1-1.18-4.2c-.52-2.43-1.46-3.35-3.53-3.43h-2.14V223h-2.27Zm2.27,8h2.33c2.43,0,4-1.33,4-3.34,0-2.27-1.65-3.27-4-3.29a9.09,9.09,0,0,0-2.25.21Z"/><path class="cls-4" d="M309.14,217.05c.05,3.11,2,4.39,4.34,4.39a8.28,8.28,0,0,0,3.5-.66l.39,1.65a10.38,10.38,0,0,1-4.21.78c-3.89,0-6.21-2.56-6.21-6.37s2.24-6.82,5.93-6.82c4.12,0,5.22,3.63,5.22,6a8,8,0,0,1-.08,1.07Zm6.74-1.65c0-1.46-.6-3.73-3.19-3.73-2.32,0-3.34,2.14-3.52,3.73Z"/><path class="cls-4" d="M322.92,220.6a6.06,6.06,0,0,0,3,.91c1.67,0,2.45-.83,2.45-1.88s-.65-1.69-2.35-2.32c-2.27-.81-3.34-2.06-3.34-3.58,0-2,1.64-3.71,4.36-3.71a6.31,6.31,0,0,1,3.11.79l-.58,1.67a4.84,4.84,0,0,0-2.58-.73c-1.36,0-2.12.78-2.12,1.72s.76,1.51,2.41,2.14c2.19.84,3.31,1.93,3.31,3.81,0,2.22-1.72,3.79-4.72,3.79a7.26,7.26,0,0,1-3.56-.86Z"/><path class="cls-4" d="M346.28,219.5c0,1.31,0,2.46.11,3.45h-2l-.13-2.06h-.05a4.76,4.76,0,0,1-4.18,2.35c-2,0-4.36-1.1-4.36-5.54v-7.39h2.29v7c0,2.4.74,4,2.83,4a3.3,3.3,0,0,0,3-2.09,3.16,3.16,0,0,0,.21-1.17v-7.76h2.3Z"/><path class="cls-4" d="M352.37,204.41h2.3V223h-2.3Z"/><path class="cls-4" d="M363.58,206.68v3.63h3.3v1.75h-3.3v6.82c0,1.56.45,2.45,1.73,2.45a5,5,0,0,0,1.33-.16l.1,1.73a5.63,5.63,0,0,1-2,.31,3.19,3.19,0,0,1-2.48-1,4.66,4.66,0,0,1-.89-3.29v-6.9h-2v-1.75h2v-3Z"/><path class="cls-4" d="M371.74,220.6a6.06,6.06,0,0,0,3,.91c1.67,0,2.45-.83,2.45-1.88s-.65-1.69-2.35-2.32c-2.27-.81-3.34-2.06-3.34-3.58,0-2,1.65-3.71,4.36-3.71a6.28,6.28,0,0,1,3.11.79l-.57,1.67a4.88,4.88,0,0,0-2.59-.73c-1.36,0-2.12.78-2.12,1.72s.76,1.51,2.41,2.14c2.19.84,3.32,1.93,3.32,3.81,0,2.22-1.73,3.79-4.73,3.79a7.19,7.19,0,0,1-3.55-.86Z"/><path class="cls-5" d="M114.57,139.15v-2.79h36.7v2.79h-17v54.56h-2.86V139.15Z"/><path class="cls-5" d="M148.75,193.71V162.6q0-11.16,10.38-12.23a7.64,7.64,0,0,0,.82-.08h3.71v2.62h-3.34a6.55,6.55,0,0,0-1.14.08q-7.73.73-7.73,9.61v31.11Z"/><path class="cls-5" d="M169.61,182.65V181a11.33,11.33,0,0,1,3-8.31,11.08,11.08,0,0,1,8.27-3.07h21.79V162q0-9.07-9.28-9.07H169.61v-2.62h22.5q13.14,0,13.14,12.15V182q0,5.5-2.83,8.62t-8.23,3.12h-13q-5.82,0-9-3.85A10.5,10.5,0,0,1,169.61,182.65Zm10,8.35a8.47,8.47,0,0,0,1.4.17h13.3q8.38,0,8.38-8.52V172.19H180.78a11.48,11.48,0,0,0-1.4.16q-7.23,1.16-7.23,8.6v1.53Q172.15,189.7,179.63,191Z"/><path class="cls-5" d="M214.28,193.71v-45.8q0-10.08,9-11.38a13.77,13.77,0,0,1,1.8-.17h3.61v2.54h-3.36a8.42,8.42,0,0,0-1.48.16A8,8,0,0,0,217,146a8.94,8.94,0,0,0-.16,1.62v2.69H228.7v2.62H216.82v40.8Z"/><path class="cls-5" d="M232.66,143.73a2.22,2.22,0,0,1,.7-1.55,2.07,2.07,0,0,1,1.51-.74,2.09,2.09,0,0,1,1.6.78,2.46,2.46,0,0,1,.7,1.68,2,2,0,0,1-2.3,2.29C233.4,146.19,232.66,145.37,232.66,143.73Zm1,50V150.29h2.7v43.42Z"/><path class="cls-5" d="M245.22,181.81V162.19q0-11.9,11.55-11.9h16.8v2.62H257.18q-9.42,0-9.42,8.87v19.7q0,5.58,3.85,8.29c1.31.93,3.49,1.4,6.56,1.4h15.64v2.54H258.08a16.28,16.28,0,0,1-7-1.15Q245.23,189.61,245.22,181.81Z"/><path class="cls-5" d="M281.19,182.65V181a11.32,11.32,0,0,1,3-8.31,11.09,11.09,0,0,1,8.28-3.07h21.79V162q0-9.07-9.28-9.07H281.19v-2.62h22.5q13.14,0,13.14,12.15V182q0,5.5-2.83,8.62c-1.88,2.08-4.63,3.12-8.23,3.12h-13q-5.82,0-9-3.85A10.5,10.5,0,0,1,281.19,182.65Zm10,8.35a8.5,8.5,0,0,0,1.39.17h13.31q8.38,0,8.38-8.52V172.19H292.36a11.48,11.48,0,0,0-1.4.16q-7.23,1.16-7.23,8.6v1.53Q283.73,189.7,291.21,191Z"/><path class="cls-5" d="M325.79,193.71V162.6q0-11.16,10.38-12.23a7.64,7.64,0,0,0,.82-.08h3.71v2.62h-3.34a6.55,6.55,0,0,0-1.14.08q-7.73.73-7.73,9.61v31.11Z"/><path class="cls-5" d="M380,161.35V163a11.33,11.33,0,0,1-3,8.32,11.13,11.13,0,0,1-8.28,3.07H346.9V182q0,9.08,9.28,9.08H380v2.62H357.5q-13.14,0-13.14-12.15V162q0-5.5,2.83-8.62c1.88-2.08,4.63-3.12,8.23-3.12h13q5.82,0,9,3.85A10.48,10.48,0,0,1,380,161.35ZM370,153a8.15,8.15,0,0,0-1.39-.16H355.28q-8.37,0-8.38,8.52v10.46h21.93a13.77,13.77,0,0,0,1.4-.16q7.23-1.16,7.23-8.61v-1.53Q377.46,154.31,370,153Z"/></svg>