<svg width="267" height="266" viewBox="0 0 267 266" fill="none" xmlns="http://www.w3.org/2000/svg">
<path d="M10.6021 264.878L1.05914 163.698C0.325061 155.745 6.50354 148.832 14.4561 148.649L120.836 146.508C128.116 146.385 134.233 151.891 134.845 159.17L142.981 264.816L10.6021 264.878Z" stroke="white" stroke-width="2"/>
<path d="M25.7119 264.878V264.511C25.7119 264.266 25.6507 263.899 25.6507 263.471C25.5895 262.553 25.4672 261.146 25.2837 259.433C24.9778 255.885 24.4884 250.808 23.9378 244.569C22.7144 231.967 21.0627 214.655 19.2887 195.447C17.8205 180.52 16.4747 166.695 15.3736 155.439C15.3736 154.888 15.3736 154.338 15.4347 153.787C15.4347 153.237 15.4348 152.686 15.6183 152.197C15.863 151.218 16.4747 150.301 17.2699 149.689C18.0652 149.077 18.9828 148.771 19.9004 148.71C20.8792 148.71 21.7968 148.649 22.7144 148.649C26.3236 148.588 29.4434 148.465 32.0127 148.404C34.582 148.343 36.6007 148.282 37.9465 148.221C38.6194 148.221 39.1088 148.16 39.537 148.16C39.904 148.16 40.0875 148.098 40.0875 148.098H37.9465C36.5395 148.098 34.5208 148.16 31.9515 148.16C29.3822 148.221 26.2624 148.221 22.6532 148.282C21.7356 148.282 20.818 148.343 19.8392 148.343C18.8605 148.404 17.8205 148.71 17.0253 149.383C16.1689 150.056 15.5571 150.974 15.2512 152.014C15.1289 152.564 15.0677 153.115 15.0677 153.665C15.0677 154.216 15.0066 154.766 15.0066 155.317C16.1077 166.572 17.3923 180.398 18.7993 195.324C20.6957 214.471 22.3473 231.844 23.5708 244.446C24.1825 250.686 24.7331 255.763 25.1001 259.311C25.2837 261.024 25.406 262.431 25.5284 263.349C25.5895 263.777 25.6507 264.144 25.6507 264.388C25.6507 264.755 25.7119 264.878 25.7119 264.878Z" stroke="white" stroke-width="2"/>
<path d="M153.625 186.882C155.032 186.943 165.003 204.928 172.344 218.509C177.177 227.501 186.903 232.884 197.119 232.15C209.292 231.294 219.264 222.118 221.038 210.005L227.155 139.718L202.563 133.6L192.531 188.656L186.352 171.16L153.625 186.882Z" stroke="white" stroke-width="2"/>
<path d="M202.319 138.8L203.114 126.443C203.114 126.443 206.601 98.7926 206.601 96.0396C206.601 92.9198 208.069 92.1862 209.232 92.2471C211.005 92.3693 212.29 94.5718 212.412 97.2634C212.412 98.1807 212.351 112.801 212.351 112.801C212.351 112.801 213.024 111.578 215.165 108.825C217.306 106.072 222.383 104.543 227.644 104.665C232.844 104.849 234.312 105.338 234.312 107.357C234.312 108.152 233.884 108.825 233.273 109.314C232.355 110.11 231.07 110.538 229.847 110.477C221.466 110.354 219.264 114.759 219.264 114.759L219.141 116.349C219.141 116.349 224.219 112.74 228.256 114.269C228.929 114.514 229.419 114.881 229.847 115.248C232.049 115.248 234.251 116.472 235.414 118.368C236.637 120.326 236.637 122.956 235.536 124.975C234.985 125.953 234.007 126.81 232.905 126.627C232.355 126.504 231.866 126.137 231.437 125.709C231.192 125.525 230.948 125.342 230.703 125.158L229.785 129.624C229.785 129.624 227.155 139.595 226.482 144.061" stroke="white" stroke-width="2"/>
<path d="M204.766 137.76C206.295 138.188 207.885 137.087 208.68 135.68C209.537 134.334 209.843 132.744 210.577 131.337C212.78 127.116 218.04 125.097 219.998 120.754C220.242 120.142 220.426 119.347 219.876 118.919C219.386 118.551 218.713 118.857 218.163 119.163C213.575 121.733 208.986 124.241 204.398 126.81" stroke="white" stroke-width="2"/>
<path d="M204.399 126.81C204.399 126.749 204.888 126.381 205.806 125.831C206.723 125.281 208.13 124.424 209.782 123.445C211.556 122.405 213.575 121.304 215.777 120.02C216.328 119.714 216.939 119.347 217.49 119.041C218.04 118.796 218.713 118.185 219.753 118.368C220.304 118.49 220.671 119.102 220.671 119.53C220.732 120.02 220.61 120.386 220.426 120.815C220.12 121.549 219.692 122.222 219.264 122.833C217.367 125.342 214.921 126.871 213.146 128.706C212.229 129.624 211.495 130.541 210.944 131.52C210.393 132.499 210.088 133.539 209.721 134.457C208.986 136.353 207.641 137.577 206.54 137.882C205.378 138.249 204.766 137.821 204.827 137.821C204.827 137.76 205.438 137.943 206.417 137.577C207.396 137.209 208.497 136.047 209.17 134.212C209.537 133.294 209.782 132.254 210.333 131.214C210.883 130.113 211.678 129.134 212.596 128.156C214.431 126.259 216.878 124.669 218.591 122.344C219.019 121.794 219.386 121.182 219.692 120.57C219.936 119.958 219.936 119.347 219.57 119.285C219.203 119.163 218.591 119.53 217.979 119.836C217.367 120.142 216.817 120.448 216.205 120.815C214.003 122.038 211.923 123.079 210.149 124.057C208.436 124.975 207.029 125.709 205.989 126.198C204.949 126.627 204.399 126.871 204.399 126.81Z" stroke="white" stroke-width="2"/>
<path d="M222.261 119.897C222.261 119.959 222.567 119.775 223.118 119.592C223.607 119.408 224.524 119.041 225.381 119.469C225.809 119.653 226.054 120.142 226.115 120.692C226.176 121.243 226.054 121.916 225.993 122.589C225.931 123.262 225.871 124.118 226.36 124.852C226.849 125.587 227.706 126.015 228.562 126.015C229.479 126.015 230.275 125.587 230.825 125.036C231.376 124.424 231.743 123.751 231.926 123.017C232.11 121.61 232.049 120.326 231.866 119.286C231.682 118.246 231.437 117.39 231.131 116.9C230.825 116.349 230.581 116.166 230.519 116.166C230.458 116.227 230.703 116.472 230.886 116.961C231.131 117.512 231.314 118.307 231.437 119.347C231.56 120.387 231.62 121.61 231.376 122.956C231.131 124.18 230.03 125.525 228.562 125.525C227.828 125.525 227.155 125.158 226.788 124.608C226.421 124.057 226.421 123.384 226.482 122.711C226.543 122.039 226.666 121.366 226.543 120.692C226.482 120.02 226.054 119.408 225.503 119.163C224.402 118.674 223.484 119.163 222.995 119.408C222.506 119.653 222.261 119.836 222.261 119.897Z" stroke="white" stroke-width="2"/>
<path d="M64.7404 197.465L21.6747 186.882C21.6747 186.882 24.4275 180.214 32.0129 157.702C39.0478 136.904 45.104 129.746 45.104 129.746C45.104 129.746 67.1266 117.634 80.0339 110.599L89.0873 101.056V102.035L97.4679 105.705L110.804 111.578L123.589 106.867L128.972 104.91L130.869 108.642L153.686 114.943C153.686 114.943 169.958 120.876 180.48 144.795C193.388 174.28 194.305 179.419 194.305 179.419L160.538 198.994L166.166 264.878L62.9667 264.939L64.9855 214.471L64.7404 197.465Z" stroke="white" stroke-width="2"/>
<path d="M70.6739 145.529C70.6739 145.529 70.6739 145.162 70.5516 144.489C70.4294 143.816 70.1849 142.837 69.7566 141.675C68.9002 139.412 66.9428 136.414 63.8839 134.151C60.8253 131.887 57.4608 130.847 55.075 130.481C53.8516 130.297 52.8728 130.175 52.1999 130.175C51.527 130.175 51.1599 130.175 51.1599 130.235C51.1599 130.297 52.6893 130.297 55.075 130.786C57.4608 131.276 60.7029 132.316 63.7002 134.518C66.6977 136.72 68.5943 139.595 69.573 141.797C70.4294 144 70.5516 145.529 70.6739 145.529Z" stroke="white" stroke-width="2"/>
<path d="M21.6133 186.882C21.6133 186.882 21.6745 186.943 21.858 186.943C22.0415 187.005 22.225 187.065 22.5309 187.127C23.1426 187.31 23.9991 187.494 25.1001 187.8C27.3636 188.35 30.5446 189.146 34.5208 190.124C42.5345 192.082 53.4845 194.712 65.6582 197.648C65.719 197.648 65.7804 197.71 65.8412 197.71L66.0864 197.771L66.1472 197.526C68.2274 185.23 70.1234 174.158 71.4695 166.083C72.1422 162.107 72.6319 158.804 73.0601 156.54C73.2432 155.439 73.3654 154.582 73.4883 153.971C73.5491 153.665 73.5491 153.481 73.6106 153.298V153.053C73.6106 153.053 73.6106 153.115 73.5491 153.298C73.4883 153.481 73.4883 153.665 73.4269 153.971C73.3046 154.582 73.1209 155.439 72.9378 156.54C72.5096 158.804 71.9585 162.046 71.225 166.022C69.8174 174.097 67.9215 185.169 65.7804 197.465L66.0249 197.282C65.9635 197.282 65.9027 197.282 65.8412 197.22C53.668 194.345 42.6568 191.715 34.7043 189.818C30.7281 188.901 27.4859 188.167 25.2225 187.616C24.1214 187.371 23.265 187.188 22.6532 187.065C22.3474 187.005 22.1639 186.943 21.9803 186.943C21.7357 186.882 21.6133 186.882 21.6133 186.882Z" stroke="white" stroke-width="2"/>
<path d="M130.807 108.642C130.807 108.642 130.746 108.886 130.624 109.314C130.563 109.804 130.44 110.416 130.318 111.211V111.15C128.544 113.291 125.24 117.022 120.897 120.57C120.469 120.938 120.041 121.244 119.613 121.549C119.185 121.855 118.756 122.161 118.389 121.977C118.084 121.794 117.838 121.244 117.594 120.815C117.349 120.387 117.104 119.959 116.86 119.531C115.881 117.879 114.963 116.411 114.168 115.249C113.373 114.025 112.639 113.107 112.149 112.496C111.905 112.19 111.721 111.945 111.537 111.761C111.415 111.578 111.293 111.517 111.293 111.517C111.293 111.517 111.537 111.884 112.027 112.557C112.517 113.23 113.128 114.147 113.924 115.371C114.719 116.594 115.575 118.062 116.554 119.714C116.799 120.142 117.043 120.57 117.288 120.998C117.41 121.244 117.533 121.427 117.655 121.672C117.778 121.916 117.961 122.161 118.267 122.345C118.573 122.528 118.94 122.467 119.185 122.345C119.429 122.222 119.674 122.039 119.919 121.855C120.347 121.549 120.775 121.182 121.203 120.815C125.608 117.267 128.85 113.474 130.501 111.211C130.563 110.477 130.685 109.804 130.685 109.314C130.807 108.886 130.807 108.642 130.807 108.642Z" stroke="white" stroke-width="2"/>
<path d="M81.3793 109.988C81.3793 109.988 81.5015 110.048 81.7467 110.232C81.9912 110.416 82.358 110.599 82.7254 110.783C83.6426 111.333 84.9273 112.006 86.457 112.862C89.5768 114.637 93.859 117.206 98.5079 120.142C100.527 121.427 102.423 122.65 104.136 123.813L104.319 123.935L104.441 123.751C106.338 120.387 107.929 117.512 108.968 115.371C109.458 114.331 109.886 113.474 110.131 112.862C110.376 112.251 110.498 111.945 110.437 111.945C110.437 111.945 110.253 112.251 110.008 112.801C109.702 113.352 109.336 114.208 108.785 115.249C107.684 117.328 106.094 120.203 104.136 123.507L104.441 123.445C102.729 122.283 100.833 120.998 98.8139 119.714C94.1643 116.778 89.8213 114.27 86.7016 112.557C85.1109 111.701 83.8263 111.027 82.9084 110.538C82.4802 110.354 82.1749 110.171 81.8689 110.048C81.5015 110.048 81.3793 109.988 81.3793 109.988Z" stroke="white" stroke-width="2"/>
<path d="M118.756 18.2277L119.185 18.2889C135.029 19.5735 147.202 32.9092 147.202 48.8143C147.141 62.7617 146.957 77.81 146.223 85.212C144.755 100.873 128.85 102.035 128.85 102.035C128.85 102.035 128.85 103.136 128.911 104.91L110.743 111.578L89.0264 102.035L88.965 70.6532C85.9066 70.1028 82.2358 68.0839 82.5417 61.783C82.8477 55.9103 86.0289 54.4422 88.9035 54.3198V47.5908C88.8427 31.074 102.362 17.8607 118.756 18.2277Z" stroke="white" stroke-width="2"/>
<path d="M141.941 58.2961C141.879 59.4584 140.84 60.4369 139.616 60.3761C138.393 60.3146 137.414 59.3361 137.475 58.1738C137.536 57.0115 138.577 56.0327 139.8 56.0939C141.023 56.155 142.002 57.1339 141.941 58.2961Z" stroke="white" stroke-width="2"/>
<path d="M143.226 55.0539C142.92 55.2987 141.329 53.9528 138.943 53.7081C136.558 53.4635 134.661 54.5645 134.417 54.2587C134.294 54.1363 134.6 53.5858 135.457 53.0964C136.252 52.607 137.598 52.1788 139.127 52.3011C140.656 52.4235 141.819 53.0964 142.553 53.7081C143.164 54.4422 143.348 54.9928 143.226 55.0539Z" stroke="white" stroke-width="2"/>
<path d="M119.001 56.7667C118.939 57.929 117.9 58.9078 116.676 58.8466C115.453 58.7854 114.474 57.8066 114.535 56.6444C114.596 55.4821 115.637 54.5033 116.86 54.5645C118.083 54.5645 119.001 55.6044 119.001 56.7667Z" stroke="white" stroke-width="2"/>
<path d="M119.429 53.5858C119.123 53.8305 117.533 52.4847 115.147 52.24C112.761 51.9953 110.865 53.0964 110.62 52.7906C110.498 52.6682 110.804 52.1176 111.66 51.6282C112.455 51.1389 113.802 50.7107 115.331 50.833C116.86 50.9553 118.022 51.6282 118.756 52.24C119.368 52.9129 119.613 53.4634 119.429 53.5858Z" stroke="white" stroke-width="2"/>
<path d="M126.709 72.1824C126.709 72.0601 128.238 71.9379 130.685 71.8156C131.297 71.8156 131.909 71.7542 132.031 71.326C132.214 70.8977 132.031 70.225 131.786 69.4908C131.358 67.9617 130.869 66.3096 130.379 64.6582C128.422 57.7455 127.015 52.1176 127.321 52.0564C127.627 51.9953 129.4 57.5008 131.419 64.4137C131.909 66.1265 132.337 67.7165 132.765 69.2463C132.948 69.9799 133.254 70.7755 132.887 71.6927C132.704 72.121 132.214 72.4269 131.786 72.4883C131.358 72.5492 131.052 72.5492 130.746 72.5492C128.238 72.4269 126.709 72.3046 126.709 72.1824Z" stroke="white" stroke-width="2"/>
<path d="M119.491 73.2833C119.857 73.2833 119.674 75.914 121.754 77.9329C123.833 80.0125 126.647 79.8903 126.647 80.257C126.647 80.4407 125.975 80.6853 124.812 80.6244C123.65 80.563 121.998 80.074 120.714 78.7893C119.429 77.5655 119.001 75.9749 119.001 74.8739C118.939 73.8338 119.307 73.2225 119.491 73.2833Z" stroke="white" stroke-width="2"/>
<path d="M120.836 44.1651C120.53 44.7769 118.144 44.2874 115.331 44.4098C112.455 44.471 110.131 45.0827 109.764 44.471C109.642 44.1651 110.07 43.6146 111.048 43.0029C112.027 42.4523 113.495 41.9629 115.269 41.9017C116.982 41.8405 118.511 42.2687 119.49 42.7582C120.53 43.3087 120.958 43.8592 120.836 44.1651Z" stroke="white" stroke-width="2"/>
<path d="M142.919 48.019C142.43 48.5084 140.84 47.8355 138.821 47.652C136.802 47.4073 135.089 47.7132 134.783 47.1014C134.661 46.7955 134.967 46.3062 135.701 45.8168C136.496 45.3886 137.72 45.0215 139.066 45.2051C140.412 45.3886 141.574 45.9391 142.247 46.5508C142.919 47.1626 143.103 47.7743 142.919 48.019Z" stroke="white" stroke-width="2"/>
<path d="M102.056 39.3324C102.056 39.4548 101.995 39.5771 101.995 39.6383C101.016 44.0427 100.771 48.6307 99.7312 53.0352C98.6917 57.4397 98.8748 60.8042 94.4704 61.8444C91.6566 62.4557 91.4729 60.4375 90.4942 58.8467C90.1274 58.2349 88.3531 54.9316 88.3531 54.1975C88.3531 50.3436 86.3349 28.7495 106.889 20.4911C128.85 9.84697 150.872 22.7545 153.931 28.1377C156.989 33.521 155.032 36.8243 153.258 37.4973C148.609 39.0877 144.449 34.8056 137.475 30.707C130.501 26.6084 112.578 29.3612 107.439 31.747C102.301 34.1327 102.729 36.2126 102.056 39.3324Z" stroke="white" stroke-width="2"/>
<path d="M89.8822 66.2488C89.8214 66.1874 89.6992 66.3711 89.3932 66.4934C89.0872 66.6156 88.5368 66.6771 87.9863 66.4319C86.8853 65.9429 86.0289 64.1078 86.0289 62.1498C86.0289 61.1711 86.2734 60.2538 86.7016 59.5196C87.0684 58.7243 87.6189 58.235 88.1694 58.1738C88.7205 58.0515 89.1487 58.4185 89.2709 58.7243C89.3932 59.0302 89.3318 59.2137 89.3932 59.2749C89.3932 59.2749 89.6377 59.0914 89.5769 58.6632C89.5155 58.4185 89.454 58.1738 89.2095 57.9903C88.965 57.7456 88.5976 57.6233 88.1694 57.6844C87.3135 57.6844 86.5794 58.4185 86.1512 59.2749C85.6615 60.1314 85.3556 61.1102 85.3556 62.2112C85.2947 64.3523 86.3343 66.4934 87.864 66.983C88.5976 67.2275 89.2709 67.0438 89.5769 66.7993C89.8214 66.4934 89.8822 66.2488 89.8822 66.2488Z" stroke="white" stroke-width="2"/>
<path d="M25.406 187.922L58.4395 195.936L47.4895 223.586L86.9461 229.825C88.1085 229.581 95.0822 228.052 98.5079 227.318C99.7311 227.073 100.771 226.4 101.934 226.094C107.684 224.626 114.78 220.894 116.371 219.304C119.185 216.551 121.203 220.772 118.45 224.259C115.697 227.684 113.556 228.908 113.556 228.908L125.363 231.967C125.975 232.15 126.525 232.517 126.831 233.068L135.946 247.443C136.802 248.606 136.68 250.318 135.579 251.236C135.029 251.725 134.417 251.909 133.621 251.359L134.783 253.316C136.741 256.558 131.97 259.739 129.828 256.619C129.828 256.558 129.767 256.558 129.767 256.497L127.504 259.555C127.504 259.555 126.403 262.553 122.916 260.657C120.041 259.066 110.314 251.909 110.314 251.909C110.314 251.909 96.3054 252.215 87.8025 250.93L34.4596 256.13C25.2225 257.354 16.1077 252.888 11.4585 244.813C7.84935 238.573 7.29876 230.988 10.1128 224.259L25.406 187.922Z" stroke="white" stroke-width="2"/>
<path d="M129.89 256.619C129.768 256.68 128.972 255.335 127.627 253.194C126.281 251.114 124.14 248.177 122.121 244.874C121.02 243.345 119.857 241.754 118.879 240.592C118.328 240.041 117.716 239.797 116.982 239.735C116.249 239.613 115.575 239.552 114.902 239.43C112.395 239.063 110.804 238.757 110.865 238.634C110.865 238.512 112.455 238.574 115.025 238.757C115.697 238.818 116.371 238.879 117.105 238.94C117.9 239.002 118.818 239.307 119.551 239.98C120.775 241.326 121.815 242.733 122.977 244.385C125.057 247.749 126.953 250.624 128.238 252.888C129.462 255.029 130.012 256.558 129.89 256.619Z" stroke="white" stroke-width="2"/>
<path d="M133.682 251.359C133.377 251.603 130.257 246.281 125.852 240.225C124.751 238.757 123.711 237.167 122.427 236.555C120.958 235.943 119.551 235.454 118.389 235.148C117.227 234.842 116.248 234.658 115.575 234.597C114.902 234.536 114.535 234.597 114.535 234.536C114.535 234.474 114.902 234.291 115.575 234.23C116.309 234.169 117.288 234.23 118.573 234.474C119.796 234.72 121.264 235.086 122.793 235.698C124.506 236.493 125.546 238.145 126.647 239.613C128.911 242.672 130.624 245.608 131.847 247.749C133.132 249.952 133.744 251.297 133.682 251.359Z" stroke="white" stroke-width="2"/>
<path d="M108.357 245.241C108.357 245.119 109.764 245.119 112.027 245.302C112.639 245.364 113.25 245.425 113.862 245.425C114.474 245.486 115.331 245.486 116.065 245.914C116.86 246.22 117.472 246.954 117.961 247.505C118.511 248.116 119.062 248.728 119.613 249.401C124.139 254.601 127.626 258.883 127.382 259.066C127.198 259.25 123.344 255.212 118.879 250.074C118.328 249.401 117.778 248.789 117.227 248.177C116.676 247.505 116.248 247.015 115.637 246.709C115.086 246.404 114.413 246.342 113.74 246.22C113.128 246.098 112.517 246.036 111.905 245.975C109.702 245.669 108.295 245.363 108.357 245.241Z" stroke="white" stroke-width="2"/>
<path d="M101.505 228.357C101.444 227.929 105.298 227.746 109.886 228.235C114.474 228.663 118.144 229.703 118.084 230.009C118.022 230.254 114.352 229.642 109.825 229.214C107.867 229.03 106.032 228.847 104.013 228.663C102.423 228.541 101.567 228.48 101.505 228.357Z" stroke="white" stroke-width="2"/>
<path d="M108.846 94.3882C108.846 94.3882 121.692 105.4 128.788 102.035C121.264 102.891 108.846 94.3882 108.846 94.3882Z" stroke="white" stroke-width="2"/>
<path d="M73.6106 264.939C73.6714 262.859 75.3235 261.208 77.3423 261.208H160.232C162.312 261.208 163.963 262.859 163.963 264.939H73.6106Z" stroke="white" stroke-width="2"/>
<path d="M261.167 232.884H116.554C115.637 232.884 114.841 232.15 114.841 231.172V133.05C114.841 132.132 115.575 131.337 116.554 131.337H261.167C263.797 131.337 266 133.478 266 136.17V228.052C266 230.743 263.797 232.884 261.167 232.884Z" stroke="white" stroke-width="2"/>
<path d="M208.803 264.939H180.48V221.139H208.742V264.939H208.803Z" stroke="white" stroke-width="2"/>
<path d="M120.591 232.884H116.554C115.637 232.884 114.841 232.15 114.841 231.172V133.05C114.841 132.132 115.575 131.337 116.554 131.337H120.591C121.509 131.337 122.304 132.071 122.304 133.05V231.172C122.304 232.15 121.509 232.884 120.591 232.884Z" stroke="white" stroke-width="2"/>
<path d="M208.926 213.248C208.803 213.248 208.681 224.809 208.681 239.124C208.62 253.377 208.742 265 208.803 265C208.864 265 209.048 253.438 209.048 239.124C209.109 224.809 209.048 213.248 208.926 213.248Z" stroke="white" stroke-width="2"/>
<path d="M180.235 212.575C180.113 212.575 180.113 224.198 180.174 238.512C180.235 252.827 180.419 264.45 180.541 264.45C180.663 264.45 180.663 252.827 180.603 238.512C180.48 224.198 180.357 212.575 180.235 212.575Z" stroke="white" stroke-width="2"/>
<path d="M10.6021 264.878L1.05914 163.698C0.325061 155.745 6.50354 148.832 14.4561 148.649L120.836 146.508C128.116 146.385 134.233 151.891 134.845 159.17L142.981 264.816L10.6021 264.878Z" stroke="#231F20"/>
<path d="M25.7119 264.878V264.511C25.7119 264.266 25.6507 263.899 25.6507 263.471C25.5895 262.553 25.4672 261.146 25.2837 259.433C24.9778 255.885 24.4884 250.808 23.9378 244.569C22.7144 231.967 21.0627 214.655 19.2887 195.447C17.8205 180.52 16.4747 166.695 15.3736 155.439C15.3736 154.888 15.3736 154.338 15.4347 153.787C15.4347 153.237 15.4348 152.686 15.6183 152.197C15.863 151.218 16.4747 150.301 17.2699 149.689C18.0652 149.077 18.9828 148.771 19.9004 148.71C20.8792 148.71 21.7968 148.649 22.7144 148.649C26.3236 148.588 29.4434 148.465 32.0127 148.404C34.582 148.343 36.6007 148.282 37.9465 148.221C38.6194 148.221 39.1088 148.16 39.537 148.16C39.904 148.16 40.0875 148.098 40.0875 148.098H37.9465C36.5395 148.098 34.5208 148.16 31.9515 148.16C29.3822 148.221 26.2624 148.221 22.6532 148.282C21.7356 148.282 20.818 148.343 19.8392 148.343C18.8605 148.404 17.8205 148.71 17.0253 149.383C16.1689 150.056 15.5571 150.974 15.2512 152.014C15.1289 152.564 15.0677 153.115 15.0677 153.665C15.0677 154.216 15.0066 154.766 15.0066 155.317C16.1077 166.572 17.3923 180.398 18.7993 195.324C20.6957 214.471 22.3473 231.844 23.5708 244.446C24.1825 250.686 24.7331 255.763 25.1001 259.311C25.2837 261.024 25.406 262.431 25.5284 263.349C25.5895 263.777 25.6507 264.144 25.6507 264.388C25.6507 264.755 25.7119 264.878 25.7119 264.878Z" stroke="#231F20"/>
<path d="M153.625 186.882C155.032 186.943 165.003 204.928 172.344 218.509C177.177 227.501 186.903 232.884 197.119 232.15C209.292 231.294 219.264 222.118 221.038 210.005L227.155 139.718L202.563 133.6L192.531 188.656L186.352 171.16L153.625 186.882Z" stroke="#231F20"/>
<path d="M202.319 138.8L203.114 126.443C203.114 126.443 206.601 98.7926 206.601 96.0396C206.601 92.9198 208.069 92.1862 209.232 92.2471C211.005 92.3693 212.29 94.5718 212.412 97.2634C212.412 98.1807 212.351 112.801 212.351 112.801C212.351 112.801 213.024 111.578 215.165 108.825C217.306 106.072 222.383 104.543 227.644 104.665C232.844 104.849 234.312 105.338 234.312 107.357C234.312 108.152 233.884 108.825 233.273 109.314C232.355 110.11 231.07 110.538 229.847 110.477C221.466 110.354 219.264 114.759 219.264 114.759L219.141 116.349C219.141 116.349 224.219 112.74 228.256 114.269C228.929 114.514 229.419 114.881 229.847 115.248C232.049 115.248 234.251 116.472 235.414 118.368C236.637 120.326 236.637 122.956 235.536 124.975C234.985 125.953 234.007 126.81 232.905 126.627C232.355 126.504 231.866 126.137 231.437 125.709C231.192 125.525 230.948 125.342 230.703 125.158L229.785 129.624C229.785 129.624 227.155 139.595 226.482 144.061" stroke="#231F20"/>
<path d="M204.766 137.76C206.295 138.188 207.885 137.087 208.68 135.68C209.537 134.334 209.843 132.744 210.577 131.337C212.78 127.116 218.04 125.097 219.998 120.754C220.242 120.142 220.426 119.347 219.876 118.919C219.386 118.551 218.713 118.857 218.163 119.163C213.575 121.733 208.986 124.241 204.398 126.81" stroke="#231F20"/>
<path d="M204.399 126.81C204.399 126.749 204.888 126.381 205.806 125.831C206.723 125.281 208.13 124.424 209.782 123.445C211.556 122.405 213.575 121.304 215.777 120.02C216.328 119.714 216.939 119.347 217.49 119.041C218.04 118.796 218.713 118.185 219.753 118.368C220.304 118.49 220.671 119.102 220.671 119.53C220.732 120.02 220.61 120.386 220.426 120.815C220.12 121.549 219.692 122.222 219.264 122.833C217.367 125.342 214.921 126.871 213.146 128.706C212.229 129.624 211.495 130.541 210.944 131.52C210.393 132.499 210.088 133.539 209.721 134.457C208.986 136.353 207.641 137.577 206.54 137.882C205.378 138.249 204.766 137.821 204.827 137.821C204.827 137.76 205.438 137.943 206.417 137.577C207.396 137.209 208.497 136.047 209.17 134.212C209.537 133.294 209.782 132.254 210.333 131.214C210.883 130.113 211.678 129.134 212.596 128.156C214.431 126.259 216.878 124.669 218.591 122.344C219.019 121.794 219.386 121.182 219.692 120.57C219.936 119.958 219.936 119.347 219.57 119.285C219.203 119.163 218.591 119.53 217.979 119.836C217.367 120.142 216.817 120.448 216.205 120.815C214.003 122.038 211.923 123.079 210.149 124.057C208.436 124.975 207.029 125.709 205.989 126.198C204.949 126.627 204.399 126.871 204.399 126.81Z" stroke="#231F20"/>
<path d="M222.261 119.897C222.261 119.959 222.567 119.775 223.118 119.592C223.607 119.408 224.524 119.041 225.381 119.469C225.809 119.653 226.054 120.142 226.115 120.692C226.176 121.243 226.054 121.916 225.993 122.589C225.931 123.262 225.871 124.118 226.36 124.852C226.849 125.587 227.706 126.015 228.562 126.015C229.479 126.015 230.275 125.587 230.825 125.036C231.376 124.424 231.743 123.751 231.926 123.017C232.11 121.61 232.049 120.326 231.866 119.286C231.682 118.246 231.437 117.39 231.131 116.9C230.825 116.349 230.581 116.166 230.519 116.166C230.458 116.227 230.703 116.472 230.886 116.961C231.131 117.512 231.314 118.307 231.437 119.347C231.56 120.387 231.62 121.61 231.376 122.956C231.131 124.18 230.03 125.525 228.562 125.525C227.828 125.525 227.155 125.158 226.788 124.608C226.421 124.057 226.421 123.384 226.482 122.711C226.543 122.039 226.666 121.366 226.543 120.692C226.482 120.02 226.054 119.408 225.503 119.163C224.402 118.674 223.484 119.163 222.995 119.408C222.506 119.653 222.261 119.836 222.261 119.897Z" stroke="#231F20"/>
<path d="M64.7404 197.465L21.6747 186.882C21.6747 186.882 24.4275 180.214 32.0129 157.702C39.0478 136.904 45.104 129.746 45.104 129.746C45.104 129.746 67.1266 117.634 80.0339 110.599L89.0873 101.056V102.035L97.4679 105.705L110.804 111.578L123.589 106.867L128.972 104.91L130.869 108.642L153.686 114.943C153.686 114.943 169.958 120.876 180.48 144.795C193.388 174.28 194.305 179.419 194.305 179.419L160.538 198.994L166.166 264.878L62.9667 264.939L64.9855 214.471L64.7404 197.465Z" stroke="#231F20"/>
<path d="M70.6739 145.529C70.6739 145.529 70.6739 145.162 70.5516 144.489C70.4294 143.816 70.1849 142.837 69.7566 141.675C68.9002 139.412 66.9428 136.414 63.8839 134.151C60.8253 131.887 57.4608 130.847 55.075 130.481C53.8516 130.297 52.8728 130.175 52.1999 130.175C51.527 130.175 51.1599 130.175 51.1599 130.235C51.1599 130.297 52.6893 130.297 55.075 130.786C57.4608 131.276 60.7029 132.316 63.7002 134.518C66.6977 136.72 68.5943 139.595 69.573 141.797C70.4294 144 70.5516 145.529 70.6739 145.529Z" stroke="#231F20"/>
<path d="M21.6133 186.882C21.6133 186.882 21.6745 186.943 21.858 186.943C22.0415 187.005 22.225 187.065 22.5309 187.127C23.1426 187.31 23.9991 187.494 25.1001 187.8C27.3636 188.35 30.5446 189.146 34.5208 190.124C42.5345 192.082 53.4845 194.712 65.6582 197.648C65.719 197.648 65.7804 197.71 65.8412 197.71L66.0864 197.771L66.1472 197.526C68.2274 185.23 70.1234 174.158 71.4695 166.083C72.1422 162.107 72.6319 158.804 73.0601 156.54C73.2432 155.439 73.3654 154.582 73.4883 153.971C73.5491 153.665 73.5491 153.481 73.6106 153.298V153.053C73.6106 153.053 73.6106 153.115 73.5491 153.298C73.4883 153.481 73.4883 153.665 73.4269 153.971C73.3046 154.582 73.1209 155.439 72.9378 156.54C72.5096 158.804 71.9585 162.046 71.225 166.022C69.8174 174.097 67.9215 185.169 65.7804 197.465L66.0249 197.282C65.9635 197.282 65.9027 197.282 65.8412 197.22C53.668 194.345 42.6568 191.715 34.7043 189.818C30.7281 188.901 27.4859 188.167 25.2225 187.616C24.1214 187.371 23.265 187.188 22.6532 187.065C22.3474 187.005 22.1639 186.943 21.9803 186.943C21.7357 186.882 21.6133 186.882 21.6133 186.882Z" stroke="#231F20"/>
<path d="M130.807 108.642C130.807 108.642 130.746 108.886 130.624 109.314C130.563 109.804 130.44 110.416 130.318 111.211V111.15C128.544 113.291 125.24 117.022 120.897 120.57C120.469 120.938 120.041 121.244 119.613 121.549C119.185 121.855 118.756 122.161 118.389 121.977C118.084 121.794 117.838 121.244 117.594 120.815C117.349 120.387 117.104 119.959 116.86 119.531C115.881 117.879 114.963 116.411 114.168 115.249C113.373 114.025 112.639 113.107 112.149 112.496C111.905 112.19 111.721 111.945 111.537 111.761C111.415 111.578 111.293 111.517 111.293 111.517C111.293 111.517 111.537 111.884 112.027 112.557C112.517 113.23 113.128 114.147 113.924 115.371C114.719 116.594 115.575 118.062 116.554 119.714C116.799 120.142 117.043 120.57 117.288 120.998C117.41 121.244 117.533 121.427 117.655 121.672C117.778 121.916 117.961 122.161 118.267 122.345C118.573 122.528 118.94 122.467 119.185 122.345C119.429 122.222 119.674 122.039 119.919 121.855C120.347 121.549 120.775 121.182 121.203 120.815C125.608 117.267 128.85 113.474 130.501 111.211C130.563 110.477 130.685 109.804 130.685 109.314C130.807 108.886 130.807 108.642 130.807 108.642Z" stroke="#231F20"/>
<path d="M81.3793 109.988C81.3793 109.988 81.5015 110.048 81.7467 110.232C81.9912 110.416 82.358 110.599 82.7254 110.783C83.6426 111.333 84.9273 112.006 86.457 112.862C89.5768 114.637 93.859 117.206 98.5079 120.142C100.527 121.427 102.423 122.65 104.136 123.813L104.319 123.935L104.441 123.751C106.338 120.387 107.929 117.512 108.968 115.371C109.458 114.331 109.886 113.474 110.131 112.862C110.376 112.251 110.498 111.945 110.437 111.945C110.437 111.945 110.253 112.251 110.008 112.801C109.702 113.352 109.336 114.208 108.785 115.249C107.684 117.328 106.094 120.203 104.136 123.507L104.441 123.445C102.729 122.283 100.833 120.998 98.8139 119.714C94.1643 116.778 89.8213 114.27 86.7016 112.557C85.1109 111.701 83.8263 111.027 82.9084 110.538C82.4802 110.354 82.1749 110.171 81.8689 110.048C81.5015 110.048 81.3793 109.988 81.3793 109.988Z" stroke="#231F20"/>
<path d="M118.756 18.2277L119.185 18.2889C135.029 19.5735 147.202 32.9092 147.202 48.8143C147.141 62.7617 146.957 77.81 146.223 85.212C144.755 100.873 128.85 102.035 128.85 102.035C128.85 102.035 128.85 103.136 128.911 104.91L110.743 111.578L89.0264 102.035L88.965 70.6532C85.9066 70.1028 82.2358 68.0839 82.5417 61.783C82.8477 55.9103 86.0289 54.4422 88.9035 54.3198V47.5908C88.8427 31.074 102.362 17.8607 118.756 18.2277Z" stroke="#231F20"/>
<path d="M141.941 58.2961C141.879 59.4584 140.84 60.4369 139.616 60.3761C138.393 60.3146 137.414 59.3361 137.475 58.1738C137.536 57.0115 138.577 56.0327 139.8 56.0939C141.023 56.155 142.002 57.1339 141.941 58.2961Z" stroke="#231F20"/>
<path d="M143.226 55.0539C142.92 55.2987 141.329 53.9528 138.943 53.7081C136.558 53.4635 134.661 54.5645 134.417 54.2587C134.294 54.1363 134.6 53.5858 135.457 53.0964C136.252 52.607 137.598 52.1788 139.127 52.3011C140.656 52.4235 141.819 53.0964 142.553 53.7081C143.164 54.4422 143.348 54.9928 143.226 55.0539Z" stroke="#231F20"/>
<path d="M119.001 56.7667C118.939 57.929 117.9 58.9078 116.676 58.8466C115.453 58.7854 114.474 57.8066 114.535 56.6444C114.596 55.4821 115.637 54.5033 116.86 54.5645C118.083 54.5645 119.001 55.6044 119.001 56.7667Z" stroke="#231F20"/>
<path d="M119.429 53.5858C119.123 53.8305 117.533 52.4847 115.147 52.24C112.761 51.9953 110.865 53.0964 110.62 52.7906C110.498 52.6682 110.804 52.1176 111.66 51.6282C112.455 51.1389 113.802 50.7107 115.331 50.833C116.86 50.9553 118.022 51.6282 118.756 52.24C119.368 52.9129 119.613 53.4634 119.429 53.5858Z" stroke="#231F20"/>
<path d="M126.709 72.1824C126.709 72.0601 128.238 71.9379 130.685 71.8156C131.297 71.8156 131.909 71.7542 132.031 71.326C132.214 70.8977 132.031 70.225 131.786 69.4908C131.358 67.9617 130.869 66.3096 130.379 64.6582C128.422 57.7455 127.015 52.1176 127.321 52.0564C127.627 51.9953 129.4 57.5008 131.419 64.4137C131.909 66.1265 132.337 67.7165 132.765 69.2463C132.948 69.9799 133.254 70.7755 132.887 71.6927C132.704 72.121 132.214 72.4269 131.786 72.4883C131.358 72.5492 131.052 72.5492 130.746 72.5492C128.238 72.4269 126.709 72.3046 126.709 72.1824Z" stroke="#231F20"/>
<path d="M119.491 73.2833C119.857 73.2833 119.674 75.914 121.754 77.9329C123.833 80.0125 126.647 79.8903 126.647 80.257C126.647 80.4407 125.975 80.6853 124.812 80.6244C123.65 80.563 121.998 80.074 120.714 78.7893C119.429 77.5655 119.001 75.9749 119.001 74.8739C118.939 73.8338 119.307 73.2225 119.491 73.2833Z" stroke="#231F20"/>
<path d="M120.836 44.1651C120.53 44.7769 118.144 44.2874 115.331 44.4098C112.455 44.471 110.131 45.0827 109.764 44.471C109.642 44.1651 110.07 43.6146 111.048 43.0029C112.027 42.4523 113.495 41.9629 115.269 41.9017C116.982 41.8405 118.511 42.2687 119.49 42.7582C120.53 43.3087 120.958 43.8592 120.836 44.1651Z" stroke="#231F20"/>
<path d="M142.919 48.019C142.43 48.5084 140.84 47.8355 138.821 47.652C136.802 47.4073 135.089 47.7132 134.783 47.1014C134.661 46.7955 134.967 46.3062 135.701 45.8168C136.496 45.3886 137.72 45.0215 139.066 45.2051C140.412 45.3886 141.574 45.9391 142.247 46.5508C142.919 47.1626 143.103 47.7743 142.919 48.019Z" stroke="#231F20"/>
<path d="M102.056 39.3324C102.056 39.4548 101.995 39.5771 101.995 39.6383C101.016 44.0427 100.771 48.6307 99.7312 53.0352C98.6917 57.4397 98.8748 60.8042 94.4704 61.8444C91.6566 62.4557 91.4729 60.4375 90.4942 58.8467C90.1274 58.2349 88.3531 54.9316 88.3531 54.1975C88.3531 50.3436 86.3349 28.7495 106.889 20.4911C128.85 9.84697 150.872 22.7545 153.931 28.1377C156.989 33.521 155.032 36.8243 153.258 37.4973C148.609 39.0877 144.449 34.8056 137.475 30.707C130.501 26.6084 112.578 29.3612 107.439 31.747C102.301 34.1327 102.729 36.2126 102.056 39.3324Z" stroke="#231F20"/>
<path d="M89.8822 66.2488C89.8214 66.1874 89.6992 66.3711 89.3932 66.4934C89.0872 66.6156 88.5368 66.6771 87.9863 66.4319C86.8853 65.9429 86.0289 64.1078 86.0289 62.1498C86.0289 61.1711 86.2734 60.2538 86.7016 59.5196C87.0684 58.7243 87.6189 58.235 88.1694 58.1738C88.7205 58.0515 89.1487 58.4185 89.2709 58.7243C89.3932 59.0302 89.3318 59.2137 89.3932 59.2749C89.3932 59.2749 89.6377 59.0914 89.5769 58.6632C89.5155 58.4185 89.454 58.1738 89.2095 57.9903C88.965 57.7456 88.5976 57.6233 88.1694 57.6844C87.3135 57.6844 86.5794 58.4185 86.1512 59.2749C85.6615 60.1314 85.3556 61.1102 85.3556 62.2112C85.2947 64.3523 86.3343 66.4934 87.864 66.983C88.5976 67.2275 89.2709 67.0438 89.5769 66.7993C89.8214 66.4934 89.8822 66.2488 89.8822 66.2488Z" stroke="#231F20"/>
<path d="M25.406 187.922L58.4395 195.936L47.4895 223.586L86.9461 229.825C88.1085 229.581 95.0822 228.052 98.5079 227.318C99.7311 227.073 100.771 226.4 101.934 226.094C107.684 224.626 114.78 220.894 116.371 219.304C119.185 216.551 121.203 220.772 118.45 224.259C115.697 227.684 113.556 228.908 113.556 228.908L125.363 231.967C125.975 232.15 126.525 232.517 126.831 233.068L135.946 247.443C136.802 248.606 136.68 250.318 135.579 251.236C135.029 251.725 134.417 251.909 133.621 251.359L134.783 253.316C136.741 256.558 131.97 259.739 129.828 256.619C129.828 256.558 129.767 256.558 129.767 256.497L127.504 259.555C127.504 259.555 126.403 262.553 122.916 260.657C120.041 259.066 110.314 251.909 110.314 251.909C110.314 251.909 96.3054 252.215 87.8025 250.93L34.4596 256.13C25.2225 257.354 16.1077 252.888 11.4585 244.813C7.84935 238.573 7.29876 230.988 10.1128 224.259L25.406 187.922Z" stroke="#231F20"/>
<path d="M129.89 256.619C129.768 256.68 128.972 255.335 127.627 253.194C126.281 251.114 124.14 248.177 122.121 244.874C121.02 243.345 119.857 241.754 118.879 240.592C118.328 240.041 117.716 239.797 116.982 239.735C116.249 239.613 115.575 239.552 114.902 239.43C112.395 239.063 110.804 238.757 110.865 238.634C110.865 238.512 112.455 238.574 115.025 238.757C115.697 238.818 116.371 238.879 117.105 238.94C117.9 239.002 118.818 239.307 119.551 239.98C120.775 241.326 121.815 242.733 122.977 244.385C125.057 247.749 126.953 250.624 128.238 252.888C129.462 255.029 130.012 256.558 129.89 256.619Z" stroke="#231F20"/>
<path d="M133.682 251.359C133.377 251.603 130.257 246.281 125.852 240.225C124.751 238.757 123.711 237.167 122.427 236.555C120.958 235.943 119.551 235.454 118.389 235.148C117.227 234.842 116.248 234.658 115.575 234.597C114.902 234.536 114.535 234.597 114.535 234.536C114.535 234.474 114.902 234.291 115.575 234.23C116.309 234.169 117.288 234.23 118.573 234.474C119.796 234.72 121.264 235.086 122.793 235.698C124.506 236.493 125.546 238.145 126.647 239.613C128.911 242.672 130.624 245.608 131.847 247.749C133.132 249.952 133.744 251.297 133.682 251.359Z" stroke="#231F20"/>
<path d="M108.357 245.241C108.357 245.119 109.764 245.119 112.027 245.302C112.639 245.364 113.25 245.425 113.862 245.425C114.474 245.486 115.331 245.486 116.065 245.914C116.86 246.22 117.472 246.954 117.961 247.505C118.511 248.116 119.062 248.728 119.613 249.401C124.139 254.601 127.626 258.883 127.382 259.066C127.198 259.25 123.344 255.212 118.879 250.074C118.328 249.401 117.778 248.789 117.227 248.177C116.676 247.505 116.248 247.015 115.637 246.709C115.086 246.404 114.413 246.342 113.74 246.22C113.128 246.098 112.517 246.036 111.905 245.975C109.702 245.669 108.295 245.363 108.357 245.241Z" stroke="#231F20"/>
<path d="M101.505 228.357C101.444 227.929 105.298 227.746 109.886 228.235C114.474 228.663 118.144 229.703 118.084 230.009C118.022 230.254 114.352 229.642 109.825 229.214C107.867 229.03 106.032 228.847 104.013 228.663C102.423 228.541 101.567 228.48 101.505 228.357Z" stroke="#231F20"/>
<path d="M108.846 94.3882C108.846 94.3882 121.692 105.4 128.788 102.035C121.264 102.891 108.846 94.3882 108.846 94.3882Z" stroke="#231F20"/>
<path d="M73.6106 264.939C73.6714 262.859 75.3235 261.208 77.3423 261.208H160.232C162.312 261.208 163.963 262.859 163.963 264.939H73.6106Z" stroke="#231F20"/>
<path d="M261.167 232.884H116.554C115.637 232.884 114.841 232.15 114.841 231.172V133.05C114.841 132.132 115.575 131.337 116.554 131.337H261.167C263.797 131.337 266 133.478 266 136.17V228.052C266 230.743 263.797 232.884 261.167 232.884Z" stroke="#231F20"/>
<path d="M208.803 264.939H180.48V221.139H208.742V264.939H208.803Z" stroke="#231F20"/>
<path d="M120.591 232.884H116.554C115.637 232.884 114.841 232.15 114.841 231.172V133.05C114.841 132.132 115.575 131.337 116.554 131.337H120.591C121.509 131.337 122.304 132.071 122.304 133.05V231.172C122.304 232.15 121.509 232.884 120.591 232.884Z" stroke="#231F20"/>
<path d="M208.926 213.248C208.803 213.248 208.681 224.809 208.681 239.124C208.62 253.377 208.742 265 208.803 265C208.864 265 209.048 253.438 209.048 239.124C209.109 224.809 209.048 213.248 208.926 213.248Z" stroke="#231F20"/>
<path d="M180.235 212.575C180.113 212.575 180.113 224.198 180.174 238.512C180.235 252.827 180.419 264.45 180.541 264.45C180.663 264.45 180.663 252.827 180.603 238.512C180.48 224.198 180.357 212.575 180.235 212.575Z" stroke="#231F20"/>
<path d="M10.6021 264.878L1.05914 163.698C0.325061 155.745 6.50354 148.832 14.4561 148.649L120.836 146.508C128.116 146.385 134.233 151.891 134.845 159.17L142.981 264.816L10.6021 264.878Z" fill="white" stroke="black" stroke-width="1.33" stroke-miterlimit="5.33"/>
<path d="M25.7119 264.878V264.511C25.7119 264.266 25.6507 263.899 25.6507 263.471C25.5895 262.553 25.4672 261.146 25.2837 259.433C24.9778 255.885 24.4884 250.808 23.9378 244.569C22.7144 231.967 21.0627 214.655 19.2887 195.447C17.8205 180.52 16.4747 166.695 15.3736 155.439C15.3736 154.888 15.3736 154.338 15.4347 153.787C15.4347 153.237 15.4348 152.686 15.6183 152.197C15.863 151.218 16.4747 150.301 17.2699 149.689C18.0652 149.077 18.9828 148.771 19.9004 148.71C20.8792 148.71 21.7968 148.649 22.7144 148.649C26.3236 148.588 29.4434 148.465 32.0127 148.404C34.582 148.343 36.6007 148.282 37.9465 148.221C38.6194 148.221 39.1088 148.16 39.537 148.16C39.904 148.16 40.0875 148.098 40.0875 148.098H37.9465C36.5395 148.098 34.5208 148.16 31.9515 148.16C29.3822 148.221 26.2624 148.221 22.6532 148.282C21.7356 148.282 20.818 148.343 19.8392 148.343C18.8605 148.404 17.8205 148.71 17.0253 149.383C16.1689 150.056 15.5571 150.974 15.2512 152.014C15.1289 152.564 15.0677 153.115 15.0677 153.665C15.0677 154.216 15.0066 154.766 15.0066 155.317C16.1077 166.572 17.3923 180.398 18.7993 195.324C20.6957 214.471 22.3473 231.844 23.5708 244.446C24.1825 250.686 24.7331 255.763 25.1001 259.311C25.2837 261.024 25.406 262.431 25.5284 263.349C25.5895 263.777 25.6507 264.144 25.6507 264.388C25.6507 264.755 25.7119 264.878 25.7119 264.878Z" fill="black"/>
<path d="M153.625 186.882C155.032 186.943 165.003 204.928 172.344 218.509C177.177 227.501 186.903 232.884 197.119 232.15C209.292 231.294 219.264 222.118 221.038 210.005L227.155 139.718L202.563 133.6L192.531 188.656L186.352 171.16L153.625 186.882Z" fill="#C78976"/>
<path d="M202.319 138.8L203.114 126.443C203.114 126.443 206.601 98.7926 206.601 96.0396C206.601 92.9198 208.069 92.1862 209.232 92.2471C211.005 92.3693 212.29 94.5718 212.412 97.2634C212.412 98.1807 212.351 112.801 212.351 112.801C212.351 112.801 213.024 111.578 215.165 108.825C217.306 106.072 222.383 104.543 227.644 104.665C232.844 104.849 234.312 105.338 234.312 107.357C234.312 108.152 233.884 108.825 233.273 109.314C232.355 110.11 231.07 110.538 229.847 110.477C221.466 110.354 219.264 114.759 219.264 114.759L219.141 116.349C219.141 116.349 224.219 112.74 228.256 114.269C228.929 114.514 229.419 114.881 229.847 115.248C232.049 115.248 234.251 116.472 235.414 118.368C236.637 120.326 236.637 122.956 235.536 124.975C234.985 125.953 234.007 126.81 232.905 126.627C232.355 126.504 231.866 126.137 231.437 125.709C231.192 125.525 230.948 125.342 230.703 125.158L229.785 129.624C229.785 129.624 227.155 139.595 226.482 144.061" fill="white"/>
<path d="M202.319 138.8L203.114 126.443C203.114 126.443 206.601 98.7926 206.601 96.0396C206.601 92.9198 208.069 92.1862 209.232 92.2471C211.005 92.3693 212.29 94.5718 212.412 97.2634C212.412 98.1807 212.351 112.801 212.351 112.801C212.351 112.801 213.024 111.578 215.165 108.825C217.306 106.072 222.383 104.543 227.644 104.665C232.844 104.849 234.312 105.338 234.312 107.357C234.312 108.152 233.884 108.825 233.273 109.314C232.355 110.11 231.07 110.538 229.847 110.477C221.466 110.354 219.264 114.759 219.264 114.759L219.141 116.349C219.141 116.349 224.219 112.74 228.256 114.269C228.929 114.514 229.419 114.881 229.847 115.248C232.049 115.248 234.251 116.472 235.414 118.368C236.637 120.326 236.637 122.956 235.536 124.975C234.985 125.953 234.007 126.81 232.905 126.627C232.355 126.504 231.866 126.137 231.437 125.709C231.192 125.525 230.948 125.342 230.703 125.158L229.785 129.624C229.785 129.624 227.155 139.595 226.482 144.061" stroke="black" stroke-width="1.33" stroke-miterlimit="5.33"/>
<path d="M204.766 137.76C206.295 138.188 207.885 137.087 208.68 135.68C209.537 134.334 209.843 132.744 210.577 131.337C212.78 127.116 218.04 125.097 219.998 120.754C220.242 120.142 220.426 119.347 219.876 118.919C219.386 118.551 218.713 118.857 218.163 119.163C213.575 121.733 208.986 124.241 204.398 126.81" fill="white"/>
<path d="M204.399 126.81C204.399 126.749 204.888 126.381 205.806 125.831C206.723 125.281 208.13 124.424 209.782 123.445C211.556 122.405 213.575 121.304 215.777 120.02C216.328 119.714 216.939 119.347 217.49 119.041C218.04 118.796 218.713 118.185 219.753 118.368C220.304 118.49 220.671 119.102 220.671 119.53C220.732 120.02 220.61 120.386 220.426 120.815C220.12 121.549 219.692 122.222 219.264 122.833C217.367 125.342 214.921 126.871 213.146 128.706C212.229 129.624 211.495 130.541 210.944 131.52C210.393 132.499 210.088 133.539 209.721 134.457C208.986 136.353 207.641 137.577 206.54 137.882C205.378 138.249 204.766 137.821 204.827 137.821C204.827 137.76 205.438 137.943 206.417 137.577C207.396 137.209 208.497 136.047 209.17 134.212C209.537 133.294 209.782 132.254 210.333 131.214C210.883 130.113 211.678 129.134 212.596 128.156C214.431 126.259 216.878 124.669 218.591 122.344C219.019 121.794 219.386 121.182 219.692 120.57C219.936 119.958 219.936 119.347 219.57 119.285C219.203 119.163 218.591 119.53 217.979 119.836C217.367 120.142 216.817 120.448 216.205 120.815C214.003 122.038 211.923 123.079 210.149 124.057C208.436 124.975 207.029 125.709 205.989 126.198C204.949 126.627 204.399 126.871 204.399 126.81Z" fill="black"/>
<path d="M222.261 119.897C222.261 119.959 222.567 119.775 223.118 119.592C223.607 119.408 224.524 119.041 225.381 119.469C225.809 119.653 226.054 120.142 226.115 120.692C226.176 121.243 226.054 121.916 225.993 122.589C225.931 123.262 225.871 124.118 226.36 124.852C226.849 125.587 227.706 126.015 228.562 126.015C229.479 126.015 230.275 125.587 230.825 125.036C231.376 124.424 231.743 123.751 231.926 123.017C232.11 121.61 232.049 120.326 231.866 119.286C231.682 118.246 231.437 117.39 231.131 116.9C230.825 116.349 230.581 116.166 230.519 116.166C230.458 116.227 230.703 116.472 230.886 116.961C231.131 117.512 231.314 118.307 231.437 119.347C231.56 120.387 231.62 121.61 231.376 122.956C231.131 124.18 230.03 125.525 228.562 125.525C227.828 125.525 227.155 125.158 226.788 124.608C226.421 124.057 226.421 123.384 226.482 122.711C226.543 122.039 226.666 121.366 226.543 120.692C226.482 120.02 226.054 119.408 225.503 119.163C224.402 118.674 223.484 119.163 222.995 119.408C222.506 119.653 222.261 119.836 222.261 119.897Z" fill="black"/>
<path d="M64.7404 197.465L21.6747 186.882C21.6747 186.882 24.4275 180.214 32.0129 157.702C39.0478 136.904 45.104 129.746 45.104 129.746C45.104 129.746 67.1266 117.634 80.0339 110.599L89.0873 101.056V102.035L97.4679 105.705L110.804 111.578L123.589 106.867L128.972 104.91L130.869 108.642L153.686 114.943C153.686 114.943 169.958 120.876 180.48 144.795C193.388 174.28 194.305 179.419 194.305 179.419L160.538 198.994L166.166 264.878L62.9667 264.939L64.9855 214.471L64.7404 197.465Z" fill="white" stroke="black" stroke-width="1.33" stroke-miterlimit="5.33"/>
<path d="M70.6739 145.529C70.6739 145.529 70.6739 145.162 70.5516 144.489C70.4294 143.816 70.1849 142.837 69.7566 141.675C68.9002 139.412 66.9428 136.414 63.8839 134.151C60.8253 131.887 57.4608 130.847 55.075 130.481C53.8516 130.297 52.8728 130.175 52.1999 130.175C51.527 130.175 51.1599 130.175 51.1599 130.235C51.1599 130.297 52.6893 130.297 55.075 130.786C57.4608 131.276 60.7029 132.316 63.7002 134.518C66.6977 136.72 68.5943 139.595 69.573 141.797C70.4294 144 70.5516 145.529 70.6739 145.529Z" fill="black"/>
<path d="M21.6133 186.882C21.6133 186.882 21.6745 186.943 21.858 186.943C22.0415 187.005 22.225 187.065 22.5309 187.127C23.1426 187.31 23.9991 187.494 25.1001 187.8C27.3636 188.35 30.5446 189.146 34.5208 190.124C42.5345 192.082 53.4845 194.712 65.6582 197.648C65.719 197.648 65.7804 197.71 65.8412 197.71L66.0864 197.771L66.1472 197.526C68.2274 185.23 70.1234 174.158 71.4695 166.083C72.1422 162.107 72.6319 158.804 73.0601 156.54C73.2432 155.439 73.3654 154.582 73.4883 153.971C73.5491 153.665 73.5491 153.481 73.6106 153.298V153.053C73.6106 153.053 73.6106 153.115 73.5491 153.298C73.4883 153.481 73.4883 153.665 73.4269 153.971C73.3046 154.582 73.1209 155.439 72.9378 156.54C72.5096 158.804 71.9585 162.046 71.225 166.022C69.8174 174.097 67.9215 185.169 65.7804 197.465L66.0249 197.282C65.9635 197.282 65.9027 197.282 65.8412 197.22C53.668 194.345 42.6568 191.715 34.7043 189.818C30.7281 188.901 27.4859 188.167 25.2225 187.616C24.1214 187.371 23.265 187.188 22.6532 187.065C22.3474 187.005 22.1639 186.943 21.9803 186.943C21.7357 186.882 21.6133 186.882 21.6133 186.882Z" fill="black"/>
<path d="M130.807 108.642C130.807 108.642 130.746 108.886 130.624 109.314C130.563 109.804 130.44 110.416 130.318 111.211V111.15C128.544 113.291 125.24 117.022 120.897 120.57C120.469 120.938 120.041 121.244 119.613 121.549C119.185 121.855 118.756 122.161 118.389 121.977C118.084 121.794 117.838 121.244 117.594 120.815C117.349 120.387 117.104 119.959 116.86 119.531C115.881 117.879 114.963 116.411 114.168 115.249C113.373 114.025 112.639 113.107 112.149 112.496C111.905 112.19 111.721 111.945 111.537 111.761C111.415 111.578 111.293 111.517 111.293 111.517C111.293 111.517 111.537 111.884 112.027 112.557C112.517 113.23 113.128 114.147 113.924 115.371C114.719 116.594 115.575 118.062 116.554 119.714C116.799 120.142 117.043 120.57 117.288 120.998C117.41 121.244 117.533 121.427 117.655 121.672C117.778 121.916 117.961 122.161 118.267 122.345C118.573 122.528 118.94 122.467 119.185 122.345C119.429 122.222 119.674 122.039 119.919 121.855C120.347 121.549 120.775 121.182 121.203 120.815C125.608 117.267 128.85 113.474 130.501 111.211C130.563 110.477 130.685 109.804 130.685 109.314C130.807 108.886 130.807 108.642 130.807 108.642Z" fill="black"/>
<path d="M81.3793 109.988C81.3793 109.988 81.5015 110.048 81.7467 110.232C81.9912 110.416 82.358 110.599 82.7254 110.783C83.6426 111.333 84.9273 112.006 86.457 112.862C89.5768 114.637 93.859 117.206 98.5079 120.142C100.527 121.427 102.423 122.65 104.136 123.813L104.319 123.935L104.441 123.751C106.338 120.387 107.929 117.512 108.968 115.371C109.458 114.331 109.886 113.474 110.131 112.862C110.376 112.251 110.498 111.945 110.437 111.945C110.437 111.945 110.253 112.251 110.008 112.801C109.702 113.352 109.336 114.208 108.785 115.249C107.684 117.328 106.094 120.203 104.136 123.507L104.441 123.445C102.729 122.283 100.833 120.998 98.8139 119.714C94.1643 116.778 89.8213 114.27 86.7016 112.557C85.1109 111.701 83.8263 111.027 82.9084 110.538C82.4802 110.354 82.1749 110.171 81.8689 110.048C81.5015 110.048 81.3793 109.988 81.3793 109.988Z" fill="black"/>
<path d="M118.756 18.2277L119.185 18.2889C135.029 19.5735 147.202 32.9092 147.202 48.8143C147.141 62.7617 146.957 77.81 146.223 85.212C144.755 100.873 128.85 102.035 128.85 102.035C128.85 102.035 128.85 103.136 128.911 104.91L110.743 111.578L89.0264 102.035L88.965 70.6532C85.9066 70.1028 82.2358 68.0839 82.5417 61.783C82.8477 55.9103 86.0289 54.4422 88.9035 54.3198V47.5908C88.8427 31.074 102.362 17.8607 118.756 18.2277Z" fill="white" stroke="black" stroke-width="1.33" stroke-miterlimit="5.33"/>
<path d="M141.941 58.2961C141.879 59.4584 140.84 60.4369 139.616 60.3761C138.393 60.3146 137.414 59.3361 137.475 58.1738C137.536 57.0115 138.577 56.0327 139.8 56.0939C141.023 56.155 142.002 57.1339 141.941 58.2961Z" fill="black"/>
<path d="M143.226 55.0539C142.92 55.2987 141.329 53.9528 138.943 53.7081C136.558 53.4635 134.661 54.5645 134.417 54.2587C134.294 54.1363 134.6 53.5858 135.457 53.0964C136.252 52.607 137.598 52.1788 139.127 52.3011C140.656 52.4235 141.819 53.0964 142.553 53.7081C143.164 54.4422 143.348 54.9928 143.226 55.0539Z" fill="black"/>
<path d="M119.001 56.7667C118.939 57.929 117.9 58.9078 116.676 58.8466C115.453 58.7854 114.474 57.8066 114.535 56.6444C114.596 55.4821 115.637 54.5033 116.86 54.5645C118.083 54.5645 119.001 55.6044 119.001 56.7667Z" fill="black"/>
<path d="M119.429 53.5858C119.123 53.8305 117.533 52.4847 115.147 52.24C112.761 51.9953 110.865 53.0964 110.62 52.7906C110.498 52.6682 110.804 52.1176 111.66 51.6282C112.455 51.1389 113.802 50.7107 115.331 50.833C116.86 50.9553 118.022 51.6282 118.756 52.24C119.368 52.9129 119.613 53.4634 119.429 53.5858Z" fill="black"/>
<path d="M126.709 72.1824C126.709 72.0601 128.238 71.9379 130.685 71.8156C131.297 71.8156 131.909 71.7542 132.031 71.326C132.214 70.8977 132.031 70.225 131.786 69.4908C131.358 67.9617 130.869 66.3096 130.379 64.6582C128.422 57.7455 127.015 52.1176 127.321 52.0564C127.627 51.9953 129.4 57.5008 131.419 64.4137C131.909 66.1265 132.337 67.7165 132.765 69.2463C132.948 69.9799 133.254 70.7755 132.887 71.6927C132.704 72.121 132.214 72.4269 131.786 72.4883C131.358 72.5492 131.052 72.5492 130.746 72.5492C128.238 72.4269 126.709 72.3046 126.709 72.1824Z" fill="black"/>
<path d="M119.491 73.2833C119.857 73.2833 119.674 75.914 121.754 77.9329C123.833 80.0125 126.647 79.8903 126.647 80.257C126.647 80.4407 125.975 80.6853 124.812 80.6244C123.65 80.563 121.998 80.074 120.714 78.7893C119.429 77.5655 119.001 75.9749 119.001 74.8739C118.939 73.8338 119.307 73.2225 119.491 73.2833Z" fill="black"/>
<path d="M120.836 44.1651C120.53 44.7769 118.144 44.2874 115.331 44.4098C112.455 44.471 110.131 45.0827 109.764 44.471C109.642 44.1651 110.07 43.6146 111.048 43.0029C112.027 42.4523 113.495 41.9629 115.269 41.9017C116.982 41.8405 118.511 42.2687 119.49 42.7582C120.53 43.3087 120.958 43.8592 120.836 44.1651Z" fill="black"/>
<path d="M142.919 48.019C142.43 48.5084 140.84 47.8355 138.821 47.652C136.802 47.4073 135.089 47.7132 134.783 47.1014C134.661 46.7955 134.967 46.3062 135.701 45.8168C136.496 45.3886 137.72 45.0215 139.066 45.2051C140.412 45.3886 141.574 45.9391 142.247 46.5508C142.919 47.1626 143.103 47.7743 142.919 48.019Z" fill="black"/>
<path d="M102.056 39.3324C102.056 39.4548 101.995 39.5771 101.995 39.6383C101.016 44.0427 100.771 48.6307 99.7312 53.0352C98.6917 57.4397 98.8748 60.8042 94.4704 61.8444C91.6566 62.4557 91.4729 60.4375 90.4942 58.8467C90.1274 58.2349 88.3531 54.9316 88.3531 54.1975C88.3531 50.3436 86.3349 28.7495 106.889 20.4911C128.85 9.84697 150.872 22.7545 153.931 28.1377C156.989 33.521 155.032 36.8243 153.258 37.4973C148.609 39.0877 144.449 34.8056 137.475 30.707C130.501 26.6084 112.578 29.3612 107.439 31.747C102.301 34.1327 102.729 36.2126 102.056 39.3324Z" fill="black"/>
<path d="M89.8822 66.2488C89.8214 66.1874 89.6992 66.3711 89.3932 66.4934C89.0872 66.6156 88.5368 66.6771 87.9863 66.4319C86.8853 65.9429 86.0289 64.1078 86.0289 62.1498C86.0289 61.1711 86.2734 60.2538 86.7016 59.5196C87.0684 58.7243 87.6189 58.235 88.1694 58.1738C88.7205 58.0515 89.1487 58.4185 89.2709 58.7243C89.3932 59.0302 89.3318 59.2137 89.3932 59.2749C89.3932 59.2749 89.6377 59.0914 89.5769 58.6632C89.5155 58.4185 89.454 58.1738 89.2095 57.9903C88.965 57.7456 88.5976 57.6233 88.1694 57.6844C87.3135 57.6844 86.5794 58.4185 86.1512 59.2749C85.6615 60.1314 85.3556 61.1102 85.3556 62.2112C85.2947 64.3523 86.3343 66.4934 87.864 66.983C88.5976 67.2275 89.2709 67.0438 89.5769 66.7993C89.8214 66.4934 89.8822 66.2488 89.8822 66.2488Z" fill="black"/>
<path d="M25.406 187.922L58.4395 195.936L47.4895 223.586L86.9461 229.825C88.1085 229.581 95.0822 228.052 98.5079 227.318C99.7311 227.073 100.771 226.4 101.934 226.094C107.684 224.626 114.78 220.894 116.371 219.304C119.185 216.551 121.203 220.772 118.45 224.259C115.697 227.684 113.556 228.908 113.556 228.908L125.363 231.967C125.975 232.15 126.525 232.517 126.831 233.068L135.946 247.443C136.802 248.606 136.68 250.318 135.579 251.236C135.029 251.725 134.417 251.909 133.621 251.359L134.783 253.316C136.741 256.558 131.97 259.739 129.828 256.619C129.828 256.558 129.767 256.558 129.767 256.497L127.504 259.555C127.504 259.555 126.403 262.553 122.916 260.657C120.041 259.066 110.314 251.909 110.314 251.909C110.314 251.909 96.3054 252.215 87.8025 250.93L34.4596 256.13C25.2225 257.354 16.1077 252.888 11.4585 244.813C7.84935 238.573 7.29876 230.988 10.1128 224.259L25.406 187.922Z" fill="white" stroke="black" stroke-width="1.33" stroke-miterlimit="5.33"/>
<path d="M129.89 256.619C129.768 256.68 128.972 255.335 127.627 253.194C126.281 251.114 124.14 248.177 122.121 244.874C121.02 243.345 119.857 241.754 118.879 240.592C118.328 240.041 117.716 239.797 116.982 239.735C116.249 239.613 115.575 239.552 114.902 239.43C112.395 239.063 110.804 238.757 110.865 238.634C110.865 238.512 112.455 238.574 115.025 238.757C115.697 238.818 116.371 238.879 117.105 238.94C117.9 239.002 118.818 239.307 119.551 239.98C120.775 241.326 121.815 242.733 122.977 244.385C125.057 247.749 126.953 250.624 128.238 252.888C129.462 255.029 130.012 256.558 129.89 256.619Z" fill="#0D0604"/>
<path d="M133.682 251.359C133.377 251.603 130.257 246.281 125.852 240.225C124.751 238.757 123.711 237.167 122.427 236.555C120.958 235.943 119.551 235.454 118.389 235.148C117.227 234.842 116.248 234.658 115.575 234.597C114.902 234.536 114.535 234.597 114.535 234.536C114.535 234.474 114.902 234.291 115.575 234.23C116.309 234.169 117.288 234.23 118.573 234.474C119.796 234.72 121.264 235.086 122.793 235.698C124.506 236.493 125.546 238.145 126.647 239.613C128.911 242.672 130.624 245.608 131.847 247.749C133.132 249.952 133.744 251.297 133.682 251.359Z" fill="#0D0604"/>
<path d="M108.357 245.241C108.357 245.119 109.764 245.119 112.027 245.302C112.639 245.364 113.25 245.425 113.862 245.425C114.474 245.486 115.331 245.486 116.065 245.914C116.86 246.22 117.472 246.954 117.961 247.505C118.511 248.116 119.062 248.728 119.613 249.401C124.139 254.601 127.626 258.883 127.382 259.066C127.198 259.25 123.344 255.212 118.879 250.074C118.328 249.401 117.778 248.789 117.227 248.177C116.676 247.505 116.248 247.015 115.637 246.709C115.086 246.404 114.413 246.342 113.74 246.22C113.128 246.098 112.517 246.036 111.905 245.975C109.702 245.669 108.295 245.363 108.357 245.241Z" fill="#0D0604"/>
<path d="M101.505 228.357C101.444 227.929 105.298 227.746 109.886 228.235C114.474 228.663 118.144 229.703 118.084 230.009C118.022 230.254 114.352 229.642 109.825 229.214C107.867 229.03 106.032 228.847 104.013 228.663C102.423 228.541 101.567 228.48 101.505 228.357Z" fill="#0D0604"/>
<path d="M108.846 94.3882C108.846 94.3882 121.692 105.4 128.788 102.035C121.264 102.891 108.846 94.3882 108.846 94.3882Z" fill="black"/>
<path d="M73.6106 264.939C73.6714 262.859 75.3235 261.208 77.3423 261.208H160.232C162.312 261.208 163.963 262.859 163.963 264.939H73.6106Z" fill="white" stroke="black" stroke-width="1.33" stroke-miterlimit="5.33"/>
<path d="M261.167 232.884H116.554C115.637 232.884 114.841 232.15 114.841 231.172V133.05C114.841 132.132 115.575 131.337 116.554 131.337H261.167C263.797 131.337 266 133.478 266 136.17V228.052C266 230.743 263.797 232.884 261.167 232.884Z" fill="white" stroke="black" stroke-width="1.33" stroke-miterlimit="5.33"/>
<path d="M208.803 264.939H180.48V221.139H208.742V264.939H208.803Z" fill="white" stroke="black" stroke-width="1.33" stroke-miterlimit="5.33"/>
<path d="M120.591 232.884H116.554C115.637 232.884 114.841 232.15 114.841 231.172V133.05C114.841 132.132 115.575 131.337 116.554 131.337H120.591C121.509 131.337 122.304 132.071 122.304 133.05V231.172C122.304 232.15 121.509 232.884 120.591 232.884Z" fill="white" stroke="black" stroke-width="1.33" stroke-miterlimit="5.33"/>
<path d="M208.926 213.248C208.803 213.248 208.681 224.809 208.681 239.124C208.62 253.377 208.742 265 208.803 265C208.864 265 209.048 253.438 209.048 239.124C209.109 224.809 209.048 213.248 208.926 213.248Z" fill="white" stroke="black" stroke-width="1.33" stroke-miterlimit="5.33"/>
<path d="M180.235 212.575C180.113 212.575 180.113 224.198 180.174 238.512C180.235 252.827 180.419 264.45 180.541 264.45C180.663 264.45 180.663 252.827 180.603 238.512C180.48 224.198 180.357 212.575 180.235 212.575Z" fill="white" stroke="black" stroke-width="1.33" stroke-miterlimit="5.33"/>
</svg>
