<?xml version="1.0" encoding="utf-8"?>
<!-- Generator: Adobe Illustrator 24.0.2, SVG Export Plug-In . SVG Version: 6.00 Build 0)  -->
<svg version="1.1" id="Layer_1" xmlns="http://www.w3.org/2000/svg" xmlns:xlink="http://www.w3.org/1999/xlink" x="0px" y="0px"
	 viewBox="0 0 400 160" style="enable-background:new 0 0 400 160;" xml:space="preserve">
<style type="text/css">
	.st0{fill:url(#SVGID_1_);}
	.st1{fill:#453A42;}
</style>
<title>clixscale-logo</title>
<linearGradient id="SVGID_1_" gradientUnits="userSpaceOnUse" x1="76.7304" y1="15.355" x2="76.7304" y2="148.645" gradientTransform="matrix(1 0 0 -1 0 162)">
	<stop  offset="0" style="stop-color:#C4136E"/>
	<stop  offset="1" style="stop-color:#E50647"/>
</linearGradient>
<path class="st0" d="M20.1,13.4l50.8,50.8c2.7,2.7,3,7,0.5,9.9c-2.6,2.9-7.1,3.2-10,0.6c-0.1-0.1-0.2-0.2-0.3-0.3L34.2,47.6h-0.1
	v64.8 M34.2,112.4l26.6-26.5c2.8-2.8,7.3-2.8,10,0c0.1,0.1,0.2,0.2,0.3,0.3c2.5,2.9,2.2,7.2-0.5,9.9l-50.6,50.6l-0.1,0V13.4
	 M133.4,13.4L82.6,64.1c-2.8,2.8-2.8,7.2,0,10c0.9,0.9,1.9,1.5,3.1,1.8l33.5,9.4l0,0v27h-0.1L92.3,85.6c-2.8-2.8-7.3-2.8-10,0
	c-0.1,0.1-0.2,0.2-0.3,0.3c-2.5,2.9-2.2,7.2,0.5,9.9l50.8,50.8l0.1-72l-32.2-9c0,0,0,0,0-0.1l18-18h0.1v7.6c0,3.9,3.1,7.1,7.1,7.1
	s7.2-3.6,7.1-7.4L133.4,13.4"/>
<path class="st1" d="M189.3,61.6c0.5,0,0.9,0.2,1.2,0.5l3.2,3.5c-2.5,2.8-5.5,5.1-8.9,6.7c-4,1.7-8.4,2.5-12.7,2.4
	c-4,0.1-8-0.7-11.7-2.2c-3.4-1.4-6.5-3.6-9-6.3c-2.6-2.8-4.5-6.1-5.8-9.7c-1.4-4-2.1-8.2-2.1-12.4c0-4.2,0.7-8.5,2.1-12.4
	c1.3-3.6,3.4-6.9,6-9.7c2.6-2.7,5.8-4.9,9.3-6.3c3.8-1.5,7.9-2.3,11.9-2.2c3.9-0.1,7.7,0.6,11.3,2c3.2,1.3,6.1,3.2,8.6,5.6l-2.7,3.7
	c-0.2,0.3-0.4,0.5-0.6,0.7c-0.3,0.2-0.7,0.3-1.1,0.3c-0.7-0.1-1.3-0.4-1.8-0.8c-0.9-0.7-1.9-1.3-2.9-1.8c-3.3-1.8-7.1-2.7-10.9-2.6
	c-2.9,0-5.8,0.5-8.5,1.6c-2.5,1-4.8,2.6-6.6,4.7c-1.9,2.2-3.4,4.7-4.3,7.5c-1.1,3.2-1.6,6.6-1.6,9.9c-0.1,3.4,0.5,6.8,1.6,10
	c1,2.7,2.5,5.3,4.4,7.4c1.8,2,4.1,3.6,6.6,4.6c2.6,1.1,5.4,1.6,8.2,1.6c1.6,0,3.2-0.1,4.8-0.3c1.4-0.2,2.7-0.5,4-1
	c1.2-0.4,2.3-1,3.4-1.7c1.1-0.7,2.1-1.6,3.1-2.5C188.2,61.8,188.7,61.7,189.3,61.6z M237.1,67.2V74h-34.1V14h8.1v53.2L237.1,67.2z
	 M254.2,74h-8.1V14h8.1V74z M315.4,74h-8c-0.5,0-1-0.1-1.5-0.5c-0.3-0.3-0.6-0.7-0.9-1.1l-16.1-25.2c-0.2,0.6-0.4,1.2-0.8,1.7
	l-15.7,23.5c-0.3,0.4-0.6,0.7-0.9,1.1c-0.4,0.3-0.8,0.5-1.3,0.5h-7.5l20.7-30.8L263.6,14h8.1c0.5,0,0.9,0.1,1.3,0.3
	c0.3,0.2,0.6,0.5,0.8,0.8l15.7,24c0.2-0.7,0.5-1.3,0.9-1.9l14.8-22c0.2-0.4,0.5-0.7,0.8-1c0.3-0.2,0.7-0.4,1.1-0.3h7.8l-19.9,29
	L315.4,74z M177.8,95.3c-0.2,0.4-0.5,0.7-0.8,0.9c-0.3,0.2-0.7,0.3-1.1,0.3c-0.6-0.1-1.2-0.3-1.7-0.7c-0.8-0.6-1.6-1.1-2.4-1.6
	c-1.1-0.6-2.3-1.2-3.5-1.6c-1.6-0.5-3.3-0.8-4.9-0.7c-1.6,0-3.3,0.2-4.8,0.7c-1.3,0.4-2.5,1.1-3.5,2c-0.9,0.8-1.6,1.9-2.1,3
	c-0.5,1.2-0.7,2.4-0.7,3.7c-0.1,1.5,0.4,3,1.2,4.2c0.9,1.2,2,2.1,3.3,2.8c1.5,0.8,3,1.5,4.6,2c1.7,0.6,3.5,1.2,5.3,1.8
	c1.8,0.6,3.6,1.3,5.3,2.1c1.7,0.7,3.2,1.7,4.6,2.9c1.4,1.2,2.5,2.7,3.3,4.3c0.9,2,1.3,4.1,1.2,6.3c0,2.5-0.4,5-1.3,7.4
	c-0.9,2.3-2.2,4.3-3.9,6c-1.8,1.8-4,3.1-6.3,4c-2.7,1-5.6,1.5-8.5,1.5c-3.7,0.1-7.3-0.7-10.6-2.1c-3.1-1.3-5.9-3.3-8.2-5.7l2.4-3.9
	c0.2-0.3,0.5-0.6,0.8-0.8c0.3-0.2,0.7-0.3,1.1-0.3c0.4,0,0.9,0.2,1.2,0.4c0.5,0.3,1,0.7,1.6,1.1s1.3,0.9,2,1.5
	c0.8,0.6,1.7,1.1,2.6,1.5c1.1,0.5,2.2,0.9,3.3,1.1c1.4,0.3,2.7,0.5,4.1,0.4c1.8,0,3.5-0.2,5.2-0.8c1.4-0.5,2.7-1.2,3.8-2.2
	c1-1,1.9-2.1,2.4-3.5c0.6-1.4,0.9-2.9,0.8-4.5c0.1-1.6-0.4-3.1-1.2-4.5c-0.9-1.2-2-2.2-3.3-3c-1.5-0.8-3-1.5-4.6-2
	c-1.7-0.5-3.5-1.1-5.3-1.7s-3.5-1.2-5.3-2c-1.7-0.7-3.2-1.7-4.6-2.9c-1.4-1.3-2.5-2.8-3.3-4.5c-0.9-2.1-1.3-4.4-1.2-6.7
	c0-2.1,0.4-4.2,1.2-6.2c0.8-2,2.1-3.8,3.6-5.3c1.7-1.6,3.7-2.9,5.8-3.7c2.5-1,5.2-1.4,7.9-1.4c3.1,0,6.2,0.5,9.1,1.6
	c2.7,1,5.2,2.6,7.3,4.6L177.8,95.3z M232,133.6c0.5,0,0.9,0.2,1.2,0.5l3.2,3.5c-2.5,2.8-5.5,5.1-8.9,6.7c-4,1.7-8.4,2.5-12.7,2.4
	c-4,0.1-8-0.7-11.7-2.2c-3.4-1.4-6.5-3.6-9-6.3c-2.6-2.8-4.5-6.1-5.8-9.7c-1.4-4-2.1-8.2-2-12.4c0-4.2,0.7-8.5,2.1-12.4
	c1.3-3.6,3.4-6.9,6-9.7c2.6-2.7,5.8-4.9,9.3-6.3c3.8-1.5,7.9-2.3,11.9-2.2c3.9-0.1,7.7,0.6,11.3,2.1c3.2,1.3,6.1,3.2,8.6,5.6
	l-2.7,3.7c-0.2,0.3-0.4,0.5-0.6,0.7c-0.3,0.2-0.7,0.3-1.1,0.3c-0.7-0.1-1.3-0.4-1.8-0.8c-0.9-0.7-1.9-1.3-2.9-1.8
	c-3.3-1.9-7.1-2.8-10.9-2.6c-2.9,0-5.8,0.5-8.5,1.6c-2.5,1-4.8,2.6-6.6,4.7c-1.9,2.2-3.4,4.7-4.3,7.5c-1.1,3.2-1.6,6.6-1.6,9.9
	c-0.1,3.4,0.5,6.8,1.6,10c1,2.7,2.5,5.3,4.4,7.4c1.8,2,4.1,3.6,6.6,4.6c2.6,1.1,5.4,1.6,8.2,1.6c1.6,0,3.2-0.1,4.8-0.3
	c1.4-0.2,2.7-0.5,4-1c1.2-0.4,2.3-1,3.4-1.7c1.1-0.7,2.1-1.5,3.1-2.4C231,133.8,231.5,133.6,232,133.6z M296,146h-6.3
	c-0.6,0-1.3-0.2-1.8-0.6c-0.5-0.4-0.8-0.8-1-1.4l-5.6-14.5h-26.9l-5.6,14.5c-0.2,0.5-0.5,1-1,1.3c-0.5,0.4-1.1,0.6-1.8,0.6h-6.3
	l24-60h8.2L296,146z M279.1,123.7l-9.4-24.4c-0.3-0.7-0.6-1.6-0.9-2.5s-0.6-2-0.9-3.1c-0.5,1.9-1.1,3.8-1.8,5.7l-9.4,24.4
	L279.1,123.7z M336.6,139.2v6.8h-34V86h8.1v53.2H336.6z M380,139.4v6.6h-37V86h37v6.6h-28.9v19.9h23.4v6.3h-23.4v20.5L380,139.4z"/>
</svg>
