<svg id="Layer_1" data-name="Layer 1" xmlns="http://www.w3.org/2000/svg" viewBox="0 0 400 300"><defs><style>.cls-1{fill:#cd181e;}.cls-2{fill:#fff;}.cls-3{fill:#00833a;}</style></defs><title>coal-logo</title><path class="cls-1" d="M384,174.08c0,6-4.22,13.26-9.37,16.24l-48.06,27.75c-5.16,3-13.6,3-18.75,0l-48.06-27.75c-5.16-3-9.37-10.28-9.37-16.24V118.59c0-6,4.21-13.26,9.37-16.24l48.06-27.74c5.15-3,13.59-3,18.75,0l48.06,27.74c5.15,3,9.37,10.28,9.37,16.24Z"/><path class="cls-2" d="M281.09,151.68a6,6,0,0,1-.72,2.67,9.26,9.26,0,0,1-2.21,2.72,11.31,11.31,0,0,1-3.75,2.07,15.32,15.32,0,0,1-5.09.79q-6,0-9.4-3.62t-3.38-9.72a16.42,16.42,0,0,1,1.55-7.29,11.3,11.3,0,0,1,4.47-4.9,14.79,14.79,0,0,1,11.62-1,12.18,12.18,0,0,1,3.57,2A9.45,9.45,0,0,1,280,138a5.24,5.24,0,0,1,.77,2.54,2.7,2.7,0,0,1-.87,2,2.91,2.91,0,0,1-2.1.84,2.14,2.14,0,0,1-1.35-.43,6.91,6.91,0,0,1-1.2-1.39,9.94,9.94,0,0,0-2.49-2.8,5.5,5.5,0,0,0-3.29-.94,5.55,5.55,0,0,0-4.64,2.33,10.27,10.27,0,0,0-1.76,6.34,12.69,12.69,0,0,0,.45,3.48,8.09,8.09,0,0,0,1.31,2.7,5.64,5.64,0,0,0,2.07,1.7,6.21,6.21,0,0,0,2.67.57,5.87,5.87,0,0,0,3.34-.93,8,8,0,0,0,2.46-2.85,7,7,0,0,1,1.28-1.77,2.43,2.43,0,0,1,1.69-.64,2.48,2.48,0,0,1,2,.94,3,3,0,0,1,.78,2"/><path class="cls-2" d="M302.35,146.35A10.33,10.33,0,0,0,300.6,140a6,6,0,0,0-8.05-1.26,6.46,6.46,0,0,0-2.24,3,12.63,12.63,0,0,0-.78,4.64,12.4,12.4,0,0,0,.77,4.59,6.55,6.55,0,0,0,2.21,3,6,6,0,0,0,8.09-1.25,10.3,10.3,0,0,0,1.75-6.35m6.51,0a16.31,16.31,0,0,1-.9,5.52,12.09,12.09,0,0,1-2.62,4.35,11.54,11.54,0,0,1-4.09,2.79,14,14,0,0,1-5.35,1,13.8,13.8,0,0,1-5.31-1,11.77,11.77,0,0,1-4.07-2.82,12.17,12.17,0,0,1-2.62-4.32,16.13,16.13,0,0,1-.89-5.51,16.58,16.58,0,0,1,.9-5.58,12.33,12.33,0,0,1,2.59-4.32,11.3,11.3,0,0,1,4.09-2.76,14.06,14.06,0,0,1,5.31-1,13.89,13.89,0,0,1,5.35,1,11.59,11.59,0,0,1,4.12,2.8,12.09,12.09,0,0,1,2.6,4.32,16.24,16.24,0,0,1,.89,5.53"/><path class="cls-2" d="M328.17,146.49a30.18,30.18,0,0,1-4.15,1.15c-1.82.4-3.08.7-3.77.88a5.06,5.06,0,0,0-2,1.11,2.85,2.85,0,0,0-.95,2.29,3.45,3.45,0,0,0,1.11,2.59,4.05,4.05,0,0,0,2.93,1.07,7.44,7.44,0,0,0,3.56-.87,5.74,5.74,0,0,0,2.39-2.25,10.61,10.61,0,0,0,.88-5Zm.43,9.71A20.35,20.35,0,0,1,324,159a12.38,12.38,0,0,1-4.93.95,9.09,9.09,0,0,1-4.39-1,7.3,7.3,0,0,1-3.94-6.55,6.9,6.9,0,0,1,1.69-4.69,8.35,8.35,0,0,1,4.64-2.6c.41-.1,1.43-.32,3.07-.66s3-.66,4.19-1,2.43-.63,3.8-1a7.2,7.2,0,0,0-1-3.9c-.61-.82-1.87-1.24-3.79-1.24a7.6,7.6,0,0,0-3.72.72,6,6,0,0,0-2.14,2.13,21.89,21.89,0,0,1-1.27,1.88c-.24.31-.77.45-1.58.45a2.68,2.68,0,0,1-1.89-.72,2.39,2.39,0,0,1-.8-1.85,5.78,5.78,0,0,1,1.22-3.44,8.73,8.73,0,0,1,3.78-2.75,16.58,16.58,0,0,1,6.4-1.08,17.71,17.71,0,0,1,6.73,1,6.37,6.37,0,0,1,3.46,3.3,14.81,14.81,0,0,1,1,6c0,1.57,0,2.9,0,4s0,2.32,0,3.66a14,14,0,0,0,.6,3.94,12.57,12.57,0,0,1,.61,2.64,2.48,2.48,0,0,1-.94,1.88,3.09,3.09,0,0,1-2.13.85,2.83,2.83,0,0,1-2-1,14.4,14.4,0,0,1-2.07-2.81"/><path class="cls-2" d="M337.62,155.9V126.82a4.65,4.65,0,0,1,.87-3,2.91,2.91,0,0,1,2.35-1,3,3,0,0,1,2.37,1,4.46,4.46,0,0,1,.91,3.06V155.9a4.46,4.46,0,0,1-.92,3.06,3,3,0,0,1-2.36,1,2.86,2.86,0,0,1-2.32-1.06,4.52,4.52,0,0,1-.9-3"/><path class="cls-3" d="M30.66,144.19H42.43A8.37,8.37,0,0,0,40.64,139a5.3,5.3,0,0,0-4.11-1.71,5.12,5.12,0,0,0-4,1.73,8.79,8.79,0,0,0-1.89,5.13m12.7,3.8H30.66a9.06,9.06,0,0,0,.89,4,6.23,6.23,0,0,0,2.31,2.63,5.89,5.89,0,0,0,3.17.88,7.47,7.47,0,0,0,2.13-.28,7.06,7.06,0,0,0,1.87-.88,15.86,15.86,0,0,0,1.66-1.29c.51-.46,1.17-1.08,2-1.87a2,2,0,0,1,1.42-.44,2.33,2.33,0,0,1,1.62.56,2,2,0,0,1,.62,1.6,4.46,4.46,0,0,1-.69,2.12,8.26,8.26,0,0,1-2.08,2.34,11.78,11.78,0,0,1-3.5,1.85,14.65,14.65,0,0,1-4.84.74q-6.26,0-9.73-3.68T24,146.3a17.15,17.15,0,0,1,.86-5.51,12.35,12.35,0,0,1,2.49-4.37,10.82,10.82,0,0,1,4.05-2.78,14.05,14.05,0,0,1,5.33-1,12.31,12.31,0,0,1,6.53,1.66,10.7,10.7,0,0,1,4.07,4.28A11.5,11.5,0,0,1,48.71,144c0,1.68-.47,2.77-1.4,3.27a8.51,8.51,0,0,1-4,.75"/><path class="cls-3" d="M76.07,151.68a6,6,0,0,1-.72,2.67,9.11,9.11,0,0,1-2.21,2.72,11.31,11.31,0,0,1-3.75,2.07,15.28,15.28,0,0,1-5.09.79q-6,0-9.4-3.62t-3.37-9.72a16.42,16.42,0,0,1,1.54-7.29,11.32,11.32,0,0,1,4.48-4.9,14.76,14.76,0,0,1,11.61-1,11.93,11.93,0,0,1,3.57,2A9.45,9.45,0,0,1,75,138a5.24,5.24,0,0,1,.77,2.54,2.7,2.7,0,0,1-.87,2,2.91,2.91,0,0,1-2.1.84,2.14,2.14,0,0,1-1.35-.43,7.24,7.24,0,0,1-1.2-1.39,10.08,10.08,0,0,0-2.48-2.8,6,6,0,0,0-7.94,1.39,10.27,10.27,0,0,0-1.75,6.34A12.69,12.69,0,0,0,58.5,150a7.89,7.89,0,0,0,1.3,2.7,5.72,5.72,0,0,0,2.07,1.7,6.21,6.21,0,0,0,2.67.57,5.87,5.87,0,0,0,3.34-.93,8,8,0,0,0,2.46-2.85,6.75,6.75,0,0,1,1.29-1.77,2.42,2.42,0,0,1,1.69-.64,2.48,2.48,0,0,1,2,.94,3,3,0,0,1,.78,2"/><path class="cls-3" d="M98.23,146.35A10.27,10.27,0,0,0,96.48,140a5.61,5.61,0,0,0-4.7-2.28,5.7,5.7,0,0,0-3.35,1,6.37,6.37,0,0,0-2.23,3,12.42,12.42,0,0,0-.79,4.64,12.61,12.61,0,0,0,.77,4.59,6.63,6.63,0,0,0,2.22,3,6,6,0,0,0,8.08-1.25,10.24,10.24,0,0,0,1.75-6.35m6.52,0a16.06,16.06,0,0,1-.91,5.52,12.21,12.21,0,0,1-2.61,4.35,11.67,11.67,0,0,1-4.1,2.79,13.94,13.94,0,0,1-5.35,1,13.75,13.75,0,0,1-5.3-1,11.72,11.72,0,0,1-4.08-2.82,12.14,12.14,0,0,1-2.61-4.32,16.12,16.12,0,0,1-.9-5.51,16.33,16.33,0,0,1,.91-5.58,12.18,12.18,0,0,1,2.59-4.32,11.21,11.21,0,0,1,4.09-2.76,15,15,0,0,1,10.65,0,11.51,11.51,0,0,1,4.12,2.8,12.11,12.11,0,0,1,2.61,4.32,16.49,16.49,0,0,1,.89,5.53"/><path class="cls-3" d="M107.57,155.9V126.82a4.59,4.59,0,0,1,.86-3,2.91,2.91,0,0,1,2.35-1,3,3,0,0,1,2.37,1,4.46,4.46,0,0,1,.91,3.06V155.9a4.46,4.46,0,0,1-.92,3.06,3,3,0,0,1-2.36,1,2.86,2.86,0,0,1-2.32-1.06,4.52,4.52,0,0,1-.89-3"/><path class="cls-3" d="M136.21,146.35a10.33,10.33,0,0,0-1.74-6.39,5.63,5.63,0,0,0-4.7-2.28,5.71,5.71,0,0,0-3.36,1,6.44,6.44,0,0,0-2.23,3,14,14,0,0,0,0,9.23,6.55,6.55,0,0,0,2.21,3,6,6,0,0,0,8.09-1.25,10.3,10.3,0,0,0,1.74-6.35m6.52,0a16.31,16.31,0,0,1-.9,5.52,12.23,12.23,0,0,1-2.62,4.35,11.63,11.63,0,0,1-4.09,2.79,14,14,0,0,1-5.35,1,13.77,13.77,0,0,1-5.31-1,11.72,11.72,0,0,1-4.08-2.82,12.14,12.14,0,0,1-2.61-4.32,16.12,16.12,0,0,1-.9-5.51,16.58,16.58,0,0,1,.91-5.58,12.33,12.33,0,0,1,2.59-4.32,11.3,11.3,0,0,1,4.09-2.76,15.06,15.06,0,0,1,10.66,0,11.68,11.68,0,0,1,4.12,2.8,12.24,12.24,0,0,1,2.6,4.32,16.49,16.49,0,0,1,.89,5.53"/><path class="cls-3" d="M152.06,146.13q0,4.08,1.73,6.16a5.53,5.53,0,0,0,4.46,2.09,5.68,5.68,0,0,0,3.06-.9,6.52,6.52,0,0,0,2.34-2.7,9.72,9.72,0,0,0,.9-4.38A10.27,10.27,0,0,0,162.8,140a5.51,5.51,0,0,0-4.6-2.28,5.35,5.35,0,0,0-4.46,2.18,10,10,0,0,0-1.68,6.22m18.82-8.5V157.1a21,21,0,0,1-.69,5.75,9.37,9.37,0,0,1-2.21,4,9.17,9.17,0,0,1-4,2.33,20.88,20.88,0,0,1-6.12.77,17.48,17.48,0,0,1-6-1,10.33,10.33,0,0,1-4.06-2.51,4.59,4.59,0,0,1-1.43-3.16,2.66,2.66,0,0,1,.81-2,2.7,2.7,0,0,1,1.95-.77,3.17,3.17,0,0,1,2.5,1.3c.35.44.7.89,1.08,1.34a6.34,6.34,0,0,0,1.23,1.15,5,5,0,0,0,1.63.72,9.65,9.65,0,0,0,2.2.23,8.54,8.54,0,0,0,3.91-.73,4.06,4.06,0,0,0,1.95-2,8.37,8.37,0,0,0,.65-2.79c.06-1,.11-2.58.14-4.78a10.77,10.77,0,0,1-3.46,3.29,9.1,9.1,0,0,1-4.67,1.14,9.64,9.64,0,0,1-5.7-1.73,10.94,10.94,0,0,1-3.75-4.81,18.23,18.23,0,0,1-1.3-7.14,17.51,17.51,0,0,1,.79-5.46,11.53,11.53,0,0,1,2.27-4.1,9.9,9.9,0,0,1,3.41-2.52,10.44,10.44,0,0,1,4.23-.84,9.89,9.89,0,0,1,4.78,1.09,11.82,11.82,0,0,1,3.76,3.42v-.9a4,4,0,0,1,.83-2.7,2.7,2.7,0,0,1,2.15-1,2.5,2.5,0,0,1,2.49,1.27,8.6,8.6,0,0,1,.62,3.65"/><path class="cls-3" d="M180.19,136.52V155.9a4.42,4.42,0,0,1-.93,3,3,3,0,0,1-2.35,1,2.88,2.88,0,0,1-2.32-1.06,4.52,4.52,0,0,1-.89-3V136.72a4.34,4.34,0,0,1,.89-3,2.92,2.92,0,0,1,2.32-1,3,3,0,0,1,2.35,1,4,4,0,0,1,.93,2.79M177,129.6a3.38,3.38,0,0,1-2.32-.86,3.43,3.43,0,0,1,0-4.78A3.29,3.29,0,0,1,177,123a3.4,3.4,0,0,1,2.24.83,3,3,0,0,1,1,2.44,3.13,3.13,0,0,1-.95,2.42,3.25,3.25,0,0,1-2.26.87"/><path class="cls-3" d="M207.55,151.68a6,6,0,0,1-.72,2.67,9.26,9.26,0,0,1-2.21,2.72,11.22,11.22,0,0,1-3.75,2.07,15.28,15.28,0,0,1-5.09.79q-6,0-9.4-3.62T183,146.59a16.42,16.42,0,0,1,1.54-7.29,11.26,11.26,0,0,1,4.48-4.9,14.76,14.76,0,0,1,11.61-1,11.93,11.93,0,0,1,3.57,2,9.45,9.45,0,0,1,2.24,2.57,5.24,5.24,0,0,1,.77,2.54,2.7,2.7,0,0,1-.87,2,2.91,2.91,0,0,1-2.1.84,2.14,2.14,0,0,1-1.35-.43,7.24,7.24,0,0,1-1.2-1.39,10.08,10.08,0,0,0-2.48-2.8,6,6,0,0,0-7.94,1.39,10.27,10.27,0,0,0-1.76,6.34A13.09,13.09,0,0,0,190,150a8.09,8.09,0,0,0,1.31,2.7,5.8,5.8,0,0,0,2.07,1.7,6.21,6.21,0,0,0,2.67.57,5.87,5.87,0,0,0,3.34-.93,8,8,0,0,0,2.46-2.85,6.75,6.75,0,0,1,1.29-1.77,2.42,2.42,0,0,1,1.69-.64,2.49,2.49,0,0,1,2,.94,3,3,0,0,1,.78,2"/><path class="cls-3" d="M227.76,146.49a29.77,29.77,0,0,1-4.15,1.15c-1.82.4-3.07.7-3.77.88a5.06,5.06,0,0,0-2,1.11,2.88,2.88,0,0,0-1,2.29,3.42,3.42,0,0,0,1.12,2.59,4,4,0,0,0,2.92,1.07,7.44,7.44,0,0,0,3.56-.87,5.74,5.74,0,0,0,2.39-2.25,10.48,10.48,0,0,0,.88-5Zm.43,9.71a19.92,19.92,0,0,1-4.56,2.83,12.35,12.35,0,0,1-4.93.95,9.09,9.09,0,0,1-4.39-1,7.3,7.3,0,0,1-3.94-6.55,6.9,6.9,0,0,1,1.69-4.69,8.39,8.39,0,0,1,4.64-2.6c.41-.1,1.44-.32,3.07-.66s3-.66,4.19-1,2.43-.63,3.8-1a7.11,7.11,0,0,0-1-3.9c-.61-.82-1.87-1.24-3.79-1.24a7.6,7.6,0,0,0-3.72.72,6,6,0,0,0-2.14,2.13c-.6.95-1,1.58-1.26,1.88a2,2,0,0,1-1.59.45,2.71,2.71,0,0,1-1.89-.72,2.38,2.38,0,0,1-.79-1.85,5.77,5.77,0,0,1,1.21-3.44,8.73,8.73,0,0,1,3.78-2.75,16.61,16.61,0,0,1,6.4-1.08,17.68,17.68,0,0,1,6.73,1,6.34,6.34,0,0,1,3.46,3.3,14.81,14.81,0,0,1,1,6c0,1.57,0,2.9,0,4s0,2.32,0,3.66a13.7,13.7,0,0,0,.61,3.94,13,13,0,0,1,.6,2.64,2.48,2.48,0,0,1-.94,1.88,3.09,3.09,0,0,1-2.13.85,2.86,2.86,0,0,1-2-1,14.4,14.4,0,0,1-2.07-2.81"/><path class="cls-3" d="M238.12,155.9V126.82a4.65,4.65,0,0,1,.86-3,2.91,2.91,0,0,1,2.35-1,3.08,3.08,0,0,1,2.38,1,4.51,4.51,0,0,1,.9,3.06V155.9a4.46,4.46,0,0,1-.92,3.06,3,3,0,0,1-2.36,1,2.88,2.88,0,0,1-2.32-1.06,4.52,4.52,0,0,1-.89-3"/></svg>