<svg id="Layer_1" data-name="Layer 1" xmlns="http://www.w3.org/2000/svg" viewBox="0 0 400 300"><defs><style>.cls-1{fill:#0f2b40;}</style></defs><title>fmfx-logo</title><path class="cls-1" d="M90.43,173.83H45.94V218.6H20V107.37H98.23v19.85H46v26.7H90.44Z"/><path class="cls-1" d="M143.84,107.37l24.9,77.86h.46l25.2-77.86h34.08V218.6H202.59V191l2.45-50.8-.46-.08-26.82,78.45H160.34l-26.51-77.76-.46.08L135.82,191v27.57h-25.9V107.36Z"/><path class="cls-1" d="M271.39,115.38l-12.12,99.89-4.81,26.31a5.45,5.45,0,0,1-2,3.61,6,6,0,0,1-3.66,1.11h-4l16-130.79-14.46-.91c-1.69-.16-2.52-1-2.52-2.51a5.1,5.1,0,0,1,.06-.75c.05-.42.17-1.74.4-4h17.4l1.83-14.46A58,58,0,0,1,268,75.82a40.32,40.32,0,0,1,8.3-12.3,33.12,33.12,0,0,1,11.27-7.39,36.89,36.89,0,0,1,13.56-2.43,32.75,32.75,0,0,1,6.4.63,26,26,0,0,1,5.72,1.77l-1.11,5.5c-.08.83-.65,1.25-1.71,1.25a19.16,19.16,0,0,1-3.55-.45,26.59,26.59,0,0,0-5.26-.46,27.92,27.92,0,0,0-9.79,1.71,22,22,0,0,0-8.23,5.44,32,32,0,0,0-6.18,9.67,52.38,52.38,0,0,0-3.6,14.53L272,107.36h32.26l-1.11,8Z"/><path class="cls-1" d="M326,159.13l-28.06-51.77h8.9a4.35,4.35,0,0,1,2.13.39A3.62,3.62,0,0,1,310.2,109l23.36,44.49a17.21,17.21,0,0,1,1.83-3.06l32.2-41.15a11,11,0,0,1,1.4-1.41,2.48,2.48,0,0,1,1.62-.5H380l-40.76,51.83,31.15,59.36h-8.9a3.72,3.72,0,0,1-2.29-.61,4.53,4.53,0,0,1-1.4-1.84l-26.34-51a13.47,13.47,0,0,1-1.68,3l-37.34,48.19a13.44,13.44,0,0,1-1.63,1.57,3.35,3.35,0,0,1-2.22.66h-8.9Z"/></svg>