<svg id="Layer_1" data-name="Layer 1" xmlns="http://www.w3.org/2000/svg" xmlns:xlink="http://www.w3.org/1999/xlink" viewBox="0 0 400 300"><defs><style>.cls-1{fill:url(#linear-gradient);}.cls-2{fill:url(#linear-gradient-2);}.cls-3{fill:url(#linear-gradient-3);}.cls-4{fill:url(#linear-gradient-4);}.cls-5{fill:url(#linear-gradient-5);}.cls-6{fill:url(#linear-gradient-6);}.cls-7{fill:url(#linear-gradient-7);}.cls-8{fill:#fff;}</style><linearGradient id="linear-gradient" x1="-2312.86" y1="4263.5" x2="-2312.86" y2="4315.18" gradientTransform="matrix(2.61, 0, 0, -2.61, 6123.32, 11343.89)" gradientUnits="userSpaceOnUse"><stop offset="0" stop-color="#0f2b40"/><stop offset="0.32" stop-color="#122d42"/><stop offset="0.51" stop-color="#1a3549"/><stop offset="0.67" stop-color="#284255"/><stop offset="0.8" stop-color="#3c5566"/><stop offset="0.93" stop-color="#566d7c"/><stop offset="1" stop-color="#687d8b"/></linearGradient><linearGradient id="linear-gradient-2" x1="-2273.81" y1="4278.59" x2="-2273.81" y2="4301.3" gradientTransform="matrix(2.61, 0, 0, -2.61, 6123.32, 11343.89)" gradientUnits="userSpaceOnUse"><stop offset="0.44" stop-color="#0f2b40"/><stop offset="1" stop-color="#687d8b"/></linearGradient><linearGradient id="linear-gradient-3" x1="-2260.81" y1="4278.59" x2="-2260.81" y2="4301.3" xlink:href="#linear-gradient-2"/><linearGradient id="linear-gradient-4" x1="-2249.21" y1="4278.58" x2="-2249.21" y2="4301.29" xlink:href="#linear-gradient-2"/><linearGradient id="linear-gradient-5" x1="-2233.61" y1="4278.6" x2="-2233.61" y2="4301.32" xlink:href="#linear-gradient-2"/><linearGradient id="linear-gradient-6" x1="-2217.56" y1="4278.57" x2="-2217.56" y2="4301.29" xlink:href="#linear-gradient-2"/><linearGradient id="linear-gradient-7" x1="-2204.63" y1="4278.59" x2="-2204.63" y2="4301.3" xlink:href="#linear-gradient-2"/></defs><title>fmtrader-logo</title><path class="cls-1" d="M20,206.88V93.12A10.59,10.59,0,0,1,30.55,82.56H144.32a10.58,10.58,0,0,1,10.55,10.56V206.88a10.59,10.59,0,0,1-10.55,10.56H30.55A10.52,10.52,0,0,1,20,206.88Z"/><path class="cls-2" d="M210.59,128.53H193v48.8h-7.42v-48.8H168.12v-5.79h42.47Z"/><path class="cls-3" d="M232.46,143.27l-3.78-.18a8.32,8.32,0,0,0-5,1.41,9.07,9.07,0,0,0-3.13,3.9v29h-7.43V136.72h6.56l.76,5.89a14.66,14.66,0,0,1,4.26-5,10.27,10.27,0,0,1,5.78-1.82,7.74,7.74,0,0,1,1.61.11c.47.11.94.18,1.23.29Z"/><path class="cls-4" d="M263,177.26a28.52,28.52,0,0,1-.58-3.24c-.11-1-.18-1.89-.29-2.84a16.32,16.32,0,0,1-5.42,4.95,13.28,13.28,0,0,1-7.14,2c-4.18,0-7.42-1-9.68-3.24a12,12,0,0,1-3.31-8.91,10.57,10.57,0,0,1,4.73-9.14c3.13-2.18,7.43-3.31,12.74-3.31h8v-4a7.44,7.44,0,0,0-2.19-5.61c-1.42-1.42-3.53-2.07-6.18-2.07a8.8,8.8,0,0,0-5.79,1.82,5.29,5.29,0,0,0-2.18,4.36h-7l-.11-.18c-.18-2.95,1.24-5.6,4.19-8.08s6.73-3.71,11.39-3.71,8.26,1.13,11.1,3.53,4.18,5.72,4.18,10.08v19.51c0,1.42.11,2.84.19,4.18a19.73,19.73,0,0,0,.83,4H263l0-.11Zm-12.26-5.42a12.56,12.56,0,0,0,7.2-2.08,10.41,10.41,0,0,0,4.19-4.73v-6.44H253.9a10.66,10.66,0,0,0-7.13,2.29,6.63,6.63,0,0,0-2.66,5.31,5.46,5.46,0,0,0,1.71,4.26A7.43,7.43,0,0,0,250.77,171.84Z"/><path class="cls-5" d="M277.08,157.79c0-6.55,1.42-11.79,4.19-15.76a13.35,13.35,0,0,1,11.68-6,15,15,0,0,1,6.37,1.35,13.57,13.57,0,0,1,4.73,3.78V118.85h7.42v58.52h-6.08l-.83-5a13.12,13.12,0,0,1-4.84,4.25A15,15,0,0,1,293,178c-5,0-8.84-1.82-11.57-5.42s-4.18-8.26-4.18-14.16v-.65Zm7.42.76c0,4.08.84,7.43,2.48,9.86s4.26,3.72,7.79,3.72a9.11,9.11,0,0,0,5.49-1.53,11.21,11.21,0,0,0,3.71-4.19v-19a10.65,10.65,0,0,0-3.71-4,10.14,10.14,0,0,0-5.42-1.53,8.49,8.49,0,0,0-7.9,4.37c-1.71,2.95-2.54,6.73-2.54,11.39v.84h.1v.07Z"/><path class="cls-6" d="M337.67,178.1c-5.6,0-10.15-1.9-13.5-5.61s-5-8.62-5-14.63v-1.6a21,21,0,0,1,5.13-14.45A16.09,16.09,0,0,1,336.55,136c5.49,0,9.6,1.6,12.44,4.94s4.19,7.68,4.19,13.22v4.65H326.87l-.11.19a16.2,16.2,0,0,0,2.94,9.6,9.51,9.51,0,0,0,8,3.79,19.12,19.12,0,0,0,6.56-1.06,15,15,0,0,0,4.95-3l2.83,4.85a16.76,16.76,0,0,1-5.71,3.6A28,28,0,0,1,337.67,178.1Zm-1.12-36.29a8.21,8.21,0,0,0-6.37,3.13,15,15,0,0,0-3.24,7.79l.11.18h18.7V152a11.23,11.23,0,0,0-2.29-7.21C342,142.79,339.57,141.81,336.55,141.81Z"/><path class="cls-7" d="M379.09,143.27l-3.78-.18a8.3,8.3,0,0,0-4.95,1.41,9.07,9.07,0,0,0-3.13,3.9v29H359.8V136.72h6.55l.77,5.89a14.64,14.64,0,0,1,4.25-5,10.32,10.32,0,0,1,5.79-1.82,7.64,7.64,0,0,1,1.6.11,12.35,12.35,0,0,1,1.24.29Z"/><path class="cls-8" d="M70,155.31H48.2v21.95H35.47V122.74H73.83v9.79H48.2v13.1H70v9.68Z"/><path class="cls-8" d="M96.17,122.74l12.27,38.18h.18L121,122.74h16.82v54.63H125V163.79l1.24-25h-.18l-13.21,38.43h-8.56l-13-38.07h-.18l1.24,24.6v13.58H79.54V122.74Z"/></svg>