<?xml version="1.0" encoding="UTF-8"?>
<svg id="Layer_1" xmlns="http://www.w3.org/2000/svg" version="1.1" viewBox="0 0 360 72.1">
  <!-- Generator: Adobe Illustrator 29.2.1, SVG Export Plug-In . SVG Version: 2.1.0 Build 116)  -->
  <defs>
    <style>
      .st0 {
        fill: #399799;
      }

      .st1 {
        fill: #d1d3d4;
      }

      .st2 {
        isolation: isolate;
      }

      .st3 {
        mix-blend-mode: multiply;
      }

      .st4 {
        fill: #fff;
      }

      .st5 {
        fill: #fafafa;
      }

      .st6 {
        fill: #394240;
      }

      .st7 {
        fill: #5cce7b;
      }
    </style>
  </defs>
  <g class="st2">
    <g id="Layer_11" data-name="Layer_1">
      <path class="st6" d="M76.3,60.3V12.2h3.3v48.1h-3.3Z"/>
      <path class="st6" d="M107.7,61.1c-6.8,0-12.2-2.3-16.3-6.8-4-4.5-6-10.4-6-17.6,0-7.7,2.1-13.8,6.2-18.4,4.1-4.6,9.8-6.9,17-6.9s11.7,2.2,15.8,6.7c4,4.4,6,10.3,6,17.5,0,8-2.1,14.2-6.2,18.8-1.2,1.4-2.7,2.6-4.3,3.6l11.7,8.9h-5.6l-9.1-7.3c-2.9,1.2-6.1,1.7-9.2,1.7ZM108,14.4c-5.3-.1-10.3,2.1-13.8,6.1-3.6,4-5.4,9.3-5.4,15.9,0,6.6,1.7,11.8,5.1,15.8,3.4,3.9,8,5.9,13.7,5.9,6,0,10.7-1.9,14.1-5.8s5.2-9.3,5.2-16.2c0-6.8-1.7-12.1-5.1-15.9s-8-5.7-13.8-5.7Z"/>
      <path class="st6" d="M181.5,60.3v-19.8c0-1.3-.2-2.6-.9-3.7-.7-.9-1.8-1.3-2.9-1.2-1.2,0-2.4.5-3.1,1.5-.8,1.2-1.2,2.7-1.1,4.1v19.1h-14.3v-19.4c0-3.5-1.2-5.3-3.6-5.3-1.3,0-2.5.5-3.3,1.5-.8,1.3-1.2,2.8-1.1,4.4v18.8h-14.3V26h14.3v5.4h.1c.7-1.1,1.5-2.1,2.6-2.9,1.2-1,2.5-1.8,4-2.4,1.5-.6,3.2-.9,4.8-.9,2.1,0,4.3.4,6.2,1.4,1.8,1.1,3.2,2.7,4.1,4.6,1.2-1.9,2.8-3.4,4.8-4.4,2.1-1.1,4.4-1.6,6.7-1.6,3.6,0,6.4,1.2,8.3,3.5s2.9,5.7,2.9,10.2v21.5h-14.2Z"/>
      <path class="st6" d="M219.9,60.3v-5.2h-.1c-2,3.9-6.1,6.3-10.5,6.1-2.8.2-5.6-.9-7.6-2.9-1.9-2.1-2.9-4.9-2.8-7.7,0-6.7,4.1-10.7,12.4-11.7l8.5-1.1c0-1.1-.6-2.2-1.5-2.8-1.2-.8-2.6-1.1-4.1-1.1-4.3.1-8.4,1.2-12.2,3.3v-9.3c2.3-.9,4.6-1.6,7-2,2.4-.5,4.8-.7,7.2-.8,5.8,0,10.1,1.2,12.7,3.7s4,6.7,4,12.5v18.9h-13.1ZM211.4,48.6c0,.9.3,1.7.9,2.3.7.6,1.6,1,2.5.9,1.4,0,2.8-.6,3.6-1.7,1-1.2,1.4-2.7,1.4-4.3v-1.3l-4.8.7c-2.4.4-3.6,1.5-3.6,3.4Z"/>
      <path class="st6" d="M265.9,48.9c.1,3.6-1.5,6.9-4.4,9-3,2.1-7.1,3.2-12.4,3.2-1.9,0-3.8-.2-5.7-.5-1.9-.2-3.7-.6-5.5-1.1v-10c4.2,1.9,7.8,2.8,10.6,2.8s4.2-.7,4.2-2.2c0-.6-.4-1.2-1-1.5-1.6-.8-3.4-1.5-5.1-2-2.5-.6-4.8-2-6.6-3.8-1.4-1.7-2.2-4-2.1-6.2,0-3.3,1.5-6.5,4.2-8.4,2.8-2.1,6.8-3.1,11.9-3.1,3.2,0,6.4.5,9.5,1.3v9.6c-1.5-.6-3-1.1-4.6-1.5-1.4-.4-2.8-.6-4.2-.6-.8,0-1.6.1-2.2.5-.5.2-.8.7-.8,1.3,0,.7.3,1.3.9,1.6,1.1.6,2.4,1.1,3.6,1.4,3.5,1,6,2.4,7.5,4,1.6,1.7,2.4,3.9,2.3,6.2Z"/>
      <path class="st6" d="M294,59.8c-1,.4-2.1.7-3.2.9-1.8.3-3.5.4-5.3.4-4,0-7.1-1.1-9.3-3.3s-3.4-5.3-3.4-9.4v-12.6h-5.4v-9.9h5.4v-6.7l14.1-3.9v10.6h7.1v9.9h-7.1v10.3c0,3,1.2,4.5,3.6,4.5,1.2,0,2.4-.3,3.6-.7v9.9Z"/>
      <path class="st6" d="M309.4,47.2c.3,1.5,1.2,2.8,2.5,3.5,1.8.9,3.8,1.4,5.8,1.3,3.3,0,6.5-.6,9.5-1.9v9c-4,1.5-8.3,2.2-12.6,2.1-6,0-10.7-1.5-14-4.6-3.3-3.1-5-7.3-5-12.6,0-3.4.7-6.7,2.2-9.8,1.5-2.8,3.7-5.1,6.5-6.6,2.9-1.6,6.2-2.4,9.5-2.4,3.2,0,6.3.6,9.1,2.1,2.5,1.3,4.5,3.4,5.8,5.8,1.4,2.7,2.1,5.7,2,8.8v5.4h-21.3ZM318,39.7c0-4-1.4-5.9-4.3-5.9-1.2,0-2.3.6-3,1.6-.9,1.3-1.4,2.8-1.4,4.3h8.7Z"/>
      <path class="st6" d="M360,38.2c-.7-.3-1.4-.5-2.2-.7-.7-.2-1.5-.3-2.3-.3-4.7,0-7.1,2.7-7.1,8.2v14.9h-14.3V26h14.3v6h.1c.7-2,2-3.7,3.7-4.9,1.7-1.1,3.6-1.7,5.6-1.7.7,0,1.4.1,2,.4v12.5Z"/>
      <path class="st5" d="M6.3,62.4c-3.5-.8-5.8-4.3-5-7.8.2-.9.6-1.7,1.1-2.5h.1c0-.1,24-24.9,24-24.9l4.1-18.9c-1.7-.7-2.7-2.5-2.3-4.3.5-2,2.5-3.3,4.5-2.9l13.5,3c2,.4,3.3,2.4,2.9,4.5-.4,1.8-2,3.1-3.9,3l-4.1,18.9,11.4,32.6h0c.7,3.7-1.6,7.1-5.1,7.9-.9.2-1.8.2-2.7,0L6.3,62.4Z"/>
      <path class="st1" d="M51.6,63.4l-11.6-32.9,4.4-20.2h.5c1.4.4,2.8-.5,3.2-1.9h0c.3-1.4-.6-2.8-2-3.2l-3.9-.8c1.4.3,2.3,1.7,2,3.2h0c-.3,1.4-1.7,2.3-3.2,2h-.5c0-.1-4.4,20.1-4.4,20.1l11.5,32.9c.6,2.9-1.3,5.8-4.3,6.4-.7.1-1.5.1-2.2,0l3.9.9c2.9.6,5.8-1.2,6.5-4.1.2-.7.2-1.5,0-2.3Z"/>
      <path class="st6" d="M47.4,12c0,0-.2,0-.2,0l-7.9-1.7c-.6-.2-.9-.8-.7-1.4.2-.5.7-.8,1.2-.8l7.9,1.7c.6.1,1,.7.9,1.3-.1.5-.6.9-1.1.9h0Z"/>
      <path class="st6" d="M46.1,5.2c1.5.2,2.4,1.6,2.2,3.1-.2,1.5-1.6,2.4-3.1,2.2,0,0-.2,0-.3,0h-.5c0-.1-4.4,20.1-4.4,20.1l11.6,32.9c.6,2.9-1.3,5.8-4.3,6.4-.7.1-1.5.1-2.2,0l-19.3-4.2-19.3-4.2c-2.9-.6-4.8-3.5-4.2-6.5.2-.7.5-1.4.9-2l24.2-25,4.4-20.2h-.5c-1.5-.4-2.4-1.7-2.2-3.2s1.6-2.4,3.1-2.2c0,0,.2,0,.3,0l13.5,3M46.5,3.1L33,.1c-2.6-.6-5.2,1.1-5.8,3.7-.4,2,.4,4.1,2.1,5.2l-3.9,17.7L1.7,51.3c0,0-.1.1-.2.2-2.5,3.4-1.8,8.2,1.6,10.7.9.6,1.9,1.1,2.9,1.3l19.3,4.2,19.3,4.2c4.1.9,8.2-1.7,9.1-5.8.2-1,.2-2.1,0-3.2v-.3c0,0-11.4-32.3-11.4-32.3l3.9-17.7c2-.3,3.6-1.8,4.1-3.8.6-2.6-1-5.2-3.6-5.8,0,0,0,0-.1,0h0Z"/>
      <path class="st7" d="M6.3,62.4c-3.5-.8-5.8-4.3-5-7.8.2-.9.6-1.7,1.1-2.5h.1c0-.1,18.4-20.1,25-17.6,2.8,1.1,5.7,5.5,9,7.4,2.7,1.5,5.8,2.2,8.9,2.1.4,0,.7.4.8.7l6.4,18.3h0c.5,2.3-.2,4.6-1.8,6.1-1.6,1.6-3.8,2.2-6,1.7L6.3,62.4Z"/>
      <path class="st6" d="M46.2,72.1c-.6,0-1.1,0-1.6-.2L6,63.5c-4.1-.9-6.7-5-5.8-9.1.2-1,.7-2,1.3-2.9v-.2c2.1-2.1,19.3-20.5,26.3-17.9,1.7.6,3.3,2.2,4.9,3.9,1.3,1.4,2.7,2.6,4.3,3.6,2.6,1.4,5.4,2,8.3,2h.3c.7.2,1.3.7,1.6,1.4l6.5,18.5c.9,4.1-1.8,8.2-5.9,9.1-.5.1-1,.2-1.5.2h0ZM6.5,61.3l38.5,8.4c1.8.4,3.7-.2,5-1.4,1.3-1.3,1.9-3.2,1.5-5l-6.4-18.2c-3.2,0-6.4-.8-9.3-2.3-1.7-1.1-3.3-2.5-4.7-4-1.5-1.5-2.9-2.9-4.1-3.3-4.3-1.6-16.9,9.7-23.8,17.2-1.8,2.4-1.3,5.8,1.2,7.6.6.5,1.3.8,2.1.9h0Z"/>
      <g class="st3">
        <path class="st0" d="M51.6,63.4v-.3c-.1,0-.1,0,0-.1v-.2h0l-.3-.8c0-.1,0-.2-.1-.4l-.2-.4-.2-.6v-.2c0,0-.4-.9-.4-.9v-.2c-.1-.1-.2-.2-.2-.3h0c-.1-.4-.2-.7-.4-1.1v-.3c-.3-.7-.6-1.4-.9-2.2v-.3c-.3-.7-.6-1.3-.8-2l-.3-.9c-.5-1.4-1-2.8-1.5-4.3l-.4-1.1-.2-.6-.3-1-3.8-.9,6.4,18.2c.6,3-1.3,5.8-4.3,6.4-.7.1-1.5.1-2.2,0l3.9.8c3,.6,5.8-1.3,6.4-4.3.1-.7.1-1.5,0-2.2Z"/>
      </g>
      <circle class="st4" cx="24.5" cy="44.7" r="5.1"/>
      <circle class="st4" cx="17.4" cy="52" r="2.8"/>
    </g>
  </g>
</svg>