<svg id="Layer_1" data-name="Layer 1" xmlns="http://www.w3.org/2000/svg" xmlns:xlink="http://www.w3.org/1999/xlink" viewBox="0 0 400 300"><defs><style>.cls-1{fill:url(#linear-gradient);}.cls-2{fill:url(#linear-gradient-2);}.cls-3{fill:#787a89;}</style><linearGradient id="linear-gradient" x1="126.57" y1="125.28" x2="235.36" y2="125.28" gradientUnits="userSpaceOnUse"><stop offset="0" stop-color="#2882dc"/><stop offset="1" stop-color="#146dbd"/></linearGradient><linearGradient id="linear-gradient-2" x1="150.71" y1="125.28" x2="273.43" y2="125.28" xlink:href="#linear-gradient"/></defs><title>lrmobile-logo</title><path class="cls-1" d="M126.57,50h20.32V160.62a19.61,19.61,0,0,0,19.61,19.61H222l13.35,20.33H159.79a33.22,33.22,0,0,1-33.22-33.22Z"/><path class="cls-2" d="M197.39,120.68c33.2.8,51.58-8.16,51.58-26.36q0-9.57-5.32-15.66a27.29,27.29,0,0,0-14.27-8.49c-5.3-1.3-24.15-1.86-36.21-2-1.38,0-30.59,0-30.59,0L150.71,50h64.81q24.35,0,39.65,12.11t15.31,31a39.89,39.89,0,0,1-9.9,26.71q-9.91,11.57-30.88,16.3l43.73,64.43H249.84Z"/><path class="cls-3" d="M129.53,249.32V224.84h5.11v3.77a15,15,0,0,1,3.45-3.38,6.82,6.82,0,0,1,3.78-1.07,7.06,7.06,0,0,1,4.38,1.22,9.18,9.18,0,0,1,2.69,3.88,15.84,15.84,0,0,1,3.73-3.88,7.34,7.34,0,0,1,4.19-1.22,6.79,6.79,0,0,1,5,2.18,7.18,7.18,0,0,1,2.12,5.18v17.8h-5.17V232.85q0-4.07-4-4.06a4.76,4.76,0,0,0-3.89,2.07,8.22,8.22,0,0,0-1.59,5.14v13.32h-5.16V233.54q0-4.81-3.95-4.81a5,5,0,0,0-4,2,7.26,7.26,0,0,0-1.63,4.83v13.8ZM166.74,237a12.18,12.18,0,0,1,4-8.92,12.59,12.59,0,0,1,9.09-3.9A12.82,12.82,0,0,1,189,228a12.15,12.15,0,0,1,3.94,9,12.57,12.57,0,0,1-3.87,9.09,12.19,12.19,0,0,1-8.94,3.93,13.06,13.06,0,0,1-9.42-3.89A12.33,12.33,0,0,1,166.74,237ZM188,237a7.3,7.3,0,0,0-2.37-5.42,7.84,7.84,0,0,0-5.64-2.31,8,8,0,0,0-5.77,2.34,7.47,7.47,0,0,0-2.42,5.57,7.25,7.25,0,0,0,2.45,5.41A8.09,8.09,0,0,0,180,244.9a7.74,7.74,0,0,0,5.61-2.38A7.56,7.56,0,0,0,188,237Zm8.87-26.18H202v18.87a10.4,10.4,0,0,1,9.43-5.52,10.83,10.83,0,0,1,8.23,3.8,12.87,12.87,0,0,1,3.49,9,13.36,13.36,0,0,1-3.43,9.12,10.36,10.36,0,0,1-8,3.9,10.72,10.72,0,0,1-5.58-1.57,11.27,11.27,0,0,1-4.15-4.27v5.16h-5.11ZM217.65,237a7.8,7.8,0,0,0-2.4-5.74,7.93,7.93,0,0,0-5.82-2.39,8.14,8.14,0,0,0-5.71,13.93,8.18,8.18,0,0,0,5.95,2.35,7.61,7.61,0,0,0,5.62-2.4A7.93,7.93,0,0,0,217.65,237Zm8.54-20.18a3.78,3.78,0,0,1,1.19-2.77,3.88,3.88,0,0,1,2.82-1.17,3.95,3.95,0,0,1,0,7.89,3.91,3.91,0,0,1-2.82-1.16A3.76,3.76,0,0,1,226.19,216.8Zm1.46,8h5.1v24.48h-5.1Zm11.1-14h5.16v38.51h-5.16Zm34.62,27.26H252.49a8.18,8.18,0,0,0,3.1,5.51,8.86,8.86,0,0,0,5.26,1.73,9.11,9.11,0,0,0,7.36-3.65l3.77,2.85A13.64,13.64,0,0,1,260.61,250a12.31,12.31,0,0,1-9.13-3.74A12.67,12.67,0,0,1,247.8,237a12.48,12.48,0,0,1,3.72-9,12.63,12.63,0,0,1,18.14.06A13.6,13.6,0,0,1,273.37,238.07ZM253,234h15q-2.49-5-7.36-5A7.8,7.8,0,0,0,253,234Z"/></svg>