<svg id="Layer_1" data-name="Layer 1" xmlns="http://www.w3.org/2000/svg" xmlns:xlink="http://www.w3.org/1999/xlink" viewBox="0 0 400 300"><defs><style>.cls-1{fill:url(#linear-gradient);}.cls-2{fill:url(#linear-gradient-2);}.cls-3{fill:#fff;}</style><linearGradient id="linear-gradient" x1="188.27" y1="185.93" x2="211.12" y2="56.34" gradientUnits="userSpaceOnUse"><stop offset="0" stop-color="#faaa00"/><stop offset="0.5" stop-color="#dc1432"/><stop offset="1" stop-color="#faaa00"/></linearGradient><linearGradient id="linear-gradient-2" x1="293.46" y1="210.1" x2="329.31" y2="174.26" gradientUnits="userSpaceOnUse"><stop offset="0" stop-color="#faaa00"/><stop offset="0.08" stop-color="#f9a601"/><stop offset="0.16" stop-color="#f79906"/><stop offset="0.24" stop-color="#f3850c"/><stop offset="0.33" stop-color="#ed6816"/><stop offset="0.41" stop-color="#e54223"/><stop offset="0.5" stop-color="#dc1532"/><stop offset="0.5" stop-color="#dc1432"/><stop offset="0.5" stop-color="#dc1532"/><stop offset="0.59" stop-color="#e54223"/><stop offset="0.67" stop-color="#ed6816"/><stop offset="0.76" stop-color="#f3850c"/><stop offset="0.84" stop-color="#f79906"/><stop offset="0.92" stop-color="#f9a601"/><stop offset="1" stop-color="#faaa00"/></linearGradient></defs><title>masterprotection-logo</title><path class="cls-1" d="M288.7,137.82V127.4h33.07L310.49,110H288.7v-9.17h15.76l-12-18.33H190.32a39,39,0,0,0-14.42,2.28,22.81,22.81,0,0,0-10.11,7.45,19.26,19.26,0,0,0-3.7,11.92q0,7.3,3.44,11.87a22.93,22.93,0,0,0,8.07,6.9,81.22,81.22,0,0,0,11.62,4.57,52.45,52.45,0,0,1,8.59,3.4,4.46,4.46,0,0,1,2.66,4,3.24,3.24,0,0,1-1.09,2.64,4.33,4.33,0,0,1-2.87.91H169.15L148.76,82.5H122.09l-13.44,36.73V82.5H80.42L64.59,126.77,48.34,82.5H20v73.76H43.13V119.48l11.35,36.78h19.8l11.35-36.78v36.78h33.75L123,145.11h24.58l3.65,11.15h42.19a35.17,35.17,0,0,0,14.9-3.16,22.21,22.21,0,0,0,9.53-7.86,19.77,19.77,0,0,0,3.28-11.16q0-7.2-3.49-11.82c-2.33-3.07-5-3.58-8.13-5.17a89.19,89.19,0,0,0-11.72-4.82,54.87,54.87,0,0,1-8.28-3.4c-3.44-1.68-4.34-8,2.51-8h38.12v55.43h23.12V100.83h12.28v55.43h75l-12-18.44Zm-160-10.11,6.67-20.52L142,127.71ZM380,156.26H348.25L318.05,110h32.12a4.59,4.59,0,0,0,0-9.17H312.07l-12-18.33h58.46c6,0,21.34,6.53,21.34,24.17S358.56,128,358.56,128Z"/><path d="M29.87,198.66V217H20V167.57H38q8.74,0,13.2,4.2t4.45,11.41q0,7.08-4.59,11.28T38,198.66Zm15.76-15.48a7.54,7.54,0,0,0-2-5.67q-2-2-6.65-2H29.87v15.2H37Q45.64,190.75,45.63,183.18Z"/><path d="M83.47,217,71.91,197.75H67.57V217H57.7V167.57H76.54q8.61,0,13.13,4.2a15.78,15.78,0,0,1,1.4,20.45,15.4,15.4,0,0,1-9,5L94.39,217Zm-15.9-26H75.7q8.46,0,8.47-7.5a7.39,7.39,0,0,0-2.07-5.57c-1.37-1.33-3.51-2-6.4-2H67.57Z"/><path d="M132.58,170.09a23.24,23.24,0,0,1,8.89,9,27.85,27.85,0,0,1,0,26.15,23.27,23.27,0,0,1-8.89,9,26.14,26.14,0,0,1-25.14,0,23.3,23.3,0,0,1-8.9-9,27.93,27.93,0,0,1,0-26.15,23.26,23.26,0,0,1,8.9-9,26.07,26.07,0,0,1,25.14,0Zm-20.21,7.84a13.41,13.41,0,0,0-5.14,5.64,20.72,20.72,0,0,0,0,17.16,13.32,13.32,0,0,0,5.14,5.63,15.78,15.78,0,0,0,15.27,0,13.35,13.35,0,0,0,5.15-5.63,20.72,20.72,0,0,0,0-17.16,13.43,13.43,0,0,0-5.15-5.64,15.85,15.85,0,0,0-15.27,0Z"/><path d="M284.84,167.57V217H275V167.57Z"/><path d="M380,217h-9.88L348,183.39V217h-9.87V167.57H348l22.13,33.89V167.57H380Z"/><path d="M205.37,215.65a23.13,23.13,0,0,1-7.16-6.55H184.36V195.79h9c-.11-1.13-.17-2.29-.17-3.47a34.06,34.06,0,0,1,.24-4.09h-9.09V175.41h13.91a23.26,23.26,0,0,1,7.06-6.48,20.92,20.92,0,0,1,2.72-1.36H174.49V217h33.6A23.79,23.79,0,0,1,205.37,215.65Z"/><path d="M233.35,167.57a22.51,22.51,0,0,1,5.25,3.05,22.79,22.79,0,0,1,4.57,4.79H249V217h9.87v-41.6H272.5v-7.84Z"/><path d="M133.42,167.57a22.31,22.31,0,0,1,5.25,3.05,23.1,23.1,0,0,1,4.58,4.79H149V217h9.88v-41.6h13.65v-7.84Z"/><path d="M235.82,171.87a22.58,22.58,0,0,1,8.05,13H233.51a13.63,13.63,0,0,0-5-6.3,14.16,14.16,0,0,0-8.16-2.31,12.91,12.91,0,0,0-12,7.56,21.57,21.57,0,0,0,0,17,12.91,12.91,0,0,0,12,7.56,14.16,14.16,0,0,0,8.16-2.31,13.63,13.63,0,0,0,5-6.3h10.36a22.52,22.52,0,0,1-8.05,12.95q-6.1,4.77-15.34,4.77a24.26,24.26,0,0,1-12.5-3.19,21.7,21.7,0,0,1-8.41-8.93,30.2,30.2,0,0,1,0-26.12,21.81,21.81,0,0,1,8.37-8.93,24.16,24.16,0,0,1,12.54-3.19Q229.72,167.11,235.82,171.87Z"/><path class="cls-2" d="M332.85,179.09a23.3,23.3,0,0,0-8.89-9,26.09,26.09,0,0,0-25.15,0,23.24,23.24,0,0,0-8.89,9,27.85,27.85,0,0,0,0,26.15,23.27,23.27,0,0,0,8.89,9,26.16,26.16,0,0,0,25.15,0,23.34,23.34,0,0,0,8.89-9,27.85,27.85,0,0,0,0-26.15Z"/><path d="M303.75,177.93a13.5,13.5,0,0,0-5.15,5.64,20.82,20.82,0,0,0,0,17.16,13.41,13.41,0,0,0,5.15,5.63,15.78,15.78,0,0,0,15.27,0,13.41,13.41,0,0,0,5.15-5.63,20.82,20.82,0,0,0,0-17.16,13.5,13.5,0,0,0-5.15-5.64,15.85,15.85,0,0,0-15.27,0Z"/><circle class="cls-3" cx="304.22" cy="181.22" r="7.47"/></svg>