<svg id="Layer_1" data-name="Layer 1" xmlns="http://www.w3.org/2000/svg" viewBox="0 0 400 300"><defs><style>.cls-1{opacity:0.5;}.cls-2{fill:#6464ff;opacity:0.11;}.cls-3{fill:#c80064;}</style></defs><title>neatlook-logo</title><g class="cls-1"><path class="cls-2" d="M360.53,149.75c-2.28-.12-4.56-.19-6.84-.19-3.4.5-6.79,1-10.18,1.52l.82-.1c-24.32,1.72-48.61,4-72.9,6.13q-48.18,4.15-96.35,8.3c-28.64,2.44-57.28,4.86-85.94,7-11.92.9-23.86,1.79-35.8,2.43-7.14.38-14.28.73-21.43.5a2.5,2.5,0,0,0-2.47,2.27c.06,1.06,2,3.41,3.17,3.45,8.23.25,16.45-.21,24.66-.69,13.75-.8,27.49-1.82,41.23-2.89,34.49-2.67,69-5.63,103.44-8.6q50.72-4.36,101.43-8.77c12-1,23.91-2.18,35.88-3a78.07,78.07,0,0,0,11.5-1.4l3.59-.61c2.31.17,4.61.39,6.91.68a2.38,2.38,0,0,0,2.56-2.17C363.77,152.53,361.68,149.8,360.53,149.75Z"/><path class="cls-2" d="M355.43,147.87c-7.13.11-14.26.59-21.38,1.17-13.37,1.09-26.74,2.11-40.1,3.27q-51.27,4.47-102.54,8.89c-32.72,2.81-65.45,5.6-98.19,8.11-13.69,1-27.39,2.05-41.09,2.81-8.21.46-16.43,1.09-24.65.84-3.92-.11,1.49,5.57,1.62,5.72q3.42,3.57,7.13,6.83a9,9,0,0,0,4.41,2.82c3.86,0,7.55-.1,11.41-.45,3.65-.33,7.26-.56,10.91-.71,13.23-.53,26.45-1.49,39.65-2.44,34.1-2.47,68.17-5.37,102.23-8.29q49.13-4.2,98.25-8.55c8.09-.72,16.19-1.61,24.29-2.13,5.38-.35,10.77-.37,16.14-.79,4.41-.34,8.74-.68,13.17-.66,3.1,0,6.18.09,9.27.27,3.69.22-.29-5.17-.71-5.79q-2.79-3.93-5.93-7.6A8.64,8.64,0,0,0,355.43,147.87Z"/><path class="cls-2" d="M355.31,134.73c-7.24.14-14.46.7-21.67,1.3-13.41,1.11-26.81,2.18-40.22,3.34q-51.26,4.45-102.52,8.87c-32.73,2.81-65.47,5.61-98.22,8.13-13.71,1-27.42,2.07-41.15,2.84-8.17.47-16.38,1.08-24.57.78a1.35,1.35,0,0,0-1,1.68,5.69,5.69,0,0,0,2.85,2.93,66.38,66.38,0,0,0,6.5,4,5.71,5.71,0,0,0,3.91,1.18c7.32,0,14.58-.84,21.89-1.19,13.27-.64,26.52-1.62,39.77-2.6,34.13-2.54,68.23-5.44,102.33-8.34q49.17-4.19,98.32-8.39c8.11-.69,16.24-1.5,24.36-2,5.52-.37,11.06-.42,16.58-.82a185.36,185.36,0,0,1,23.45-.4,1.36,1.36,0,0,0,1.25-1.52,5.53,5.53,0,0,0-2.37-3.27,64.74,64.74,0,0,0-5.8-4.77A5.57,5.57,0,0,0,355.31,134.73Z"/><path class="cls-2" d="M364,145.91c-7.14.12-14.28.57-21.4,1.14-13.38,1.08-26.75,2.09-40.12,3.25q-51.26,4.45-102.51,8.87c-32.73,2.8-65.46,5.59-98.21,8.1-13.69,1-27.39,2.06-41.11,2.82-8.21.46-16.44,1.1-24.67.87-1,0-1.43.57-1.17,1.58a10.53,10.53,0,0,0,3.88,4.15q4.2,3.38,8.65,6.4a10.48,10.48,0,0,0,5.1,2.51c7.4-.11,14.73-1,22.12-1.32,13.26-.59,26.51-1.56,39.75-2.53,34.12-2.5,68.21-5.4,102.3-8.3q49.13-4.17,98.26-8.41c8.08-.69,16.2-1.56,24.3-2,5.46-.33,10.94-.32,16.39-.7,4.48-.31,8.86-.61,13.34-.51,3.24.07,6.47.19,9.7.4,1,.07,1.48-.41,1.35-1.44a10.26,10.26,0,0,0-3.37-4.53q-3.76-3.81-7.82-7.29A10.41,10.41,0,0,0,364,145.91Z"/><path class="cls-2" d="M361.15,133.32c-5.8.22-11.61.57-17.39,1-12.95,1.06-25.91,2-38.86,3.16q-50.81,4.38-101.61,8.77c-34.47,3-68.93,5.93-103.42,8.56-12.68,1-25.36,1.91-38,2.68-9.17.56-18.41,1.32-27.6,1-1.93-.06-2.67,1.54-1.47,3a21.77,21.77,0,0,0,4.42,2.65A22,22,0,0,0,42,166.08c7.24,0,14.44-.68,21.67-1.06,13.26-.69,26.52-1.68,39.77-2.68,34.13-2.58,68.24-5.49,102.35-8.4q49.22-4.19,98.41-8.37c8.15-.68,16.29-1.44,24.44-2,5.59-.41,11.19-.58,16.78-1a230.35,230.35,0,0,1,23.94-.82c.74,0,1.6,0,2.06-.67.71-1.13-.29-2.19-1.07-2.88a29.86,29.86,0,0,0-4.65-3.22,11.07,11.07,0,0,0-2.31-1.21A2.7,2.7,0,0,0,361.15,133.32Z"/><path class="cls-2" d="M349.38,141.86c-7.15.26-14.29.77-21.41,1.37-13.39,1.13-26.78,2.18-40.17,3.35q-51.27,4.48-102.54,8.9c-32.73,2.81-65.46,5.6-98.2,8.11-13.7,1-27.39,2.06-41.11,2.82-8.18.46-16.39,1.09-24.59.79A1.43,1.43,0,0,0,20,168.63a4.89,4.89,0,0,0,1.92,3.23,54.34,54.34,0,0,0,5,4.78,4.85,4.85,0,0,0,3.32,1.74c7.43.17,14.79-.68,22.21-1,13.22-.56,26.43-1.53,39.63-2.49,34.1-2.49,68.16-5.4,102.23-8.32q49.15-4.22,98.3-8.58c8.11-.72,16.23-1.57,24.35-2.17,5.4-.4,10.82-.49,16.21-.95a215.75,215.75,0,0,1,22.59-.88,1.47,1.47,0,0,0,1.59-1.16,4.58,4.58,0,0,0-1.21-3.4,50.83,50.83,0,0,0-3.94-5.38A4.59,4.59,0,0,0,349.38,141.86Z"/><path class="cls-2" d="M354.91,150.36a82.17,82.17,0,0,0-11.84.81c-5.63.82-11.2,1.18-16.87,1.65-18.76,1.55-37.51,3.24-56.26,4.86q-70.74,6.12-141.48,12.11l.84-.06-10.5.86.83-.07C100,172.11,80.45,173.69,60.84,175c-11.4.76-22.87,1.67-34.3,1.31-1.11,0-2.62.73-2.68,2,0,1,1.73,3.68,2.81,3.72,7.2.24,14.4-.11,21.59-.49,13.38-.71,26.74-1.73,40.09-2.74,27.52-2.1,55-4.42,82.54-6.77q50.49-4.31,101-8.71l45.75-4c5.5-.48,11-1,16.51-1.37l5.63-.4q4.56-.9,9.12-1.74l-.8.07c2.25,0,4.51.08,6.76.21,1.12.05,2.65-.59,2.76-1.91a4.85,4.85,0,0,0-1-2.18A4.64,4.64,0,0,0,354.91,150.36Z"/><path class="cls-2" d="M366.35,142.07c-13.66,1.2-27.37,2-41.05,3.18-25.47,2.13-50.92,4.43-76.38,6.64-53.65,4.65-107.3,9.41-161,13.34l1.23-.09q-22,1.53-43.93,2.61l1.23-.05c-2.15.05-4.29,0-6.44-.07a1.71,1.71,0,0,0-1.76,2.85,21.93,21.93,0,0,0,4.18,3.11,22.07,22.07,0,0,0,4.65,2.35c5.9.05,11.65-.37,17.53-.87l-1.23.1c16.91-.8,33.8-2,50.68-3.29,25.79-2,51.56-4.11,77.34-6.29q41-3.47,82-7c22.94-2,45.87-4.21,68.83-5.77l-1.24.06q6.94-.09,13.84-.79a80.39,80.39,0,0,1,8.19-.52c4.08-.1,8.16-.17,12.24-.07a1.55,1.55,0,0,0,1.21-1.56,4.15,4.15,0,0,0-1.94-2.81,44.13,44.13,0,0,0-5-3.85A4.13,4.13,0,0,0,366.35,142.07Z"/><path class="cls-2" d="M352.82,138.73c-7.2.18-14.39.7-21.57,1.29-13.39,1.09-26.79,2.15-40.18,3.31q-51.26,4.46-102.52,8.88c-32.73,2.81-65.46,5.6-98.22,8.12-13.7,1-27.41,2.06-41.13,2.83-8.19.46-16.4,1.08-24.59.79a1.18,1.18,0,0,0-1.21,1.56,8.24,8.24,0,0,0,3.25,3.81q3.6,3.08,7.48,5.79a8.29,8.29,0,0,0,4.5,2.2c7.42,0,14.75-.92,22.15-1.24,13.25-.58,26.49-1.54,39.72-2.51,34.12-2.49,68.2-5.39,102.28-8.29q49.13-4.19,98.25-8.45c8.08-.7,16.19-1.55,24.29-2,5.43-.33,10.87-.32,16.29-.7,4.46-.32,8.83-.62,13.31-.54,3.15.06,6.29.12,9.44.27,3.74.18-.88-5.25-1.13-5.55q-3-3.52-6.36-6.73A7.93,7.93,0,0,0,352.82,138.73Z"/><path class="cls-2" d="M359.76,138.65c-7.16.28-14.32.76-21.46,1.34-13.38,1.08-26.77,2.13-40.15,3.29q-51.24,4.42-102.49,8.85c-32.73,2.81-65.46,5.6-98.22,8.12-13.71,1.06-27.42,2.07-41.15,2.85-8.2.46-16.42,1.06-24.64.8-1.08.08-1.44.63-1.06,1.65a11.91,11.91,0,0,0,4.48,4.11q4.73,3.32,9.7,6.24a11.92,11.92,0,0,0,5.59,2.39c7.37-.16,14.67-1.06,22-1.4,13.27-.61,26.54-1.58,39.79-2.56,34.13-2.51,68.22-5.41,102.32-8.3q49.13-4.16,98.25-8.32c8.07-.68,16.18-1.52,24.27-2,5.49-.3,11-.27,16.45-.6,4.49-.28,8.88-.52,13.38-.36,3.24.11,6.47.21,9.71.37,1.09.05,1.51-.45,1.26-1.51a11.86,11.86,0,0,0-3.95-4.61q-4.29-3.85-8.86-7.36A11.76,11.76,0,0,0,359.76,138.65Z"/><path class="cls-2" d="M366.81,147.76q-3.72-.6-7.49-.95c-1.06,0-2.11.12-3.17.22-6.36.5-12.72,1.08-19.08,1.64l1-.08c-11.33.72-22.62,1.81-33.93,2.8L262.78,155q-46.12,4-92.28,7.95c-26.52,2.24-53,4.46-79.6,6.39-10.54.77-21.08,1.51-31.64,2-7.18.37-14.33.93-21.52.66a1.91,1.91,0,0,0-2,2.69,12,12,0,0,0,2.81,2.66,12.47,12.47,0,0,0,3.35,1.94c7.3.19,14.54-.45,21.82-.83,11.85-.6,23.68-1.44,35.51-2.32,30.34-2.26,60.65-4.81,91-7.39q48-4.09,95.92-8.27c14.15-1.23,28.3-2.54,42.46-3.71,8.85-.73,17.71-1.27,26.56-2l-1,.08,5.81-.43-1,.07,5.19-.34-1,.05c2.52.5,5,1.05,7.52,1.65a1.85,1.85,0,0,0,2.29-2.45,19.32,19.32,0,0,0-6.05-5.66Z"/><path class="cls-2" d="M349.72,146.07c-7.13.34-14.27.88-21.38,1.49-13.38,1.16-26.77,2.22-40.15,3.39q-51.27,4.49-102.53,8.9c-32.72,2.81-65.45,5.61-98.2,8.12C73.77,169,60.06,170,46.35,170.79c-8.2.46-16.42,1.08-24.63.77a1.58,1.58,0,0,0-1.46,1.32,3.94,3.94,0,0,0,1.36,3,40.33,40.33,0,0,0,4.07,4.5A3.91,3.91,0,0,0,28.56,182c7.42.26,14.78-.49,22.2-.81,13.24-.58,26.48-1.56,39.7-2.53,34.11-2.52,68.19-5.43,102.26-8.36q49.13-4.23,98.23-8.61c8.11-.72,16.22-1.55,24.34-2.21,5.43-.44,10.88-.63,16.3-1.13a210.57,210.57,0,0,1,23-1.22,1.64,1.64,0,0,0,1.66-1.08,3.71,3.71,0,0,0-.81-3.11,37.94,37.94,0,0,0-3.2-4.91A3.72,3.72,0,0,0,349.72,146.07Z"/></g><g class="cls-1"><path class="cls-2" d="M360.53,149.75c-2.28-.12-4.56-.19-6.84-.19-3.4.5-6.79,1-10.18,1.52l.82-.1c-24.32,1.72-48.61,4-72.9,6.13q-48.18,4.15-96.35,8.3c-28.64,2.44-57.28,4.86-85.94,7-11.92.9-23.86,1.79-35.8,2.43-7.14.38-14.28.73-21.43.5a2.5,2.5,0,0,0-2.47,2.27c.06,1.06,2,3.41,3.17,3.45,8.23.25,16.45-.21,24.66-.69,13.75-.8,27.49-1.82,41.23-2.89,34.49-2.67,69-5.63,103.44-8.6q50.72-4.36,101.43-8.77c12-1,23.91-2.18,35.88-3a78.07,78.07,0,0,0,11.5-1.4l3.59-.61c2.31.17,4.61.39,6.91.68a2.38,2.38,0,0,0,2.56-2.17C363.77,152.53,361.68,149.8,360.53,149.75Z"/><path class="cls-2" d="M355.43,147.87c-7.13.11-14.26.59-21.38,1.17-13.37,1.09-26.74,2.11-40.1,3.27q-51.27,4.47-102.54,8.89c-32.72,2.81-65.45,5.6-98.19,8.11-13.69,1-27.39,2.05-41.09,2.81-8.21.46-16.43,1.09-24.65.84-3.92-.11,1.49,5.57,1.62,5.72q3.42,3.57,7.13,6.83a9,9,0,0,0,4.41,2.82c3.86,0,7.55-.1,11.41-.45,3.65-.33,7.26-.56,10.91-.71,13.23-.53,26.45-1.49,39.65-2.44,34.1-2.47,68.17-5.37,102.23-8.29q49.13-4.2,98.25-8.55c8.09-.72,16.19-1.61,24.29-2.13,5.38-.35,10.77-.37,16.14-.79,4.41-.34,8.74-.68,13.17-.66,3.1,0,6.18.09,9.27.27,3.69.22-.29-5.17-.71-5.79q-2.79-3.93-5.93-7.6A8.64,8.64,0,0,0,355.43,147.87Z"/><path class="cls-2" d="M355.31,134.73c-7.24.14-14.46.7-21.67,1.3-13.41,1.11-26.81,2.18-40.22,3.34q-51.26,4.45-102.52,8.87c-32.73,2.81-65.47,5.61-98.22,8.13-13.71,1-27.42,2.07-41.15,2.84-8.17.47-16.38,1.08-24.57.78a1.35,1.35,0,0,0-1,1.68,5.69,5.69,0,0,0,2.85,2.93,66.38,66.38,0,0,0,6.5,4,5.71,5.71,0,0,0,3.91,1.18c7.32,0,14.58-.84,21.89-1.19,13.27-.64,26.52-1.62,39.77-2.6,34.13-2.54,68.23-5.44,102.33-8.34q49.17-4.19,98.32-8.39c8.11-.69,16.24-1.5,24.36-2,5.52-.37,11.06-.42,16.58-.82a185.36,185.36,0,0,1,23.45-.4,1.36,1.36,0,0,0,1.25-1.52,5.53,5.53,0,0,0-2.37-3.27,64.74,64.74,0,0,0-5.8-4.77A5.57,5.57,0,0,0,355.31,134.73Z"/><path class="cls-2" d="M364,145.91c-7.14.12-14.28.57-21.4,1.14-13.38,1.08-26.75,2.09-40.12,3.25q-51.26,4.45-102.51,8.87c-32.73,2.8-65.46,5.59-98.21,8.1-13.69,1-27.39,2.06-41.11,2.82-8.21.46-16.44,1.1-24.67.87-1,0-1.43.57-1.17,1.58a10.53,10.53,0,0,0,3.88,4.15q4.2,3.38,8.65,6.4a10.48,10.48,0,0,0,5.1,2.51c7.4-.11,14.73-1,22.12-1.32,13.26-.59,26.51-1.56,39.75-2.53,34.12-2.5,68.21-5.4,102.3-8.3q49.13-4.17,98.26-8.41c8.08-.69,16.2-1.56,24.3-2,5.46-.33,10.94-.32,16.39-.7,4.48-.31,8.86-.61,13.34-.51,3.24.07,6.47.19,9.7.4,1,.07,1.48-.41,1.35-1.44a10.26,10.26,0,0,0-3.37-4.53q-3.76-3.81-7.82-7.29A10.41,10.41,0,0,0,364,145.91Z"/><path class="cls-2" d="M361.15,133.32c-5.8.22-11.61.57-17.39,1-12.95,1.06-25.91,2-38.86,3.16q-50.81,4.38-101.61,8.77c-34.47,3-68.93,5.93-103.42,8.56-12.68,1-25.36,1.91-38,2.68-9.17.56-18.41,1.32-27.6,1-1.93-.06-2.67,1.54-1.47,3a21.77,21.77,0,0,0,4.42,2.65A22,22,0,0,0,42,166.08c7.24,0,14.44-.68,21.67-1.06,13.26-.69,26.52-1.68,39.77-2.68,34.13-2.58,68.24-5.49,102.35-8.4q49.22-4.19,98.41-8.37c8.15-.68,16.29-1.44,24.44-2,5.59-.41,11.19-.58,16.78-1a230.35,230.35,0,0,1,23.94-.82c.74,0,1.6,0,2.06-.67.71-1.13-.29-2.19-1.07-2.88a29.86,29.86,0,0,0-4.65-3.22,11.07,11.07,0,0,0-2.31-1.21A2.7,2.7,0,0,0,361.15,133.32Z"/><path class="cls-2" d="M349.38,141.86c-7.15.26-14.29.77-21.41,1.37-13.39,1.13-26.78,2.18-40.17,3.35q-51.27,4.48-102.54,8.9c-32.73,2.81-65.46,5.6-98.2,8.11-13.7,1-27.39,2.06-41.11,2.82-8.18.46-16.39,1.09-24.59.79A1.43,1.43,0,0,0,20,168.63a4.89,4.89,0,0,0,1.92,3.23,54.34,54.34,0,0,0,5,4.78,4.85,4.85,0,0,0,3.32,1.74c7.43.17,14.79-.68,22.21-1,13.22-.56,26.43-1.53,39.63-2.49,34.1-2.49,68.16-5.4,102.23-8.32q49.15-4.22,98.3-8.58c8.11-.72,16.23-1.57,24.35-2.17,5.4-.4,10.82-.49,16.21-.95a215.75,215.75,0,0,1,22.59-.88,1.47,1.47,0,0,0,1.59-1.16,4.58,4.58,0,0,0-1.21-3.4,50.83,50.83,0,0,0-3.94-5.38A4.59,4.59,0,0,0,349.38,141.86Z"/><path class="cls-2" d="M354.91,150.36a82.17,82.17,0,0,0-11.84.81c-5.63.82-11.2,1.18-16.87,1.65-18.76,1.55-37.51,3.24-56.26,4.86q-70.74,6.12-141.48,12.11l.84-.06-10.5.86.83-.07C100,172.11,80.45,173.69,60.84,175c-11.4.76-22.87,1.67-34.3,1.31-1.11,0-2.62.73-2.68,2,0,1,1.73,3.68,2.81,3.72,7.2.24,14.4-.11,21.59-.49,13.38-.71,26.74-1.73,40.09-2.74,27.52-2.1,55-4.42,82.54-6.77q50.49-4.31,101-8.71l45.75-4c5.5-.48,11-1,16.51-1.37l5.63-.4q4.56-.9,9.12-1.74l-.8.07c2.25,0,4.51.08,6.76.21,1.12.05,2.65-.59,2.76-1.91a4.85,4.85,0,0,0-1-2.18A4.64,4.64,0,0,0,354.91,150.36Z"/><path class="cls-2" d="M366.35,142.07c-13.66,1.2-27.37,2-41.05,3.18-25.47,2.13-50.92,4.43-76.38,6.64-53.65,4.65-107.3,9.41-161,13.34l1.23-.09q-22,1.53-43.93,2.61l1.23-.05c-2.15.05-4.29,0-6.44-.07a1.71,1.71,0,0,0-1.76,2.85,21.93,21.93,0,0,0,4.18,3.11,22.07,22.07,0,0,0,4.65,2.35c5.9.05,11.65-.37,17.53-.87l-1.23.1c16.91-.8,33.8-2,50.68-3.29,25.79-2,51.56-4.11,77.34-6.29q41-3.47,82-7c22.94-2,45.87-4.21,68.83-5.77l-1.24.06q6.94-.09,13.84-.79a80.39,80.39,0,0,1,8.19-.52c4.08-.1,8.16-.17,12.24-.07a1.55,1.55,0,0,0,1.21-1.56,4.15,4.15,0,0,0-1.94-2.81,44.13,44.13,0,0,0-5-3.85A4.13,4.13,0,0,0,366.35,142.07Z"/><path class="cls-2" d="M352.82,138.73c-7.2.18-14.39.7-21.57,1.29-13.39,1.09-26.79,2.15-40.18,3.31q-51.26,4.46-102.52,8.88c-32.73,2.81-65.46,5.6-98.22,8.12-13.7,1-27.41,2.06-41.13,2.83-8.19.46-16.4,1.08-24.59.79a1.18,1.18,0,0,0-1.21,1.56,8.24,8.24,0,0,0,3.25,3.81q3.6,3.08,7.48,5.79a8.29,8.29,0,0,0,4.5,2.2c7.42,0,14.75-.92,22.15-1.24,13.25-.58,26.49-1.54,39.72-2.51,34.12-2.49,68.2-5.39,102.28-8.29q49.13-4.19,98.25-8.45c8.08-.7,16.19-1.55,24.29-2,5.43-.33,10.87-.32,16.29-.7,4.46-.32,8.83-.62,13.31-.54,3.15.06,6.29.12,9.44.27,3.74.18-.88-5.25-1.13-5.55q-3-3.52-6.36-6.73A7.93,7.93,0,0,0,352.82,138.73Z"/><path class="cls-2" d="M359.76,138.65c-7.16.28-14.32.76-21.46,1.34-13.38,1.08-26.77,2.13-40.15,3.29q-51.24,4.42-102.49,8.85c-32.73,2.81-65.46,5.6-98.22,8.12-13.71,1.06-27.42,2.07-41.15,2.85-8.2.46-16.42,1.06-24.64.8-1.08.08-1.44.63-1.06,1.65a11.91,11.91,0,0,0,4.48,4.11q4.73,3.32,9.7,6.24a11.92,11.92,0,0,0,5.59,2.39c7.37-.16,14.67-1.06,22-1.4,13.27-.61,26.54-1.58,39.79-2.56,34.13-2.51,68.22-5.41,102.32-8.3q49.13-4.16,98.25-8.32c8.07-.68,16.18-1.52,24.27-2,5.49-.3,11-.27,16.45-.6,4.49-.28,8.88-.52,13.38-.36,3.24.11,6.47.21,9.71.37,1.09.05,1.51-.45,1.26-1.51a11.86,11.86,0,0,0-3.95-4.61q-4.29-3.85-8.86-7.36A11.76,11.76,0,0,0,359.76,138.65Z"/><path class="cls-2" d="M366.81,147.76q-3.72-.6-7.49-.95c-1.06,0-2.11.12-3.17.22-6.36.5-12.72,1.08-19.08,1.64l1-.08c-11.33.72-22.62,1.81-33.93,2.8L262.78,155q-46.12,4-92.28,7.95c-26.52,2.24-53,4.46-79.6,6.39-10.54.77-21.08,1.51-31.64,2-7.18.37-14.33.93-21.52.66a1.91,1.91,0,0,0-2,2.69,12,12,0,0,0,2.81,2.66,12.47,12.47,0,0,0,3.35,1.94c7.3.19,14.54-.45,21.82-.83,11.85-.6,23.68-1.44,35.51-2.32,30.34-2.26,60.65-4.81,91-7.39q48-4.09,95.92-8.27c14.15-1.23,28.3-2.54,42.46-3.71,8.85-.73,17.71-1.27,26.56-2l-1,.08,5.81-.43-1,.07,5.19-.34-1,.05c2.52.5,5,1.05,7.52,1.65a1.85,1.85,0,0,0,2.29-2.45,19.32,19.32,0,0,0-6.05-5.66Z"/><path class="cls-2" d="M349.72,146.07c-7.13.34-14.27.88-21.38,1.49-13.38,1.16-26.77,2.22-40.15,3.39q-51.27,4.49-102.53,8.9c-32.72,2.81-65.45,5.61-98.2,8.12C73.77,169,60.06,170,46.35,170.79c-8.2.46-16.42,1.08-24.63.77a1.58,1.58,0,0,0-1.46,1.32,3.94,3.94,0,0,0,1.36,3,40.33,40.33,0,0,0,4.07,4.5A3.91,3.91,0,0,0,28.56,182c7.42.26,14.78-.49,22.2-.81,13.24-.58,26.48-1.56,39.7-2.53,34.11-2.52,68.19-5.43,102.26-8.36q49.13-4.23,98.23-8.61c8.11-.72,16.22-1.55,24.34-2.21,5.43-.44,10.88-.63,16.3-1.13a210.57,210.57,0,0,1,23-1.22,1.64,1.64,0,0,0,1.66-1.08,3.71,3.71,0,0,0-.81-3.11,37.94,37.94,0,0,0-3.2-4.91A3.72,3.72,0,0,0,349.72,146.07Z"/></g><path class="cls-3" d="M223.47,165.39a33,33,0,0,0,.21,4.18,5,5,0,0,0,.86,2.41,3,3,0,0,0,1.85,1.09,13.58,13.58,0,0,0,3.2.18v2.4l-19,1.41v-2.4a14.06,14.06,0,0,0,3.3-.69,4.67,4.67,0,0,0,1.95-1.35,5,5,0,0,0,1-2.37,25.6,25.6,0,0,0,.24-3.9V136.74q0-3.7-.11-6.2a21.43,21.43,0,0,0-.31-3.38,2.51,2.51,0,0,0-1.61-2,12.61,12.61,0,0,0-4.57-.21V122.6l13-3.5Z"/><path class="cls-3" d="M253.76,136.77a19,19,0,0,1,7.42.86,17.62,17.62,0,0,1,6.15,3.42,16.57,16.57,0,0,1,4.19,5.56,17,17,0,0,1,1.55,7.34,19.69,19.69,0,0,1-1.55,7.81,20.82,20.82,0,0,1-4.19,6.35,21.31,21.31,0,0,1-6.15,4.44,20.26,20.26,0,0,1-7.42,2,18.56,18.56,0,0,1-7.31-.87,17,17,0,0,1-6.08-3.5,16.73,16.73,0,0,1-4.12-5.77,18.61,18.61,0,0,1-1.51-7.62,19.08,19.08,0,0,1,1.51-7.59,20,20,0,0,1,4.12-6.22,20.85,20.85,0,0,1,6.08-4.29A20.56,20.56,0,0,1,253.76,136.77Zm0,3.3a10.24,10.24,0,0,0-4.63,1.44,11.51,11.51,0,0,0-3.57,3.39,16.29,16.29,0,0,0-2.27,5,24.06,24.06,0,0,0-.79,6.35,23.71,23.71,0,0,0,.79,6.4,13.75,13.75,0,0,0,2.27,4.74,9,9,0,0,0,8.2,3.61,10.74,10.74,0,0,0,4.74-1.45,11.41,11.41,0,0,0,3.64-3.43,16.74,16.74,0,0,0,2.34-5.12,23.8,23.8,0,0,0,.82-6.44,21.53,21.53,0,0,0-.82-6.19,13.74,13.74,0,0,0-2.34-4.67,9.68,9.68,0,0,0-3.64-2.89A9.51,9.51,0,0,0,253.76,140.07Z"/><path class="cls-3" d="M298.68,133.44a19,19,0,0,1,7.42.85,17.8,17.8,0,0,1,6.15,3.43,16.57,16.57,0,0,1,4.19,5.56,17,17,0,0,1,1.55,7.34,19.72,19.72,0,0,1-1.55,7.81,20.82,20.82,0,0,1-4.19,6.35,21.31,21.31,0,0,1-6.15,4.44,20.05,20.05,0,0,1-7.42,2,18.74,18.74,0,0,1-7.31-.86,17,17,0,0,1-6.08-3.5,16.73,16.73,0,0,1-4.12-5.77,18.64,18.64,0,0,1-1.51-7.62,19.17,19.17,0,0,1,1.51-7.6,20.1,20.1,0,0,1,4.12-6.21,20.95,20.95,0,0,1,13.39-6.21Zm0,3.29a10.37,10.37,0,0,0-4.63,1.45,11.29,11.29,0,0,0-3.57,3.39,16,16,0,0,0-2.27,5,24,24,0,0,0-.79,6.34,23.6,23.6,0,0,0,.79,6.4,13.54,13.54,0,0,0,2.27,4.75,9,9,0,0,0,8.2,3.61,10.74,10.74,0,0,0,4.74-1.45,11.53,11.53,0,0,0,3.64-3.43,16.74,16.74,0,0,0,2.34-5.12,23.82,23.82,0,0,0,.82-6.45,21.58,21.58,0,0,0-.82-6.19,13.93,13.93,0,0,0-2.34-4.67,9.78,9.78,0,0,0-3.64-2.89A9.51,9.51,0,0,0,298.68,136.73Z"/><path class="cls-3" d="M345.18,164.67a15.76,15.76,0,0,0,3.13-.44c.57-.18.86-.38.86-.61a5.42,5.42,0,0,0-1.1-1.91c-.69-.91-1.58-2-2.68-3.23l-7.28-8.26-2.54,2.6v4.05a30,30,0,0,0,.24,4.27,5.58,5.58,0,0,0,.89,2.48,3.07,3.07,0,0,0,1.93,1.13,14.91,14.91,0,0,0,3.33.16v2.41l-19.51,1.44v-2.4a16,16,0,0,0,3.33-.66,4.07,4.07,0,0,0,2-1.38,5.67,5.67,0,0,0,1-2.48,24,24,0,0,0,.27-4V129.05c0-3.47,0-6.11-.1-7.89a7.61,7.61,0,0,0-.72-3.58,2.44,2.44,0,0,0-2.06-1,32.12,32.12,0,0,0-3.85.11v-2.34l13.26-3.59v37.71l6.39-6.73q3.09-3.31,4.6-4.9c1-1.06,1.51-1.84,1.51-2.35s-.48-.87-1.44-1.09a14,14,0,0,0-4.12-.14v-2.41l17.85-1.32V132a15.64,15.64,0,0,0-2.26.31,6.55,6.55,0,0,0-1.82.68,11.89,11.89,0,0,0-1.82,1.27c-.64.53-1.38,1.19-2.2,2l-9.89,9.53L356,160.09a15.29,15.29,0,0,0,1.75,1.76,7,7,0,0,0,1.58,1,6,6,0,0,0,1.72.46,12.68,12.68,0,0,0,2.23,0v2.41l-18.07,1.34Z"/><path class="cls-3" d="M59.06,177.52c0,1.88,0,3.36.13,4.42a5,5,0,0,0,.73,2.42,2.49,2.49,0,0,0,1.71,1,18.69,18.69,0,0,0,3.13.18v2.33l-18,1.34v-2.34a19.63,19.63,0,0,0,3.06-.63A3.31,3.31,0,0,0,51.57,185a5.18,5.18,0,0,0,.79-2.4,40,40,0,0,0,.17-4.13v-9.14a66.32,66.32,0,0,0-.41-9.93A5.6,5.6,0,0,0,51.6,158a1.82,1.82,0,0,0-.92-.83,4.55,4.55,0,0,0-1.58-.29,23,23,0,0,0-2.48.08v-2.2l11-3.43.83,6.74.27,0a21,21,0,0,1,6.12-5.47,17.56,17.56,0,0,1,7.62-2.35,15.18,15.18,0,0,1,5.77.61,8.07,8.07,0,0,1,4,2.52,9.12,9.12,0,0,1,1.65,4,38.06,38.06,0,0,1,.48,6.87v11.47c0,1.88.06,3.35.17,4.42a5.41,5.41,0,0,0,.73,2.41,2.33,2.33,0,0,0,1.68,1,18.37,18.37,0,0,0,3,.19V186l-17.79,1.32V185a14.47,14.47,0,0,0,3-.6,3.26,3.26,0,0,0,1.72-1.26,5.49,5.49,0,0,0,.76-2.43,40.34,40.34,0,0,0,.17-4.1v-9.06A44.56,44.56,0,0,0,77.4,161a12.33,12.33,0,0,0-1.34-4.22,4.9,4.9,0,0,0-2.44-2.19,8,8,0,0,0-3.64-.45,11.17,11.17,0,0,0-5.67,2,12.26,12.26,0,0,0-4,4.73c-.23.47-.42.92-.58,1.35a7.47,7.47,0,0,0-.38,1.47,18.25,18.25,0,0,0-.2,1.9c-.05.72-.07,1.62-.07,2.72Z"/><path class="cls-3" d="M127.4,176.85q-5.84,7.5-14.49,8.15a18.73,18.73,0,0,1-7.35-.8,14.83,14.83,0,0,1-5.67-3.35,15.3,15.3,0,0,1-3.67-5.57,20.06,20.06,0,0,1-1.31-7.42A22.41,22.41,0,0,1,96.28,160a19.43,19.43,0,0,1,3.89-6.4,20,20,0,0,1,6-4.42,20.31,20.31,0,0,1,7.59-2q6.66-.49,10.3,2.84t3.64,10.07c0,.64-.12,1-.37,1.19a4.71,4.71,0,0,1-1.76.34L103,163.28a8.36,8.36,0,0,0-.21,1.35c0,.53-.07,1.12-.07,1.76a22.44,22.44,0,0,0,.86,6.43,13.48,13.48,0,0,0,2.47,4.79,10.18,10.18,0,0,0,3.85,2.91,10.31,10.31,0,0,0,5,.76,12.19,12.19,0,0,0,5.36-1.66,20.54,20.54,0,0,0,5.08-4.54Zm-11.33-17.71c.91-.06,1.64-.14,2.19-.23a3.77,3.77,0,0,0,1.24-.36,1.15,1.15,0,0,0,.55-.63,3.08,3.08,0,0,0,.14-1,6.11,6.11,0,0,0-2-4.9,7.34,7.34,0,0,0-5.53-1.48q-7.41.56-9.2,9.54Z"/><path class="cls-3" d="M154.87,157.91V155.1q0-8.39-7.14-7.85a8.09,8.09,0,0,0-2,.35,3.6,3.6,0,0,0-1.38.79,5.1,5.1,0,0,0-1,1.45,15.65,15.65,0,0,0-.86,2.26,7.74,7.74,0,0,1-1.48,2.75,3.25,3.25,0,0,1-2.09.81q-3.44.26-3.44-3.18T139,147.1c2.33-1.38,5.65-2.24,10-2.55,4.57-.34,7.83.23,9.75,1.71s2.88,4.17,2.88,8.06v15.39q0,7.83,3.1,7.6a7.25,7.25,0,0,0,1.85-.38,2.84,2.84,0,0,0,1.51-1.38l1,1.58a7,7,0,0,1-3,2.86,11,11,0,0,1-4.6,1.41,4.94,4.94,0,0,1-4.5-1.59,8.23,8.23,0,0,1-1.48-5.32l-.34,0a15.22,15.22,0,0,1-5,5.69,13.86,13.86,0,0,1-7,2.48c-2.89.21-5.15-.35-6.8-1.7a7,7,0,0,1-2.47-5.72,9,9,0,0,1,.58-3.2,9.75,9.75,0,0,1,1.89-3,19.86,19.86,0,0,1,3.43-3A47.41,47.41,0,0,1,145,163Zm0,3a68.32,68.32,0,0,0-6.63,3.44,26.53,26.53,0,0,0-4.36,3.21,10.74,10.74,0,0,0-2.37,3.06,6.89,6.89,0,0,0-.72,3,4.55,4.55,0,0,0,1.51,3.59,5.21,5.21,0,0,0,4,1.15,7,7,0,0,0,3.33-1.14,10.12,10.12,0,0,0,2.71-2.64,13.47,13.47,0,0,0,1.86-3.78,14.82,14.82,0,0,0,.68-4.48Z"/><path class="cls-3" d="M171.7,147.87v-2.54a29.57,29.57,0,0,0,5.7-4.68,15.73,15.73,0,0,0,3.16-5.32l2-.15v8.66l9.21-.68v3.22l-9.21.69V168a28.28,28.28,0,0,0,.24,4,7.56,7.56,0,0,0,.79,2.59,2.84,2.84,0,0,0,1.45,1.3,5.2,5.2,0,0,0,2.26.24,5.84,5.84,0,0,0,2.92-.93,9.09,9.09,0,0,0,2.37-2.62l1.72,1.18a8.11,8.11,0,0,1-3.33,4.13,12.43,12.43,0,0,1-5.88,1.77q-4.53.35-6.9-1.65c-1.58-1.32-2.37-3.34-2.37-6V147.57Z"/><polygon class="cls-3" points="198.75 160.72 202.4 166.58 206.05 160.18 202.4 154.33 198.75 160.72"/></svg>