<svg id="Layer_1" data-name="Layer 1" xmlns="http://www.w3.org/2000/svg" xmlns:xlink="http://www.w3.org/1999/xlink" viewBox="0 0 400 300"><defs><style>.cls-1{fill:url(#linear-gradient);}.cls-2{fill:url(#linear-gradient-6);}.cls-3{fill:url(#linear-gradient-9);}.cls-4{fill:#005a82;}.cls-5{fill:#fff;}.cls-6,.cls-7{fill:#d150a9;stroke:#763e92;stroke-linecap:round;stroke-linejoin:round;}.cls-6{stroke-width:1.37px;}.cls-7{stroke-width:1.12px;}</style><linearGradient id="linear-gradient" x1="20" y1="199.18" x2="380" y2="199.18" gradientUnits="userSpaceOnUse"><stop offset="0" stop-color="#d150a9"/><stop offset="1" stop-color="#005a82"/></linearGradient><linearGradient id="linear-gradient-6" x1="20" y1="199.57" x2="380" y2="199.57" xlink:href="#linear-gradient"/><linearGradient id="linear-gradient-9" x1="20" y1="199" x2="380" y2="199" xlink:href="#linear-gradient"/></defs><title>noyhouzer-logo</title><path class="cls-1" d="M20,223.41V174.94h7l15.46,24.45a157.61,157.61,0,0,1,8.7,15.83l.15-.08c-.58-6.47-.73-12.37-.73-19.85V174.94h5.9v48.47H50.13L34.74,198.82a155.34,155.34,0,0,1-9.06-16.18l-.21.07c.36,6.11.5,11.94.5,20v20.71Z"/><path class="cls-1" d="M106,199.11c0,16.11-10.29,25.1-22.51,25.1-13.09,0-21.79-10.29-21.79-24.74,0-14.89,9.28-25.32,22.65-25.32C98.11,174.15,106,185.08,106,199.11Zm-37.61.14c0,11,5.6,19.85,15.46,19.85,10.21,0,15.53-9.28,15.53-19.85,0-9.93-4.82-20-15.46-20C73.8,179.26,68.34,188.32,68.34,199.25Z"/><path class="cls-1" d="M120,223.41V202.92l-15.32-28h7.12l6.83,13.38c1.87,3.74,3.31,6.69,4.82,10h.14c1.3-3.16,3-6.32,4.9-10l7-13.38h7.05l-16.18,27.83v20.64Z"/><path class="cls-1" d="M151,174.94v20.35h23.45V174.94h6.25v48.47h-6.25V200.69H151v22.72h-6.33V174.94Z"/><path class="cls-1" d="M230.17,199.11c0,16.11-10.28,25.1-22.51,25.1-13.09,0-21.79-10.29-21.79-24.74,0-14.89,9.28-25.32,22.65-25.32C222.33,174.15,230.17,185.08,230.17,199.11Zm-37.61.14c0,11,5.61,19.85,15.46,19.85,10.21,0,15.53-9.28,15.53-19.85,0-9.93-4.81-20-15.46-20C198,179.26,192.56,188.32,192.56,199.25Z"/><path class="cls-2" d="M241.68,174.94v28.84c0,10.72,4.75,15.32,11.29,15.32,7.13,0,11.8-4.75,11.8-15.32V174.94H271v28.34c0,14.88-7.77,20.93-18.27,20.93-9.93,0-17.41-5.61-17.41-20.64V174.94Z"/><path class="cls-1" d="M275.78,219.82l26.82-39.41v-.22H278.08v-5.25H310.8v3.81L284.05,218v.21h27.11v5.25H275.78Z"/><path class="cls-1" d="M341,200.69H322.24v17.55h21v5.17H315.91V174.94h26.26v5.18H322.24v15.39H341Z"/><path class="cls-3" d="M348.35,175.59a66.39,66.39,0,0,1,12.09-1c6.69,0,11,1.22,14,4a12.28,12.28,0,0,1,3.81,9.2c0,6.4-4,10.65-9.13,12.37v.15c3.74,1.36,6,4.89,7.12,9.85,1.58,6.83,2.73,11.43,3.74,13.3h-6.47c-.79-1.36-1.87-5.53-3.24-11.57-1.44-6.62-4-9.21-9.71-9.43h-5.9v21h-6.33Zm6.33,22.08h6.41c6.68,0,10.93-3.67,10.93-9.21,0-6.33-4.53-9-11.15-9.06a25.79,25.79,0,0,0-6.19.57Z"/><path class="cls-4" d="M83.65,259.83a13.38,13.38,0,0,1-5.49,1c-5.85,0-10.26-3.7-10.26-10.52,0-6.5,4.41-10.91,10.85-10.91a11.15,11.15,0,0,1,4.93.92L83,242.5a9.77,9.77,0,0,0-4.19-.86c-4.87,0-8.11,3.11-8.11,8.57,0,5.09,2.93,8.36,8,8.36a10.58,10.58,0,0,0,4.37-.87Z"/><path class="cls-4" d="M86.92,238.62h2.71v9.31h.06A5,5,0,0,1,91.63,246a5.62,5.62,0,0,1,2.78-.77c2,0,5.21,1.23,5.21,6.38v8.88H96.9v-8.57c0-2.41-.89-4.44-3.45-4.44a3.9,3.9,0,0,0-3.64,2.71,3.38,3.38,0,0,0-.18,1.3v9H86.92Z"/><path class="cls-4" d="M105.53,253.54c.06,3.67,2.41,5.18,5.12,5.18a9.85,9.85,0,0,0,4.13-.77l.47,1.94a12.12,12.12,0,0,1-5,.93c-4.59,0-7.34-3-7.34-7.53s2.65-8,7-8c4.87,0,6.17,4.28,6.17,7a10.56,10.56,0,0,1-.09,1.26Zm8-1.94c0-1.73-.71-4.41-3.76-4.41-2.75,0-4,2.53-4.17,4.41Z"/><path class="cls-4" d="M119.47,249.63c0-1.55,0-2.81-.13-4h2.38l.12,2.4h.09a5.15,5.15,0,0,1,4.69-2.74,4.39,4.39,0,0,1,4.22,3h.07a6.18,6.18,0,0,1,1.66-1.94,5.08,5.08,0,0,1,3.3-1.05c2,0,4.9,1.29,4.9,6.47v8.79h-2.65v-8.45c0-2.87-1.05-4.59-3.24-4.59a3.5,3.5,0,0,0-3.2,2.46,4.31,4.31,0,0,0-.22,1.36v9.22h-2.65v-8.94c0-2.38-1-4.1-3.12-4.1a3.71,3.71,0,0,0-3.36,2.71,3.83,3.83,0,0,0-.21,1.33v9h-2.65Z"/><path class="cls-4" d="M148.2,241.39a1.68,1.68,0,0,1-3.36,0,1.65,1.65,0,0,1,1.69-1.69A1.61,1.61,0,0,1,148.2,241.39Zm-3,19.12V245.59h2.72v14.92Z"/><path class="cls-4" d="M163,260a10,10,0,0,1-4.29.87c-4.5,0-7.43-3.05-7.43-7.62a7.59,7.59,0,0,1,8-7.92,9.08,9.08,0,0,1,3.76.77l-.62,2.1a6.28,6.28,0,0,0-3.14-.71c-3.43,0-5.28,2.52-5.28,5.64,0,3.45,2.22,5.58,5.18,5.58a7.7,7.7,0,0,0,3.33-.74Z"/><path class="cls-4" d="M174.46,260.51l-.21-1.88h-.1a5.55,5.55,0,0,1-4.56,2.22,4.25,4.25,0,0,1-4.56-4.29c0-3.61,3.2-5.58,9-5.55v-.31c0-1.23-.34-3.45-3.39-3.45a7.44,7.44,0,0,0-3.89,1.11l-.61-1.79a9.26,9.26,0,0,1,4.9-1.32c4.56,0,5.67,3.11,5.67,6.1v5.58a20.51,20.51,0,0,0,.25,3.58Zm-.4-7.62c-3-.06-6.32.47-6.32,3.36a2.4,2.4,0,0,0,2.56,2.59,3.7,3.7,0,0,0,3.6-2.49,2.67,2.67,0,0,0,.16-.87Z"/><path class="cls-4" d="M181.05,238.62h2.72v21.89h-2.72Z"/><path class="cls-4" d="M209.48,259.83a13.38,13.38,0,0,1-5.49,1c-5.85,0-10.27-3.7-10.27-10.52,0-6.5,4.42-10.91,10.86-10.91a11.15,11.15,0,0,1,4.93.92l-.65,2.19a9.77,9.77,0,0,0-4.19-.86c-4.87,0-8.11,3.11-8.11,8.57,0,5.09,2.93,8.36,8,8.36a10.58,10.58,0,0,0,4.37-.87Z"/><path class="cls-4" d="M225.91,252.92c0,5.52-3.82,7.93-7.43,7.93-4,0-7.15-3-7.15-7.68,0-5,3.27-7.92,7.4-7.92C223,245.25,225.91,248.36,225.91,252.92Zm-11.84.16c0,3.27,1.88,5.73,4.53,5.73s4.54-2.43,4.54-5.79c0-2.53-1.27-5.74-4.47-5.74S214.07,250.24,214.07,253.08Z"/><path class="cls-4" d="M229.33,249.63c0-1.55,0-2.81-.13-4h2.41l.16,2.46h.06a5.47,5.47,0,0,1,4.93-2.8c2.07,0,5.27,1.23,5.27,6.35v8.91h-2.71v-8.6c0-2.41-.89-4.41-3.45-4.41a3.85,3.85,0,0,0-3.64,2.77,3.73,3.73,0,0,0-.19,1.27v9h-2.71Z"/><path class="cls-4" d="M246.07,257.73a7.05,7.05,0,0,0,3.58,1.08c2,0,2.89-1,2.89-2.22s-.77-2-2.77-2.74c-2.68-1-4-2.44-4-4.22,0-2.41,1.94-4.38,5.15-4.38a7.49,7.49,0,0,1,3.67.92l-.68,2a5.83,5.83,0,0,0-3.05-.87c-1.61,0-2.5.93-2.5,2s.89,1.78,2.84,2.53c2.59,1,3.91,2.28,3.91,4.5,0,2.62-2,4.47-5.58,4.47a8.48,8.48,0,0,1-4.19-1Z"/><path class="cls-4" d="M271.13,256.44c0,1.54,0,2.9.12,4.07h-2.4l-.16-2.44h-.06a5.6,5.6,0,0,1-4.93,2.78c-2.34,0-5.15-1.3-5.15-6.54v-8.72h2.71v8.26c0,2.84.87,4.75,3.33,4.75a3.93,3.93,0,0,0,3.58-2.47,4,4,0,0,0,.25-1.39v-9.15h2.71Z"/><path class="cls-4" d="M275.63,238.62h2.71v21.89h-2.71Z"/><path class="cls-4" d="M286.17,241.3v4.29h3.89v2.06h-3.89v8c0,1.85.53,2.9,2,2.9a5.72,5.72,0,0,0,1.57-.19l.12,2a6.76,6.76,0,0,1-2.4.37,3.76,3.76,0,0,1-2.93-1.14c-.77-.81-1.05-2.13-1.05-3.89v-8.14h-2.31v-2.06h2.31V242Z"/><path class="cls-4" d="M301.37,260.51l-.22-1.88h-.09a5.55,5.55,0,0,1-4.56,2.22,4.26,4.26,0,0,1-4.57-4.29c0-3.61,3.21-5.58,9-5.55v-.31c0-1.23-.34-3.45-3.39-3.45a7.44,7.44,0,0,0-3.89,1.11l-.62-1.79a9.3,9.3,0,0,1,4.91-1.32c4.56,0,5.67,3.11,5.67,6.1v5.58a20.51,20.51,0,0,0,.25,3.58Zm-.4-7.62c-3-.06-6.32.47-6.32,3.36a2.4,2.4,0,0,0,2.56,2.59,3.7,3.7,0,0,0,3.6-2.49,2.67,2.67,0,0,0,.16-.87Z"/><path class="cls-4" d="M308,249.63c0-1.55,0-2.81-.12-4h2.41l.15,2.46h.06a5.48,5.48,0,0,1,4.93-2.8c2.07,0,5.28,1.23,5.28,6.35v8.91H318v-8.6c0-2.41-.89-4.41-3.45-4.41a3.85,3.85,0,0,0-3.64,2.77,4,4,0,0,0-.18,1.27v9H308Z"/><path class="cls-4" d="M328.22,241.3v4.29h3.88v2.06h-3.88v8c0,1.85.52,2.9,2,2.9a5.61,5.61,0,0,0,1.57-.19l.13,2a6.8,6.8,0,0,1-2.4.37,3.74,3.74,0,0,1-2.93-1.14c-.78-.81-1.05-2.13-1.05-3.89v-8.14h-2.32v-2.06h2.32V242Z"/><path class="cls-5" d="M241.92,60.07l-16.53-9.55-15.56-9a2.42,2.42,0,0,0-3.31.88l-1.45,2.52a2.42,2.42,0,0,0,.88,3.31l2.68,1.54-59,102.15a15.23,15.23,0,0,0,5.28,20.62h0l.3.19a15.24,15.24,0,0,0,20.82-5.58L235,65l3,1.75a2.42,2.42,0,0,0,3.3-.89l1.46-2.52A2.42,2.42,0,0,0,241.92,60.07Z"/><path class="cls-4" d="M154.2,174.53a2.29,2.29,0,0,1-.29-.18,17.4,17.4,0,0,1-6-23.44L205.81,50.55l-.89-.52a4.48,4.48,0,0,1-1.64-6.12l1.45-2.52a4.5,4.5,0,0,1,6.13-1.64L243,58.28a4.48,4.48,0,0,1,1.64,6.12l-1.45,2.52A4.48,4.48,0,0,1,237,68.56l-1.25-.72L177.83,168.2A17.32,17.32,0,0,1,154.2,174.53ZM208.8,43.32a.37.37,0,0,0-.5.13L206.85,46a.36.36,0,0,0,.13.49L211.44,49,151.44,153A13.24,13.24,0,0,0,156,170.79l.22.15h0a13.19,13.19,0,0,0,18-4.8l60-103.93L239.08,65a.36.36,0,0,0,.49-.13L241,62.34a.36.36,0,0,0-.13-.49Z"/><path class="cls-6" d="M214.4,68.34c-7.74,2.92-11.33.09-11.33.09l-48.53,82.89c-3.3,5.73-1.85,12.77,3.23,15.88l.21.14c5.26,3,12.24.78,15.6-5,0,0,48.67-84.09,54.38-93.92C228,64.75,221.54,65.65,214.4,68.34Zm1.38,11.88a3.43,3.43,0,1,1,3.43-3.43A3.43,3.43,0,0,1,215.78,80.22Zm-10.19,8.06A4.46,4.46,0,1,1,210,83.83,4.45,4.45,0,0,1,205.59,88.28Z"/><path class="cls-7" d="M254.33,43.83c.73,1.83-3.41,4.55-6.42,5.75s-11.88,2.84-12.61,1,7-6.45,10-7.64S253.6,42,254.33,43.83Z"/><circle class="cls-7" cx="214.13" cy="58.67" r="3.86"/></svg>