<?xml version="1.0" encoding="utf-8"?>
<!-- Generator: Adobe Illustrator 28.2.0, SVG Export Plug-In . SVG Version: 6.00 Build 0)  -->
<svg version="1.1" id="Layer_2_00000127728220822053439310000014879719116146790589_"
	 xmlns="http://www.w3.org/2000/svg" xmlns:xlink="http://www.w3.org/1999/xlink" x="0px" y="0px" viewBox="0 0 1920 1080"
	 style="enable-background:new 0 0 1920 1080;" xml:space="preserve">
<g>
	<path d="M1061.8,42.6h-4.8v-3.9h-9.6v-7.8c1.3,0,2.5,0,3.7,0c0.7,0,0.9-0.2,0.9-0.9c-0.1-1,0-2,0-3.2h5v-3.9h4.8V19h9.3v3.8h4.8
		v3.9h4.9v4h4.8v7.8c-1.2,0-2.3,0-3.4,0c-1.8,0-3.6,0-5.4,0c-0.7,0-1,0.2-0.9,0.9c0.1,1,0,1.9,0,3.1h-4.8l0,0v-4c-3.1,0-6,0-8.9,0
		c-0.2,0-0.5,0.4-0.5,0.6C1061.8,40.4,1061.8,41.5,1061.8,42.6L1061.8,42.6L1061.8,42.6z M1057,30.8c0,1.2,0,2.3,0,3.4
		c0,0.2,0.3,0.4,0.4,0.4c1.4,0,2.9,0,4.3,0v-3.8L1057,30.8L1057,30.8z M1071.2,34.7c1.5,0,2.9,0,4.2,0c0.2,0,0.5-0.3,0.5-0.5
		c0.1-1,0-1.9,0-2.9c0-0.2-0.2-0.5-0.4-0.5c-1.5,0-2.9,0-4.4,0L1071.2,34.7L1071.2,34.7z"/>
	<path d="M1071.2,42.6v3.9c-0.4,0-0.7,0-1,0c-2.4,0-4.8,0-7.3,0c-0.3,0-0.7,0.1-1,0.1l0,0c0-1.4,0-2.7-0.1-4.1l0,0
		C1064.9,42.6,1068.1,42.6,1071.2,42.6L1071.2,42.6L1071.2,42.6z"/>
	<path d="M1052,42.6h4.9v3.9c-1.3,0-2.7,0-4,0c-0.7,0-1,0.2-1,0.9c0.1,1,0,1.9,0,2.9h-4.5v-3.8c1.2,0,2.4-0.1,3.5,0
		c0.9,0.1,1.1-0.3,1-1.1C1052,44.6,1052,43.6,1052,42.6L1052,42.6z"/>
	<path d="M1076.1,46.7c-0.1-1.3-0.1-2.6-0.2-4h4.9v3.8c-1.2,0-2.5,0-3.7,0C1076.8,46.5,1076.5,46.6,1076.1,46.7L1076.1,46.7z"/>
	<path d="M1085.7,46.6c0,1.2,0,2.3,0,3.3c0,0.2-0.4,0.5-0.5,0.5c-1.2,0-2.4,0-3.6,0c-0.2,0-0.6-0.3-0.6-0.5c-0.1-1.1,0-2.2,0-3.4
		L1085.7,46.6L1085.7,46.6z"/>
	<path d="M1076.1,46.6c-0.1,0.8-0.1,1.5-0.2,2.3c0,0.4,0,0.9,0,1.4h-4.7v-3.7C1072.9,46.7,1074.5,46.7,1076.1,46.6L1076.1,46.6
		L1076.1,46.6z"/>
	<path d="M1061.9,46.6c0,1-0.1,2.1-0.1,3.1c0,0.5-0.1,0.7-0.6,0.6c-1.3,0-2.6,0-4,0v-3.8C1058.7,46.7,1060.3,46.7,1061.9,46.6
		L1061.9,46.6z"/>
</g>
<g>
	<path d="M522.3,42.6h-4.8v-3.9h-9.6v-7.8c1.3,0,2.5,0,3.7,0c0.7,0,0.9-0.2,0.9-0.9c-0.1-1,0-2,0-3.2h5v-3.9h4.8V19h9.3v3.8h4.8v3.9
		h4.9v4h4.8v7.8c-1.2,0-2.3,0-3.4,0c-1.8,0-3.6,0-5.4,0c-0.7,0-1,0.2-0.9,0.9c0.1,1,0,1.9,0,3.1h-4.8l0,0v-4c-3.1,0-6,0-8.9,0
		c-0.2,0-0.5,0.4-0.5,0.6C522.2,40.4,522.3,41.5,522.3,42.6L522.3,42.6L522.3,42.6z M517.5,30.8c0,1.2,0,2.3,0,3.4
		c0,0.2,0.3,0.4,0.4,0.4c1.4,0,2.9,0,4.3,0v-3.8L517.5,30.8L517.5,30.8z M531.7,34.7c1.5,0,2.9,0,4.2,0c0.2,0,0.5-0.3,0.5-0.5
		c0.1-1,0-1.9,0-2.9c0-0.2-0.2-0.5-0.4-0.5c-1.5,0-2.9,0-4.4,0L531.7,34.7L531.7,34.7z"/>
	<path d="M531.6,42.6v3.9c-0.4,0-0.7,0-1,0c-2.4,0-4.8,0-7.3,0c-0.3,0-0.7,0.1-1,0.1l0,0c0-1.4,0-2.7-0.1-4.1l0,0
		C525.4,42.6,528.5,42.6,531.6,42.6L531.6,42.6L531.6,42.6z"/>
	<path d="M512.5,42.6h4.9v3.9c-1.3,0-2.7,0-4,0c-0.7,0-1,0.2-1,0.9c0.1,1,0,1.9,0,2.9h-4.5v-3.8c1.2,0,2.4-0.1,3.5,0
		c0.9,0.1,1.1-0.3,1-1.1C512.4,44.6,512.5,43.6,512.5,42.6L512.5,42.6z"/>
	<path d="M536.6,46.7c-0.1-1.3-0.1-2.6-0.2-4h4.9v3.8c-1.2,0-2.5,0-3.7,0C537.3,46.5,536.9,46.6,536.6,46.7L536.6,46.7z"/>
	<path d="M546.2,46.6c0,1.2,0,2.3,0,3.3c0,0.2-0.4,0.5-0.5,0.5c-1.2,0-2.4,0-3.6,0c-0.2,0-0.6-0.3-0.6-0.5c-0.1-1.1,0-2.2,0-3.4
		L546.2,46.6L546.2,46.6z"/>
	<path d="M536.6,46.6c-0.1,0.8-0.1,1.5-0.2,2.3c0,0.4,0,0.9,0,1.4h-4.7v-3.7C533.3,46.7,535,46.7,536.6,46.6L536.6,46.6L536.6,46.6z
		"/>
	<path d="M522.3,46.6c0,1-0.1,2.1-0.1,3.1c0,0.5-0.1,0.7-0.6,0.6c-1.3,0-2.6,0-4,0v-3.8C519.2,46.7,520.8,46.7,522.3,46.6
		L522.3,46.6z"/>
</g>
<g>
	<path d="M1881,42.6h-4.8v-3.9h-9.6v-7.8c1.3,0,2.5,0,3.7,0c0.7,0,0.9-0.2,0.9-0.9c-0.1-1,0-2,0-3.2h5v-3.9h4.8V19h9.3v3.8h4.8v3.9
		h4.9v4h4.8v7.8c-1.2,0-2.3,0-3.4,0c-1.8,0-3.6,0-5.4,0c-0.7,0-1,0.2-0.9,0.9c0.1,1,0,1.9,0,3.1h-4.8l0,0v-4c-3.1,0-6,0-8.9,0
		c-0.2,0-0.5,0.4-0.5,0.6C1880.9,40.4,1881,41.5,1881,42.6L1881,42.6L1881,42.6z M1876.2,30.8c0,1.2,0,2.3,0,3.4
		c0,0.2,0.3,0.4,0.4,0.4c1.4,0,2.9,0,4.3,0v-3.8L1876.2,30.8L1876.2,30.8z M1890.4,34.7c1.5,0,2.9,0,4.2,0c0.2,0,0.5-0.3,0.5-0.5
		c0.1-1,0-1.9,0-2.9c0-0.2-0.2-0.5-0.4-0.5c-1.5,0-2.9,0-4.4,0v3.9H1890.4z"/>
	<path d="M1890.3,42.6v3.9c-0.4,0-0.7,0-1,0c-2.4,0-4.8,0-7.3,0c-0.3,0-0.7,0.1-1,0.1l0,0c0-1.4,0-2.7-0.1-4.1l0,0
		C1884.1,42.6,1887.2,42.6,1890.3,42.6L1890.3,42.6L1890.3,42.6z"/>
	<path d="M1871.2,42.6h4.9v3.9c-1.3,0-2.7,0-4,0c-0.7,0-1,0.2-1,0.9c0.1,1,0,1.9,0,2.9h-4.5v-3.8c1.2,0,2.4-0.1,3.5,0
		c0.9,0.1,1.1-0.3,1-1.1C1871.2,44.6,1871.2,43.6,1871.2,42.6L1871.2,42.6z"/>
	<path d="M1895.3,46.7c-0.1-1.3-0.1-2.6-0.2-4h4.9v3.8c-1.2,0-2.5,0-3.7,0C1896,46.5,1895.6,46.6,1895.3,46.7L1895.3,46.7z"/>
	<path d="M1904.9,46.6c0,1.2,0,2.3,0,3.3c0,0.2-0.4,0.5-0.5,0.5c-1.2,0-2.4,0-3.6,0c-0.2,0-0.6-0.3-0.6-0.5c-0.1-1.1,0-2.2,0-3.4
		L1904.9,46.6L1904.9,46.6z"/>
	<path d="M1895.3,46.6c-0.1,0.8-0.1,1.5-0.2,2.3c0,0.4,0,0.9,0,1.4h-4.7v-3.7C1892.1,46.7,1893.7,46.7,1895.3,46.6L1895.3,46.6
		L1895.3,46.6z"/>
	<path d="M1881,46.6c0,1-0.1,2.1-0.1,3.1c0,0.5-0.1,0.7-0.6,0.6c-1.3,0-2.6,0-4,0v-3.8C1877.9,46.7,1879.5,46.7,1881,46.6L1881,46.6
		z"/>
</g>
<g>
	<path d="M1878.5,83L1878.5,83h3.9v3.8h11.9v-3.7h3.7c0,1,0.1,1.9,0,2.9c-0.1,0.8,0.3,1,1,0.9c1-0.1,1.9,0,3,0v4h4.1v-7.7h3.8v15.7
		h-3.8c0,1.1,0,2.1,0,3.1c0,0.7-0.2,0.9-0.9,0.8c-0.8,0-1.6,0-2.3,0c-0.7,0-0.9,0.2-0.9,0.9c0,1.1-0.1,2.1-0.1,3.2l0,0
		c-1,0-1.9-0.1-2.9-0.1c-0.8,0-1-0.2-1-1c0.1-1,0-1.9,0-2.9h-19.6v3.8c-1.4,0.1-2.6,0.1-3.9,0.2l0,0c-0.1-1.3-0.1-2.7-0.2-4.1h-3.9
		v-3.9h-3.8V83.1c1.1,0,2.1,0,3.1,0c0.6,0,0.7,0.2,0.7,0.7c0,1.8,0,3.6,0,5.4c0,0.6,0,1.1,0,1.7h4v-4h4V83H1878.5z M1878.5,94.7h3.8
		V91h-3.8V94.7z M1898,91h-3.8c0,1.2,0,2.3,0,3.5c0,0.1,0.4,0.4,0.6,0.4c0.9,0,1.7,0.1,2.6,0c0.2,0,0.6-0.3,0.6-0.5
		C1898,93.2,1898,92.1,1898,91L1898,91z"/>
	<path d="M1901.8,106.7L1901.8,106.7c1.2,0,2.5-0.1,3.7-0.1c0.1,0,0.4,0.2,0.4,0.4c0,1.2,0,2.3,0,3.5h-4
		C1901.9,109.2,1901.9,108,1901.8,106.7L1901.8,106.7z"/>
	<path d="M1878.5,83c-1.3,0-2.6,0-3.9,0v-3.8h3.9V83C1878.4,83.1,1878.5,83,1878.5,83z"/>
	<path d="M1870.6,106.8c1.4,0,4,0,4,0c0,1,0,3.8,0,3.8s-2.8,0-4,0V106.8L1870.6,106.8z"/>
	<path d="M1901.8,83h-3.8c0-1.2,0-2.3,0-3.4c0-0.2,0.3-0.4,0.4-0.5c1.1,0,2.3,0,3.4,0V83z"/>
</g>
<g>
	<path d="M999.3,83L999.3,83h3.9v3.8h11.9v-3.7h3.7c0,1,0.1,1.9,0,2.9c-0.1,0.8,0.3,1,1,0.9c1-0.1,1.9,0,3,0v4h4.1v-7.7h3.8v15.7
		h-3.8c0,1.1,0,2.1,0,3.1c0,0.7-0.2,0.9-0.9,0.8c-0.8,0-1.6,0-2.3,0s-0.9,0.2-0.9,0.9c0,1.1-0.1,2.1-0.1,3.2l0,0
		c-1,0-1.9-0.1-2.9-0.1c-0.8,0-1-0.2-1-1c0.1-1,0-1.9,0-2.9h-19.6v3.8c-1.4,0.1-2.6,0.1-3.9,0.2l0,0c-0.1-1.3-0.1-2.7-0.2-4.1h-3.9
		v-3.9h-3.8V83.1c1.1,0,2.1,0,3.1,0c0.6,0,0.7,0.2,0.7,0.7c0,1.8,0,3.6,0,5.4c0,0.6,0,1.1,0,1.7h4v-4h4V83H999.3z M999.3,94.7h3.8
		V91h-3.8V94.7z M1018.8,91h-3.8c0,1.2,0,2.3,0,3.5c0,0.1,0.4,0.4,0.6,0.4c0.9,0,1.7,0.1,2.6,0c0.2,0,0.6-0.3,0.6-0.5
		C1018.8,93.2,1018.8,92.1,1018.8,91L1018.8,91z"/>
	<path d="M1022.6,106.7L1022.6,106.7c1.2,0,2.5-0.1,3.7-0.1c0.1,0,0.4,0.2,0.4,0.4c0,1.2,0,2.3,0,3.5h-4
		C1022.7,109.2,1022.7,108,1022.6,106.7L1022.6,106.7z"/>
	<path d="M999.3,83c-1.3,0-2.6,0-3.9,0v-3.8h3.9V83C999.3,83.1,999.3,83,999.3,83z"/>
	<path d="M991.4,106.8c1.4,0,4,0,4,0c0,1,0,3.8,0,3.8s-2.8,0-4,0V106.8L991.4,106.8z"/>
	<path d="M1022.6,83h-3.8c0-1.2,0-2.3,0-3.4c0-0.2,0.3-0.4,0.4-0.5c1.1,0,2.3,0,3.4,0C1022.6,79.1,1022.6,83,1022.6,83z"/>
</g>
<g>
	<path d="M1398.9,143.2L1398.9,143.2h3.9v3.8h11.9v-3.7h3.7c0,1,0.1,1.9,0,2.9c-0.1,0.8,0.3,1,1,0.9c1-0.1,1.9,0,3,0v4h4.1v-7.7h3.8
		v15.7h-3.8c0,1.1,0,2.1,0,3.1c0,0.7-0.2,0.9-0.9,0.8c-0.8,0-1.6,0-2.3,0c-0.7,0-0.9,0.2-0.9,0.9c0,1.1-0.1,2.1-0.1,3.2l0,0
		c-1,0-1.9-0.1-2.9-0.1c-0.8,0-1-0.2-1-1c0.1-1,0-1.9,0-2.9h-19.6v3.8c-1.4,0.1-2.6,0.1-3.9,0.2l0,0c-0.1-1.3-0.1-2.7-0.2-4.1h-3.9
		v-3.9h-3.8v-15.7c1.1,0,2.1,0,3.1,0c0.6,0,0.7,0.2,0.7,0.7c0,1.8,0,3.6,0,5.4c0,0.6,0,1.1,0,1.7h4v-4h4v-4H1398.9z M1398.9,154.9
		h3.8v-3.8h-3.8C1398.9,151.1,1398.9,154.9,1398.9,154.9z M1418.4,151.1h-3.8c0,1.2,0,2.3,0,3.5c0,0.1,0.4,0.4,0.6,0.4
		c0.9,0,1.7,0.1,2.6,0c0.2,0,0.6-0.3,0.6-0.5C1418.5,153.4,1418.4,152.3,1418.4,151.1L1418.4,151.1z"/>
	<path d="M1422.3,166.9C1422.3,166.9,1422.2,166.9,1422.3,166.9c1.2,0,2.5-0.1,3.7-0.1c0.1,0,0.4,0.2,0.4,0.4c0,1.2,0,2.3,0,3.5h-4
		C1422.4,169.3,1422.3,168.1,1422.3,166.9L1422.3,166.9z"/>
	<path d="M1398.9,143.2c-1.3,0-2.6,0-3.9,0v-3.8h3.9V143.2L1398.9,143.2z"/>
	<path d="M1391,166.9c1.4,0,4,0,4,0c0,1,0,3.8,0,3.8s-2.8,0-4,0V166.9L1391,166.9z"/>
	<path d="M1422.3,143.1h-3.8c0-1.2,0-2.3,0-3.4c0-0.2,0.3-0.4,0.4-0.5c1.1,0,2.3,0,3.4,0C1422.3,139.3,1422.3,143.1,1422.3,143.1z"
		/>
</g>
<g>
	<path d="M694.1,162.9L694.1,162.9c0-1.1,0.1-2.2,0-3.3c0-0.2-0.3-0.6-0.5-0.6c-2.9,0-5.8,0-8.9,0v4l0,0H680c0-1.1,0-2.1,0-3.1
		c0-0.7-0.2-0.9-0.9-0.9c-1.8,0-3.6,0-5.4,0c-1.1,0-2.2,0-3.4,0v-7.8h4.8v-4h4.9v-3.9h4.8v-3.8h9.3v3.9h4.8v3.9h5c0,1.1,0,2.1,0,3.2
		c0,0.7,0.2,0.9,0.9,0.9c1.2,0,2.4,0,3.7,0v7.8h-9.6v3.9h-4.8V162.9z M698.9,151.1h-4.8v3.8c1.5,0,2.9,0,4.3,0
		c0.1,0,0.4-0.3,0.4-0.4C698.9,153.4,698.9,152.3,698.9,151.1L698.9,151.1z M684.7,154.9V151c-1.5,0-2.9,0-4.4,0
		c-0.1,0-0.4,0.3-0.4,0.5c0,1,0,1.9,0,2.9c0,0.2,0.3,0.5,0.5,0.5C681.8,155,683.2,154.9,684.7,154.9L684.7,154.9z"/>
	<path d="M684.7,162.8L684.7,162.8c3.1,0,6.2,0,9.4,0l0,0c0,1.4,0,2.7-0.1,4.1l0,0c-0.3,0-0.7-0.1-1-0.1c-2.4,0-4.8,0-7.3,0
		c-0.3,0-0.6,0-1,0L684.7,162.8L684.7,162.8z"/>
	<path d="M703.9,162.9c0,1,0.1,1.9,0,2.8c-0.1,0.8,0.2,1.1,1,1.1c1.2-0.1,2.4,0,3.5,0v3.8h-4.5c0-1,0-2,0-2.9c0-0.8-0.3-1-1-0.9
		c-1.3,0.1-2.6,0-4,0v-3.9L703.9,162.9L703.9,162.9z"/>
	<path d="M679.8,166.9c-0.3-0.1-0.7-0.1-1-0.2c-1.2,0-2.4,0-3.7,0v-3.8h4.9C679.9,164.3,679.9,165.6,679.8,166.9L679.8,166.9z"/>
	<path d="M670.2,166.8h4.8c0,1.2,0,2.3,0,3.4c0,0.2-0.4,0.4-0.6,0.5c-1.2,0-2.4,0-3.6,0c-0.2,0-0.5-0.3-0.5-0.5
		C670.2,169.1,670.2,168,670.2,166.8L670.2,166.8z"/>
	<path d="M679.8,166.9L679.8,166.9c1.6,0,3.2,0,4.9,0v3.7H680c0-0.5,0-1,0-1.4C679.9,168.4,679.8,167.7,679.8,166.9L679.8,166.9z"/>
	<path d="M694,166.9c1.6,0,3.1,0,4.7,0v3.8c-1.4,0-2.7,0-4,0c-0.5,0-0.6-0.2-0.6-0.6C694.1,169,694.1,167.9,694,166.9L694,166.9z"/>
</g>
<g>
	<path d="M54.7,162.9L54.7,162.9c0-1.1,0.1-2.2,0-3.3c0-0.2-0.3-0.6-0.5-0.6c-2.9,0-5.8,0-8.9,0v4l0,0h-4.8c0-1.1,0-2.1,0-3.1
		c0-0.7-0.2-0.9-0.9-0.9c-1.8,0-3.6,0-5.4,0c-1.1,0-2.2,0-3.4,0v-7.8h4.8v-4h4.9v-3.9h4.8v-3.8h9.3v3.9h4.8v3.9h5c0,1.1,0,2.1,0,3.2
		c0,0.7,0.2,0.9,0.9,0.9c1.2,0,2.4,0,3.7,0v7.8h-9.6v3.9h-4.7V162.9z M59.5,151.1h-4.8v3.8c1.5,0,2.9,0,4.3,0c0.1,0,0.4-0.3,0.4-0.4
		C59.5,153.4,59.5,152.3,59.5,151.1L59.5,151.1z M45.3,154.9V151c-1.5,0-2.9,0-4.4,0c-0.1,0-0.4,0.3-0.4,0.5c0,1,0,1.9,0,2.9
		c0,0.2,0.3,0.5,0.5,0.5C42.4,155,43.8,154.9,45.3,154.9L45.3,154.9z"/>
	<path d="M45.3,162.8L45.3,162.8c3.1,0,6.2,0,9.4,0l0,0c0,1.4,0,2.7-0.1,4.1l0,0c-0.3,0-0.7-0.1-1-0.1c-2.4,0-4.8,0-7.3,0
		c-0.3,0-0.6,0-1,0V162.8L45.3,162.8z"/>
	<path d="M64.5,162.9c0,1,0.1,1.9,0,2.8c-0.1,0.8,0.2,1.1,1,1.1c1.2-0.1,2.4,0,3.5,0v3.8h-4.5c0-1,0-2,0-2.9c0-0.8-0.3-1-1-0.9
		c-1.3,0.1-2.6,0-4,0v-3.9L64.5,162.9L64.5,162.9z"/>
	<path d="M40.4,166.9c-0.3-0.1-0.7-0.1-1-0.2c-1.2,0-2.4,0-3.7,0v-3.8h4.9C40.5,164.3,40.5,165.6,40.4,166.9L40.4,166.9z"/>
	<path d="M30.8,166.8h4.8c0,1.2,0,2.3,0,3.4c0,0.2-0.4,0.4-0.6,0.5c-1.2,0-2.4,0-3.6,0c-0.2,0-0.5-0.3-0.5-0.5
		C30.8,169.1,30.8,168,30.8,166.8L30.8,166.8z"/>
	<path d="M40.4,166.9L40.4,166.9c1.6,0,3.2,0,4.9,0v3.7h-4.7c0-0.5,0-1,0-1.4C40.5,168.4,40.4,167.7,40.4,166.9L40.4,166.9z"/>
	<path d="M54.6,166.9c1.6,0,3.1,0,4.7,0v3.8c-1.4,0-2.7,0-4,0c-0.5,0-0.6-0.2-0.6-0.6C54.7,169,54.7,167.9,54.6,166.9L54.6,166.9z"
		/>
</g>
<g>
	<path d="M197.2,203.3v3.9h4v4h4c0-0.6,0-1.1,0-1.7c0-1.8,0-3.6,0-5.4c0-0.5,0.2-0.7,0.7-0.7c1,0,2,0,3.1,0V219h-3.8v3.9h-3.9
		c-0.1,1.4-0.1,2.8-0.2,4.1l0,0c-1.2-0.1-2.5-0.1-3.9-0.2V223h-19.5c0,1,0,1.9,0,2.9c0,0.7-0.2,1-1,1c-1,0-1.9,0.1-2.9,0.1l0,0
		c0-1.1-0.1-2.2-0.1-3.2c0-0.7-0.2-0.9-0.9-0.9c-0.8,0.1-1.6,0-2.3,0s-0.9-0.2-0.9-0.8c0.1-1,0-2,0-3.1h-3.8v-15.7h3.8v7.7h4.1v-4
		c1.1,0,2,0,3,0c0.7,0,1-0.2,1-0.9c-0.1-0.9,0-1.9,0-2.9h3.7v3.7h11.9v-3.8L197.2,203.3L197.2,203.3L197.2,203.3z M197.2,211.2h-3.8
		v3.8h3.8V211.2z M177.7,211.2c0,1.2,0,2.3,0,3.4c0,0.2,0.4,0.4,0.6,0.5c0.9,0.1,1.7,0,2.6,0c0.2,0,0.6-0.2,0.6-0.4
		c0-1.1,0-2.3,0-3.5H177.7L177.7,211.2z"/>
	<path d="M173.9,227c-0.1,1.2-0.1,2.5-0.2,3.8h-4c0-1.2,0-2.3,0-3.5c0-0.1,0.3-0.4,0.4-0.4C171.4,226.9,172.7,227,173.9,227
		L173.9,227L173.9,227z"/>
	<path d="M197.3,203.3v-3.8h3.9v3.8C199.8,203.3,198.5,203.3,197.3,203.3C197.2,203.3,197.3,203.3,197.3,203.3z"/>
	<path d="M205.1,227v3.8c-1.1,0-4,0-4,0s0-2.8,0-3.8C201.1,227,203.7,227,205.1,227L205.1,227z"/>
	<path d="M173.9,199.4c1.1,0,2.3,0,3.4,0c0.1,0,0.4,0.3,0.4,0.5c0,1.1,0,2.2,0,3.4h-3.8C173.9,203.2,173.9,199.4,173.9,199.4z"/>
</g>
<g>
	<path d="M1322.3,223h-7.8c0,1.2,0,2.3,0,3.4c0,0.2,0.4,0.4,0.7,0.4c1,0,2.1,0,3.2,0v3.9h-7.9v-3.9h-3.9V223c1,0,2,0,3.1,0
		c0.6,0,0.9-0.2,0.8-0.8c0-1,0-2,0-3.1h-7.8c0-0.4-0.1-0.6-0.1-0.9c0-3.4,0-6.8,0-10.2c0-0.7,0.2-0.9,0.9-0.9c1,0.1,2,0,3.1,0v-3.9
		h11.9v-3.9h15.6v3.8h11.9v3.9h3.9c0,0.4,0.1,0.6,0.1,0.8c0,3.4,0,6.8,0,10.2c0,0.7-0.2,0.9-0.9,0.9c-2.3,0-4.6,0-6.9,0v3.9h3.8
		c0,1.2,0,2.4,0,3.5c0,0.1-0.4,0.4-0.6,0.4c-1,0-2.1,0-3.2,0v3.8h-7.9v-3.8c1.1,0,2.1,0,3.1,0c0.6,0,0.8-0.2,0.8-0.8
		c0-0.9,0-1.7,0-2.6c0-0.2-0.4-0.6-0.6-0.6c-2.4,0-4.7,0-7.1,0l0,0c0-1.1-0.1-2.2,0-3.3c0-0.5-0.2-0.7-0.7-0.7c-2.2,0-4.5,0-6.7,0
		c-0.5,0-0.7,0.2-0.7,0.7C1322.3,220.8,1322.3,222,1322.3,223L1322.3,223L1322.3,223z M1314.5,211.3c0,1,0,2,0,3
		c0,0.6,0.2,0.8,0.8,0.8c2.1,0,4.1,0,6.2,0c0.2,0,0.5-0.1,0.7-0.1v-3.7H1314.5z M1334.2,215.1c1,0,2,0,3.1,0c0.6,0,0.8-0.2,0.8-0.8
		c0-0.8,0-1.6,0-2.4c0-0.5-0.1-0.7-0.6-0.6c-2.2,0-4.3,0-6.5,0c-0.5,0-0.7,0.2-0.7,0.7c0,0.8,0,1.7,0,2.5c0,0.6,0.2,0.7,0.7,0.7
		C1332.1,215.1,1333.2,215.1,1334.2,215.1L1334.2,215.1z"/>
	<path d="M1330.4,223v3.8h-8.1c0-1.3,0-2.5,0-3.8l0,0C1325,223.1,1327.7,223.1,1330.4,223L1330.4,223L1330.4,223z"/>
</g>
<g>
	<path d="M1735.8,227v-4c-0.4,0-0.7-0.1-0.9-0.1c-6,0-11.9,0-17.9,0c-0.8,0-1,0.3-1,1c0,1-0.1,2-0.1,3l0,0h-3.8c0-1.4,0-2.6,0-3.8
		c0-1.1,0-2.3,0-3.4c0-0.5-0.1-0.8-0.7-0.8c-1,0-2.1,0-3.2,0c0,0.4-0.1,0.8-0.1,1.1c0,3.3,0,6.5,0,9.8c0,0.7-0.2,0.9-0.9,0.9
		c-1-0.1-2,0-3,0v-15.8c1,0,2,0,3,0c0.7,0,0.9-0.2,0.9-0.9c-0.1-0.9,0-1.9,0-3c1.1,0,2.1,0,3.1,0c0.6,0,0.9-0.2,0.8-0.8
		c0-1,0-2.1,0-3.2h3.8v-3.8l0,0c1.1,0,2.3,0,3.4,0c0.5,0,0.8,0.2,0.7,0.7c0,1,0,2,0,3.1h11.7v-3.8h4l0,0v3.9h3.9v4c1.1,0,2,0,3,0
		c0.8,0,1.1,0.2,1.1,1c-0.1,0.9,0,1.8,0,2.9h4v15.7h-3.9c0-0.8,0-1.6,0-2.4c0-2.9,0-5.7,0-8.6c0-0.6-0.2-0.8-0.8-0.8c-1,0-2,0-3.2,0
		v7.9L1735.8,227L1735.8,227L1735.8,227z M1720,211.2c-1.3,0-2.4,0-3.5,0c-0.2,0-0.5,0.4-0.5,0.6c-0.1,0.9,0,1.8,0,2.7
		c0,0.5,0.2,0.7,0.6,0.6c1,0,1.9,0,2.9,0c0.2,0,0.6-0.3,0.6-0.5C1720.1,213.5,1720,212.4,1720,211.2L1720,211.2z M1731.8,215h3.9
		v-3.8h-3.9V215z"/>
	<path d="M1735.8,226.9v3.8h-7.9c0-1.2,0-2.3,0-3.4c0-0.2,0.3-0.4,0.5-0.4C1730.8,226.9,1733.3,226.9,1735.8,226.9L1735.8,226.9
		L1735.8,226.9z"/>
	<path d="M1715.8,227h8v3.8h-7.9C1715.9,229.5,1715.9,228.2,1715.8,227C1715.9,227,1715.8,227,1715.8,227L1715.8,227z"/>
	<path d="M1735.8,203.3v-3.9c1.2,0,2.3,0,3.5,0c0.1,0,0.4,0.3,0.4,0.5c0,1.1,0,2.2,0,3.4C1738.3,203.3,1737,203.3,1735.8,203.3
		L1735.8,203.3L1735.8,203.3z"/>
	<path d="M1715.9,203.3h-3.7v-3.9h3.7C1715.9,200.8,1715.9,202.1,1715.9,203.3L1715.9,203.3z"/>
</g>
<g>
	<path d="M1815.7,287.1v-4c-0.4,0-0.7-0.1-0.9-0.1c-6,0-11.9,0-17.9,0c-0.8,0-1,0.3-1,1c0,1-0.1,2-0.1,3l0,0h-3.8c0-1.4,0-2.6,0-3.8
		c0-1.1,0-2.3,0-3.4c0-0.5-0.1-0.8-0.7-0.8c-1,0-2.1,0-3.2,0c0,0.4-0.1,0.8-0.1,1.1c0,3.3,0,6.5,0,9.8c0,0.7-0.2,0.9-0.9,0.9
		c-1-0.1-2,0-3,0V275c1,0,2,0,3,0c0.7,0,0.9-0.2,0.9-0.9c-0.1-0.9,0-1.9,0-3c1.1,0,2.1,0,3.1,0c0.6,0,0.9-0.2,0.8-0.8
		c0-1,0-2.1,0-3.2h3.8v-3.8l0,0c1.1,0,2.3,0,3.4,0c0.5,0,0.8,0.2,0.7,0.7c0,1,0,2,0,3.1h11.7v-3.8h4l0,0v3.9h3.9v4c1.1,0,2,0,3,0
		c0.8,0,1.1,0.2,1.1,1c-0.1,0.9,0,1.8,0,2.9h4v15.7h-3.9c0-0.8,0-1.6,0-2.4c0-2.9,0-5.7,0-8.6c0-0.6-0.2-0.8-0.8-0.8c-1,0-2,0-3.2,0
		v7.9L1815.7,287.1L1815.7,287.1L1815.7,287.1z M1800,271.3c-1.3,0-2.4,0-3.5,0c-0.2,0-0.5,0.4-0.5,0.6c-0.1,0.9,0,1.8,0,2.7
		c0,0.5,0.2,0.7,0.6,0.6c1,0,1.9,0,2.9,0c0.2,0,0.6-0.3,0.6-0.5C1800,273.6,1800,272.5,1800,271.3L1800,271.3z M1811.7,275.1h3.9
		v-3.8h-3.9C1811.7,271.3,1811.7,275.1,1811.7,275.1z"/>
	<path d="M1815.7,287.1v3.8h-7.9c0-1.2,0-2.3,0-3.4c0-0.2,0.3-0.4,0.5-0.4C1810.7,287,1813.2,287.1,1815.7,287.1L1815.7,287.1
		L1815.7,287.1z"/>
	<path d="M1795.8,287.1h8v3.8h-7.9C1795.8,289.6,1795.8,288.3,1795.8,287.1L1795.8,287.1L1795.8,287.1z"/>
	<path d="M1815.7,263.4v-3.9c1.2,0,2.3,0,3.5,0c0.1,0,0.4,0.3,0.4,0.5c0,1.1,0,2.2,0,3.4C1818.2,263.4,1816.9,263.4,1815.7,263.4
		L1815.7,263.4L1815.7,263.4z"/>
	<path d="M1795.8,263.4h-3.7v-3.9h3.7C1795.8,260.9,1795.8,262.2,1795.8,263.4L1795.8,263.4z"/>
</g>
<g>
	<path d="M921.9,343.2h-4.8v-3.9h-9.6v-7.8c1.3,0,2.5,0,3.7,0c0.7,0,0.9-0.2,0.9-0.9c-0.1-1,0-2,0-3.2h5v-3.9h4.8v-3.9h9.3v3.8h4.8
		v3.9h4.9v4h4.8v7.8c-1.2,0-2.3,0-3.4,0c-1.8,0-3.6,0-5.4,0c-0.7,0-1,0.2-0.9,0.9c0.1,1,0,1.9,0,3.1h-4.8l0,0v-4c-3.1,0-6,0-8.9,0
		c-0.2,0-0.5,0.4-0.5,0.6C921.9,341,921.9,342.2,921.9,343.2L921.9,343.2L921.9,343.2z M917.1,331.5c0,1.2,0,2.3,0,3.4
		c0,0.2,0.3,0.4,0.4,0.4c1.4,0,2.9,0,4.3,0v-3.8H917.1L917.1,331.5z M931.3,335.3c1.5,0,2.9,0,4.2,0c0.2,0,0.5-0.3,0.5-0.5
		c0.1-1,0-1.9,0-2.9c0-0.2-0.2-0.5-0.4-0.5c-1.5,0-2.9,0-4.4,0v3.9H931.3z"/>
	<path d="M931.2,343.2v3.9c-0.4,0-0.7,0-1,0c-2.4,0-4.8,0-7.3,0c-0.3,0-0.7,0.1-1,0.1l0,0c0-1.4,0-2.7-0.1-4.1l0,0
		C925,343.3,928.1,343.3,931.2,343.2L931.2,343.2L931.2,343.2z"/>
	<path d="M912.1,343.3h4.9v3.9c-1.3,0-2.7,0-4,0c-0.7,0-1,0.2-1,0.9c0.1,1,0,1.9,0,2.9h-4.5v-3.8c1.2,0,2.4-0.1,3.5,0
		c0.9,0.1,1.1-0.3,1-1.1C912.1,345.2,912.1,344.3,912.1,343.3L912.1,343.3z"/>
	<path d="M936.2,347.3c-0.1-1.3-0.1-2.6-0.2-4h4.9v3.8c-1.2,0-2.5,0-3.7,0C936.9,347.1,936.5,347.2,936.2,347.3L936.2,347.3z"/>
	<path d="M945.8,347.2c0,1.2,0,2.3,0,3.3c0,0.2-0.4,0.5-0.5,0.5c-1.2,0-2.4,0-3.6,0c-0.2,0-0.6-0.3-0.6-0.5c-0.1-1.1,0-2.2,0-3.4
		L945.8,347.2L945.8,347.2z"/>
	<path d="M936.2,347.3c-0.1,0.8-0.1,1.5-0.2,2.3c0,0.4,0,0.9,0,1.4h-4.7v-3.7C933,347.3,934.6,347.3,936.2,347.3L936.2,347.3
		L936.2,347.3z"/>
	<path d="M921.9,347.3c0,1-0.1,2.1-0.1,3.1c0,0.5-0.1,0.7-0.6,0.6c-1.3,0-2.6,0-4,0v-3.8C918.8,347.3,920.4,347.3,921.9,347.3
		L921.9,347.3z"/>
</g>
<g>
	<path d="M1413.4,403.5L1413.4,403.5c0-1.1,0.1-2.2,0-3.3c0-0.2-0.3-0.6-0.5-0.6c-2.9,0-5.8,0-8.9,0v4l0,0h-4.8c0-1.1,0-2.1,0-3.1
		c0-0.7-0.2-0.9-0.9-0.9c-1.8,0-3.6,0-5.4,0c-1.1,0-2.2,0-3.4,0v-7.8h4.8v-4h4.9v-3.9h4.8v-3.8h9.3v3.9h4.8v3.9h5c0,1.1,0,2.1,0,3.2
		c0,0.7,0.2,0.9,0.9,0.9c1.2,0,2.4,0,3.7,0v7.8h-9.6v3.9h-4.7V403.5z M1418.2,391.7h-4.8v3.8c1.5,0,2.9,0,4.3,0
		c0.1,0,0.4-0.3,0.4-0.4C1418.2,394,1418.2,392.9,1418.2,391.7L1418.2,391.7z M1404,395.5v-3.9c-1.5,0-2.9,0-4.4,0
		c-0.1,0-0.4,0.3-0.4,0.5c0,1,0,1.9,0,2.9c0,0.2,0.3,0.5,0.5,0.5C1401.2,395.6,1402.5,395.5,1404,395.5L1404,395.5z"/>
	<path d="M1404.1,403.4L1404.1,403.4c3.1,0,6.2,0,9.4,0l0,0c0,1.4,0,2.7-0.1,4.1l0,0c-0.3,0-0.7-0.1-1-0.1c-2.4,0-4.8,0-7.3,0
		c-0.3,0-0.6,0-1,0V403.4L1404.1,403.4z"/>
	<path d="M1423.2,403.5c0,1,0.1,1.9,0,2.8c-0.1,0.8,0.2,1.1,1,1.1c1.2-0.1,2.4,0,3.5,0v3.8h-4.5c0-1,0-2,0-2.9c0-0.8-0.3-1-1-0.9
		c-1.3,0.1-2.6,0-4,0v-3.9H1423.2L1423.2,403.5z"/>
	<path d="M1399.1,407.5c-0.3-0.1-0.7-0.1-1-0.2c-1.2,0-2.4,0-3.7,0v-3.8h4.9C1399.2,404.9,1399.2,406.2,1399.1,407.5L1399.1,407.5z"
		/>
	<path d="M1389.5,407.4h4.8c0,1.2,0,2.3,0,3.4c0,0.2-0.4,0.4-0.6,0.5c-1.2,0-2.4,0-3.6,0c-0.2,0-0.5-0.3-0.5-0.5
		C1389.5,409.7,1389.5,408.6,1389.5,407.4L1389.5,407.4z"/>
	<path d="M1399.1,407.5L1399.1,407.5c1.6,0,3.2,0,4.9,0v3.7h-4.7c0-0.5,0-1,0-1.4C1399.2,409,1399.2,408.3,1399.1,407.5
		L1399.1,407.5z"/>
	<path d="M1413.4,407.5c1.6,0,3.1,0,4.7,0v3.8c-1.4,0-2.7,0-4,0c-0.5,0-0.6-0.2-0.6-0.6C1413.4,409.6,1413.4,408.5,1413.4,407.5
		L1413.4,407.5z"/>
</g>
<g>
	<path d="M1718.6,383.8L1718.6,383.8h3.9v3.8h11.9v-3.7h3.7c0,1,0.1,1.9,0,2.9c-0.1,0.8,0.3,1,1,0.9c1-0.1,1.9,0,3,0v4h4.1V384h3.8
		v15.7h-3.8c0,1.1,0,2.1,0,3.1c0,0.7-0.2,0.9-0.9,0.8c-0.8,0-1.6,0-2.3,0c-0.7,0-0.9,0.2-0.9,0.9c0,1.1-0.1,2.1-0.1,3.2l0,0
		c-1,0-1.9-0.1-2.9-0.1c-0.8,0-1-0.2-1-1c0.1-1,0-1.9,0-2.9h-19.6v3.8c-1.4,0.1-2.6,0.1-3.9,0.2l0,0c-0.1-1.3-0.1-2.7-0.2-4.1h-3.9
		v-3.9h-3.8V384c1.1,0,2.1,0,3.1,0c0.6,0,0.7,0.2,0.7,0.7c0,1.8,0,3.6,0,5.4c0,0.6,0,1.1,0,1.7h4v-4h4v-4H1718.6z M1718.6,395.5h3.8
		v-3.8h-3.8V395.5z M1738.1,391.7h-3.8c0,1.2,0,2.3,0,3.5c0,0.1,0.4,0.4,0.6,0.4c0.9,0,1.7,0.1,2.6,0c0.2,0,0.6-0.3,0.6-0.5
		C1738.2,394,1738.1,392.9,1738.1,391.7L1738.1,391.7z"/>
	<path d="M1741.9,407.5L1741.9,407.5c1.2,0,2.5-0.1,3.7-0.1c0.1,0,0.4,0.2,0.4,0.4c0,1.2,0,2.3,0,3.5h-4
		C1742.1,409.9,1742,408.7,1741.9,407.5L1741.9,407.5z"/>
	<path d="M1718.6,383.8c-1.3,0-2.6,0-3.9,0V380h3.9V383.8L1718.6,383.8z"/>
	<path d="M1710.7,407.5c1.4,0,4,0,4,0c0,1,0,3.8,0,3.8s-2.8,0-4,0V407.5L1710.7,407.5z"/>
	<path d="M1742,383.7h-3.8c0-1.2,0-2.3,0-3.4c0-0.2,0.3-0.4,0.4-0.5c1.1,0,2.3,0,3.4,0C1742,379.9,1742,383.7,1742,383.7z"/>
</g>
<g>
	<path d="M1321.5,523.7h-4.8v-3.9h-9.6V512c1.3,0,2.5,0,3.7,0c0.7,0,0.9-0.2,0.9-0.9c-0.1-1,0-2,0-3.2h5V504h4.8v-3.9h9.3v3.8h4.8
		v3.9h4.9v4h4.8v7.8c-1.2,0-2.3,0-3.4,0c-1.8,0-3.6,0-5.4,0c-0.7,0-1,0.2-0.9,0.9c0.1,1,0,1.9,0,3.1h-4.8l0,0v-4c-3.1,0-6,0-8.9,0
		c-0.2,0-0.5,0.4-0.5,0.6C1321.5,521.5,1321.5,522.6,1321.5,523.7L1321.5,523.7L1321.5,523.7z M1316.7,511.9c0,1.2,0,2.3,0,3.4
		c0,0.2,0.3,0.4,0.4,0.4c1.4,0,2.9,0,4.3,0v-3.8H1316.7L1316.7,511.9z M1330.9,515.8c1.5,0,2.9,0,4.2,0c0.2,0,0.5-0.3,0.5-0.5
		c0.1-1,0-1.9,0-2.9c0-0.2-0.2-0.5-0.4-0.5c-1.5,0-2.9,0-4.4,0v3.9H1330.9z"/>
	<path d="M1330.9,523.7v3.9c-0.4,0-0.7,0-1,0c-2.4,0-4.8,0-7.3,0c-0.3,0-0.7,0.1-1,0.1l0,0c0-1.4,0-2.7-0.1-4.1l0,0
		C1324.6,523.7,1327.8,523.7,1330.9,523.7L1330.9,523.7L1330.9,523.7z"/>
	<path d="M1311.7,523.7h4.9v3.9c-1.3,0-2.7,0-4,0c-0.7,0-1,0.2-1,0.9c0.1,1,0,1.9,0,2.9h-4.5v-3.8c1.2,0,2.4-0.1,3.5,0
		c0.9,0.1,1.1-0.3,1-1.1C1311.7,525.6,1311.7,524.7,1311.7,523.7L1311.7,523.7z"/>
	<path d="M1335.8,527.7c-0.1-1.3-0.1-2.6-0.2-4h4.9v3.8c-1.2,0-2.5,0-3.7,0C1336.5,527.6,1336.2,527.7,1335.8,527.7L1335.8,527.7z"
		/>
	<path d="M1345.4,527.7c0,1.2,0,2.3,0,3.3c0,0.2-0.4,0.5-0.5,0.5c-1.2,0-2.4,0-3.6,0c-0.2,0-0.6-0.3-0.6-0.5c-0.1-1.1,0-2.2,0-3.4
		L1345.4,527.7L1345.4,527.7z"/>
	<path d="M1335.8,527.7c-0.1,0.8-0.1,1.5-0.2,2.3c0,0.4,0,0.9,0,1.4h-4.7v-3.7C1332.6,527.7,1334.2,527.7,1335.8,527.7L1335.8,527.7
		L1335.8,527.7z"/>
	<path d="M1321.6,527.7c0,1-0.1,2.1-0.1,3.1c0,0.5-0.1,0.7-0.6,0.6c-1.3,0-2.6,0-4,0v-3.8C1318.4,527.7,1320,527.7,1321.6,527.7
		L1321.6,527.7z"/>
</g>
<g>
	<path d="M57.2,444v3.9h4v4h4c0-0.6,0-1.1,0-1.7c0-1.8,0-3.6,0-5.4c0-0.5,0.2-0.7,0.7-0.7c1,0,2,0,3.1,0v15.7h-3.8v3.9h-3.9
		c-0.1,1.4-0.1,2.8-0.2,4.1l0,0c-1.2-0.1-2.5-0.1-3.9-0.2v-3.8H37.7c0,1,0,1.9,0,2.9c0,0.7-0.2,1-1,1c-1,0-1.9,0.1-2.9,0.1l0,0
		c0-1.1-0.1-2.2-0.1-3.2c0-0.7-0.2-0.9-0.9-0.9c-0.8,0.1-1.6,0-2.3,0c-0.7,0-0.9-0.2-0.9-0.8c0.1-1,0-2,0-3.1h-3.8v-15.7h3.8v7.7
		h4.1v-4c1.1,0,2,0,3,0c0.7,0,1-0.2,1-0.9c-0.1-0.9,0-1.9,0-2.9h3.7v3.7h11.9V444H57.2L57.2,444L57.2,444z M57.2,451.9h-3.8v3.8h3.8
		C57.2,455.7,57.2,451.9,57.2,451.9z M37.7,451.9c0,1.2,0,2.3,0,3.4c0,0.2,0.4,0.4,0.6,0.5c0.9,0.1,1.7,0,2.6,0
		c0.2,0,0.6-0.2,0.6-0.4c0-1.1,0-2.3,0-3.5H37.7L37.7,451.9z"/>
	<path d="M33.9,467.7c-0.1,1.2-0.1,2.5-0.2,3.8h-4c0-1.2,0-2.3,0-3.5c0-0.1,0.3-0.4,0.4-0.4C31.4,467.6,32.7,467.7,33.9,467.7
		L33.9,467.7L33.9,467.7z"/>
	<path d="M57.3,444v-3.8h3.9v3.8C59.8,444,58.5,444,57.3,444C57.2,444,57.3,444,57.3,444z"/>
	<path d="M65.1,467.7v3.8c-1.1,0-4,0-4,0s0-2.8,0-3.8C61.1,467.7,63.7,467.7,65.1,467.7L65.1,467.7z"/>
	<path d="M33.9,440.1c1.1,0,2.3,0,3.4,0c0.1,0,0.4,0.3,0.4,0.5c0,1.1,0,2.2,0,3.4h-3.8C33.9,443.9,33.9,440.1,33.9,440.1z"/>
</g>
<g>
	<path d="M1242.4,463.7h-7.8c0,1.2,0,2.3,0,3.4c0,0.2,0.4,0.4,0.7,0.4c1,0,2.1,0,3.2,0v3.9h-7.9v-3.9h-3.9v-3.9c1,0,2,0,3.1,0
		c0.6,0,0.9-0.2,0.8-0.8c0-1,0-2,0-3.1h-7.8c0-0.4-0.1-0.6-0.1-0.9c0-3.4,0-6.8,0-10.2c0-0.7,0.2-0.9,0.9-0.9c1,0.1,2,0,3.1,0V444
		h11.9v-3.9h15.6v3.8h11.9v3.9h3.9c0,0.4,0.1,0.6,0.1,0.8c0,3.4,0,6.8,0,10.2c0,0.7-0.2,0.9-0.9,0.9c-2.3,0-4.6,0-6.9,0v3.9h3.8
		c0,1.2,0,2.4,0,3.5c0,0.1-0.4,0.4-0.6,0.4c-1,0-2.1,0-3.2,0v3.8h-7.9v-3.8c1.1,0,2.1,0,3.1,0c0.6,0,0.8-0.2,0.8-0.8
		c0-0.9,0-1.7,0-2.6c0-0.2-0.4-0.6-0.6-0.6c-2.4,0-4.7,0-7.1,0l0,0c0-1.1-0.1-2.2,0-3.3c0-0.5-0.2-0.7-0.7-0.7c-2.2,0-4.5,0-6.7,0
		c-0.5,0-0.7,0.2-0.7,0.7C1242.4,461.5,1242.3,462.6,1242.4,463.7L1242.4,463.7L1242.4,463.7z M1234.6,452c0,1,0,2,0,3
		c0,0.6,0.2,0.8,0.8,0.8c2.1,0,4.1,0,6.2,0c0.2,0,0.5-0.1,0.7-0.1V452H1234.6z M1254.3,455.8c1,0,2,0,3.1,0c0.6,0,0.8-0.2,0.8-0.8
		c0-0.8,0-1.6,0-2.4c0-0.5-0.1-0.7-0.6-0.6c-2.2,0-4.3,0-6.5,0c-0.5,0-0.7,0.2-0.7,0.7c0,0.8,0,1.7,0,2.5c0,0.6,0.2,0.7,0.7,0.7
		C1252.2,455.8,1253.2,455.8,1254.3,455.8L1254.3,455.8z"/>
	<path d="M1250.4,463.7v3.8h-8.1c0-1.3,0-2.5,0-3.8l0,0C1245,463.7,1247.8,463.7,1250.4,463.7L1250.4,463.7L1250.4,463.7z"/>
</g>
<g>
	<path d="M298.4,523.9h-4.7V520h-9.6v-7.8c1.3,0,2.5,0,3.7,0c0.7,0,0.9-0.2,0.9-0.9c-0.1-1,0-2,0-3.2h5v-3.9h4.8v-3.9h9.2v3.8h4.8
		v3.9h4.9v4h4.8v7.8c-1.2,0-2.3,0-3.4,0c-1.8,0-3.6,0-5.4,0c-0.7,0-1,0.2-0.9,0.9c0.1,1,0,1.9,0,3.1h-4.8l0,0v-4c-3.1,0-6,0-8.9,0
		c-0.2,0-0.5,0.4-0.5,0.6C298.4,521.7,298.4,522.8,298.4,523.9L298.4,523.9L298.4,523.9z M293.6,512.1c0,1.2,0,2.3,0,3.4
		c0,0.2,0.3,0.4,0.4,0.4c1.4,0,2.9,0,4.3,0v-3.8L293.6,512.1L293.6,512.1z M307.8,516c1.5,0,2.9,0,4.2,0c0.2,0,0.5-0.3,0.5-0.5
		c0.1-1,0-1.9,0-2.9c0-0.2-0.2-0.5-0.4-0.5c-1.5,0-2.9,0-4.4,0L307.8,516L307.8,516z"/>
	<path d="M307.8,523.9v3.9c-0.4,0-0.7,0-1,0c-2.4,0-4.8,0-7.3,0c-0.3,0-0.7,0.1-1,0.1l0,0c0-1.4,0-2.7-0.1-4.1l0,0
		C301.5,523.9,304.7,523.9,307.8,523.9L307.8,523.9L307.8,523.9z"/>
	<path d="M288.6,523.9h4.9v3.9c-1.3,0-2.7,0-4,0c-0.7,0-1,0.2-1,0.9c0.1,1,0,1.9,0,2.9H284v-3.8c1.2,0,2.4-0.1,3.5,0
		c0.9,0.1,1.1-0.3,1-1.1C288.6,525.8,288.6,524.9,288.6,523.9L288.6,523.9z"/>
	<path d="M312.7,527.9c-0.1-1.3-0.1-2.6-0.2-4h4.9v3.8c-1.2,0-2.5,0-3.7,0C313.4,527.8,313.1,527.9,312.7,527.9L312.7,527.9z"/>
	<path d="M322.3,527.9c0,1.2,0,2.3,0,3.3c0,0.2-0.4,0.5-0.5,0.5c-1.2,0-2.4,0-3.6,0c-0.2,0-0.6-0.3-0.6-0.5c-0.1-1.1,0-2.2,0-3.4
		L322.3,527.9L322.3,527.9z"/>
	<path d="M312.7,527.9c-0.1,0.8-0.1,1.5-0.2,2.3c0,0.4,0,0.9,0,1.4h-4.7v-3.7C309.5,527.9,311.1,527.9,312.7,527.9L312.7,527.9
		L312.7,527.9z"/>
	<path d="M298.5,527.9c0,1-0.1,2.1-0.1,3.1c0,0.5-0.1,0.7-0.6,0.6c-1.3,0-2.6,0-4,0v-3.8C295.3,527.9,296.9,527.9,298.5,527.9
		L298.5,527.9z"/>
</g>
<g>
	<path d="M1878.5,624.6L1878.5,624.6h3.9v3.8h11.9v-3.7h3.7c0,1,0.1,1.9,0,2.9c-0.1,0.8,0.3,1,1,0.9c1-0.1,1.9,0,3,0v4h4.1v-7.7h3.8
		v15.7h-3.8c0,1.1,0,2.1,0,3.1c0,0.7-0.2,0.9-0.9,0.8c-0.8,0-1.6,0-2.3,0c-0.7,0-0.9,0.2-0.9,0.9c0,1.1-0.1,2.1-0.1,3.2l0,0
		c-1,0-1.9-0.1-2.9-0.1c-0.8,0-1-0.2-1-1c0.1-1,0-1.9,0-2.9h-19.6v3.8c-1.4,0.1-2.6,0.1-3.9,0.2l0,0c-0.1-1.3-0.1-2.7-0.2-4.1h-3.9
		v-3.9h-3.8v-15.7c1.1,0,2.1,0,3.1,0c0.6,0,0.7,0.2,0.7,0.7c0,1.8,0,3.6,0,5.4c0,0.6,0,1.1,0,1.7h4v-4h4v-4H1878.5z M1878.5,636.3
		h3.8v-3.8h-3.8V636.3z M1898,632.5h-3.8c0,1.2,0,2.3,0,3.5c0,0.1,0.4,0.4,0.6,0.4c0.9,0,1.7,0.1,2.6,0c0.2,0,0.6-0.3,0.6-0.5
		C1898,634.8,1898,633.7,1898,632.5L1898,632.5z"/>
	<path d="M1901.8,648.3L1901.8,648.3c1.2,0,2.5-0.1,3.7-0.1c0.1,0,0.4,0.2,0.4,0.4c0,1.2,0,2.3,0,3.5h-4
		C1901.9,650.8,1901.9,649.6,1901.8,648.3L1901.8,648.3z"/>
	<path d="M1878.5,624.6c-1.3,0-2.6,0-3.9,0v-3.8h3.9V624.6C1878.4,624.6,1878.5,624.6,1878.5,624.6z"/>
	<path d="M1870.6,648.3c1.4,0,4,0,4,0c0,1,0,3.8,0,3.8s-2.8,0-4,0V648.3L1870.6,648.3z"/>
	<path d="M1901.8,624.6h-3.8c0-1.2,0-2.3,0-3.4c0-0.2,0.3-0.4,0.4-0.5c1.1,0,2.3,0,3.4,0C1901.8,620.7,1901.8,624.6,1901.8,624.6z"
		/>
</g>
<g>
	<path d="M774,644.3L774,644.3c0-1.1,0.1-2.2,0-3.3c0-0.2-0.3-0.6-0.5-0.6c-2.9,0-5.8,0-8.9,0v4l0,0h-4.8c0-1.1,0-2.1,0-3.1
		c0-0.7-0.2-0.9-0.9-0.9c-1.8,0-3.6,0-5.4,0c-1.1,0-2.2,0-3.4,0v-7.8h4.8v-4h4.9v-3.9h4.8v-3.8h9.3v3.9h4.8v3.9h5c0,1.1,0,2.1,0,3.2
		c0,0.7,0.2,0.9,0.9,0.9c1.2,0,2.4,0,3.7,0v7.8h-9.6v3.9H774V644.3z M778.8,632.5H774v3.8c1.5,0,2.9,0,4.3,0c0.1,0,0.4-0.3,0.4-0.4
		C778.8,634.8,778.8,633.7,778.8,632.5L778.8,632.5z M764.6,636.4v-3.9c-1.5,0-2.9,0-4.4,0c-0.1,0-0.4,0.3-0.4,0.5c0,1,0,1.9,0,2.9
		c0,0.2,0.3,0.5,0.5,0.5C761.8,636.4,763.1,636.4,764.6,636.4L764.6,636.4z"/>
	<path d="M764.7,644.3L764.7,644.3c3.1,0,6.2,0,9.4,0l0,0c0,1.4,0,2.7-0.1,4.1l0,0c-0.3,0-0.7-0.1-1-0.1c-2.4,0-4.8,0-7.3,0
		c-0.3,0-0.6,0-1,0L764.7,644.3L764.7,644.3z"/>
	<path d="M783.8,644.3c0,1,0.1,1.9,0,2.8c-0.1,0.8,0.2,1.1,1,1.1c1.2-0.1,2.4,0,3.5,0v3.8h-4.5c0-1,0-2,0-2.9c0-0.8-0.3-1-1-0.9
		c-1.3,0.1-2.6,0-4,0v-3.9L783.8,644.3L783.8,644.3z"/>
	<path d="M759.7,648.4c-0.3-0.1-0.7-0.1-1-0.2c-1.2,0-2.4,0-3.7,0v-3.8h4.9C759.8,645.8,759.8,647.1,759.7,648.4L759.7,648.4z"/>
	<path d="M750.1,648.3h4.8c0,1.2,0,2.3,0,3.4c0,0.2-0.4,0.4-0.6,0.5c-1.2,0-2.4,0-3.6,0c-0.2,0-0.5-0.3-0.5-0.5
		C750.1,650.5,750.1,649.5,750.1,648.3L750.1,648.3z"/>
	<path d="M759.7,648.4L759.7,648.4c1.6,0,3.2,0,4.9,0v3.7h-4.7c0-0.5,0-1,0-1.4C759.8,649.9,759.8,649.1,759.7,648.4L759.7,648.4z"
		/>
	<path d="M774,648.4c1.6,0,3.1,0,4.7,0v3.8c-1.4,0-2.7,0-4,0c-0.5,0-0.6-0.2-0.6-0.6C774,650.4,774,649.4,774,648.4L774,648.4z"/>
</g>
<g>
	<path d="M921.9,704.5h-4.8v-3.9h-9.6v-7.8c1.3,0,2.5,0,3.7,0c0.7,0,0.9-0.2,0.9-0.9c-0.1-1,0-2,0-3.2h5v-3.9h4.8V681h9.3v3.8h4.8
		v3.9h4.9v4h4.8v7.8c-1.2,0-2.3,0-3.4,0c-1.8,0-3.6,0-5.4,0c-0.7,0-1,0.2-0.9,0.9c0.1,1,0,1.9,0,3.1h-4.8l0,0v-4c-3.1,0-6,0-8.9,0
		c-0.2,0-0.5,0.4-0.5,0.6C921.9,702.3,921.9,703.4,921.9,704.5L921.9,704.5L921.9,704.5z M917.1,692.8c0,1.2,0,2.3,0,3.4
		c0,0.2,0.3,0.4,0.4,0.4c1.4,0,2.9,0,4.3,0v-3.8L917.1,692.8L917.1,692.8z M931.3,696.6c1.5,0,2.9,0,4.2,0c0.2,0,0.5-0.3,0.5-0.5
		c0.1-1,0-1.9,0-2.9c0-0.2-0.2-0.5-0.4-0.5c-1.5,0-2.9,0-4.4,0v3.9H931.3z"/>
	<path d="M931.2,704.5v3.9c-0.4,0-0.7,0-1,0c-2.4,0-4.8,0-7.3,0c-0.3,0-0.7,0.1-1,0.1l0,0c0-1.4,0-2.7-0.1-4.1l0,0
		C925,704.5,928.1,704.5,931.2,704.5L931.2,704.5L931.2,704.5z"/>
	<path d="M912.1,704.6h4.9v3.9c-1.3,0-2.7,0-4,0c-0.7,0-1,0.2-1,0.9c0.1,1,0,1.9,0,2.9h-4.5v-3.8c1.2,0,2.4-0.1,3.5,0
		c0.9,0.1,1.1-0.3,1-1.1C912.1,706.5,912.1,705.6,912.1,704.6L912.1,704.6z"/>
	<path d="M936.2,708.6c-0.1-1.3-0.1-2.6-0.2-4h4.9v3.8c-1.2,0-2.5,0-3.7,0C936.9,708.4,936.5,708.5,936.2,708.6L936.2,708.6z"/>
	<path d="M945.8,708.5c0,1.2,0,2.3,0,3.3c0,0.2-0.4,0.5-0.5,0.5c-1.2,0-2.4,0-3.6,0c-0.2,0-0.6-0.3-0.6-0.5c-0.1-1.1,0-2.2,0-3.4
		L945.8,708.5L945.8,708.5z"/>
	<path d="M936.2,708.6c-0.1,0.8-0.1,1.5-0.2,2.3c0,0.4,0,0.9,0,1.4h-4.7v-3.7C933,708.6,934.6,708.6,936.2,708.6L936.2,708.6
		L936.2,708.6z"/>
	<path d="M921.9,708.5c0,1-0.1,2.1-0.1,3.1c0,0.5-0.1,0.7-0.6,0.6c-1.3,0-2.6,0-4,0v-3.8C918.8,708.6,920.4,708.6,921.9,708.5
		L921.9,708.5z"/>
</g>
<g>
	<path d="M1241.6,764.7h-4.8v-3.9h-9.6V753c1.3,0,2.5,0,3.7,0c0.7,0,0.9-0.2,0.9-0.9c-0.1-1,0-2,0-3.2h5V745h4.8v-3.9h9.3v3.8h4.8
		v3.9h4.9v4h4.8v7.8c-1.2,0-2.3,0-3.4,0c-1.8,0-3.6,0-5.4,0c-0.7,0-1,0.2-0.9,0.9c0.1,1,0,1.9,0,3.1h-4.8l0,0v-4c-3.1,0-6,0-8.9,0
		c-0.2,0-0.5,0.4-0.5,0.6C1241.6,762.5,1241.6,763.6,1241.6,764.7L1241.6,764.7L1241.6,764.7z M1236.8,753c0,1.2,0,2.3,0,3.4
		c0,0.2,0.3,0.4,0.4,0.4c1.4,0,2.9,0,4.3,0V753H1236.8L1236.8,753z M1251,756.8c1.5,0,2.9,0,4.2,0c0.2,0,0.5-0.3,0.5-0.5
		c0.1-1,0-1.9,0-2.9c0-0.2-0.2-0.5-0.4-0.5c-1.5,0-2.9,0-4.4,0v3.9H1251z"/>
	<path d="M1250.9,764.7v3.9c-0.4,0-0.7,0-1,0c-2.4,0-4.8,0-7.3,0c-0.3,0-0.7,0.1-1,0.1l0,0c0-1.4,0-2.7-0.1-4.1l0,0
		C1244.7,764.7,1247.8,764.7,1250.9,764.7L1250.9,764.7L1250.9,764.7z"/>
	<path d="M1231.8,764.8h4.9v3.9c-1.3,0-2.7,0-4,0c-0.7,0-1,0.2-1,0.9c0.1,1,0,1.9,0,2.9h-4.5v-3.8c1.2,0,2.4-0.1,3.5,0
		c0.9,0.1,1.1-0.3,1-1.1C1231.8,766.7,1231.8,765.8,1231.8,764.8L1231.8,764.8z"/>
	<path d="M1255.9,768.8c-0.1-1.3-0.1-2.6-0.2-4h4.9v3.8c-1.2,0-2.5,0-3.7,0C1256.6,768.6,1256.2,768.7,1255.9,768.8L1255.9,768.8z"
		/>
	<path d="M1265.5,768.7c0,1.2,0,2.3,0,3.3c0,0.2-0.4,0.5-0.5,0.5c-1.2,0-2.4,0-3.6,0c-0.2,0-0.6-0.3-0.6-0.5c-0.1-1.1,0-2.2,0-3.4
		L1265.5,768.7L1265.5,768.7z"/>
	<path d="M1255.9,768.8c-0.1,0.8-0.1,1.5-0.2,2.3c0,0.4,0,0.9,0,1.4h-4.7v-3.7C1252.7,768.8,1254.3,768.8,1255.9,768.8L1255.9,768.8
		L1255.9,768.8z"/>
	<path d="M1241.6,768.8c0,1-0.1,2.1-0.1,3.1c0,0.5-0.1,0.7-0.6,0.6c-1.3,0-2.6,0-4,0v-3.8C1238.5,768.8,1240.1,768.8,1241.6,768.8
		L1241.6,768.8z"/>
</g>
<g>
	<path d="M773.3,885.2L773.3,885.2c0-1.1,0-2.2,0-3.3c0-0.5-0.2-0.7-0.7-0.7c-2.2,0-4.5,0-6.7,0c-0.5,0-0.7,0.2-0.7,0.7
		c0,1.1,0,2.2,0,3.3l0,0c-2.4,0-4.7-0.1-7.1,0c-0.2,0-0.5,0.4-0.6,0.6c-0.1,0.9,0,1.7,0,2.6c0,0.6,0.2,0.8,0.8,0.8c1,0,2,0,3.1,0
		v3.8h-7.9v-3.8c-1.1,0-2.2,0-3.2,0c-0.2,0-0.6-0.2-0.6-0.4c-0.1-1.1,0-2.3,0-3.5h3.8v-3.9c-2.4,0-4.6,0-6.9,0
		c-0.7,0-0.9-0.2-0.9-0.9c0-3.4,0-6.8,0-10.2c0-0.2,0-0.5,0.1-0.8h3.9v-3.9h11.9v-3.8H777v3.9h12v3.9c1.1,0,2.1,0,3.1,0
		c0.7,0,0.9,0.2,0.9,0.9c0,3.4,0,6.8,0,10.2c0,0.3,0,0.5-0.1,0.9H785c0,1.1,0,2.1,0,3.1c0,0.6,0.2,0.9,0.8,0.8c1,0,2,0,3.1,0v3.9
		H785v3.9h-7.9v-3.9c1.1,0,2.1,0,3.2,0c0.3,0,0.7-0.3,0.7-0.4c0.1-1.1,0-2.3,0-3.4L773.3,885.2L773.3,885.2z M773.3,873.4v3.7
		c0.2,0,0.4,0.1,0.7,0.1c2.1,0,4.1,0,6.2,0c0.6,0,0.9-0.2,0.8-0.8c0-1,0-2,0-3H773.3z M761.3,877.3c1,0,2.1,0,3.1,0
		c0.5,0,0.8-0.1,0.7-0.7c0-0.8,0-1.7,0-2.5c0-0.5-0.1-0.7-0.7-0.7c-2.2,0-4.3,0-6.5,0c-0.5,0-0.6,0.2-0.6,0.6c0,0.8,0,1.6,0,2.4
		c0,0.6,0.2,0.9,0.8,0.8C759.3,877.2,760.3,877.3,761.3,877.3L761.3,877.3z"/>
	<path d="M765.2,885.2L765.2,885.2c2.7,0,5.4,0,8.1,0l0,0c0,1.2,0,2.5,0,3.8h-8.1V885.2L765.2,885.2z"/>
</g>
<g>
	<path d="M133.9,885.2L133.9,885.2c0-1.1,0-2.2,0-3.3c0-0.5-0.2-0.7-0.7-0.7c-2.2,0-4.5,0-6.7,0c-0.5,0-0.7,0.2-0.7,0.7
		c0,1.1,0,2.2,0,3.3l0,0c-2.4,0-4.7-0.1-7.1,0c-0.2,0-0.5,0.4-0.6,0.6c-0.1,0.9,0,1.7,0,2.6c0,0.6,0.2,0.8,0.8,0.8c1,0,2,0,3.1,0
		v3.8h-8v-3.8c-1.1,0-2.2,0-3.2,0c-0.2,0-0.6-0.2-0.6-0.4c-0.1-1.1,0-2.3,0-3.5h3.8v-3.9c-2.4,0-4.6,0-6.9,0c-0.7,0-0.9-0.2-0.9-0.9
		c0-3.4,0-6.8,0-10.2c0-0.2,0-0.5,0.1-0.8h3.9v-3.9H122v-3.8h15.6v3.9h11.9v3.9c1.1,0,2.1,0,3.1,0c0.7,0,0.9,0.2,0.9,0.9
		c0,3.4,0,6.8,0,10.2c0,0.3,0,0.5-0.1,0.9h-7.8c0,1.1,0,2.1,0,3.1c0,0.6,0.2,0.9,0.8,0.8c1,0,2,0,3.1,0v3.9h-3.9v3.9h-7.9v-3.9
		c1.1,0,2.1,0,3.2,0c0.3,0,0.7-0.3,0.7-0.4c0.1-1.1,0-2.3,0-3.4L133.9,885.2L133.9,885.2z M133.9,873.4v3.7c0.2,0,0.4,0.1,0.7,0.1
		c2.1,0,4.1,0,6.2,0c0.6,0,0.9-0.2,0.8-0.8c0-1,0-2,0-3H133.9z M121.9,877.3c1,0,2.1,0,3.1,0c0.5,0,0.8-0.1,0.7-0.7
		c0-0.8,0-1.7,0-2.5c0-0.5-0.1-0.7-0.7-0.7c-2.2,0-4.3,0-6.5,0c-0.5,0-0.6,0.2-0.6,0.6c0,0.8,0,1.6,0,2.4c0,0.6,0.2,0.9,0.8,0.8
		C119.9,877.2,120.9,877.3,121.9,877.3L121.9,877.3z"/>
	<path d="M125.8,885.2L125.8,885.2c2.7,0,5.4,0,8.1,0l0,0c0,1.2,0,2.5,0,3.8h-8.1L125.8,885.2L125.8,885.2z"/>
</g>
<g>
	<path d="M1321.5,945.4h-4.8v-3.9h-9.6v-7.8c1.3,0,2.5,0,3.7,0c0.7,0,0.9-0.2,0.9-0.9c-0.1-1,0-2,0-3.2h5v-3.9h4.8v-3.9h9.3v3.8h4.8
		v3.9h4.9v4h4.8v7.8c-1.2,0-2.3,0-3.4,0c-1.8,0-3.6,0-5.4,0c-0.7,0-1,0.2-0.9,0.9c0.1,1,0,1.9,0,3.1h-4.8l0,0v-4c-3.1,0-6,0-8.9,0
		c-0.2,0-0.5,0.4-0.5,0.6C1321.5,943.2,1321.5,944.3,1321.5,945.4L1321.5,945.4L1321.5,945.4z M1316.7,933.6c0,1.2,0,2.3,0,3.4
		c0,0.2,0.3,0.4,0.4,0.4c1.4,0,2.9,0,4.3,0v-3.8L1316.7,933.6L1316.7,933.6z M1330.9,937.5c1.5,0,2.9,0,4.2,0c0.2,0,0.5-0.3,0.5-0.5
		c0.1-1,0-1.9,0-2.9c0-0.2-0.2-0.5-0.4-0.5c-1.5,0-2.9,0-4.4,0v3.9H1330.9z"/>
	<path d="M1330.9,945.4v3.9c-0.4,0-0.7,0-1,0c-2.4,0-4.8,0-7.3,0c-0.3,0-0.7,0.1-1,0.1l0,0c0-1.4,0-2.7-0.1-4.1l0,0
		C1324.6,945.4,1327.8,945.4,1330.9,945.4L1330.9,945.4L1330.9,945.4z"/>
	<path d="M1311.7,945.4h4.9v3.9c-1.3,0-2.7,0-4,0c-0.7,0-1,0.2-1,0.9c0.1,1,0,1.9,0,2.9h-4.5v-3.8c1.2,0,2.4-0.1,3.5,0
		c0.9,0.1,1.1-0.3,1-1.1C1311.7,947.3,1311.7,946.4,1311.7,945.4L1311.7,945.4z"/>
	<path d="M1335.8,949.4c-0.1-1.3-0.1-2.6-0.2-4h4.9v3.8c-1.2,0-2.5,0-3.7,0C1336.5,949.3,1336.2,949.4,1335.8,949.4L1335.8,949.4z"
		/>
	<path d="M1345.4,949.3c0,1.2,0,2.3,0,3.3c0,0.2-0.4,0.5-0.5,0.5c-1.2,0-2.4,0-3.6,0c-0.2,0-0.6-0.3-0.6-0.5c-0.1-1.1,0-2.2,0-3.4
		L1345.4,949.3L1345.4,949.3z"/>
	<path d="M1335.8,949.4c-0.1,0.8-0.1,1.5-0.2,2.3c0,0.4,0,0.9,0,1.4h-4.7v-3.7C1332.6,949.4,1334.2,949.4,1335.8,949.4L1335.8,949.4
		L1335.8,949.4z"/>
	<path d="M1321.6,949.4c0,1-0.1,2.1-0.1,3.1c0,0.5-0.1,0.7-0.6,0.6c-1.3,0-2.6,0-4,0v-3.8C1318.4,949.4,1320,949.4,1321.6,949.4
		L1321.6,949.4z"/>
</g>
<g>
	<path d="M1732.4,929.5L1732.4,929.5c0-1.1,0-2.2,0-3.3c0-0.5-0.2-0.7-0.7-0.7c-2.2,0-4.5,0-6.7,0c-0.5,0-0.7,0.2-0.7,0.7
		c0,1.1,0,2.2,0,3.3l0,0c-2.4,0-4.7-0.1-7.1,0c-0.2,0-0.5,0.4-0.6,0.6c-0.1,0.9,0,1.7,0,2.6c0,0.6,0.2,0.8,0.8,0.8c1,0,2,0,3.1,0
		v3.8h-7.9v-3.8c-1.1,0-2.2,0-3.2,0c-0.2,0-0.6-0.2-0.6-0.4c-0.1-1.1,0-2.3,0-3.5h3.8v-3.9c-2.4,0-4.6,0-6.9,0
		c-0.7,0-0.9-0.2-0.9-0.9c0-3.4,0-6.8,0-10.2c0-0.2,0-0.5,0.1-0.8h3.9v-3.9h11.9V906h15.6v3.9h11.9v3.9c1.1,0,2.1,0,3.1,0
		c0.7,0,0.9,0.2,0.9,0.9c0,3.4,0,6.8,0,10.2c0,0.3,0,0.5-0.1,0.9h-7.8c0,1.1,0,2.1,0,3.1c0,0.6,0.2,0.9,0.8,0.8c1,0,2,0,3.1,0v3.9
		h-3.9v3.9h-7.9v-3.9c1.1,0,2.1,0,3.2,0c0.3,0,0.7-0.3,0.7-0.4c0.1-1.1,0-2.3,0-3.4L1732.4,929.5L1732.4,929.5z M1732.4,917.8v3.7
		c0.2,0,0.4,0.1,0.7,0.1c2.1,0,4.1,0,6.2,0c0.6,0,0.9-0.2,0.8-0.8c0-1,0-2,0-3H1732.4z M1720.4,921.6c1,0,2.1,0,3.1,0
		c0.5,0,0.8-0.1,0.7-0.7c0-0.8,0-1.7,0-2.5c0-0.5-0.1-0.7-0.7-0.7c-2.2,0-4.3,0-6.5,0c-0.5,0-0.6,0.2-0.6,0.6c0,0.8,0,1.6,0,2.4
		c0,0.6,0.2,0.9,0.8,0.8C1718.4,921.6,1719.4,921.6,1720.4,921.6L1720.4,921.6z"/>
	<path d="M1724.3,929.5L1724.3,929.5c2.7,0,5.4,0,8.1,0l0,0c0,1.2,0,2.5,0,3.8h-8.1V929.5L1724.3,929.5z"/>
</g>
<g>
	<path d="M1798.4,1009.5L1798.4,1009.5h-3.9v-7.9c-1.2,0-2.2,0-3.2,0c-0.6,0-0.8,0.2-0.8,0.8c0,2.9,0,5.7,0,8.6c0,0.8,0,1.5,0,2.4
		h-3.9v-15.7h4c0-1,0.1-2,0-2.9s0.3-1.1,1.1-1c0.9,0.1,1.9,0,3,0v-4h3.9v-3.9l0,0h4v3.8h11.7c0-1.1,0-2.1,0-3.1
		c0-0.6,0.2-0.7,0.7-0.7c1.1,0,2.3,0,3.4,0l0,0v3.8h3.8c0,1.1,0,2.2,0,3.2c0,0.6,0.2,0.8,0.8,0.8c1,0,2,0,3.1,0c0,1.1,0,2,0,3
		c0,0.7,0.2,1,0.9,0.9c1-0.1,2,0,3,0v15.8c-1.1,0-2,0-3,0c-0.7,0-0.9-0.2-0.9-0.9c0-3.3,0-6.5,0-9.8c0-0.3,0-0.7-0.1-1.1
		c-1.1,0-2.2,0-3.2,0c-0.6,0-0.7,0.2-0.7,0.8c0,1.1,0,2.3,0,3.4c0,1.2,0,2.4,0,3.8h-3.8l0,0c0-1-0.1-2-0.1-3c0-0.8-0.2-1-1-1
		c-6,0-11.9,0-17.9,0c-0.3,0-0.6,0-0.9,0.1V1009.5L1798.4,1009.5z M1814.2,993.7c0,1.2,0,2.3,0,3.4c0,0.2,0.4,0.5,0.6,0.5
		c1,0.1,1.9,0,2.9,0c0.5,0,0.6-0.2,0.6-0.6c0-0.9,0-1.8,0-2.7c0-0.2-0.3-0.6-0.5-0.6C1816.6,993.7,1815.4,993.7,1814.2,993.7
		L1814.2,993.7z M1802.4,993.8h-3.9v3.8h3.9V993.8z"/>
	<path d="M1798.4,1009.5L1798.4,1009.5c2.5,0,4.9,0,7.4,0c0.2,0,0.5,0.3,0.5,0.4c0,1.1,0,2.3,0,3.4h-7.9V1009.5L1798.4,1009.5z"/>
	<path d="M1818.4,1009.6C1818.4,1009.6,1818.3,1009.5,1818.4,1009.6c0,1.2,0,2.5,0,3.8h-7.9v-3.8H1818.4L1818.4,1009.6z"/>
	<path d="M1798.4,985.9L1798.4,985.9c-1.3,0-2.5,0-3.9,0c0-1.2,0-2.3,0-3.4c0-0.2,0.2-0.5,0.4-0.5c1.2,0,2.3,0,3.5,0V985.9
		L1798.4,985.9z"/>
	<path d="M1818.3,985.9c0-1.3,0-2.6,0-3.9h3.7v3.9H1818.3L1818.3,985.9z"/>
</g>
<g>
	<path d="M694.1,1005.6L694.1,1005.6c0-1.1,0.1-2.2,0-3.3c0-0.2-0.3-0.6-0.5-0.6c-2.9,0-5.8,0-8.9,0v4l0,0H680c0-1.1,0-2.1,0-3.1
		c0-0.7-0.2-0.9-0.9-0.9c-1.8,0-3.6,0-5.4,0c-1.1,0-2.2,0-3.4,0v-7.8h4.8v-4h4.9V986h4.8v-4h9.3v3.9h4.8v3.9h5c0,1.1,0,2.1,0,3.2
		c0,0.7,0.2,0.9,0.9,0.9c1.2,0,2.4,0,3.7,0v7.8h-9.6v3.9L694.1,1005.6L694.1,1005.6z M698.9,993.8h-4.8v3.8c1.5,0,2.9,0,4.3,0
		c0.1,0,0.4-0.3,0.4-0.4C698.9,996.1,698.9,995,698.9,993.8L698.9,993.8z M684.7,997.7v-3.9c-1.5,0-2.9,0-4.4,0
		c-0.1,0-0.4,0.3-0.4,0.5c0,1,0,1.9,0,2.9c0,0.2,0.3,0.5,0.5,0.5C681.8,997.7,683.2,997.7,684.7,997.7L684.7,997.7z"/>
	<path d="M684.7,1005.6L684.7,1005.6c3.1,0,6.2,0,9.4,0l0,0c0,1.4,0,2.7-0.1,4.1l0,0c-0.3,0-0.7-0.1-1-0.1c-2.4,0-4.8,0-7.3,0
		c-0.3,0-0.6,0-1,0L684.7,1005.6L684.7,1005.6z"/>
	<path d="M703.9,1005.6c0,1,0.1,1.9,0,2.8c-0.1,0.8,0.2,1.1,1,1.1c1.2-0.1,2.4,0,3.5,0v3.8h-4.5c0-1,0-2,0-2.9c0-0.8-0.3-1-1-0.9
		c-1.3,0.1-2.6,0-4,0v-3.9L703.9,1005.6L703.9,1005.6z"/>
	<path d="M679.8,1009.6c-0.3-0.1-0.7-0.1-1-0.2c-1.2,0-2.4,0-3.7,0v-3.8h4.9C679.9,1007,679.9,1008.3,679.8,1009.6L679.8,1009.6z"/>
	<path d="M670.2,1009.6h4.8c0,1.2,0,2.3,0,3.4c0,0.2-0.4,0.4-0.6,0.5c-1.2,0-2.4,0-3.6,0c-0.2,0-0.5-0.3-0.5-0.5
		C670.2,1011.8,670.2,1010.7,670.2,1009.6L670.2,1009.6z"/>
	<path d="M679.8,1009.6L679.8,1009.6c1.6,0,3.2,0,4.9,0v3.7H680c0-0.5,0-1,0-1.4C679.9,1011.1,679.8,1010.4,679.8,1009.6
		L679.8,1009.6z"/>
	<path d="M694,1009.6c1.6,0,3.1,0,4.7,0v3.8c-1.4,0-2.7,0-4,0c-0.5,0-0.6-0.2-0.6-0.6C694.1,1011.7,694.1,1010.7,694,1009.6
		L694,1009.6z"/>
</g>
<g>
	<path d="M1416,1042.5v3.9h4v4h4c0-0.6,0-1.1,0-1.7c0-1.8,0-3.6,0-5.4c0-0.5,0.2-0.7,0.7-0.7c1,0,2,0,3.1,0v15.7h-3.8v3.9h-3.9
		c-0.1,1.4-0.1,2.8-0.2,4.1l0,0c-1.2-0.1-2.5-0.1-3.9-0.2v-3.8h-19.6c0,1,0,1.9,0,2.9c0,0.7-0.2,1-1,1c-1,0-1.9,0.1-2.9,0.1l0,0
		c0-1.1-0.1-2.2-0.1-3.2c0-0.7-0.2-0.9-0.9-0.9c-0.8,0.1-1.6,0-2.3,0c-0.7,0-0.9-0.2-0.9-0.8c0.1-1,0-2,0-3.1h-3.8v-15.7h3.8v7.7
		h4.1v-4c1.1,0,2,0,3,0c0.7,0,1-0.2,1-0.9c-0.1-0.9,0-1.9,0-2.9h3.7v3.7h11.9v-3.8L1416,1042.5L1416,1042.5L1416,1042.5z
		 M1416,1050.4h-3.8v3.8h3.8C1416,1054.2,1416,1050.4,1416,1050.4z M1396.4,1050.4c0,1.2,0,2.3,0,3.4c0,0.2,0.4,0.4,0.6,0.5
		c0.9,0.1,1.7,0,2.6,0c0.2,0,0.6-0.2,0.6-0.4c0-1.1,0-2.3,0-3.5H1396.4L1396.4,1050.4z"/>
	<path d="M1392.6,1066.1c-0.1,1.2-0.1,2.5-0.2,3.8h-4c0-1.2,0-2.3,0-3.5c0-0.1,0.3-0.4,0.4-0.4
		C1390.1,1066.1,1391.4,1066.1,1392.6,1066.1C1392.6,1066.2,1392.6,1066.1,1392.6,1066.1L1392.6,1066.1z"/>
	<path d="M1416,1042.5v-3.8h3.9v3.8C1418.6,1042.5,1417.3,1042.5,1416,1042.5L1416,1042.5z"/>
	<path d="M1423.8,1066.2v3.8c-1.1,0-4,0-4,0s0-2.8,0-3.8C1419.9,1066.1,1422.5,1066.2,1423.8,1066.2L1423.8,1066.2z"/>
	<path d="M1392.6,1038.6c1.1,0,2.3,0,3.4,0c0.1,0,0.4,0.3,0.4,0.5c0,1.1,0,2.2,0,3.4h-3.8
		C1392.6,1042.4,1392.6,1038.6,1392.6,1038.6z"/>
</g>
<g>
	<path d="M1641.2,1062.1h-4.8v-3.9h-9.6v-7.8c1.3,0,2.5,0,3.7,0c0.7,0,0.9-0.2,0.9-0.9c-0.1-1,0-2,0-3.2h5v-3.9h4.8v-3.9h9.3v3.8
		h4.8v3.9h4.9v4h4.8v7.8c-1.2,0-2.3,0-3.4,0c-1.8,0-3.6,0-5.4,0c-0.7,0-1,0.2-0.9,0.9c0.1,1,0,1.9,0,3.1h-4.8l0,0v-4
		c-3.1,0-6,0-8.9,0c-0.2,0-0.5,0.4-0.5,0.6C1641.2,1059.9,1641.2,1061.1,1641.2,1062.1L1641.2,1062.1L1641.2,1062.1z M1636.4,1050.4
		c0,1.2,0,2.3,0,3.4c0,0.2,0.3,0.4,0.4,0.4c1.4,0,2.9,0,4.3,0v-3.8H1636.4L1636.4,1050.4z M1650.6,1054.2c1.5,0,2.9,0,4.2,0
		c0.2,0,0.5-0.3,0.5-0.5c0.1-1,0-1.9,0-2.9c0-0.2-0.2-0.5-0.4-0.5c-1.5,0-2.9,0-4.4,0v3.9H1650.6z"/>
	<path d="M1650.6,1062.1v3.9c-0.4,0-0.7,0-1,0c-2.4,0-4.8,0-7.3,0c-0.3,0-0.7,0.1-1,0.1l0,0c0-1.4,0-2.7-0.1-4.1l0,0
		C1644.3,1062.2,1647.5,1062.2,1650.6,1062.1L1650.6,1062.1L1650.6,1062.1z"/>
	<path d="M1631.4,1062.2h4.9v3.9c-1.3,0-2.7,0-4,0c-0.7,0-1,0.2-1,0.9c0.1,1,0,1.9,0,2.9h-4.5v-3.8c1.2,0,2.4-0.1,3.5,0
		c0.9,0.1,1.1-0.3,1-1.1C1631.4,1064.1,1631.4,1063.2,1631.4,1062.2L1631.4,1062.2z"/>
	<path d="M1655.5,1066.2c-0.1-1.3-0.1-2.6-0.2-4h4.9v3.8c-1.2,0-2.5,0-3.7,0C1656.2,1066,1655.9,1066.1,1655.5,1066.2L1655.5,1066.2
		z"/>
	<path d="M1665.1,1066.1c0,1.2,0,2.3,0,3.3c0,0.2-0.4,0.5-0.5,0.5c-1.2,0-2.4,0-3.6,0c-0.2,0-0.6-0.3-0.6-0.5c-0.1-1.1,0-2.2,0-3.4
		L1665.1,1066.1L1665.1,1066.1z"/>
	<path d="M1655.5,1066.2c-0.1,0.8-0.1,1.5-0.2,2.3c0,0.4,0,0.9,0,1.4h-4.7v-3.7C1652.3,1066.2,1653.9,1066.2,1655.5,1066.2
		L1655.5,1066.2L1655.5,1066.2z"/>
	<path d="M1641.3,1066.2c0,1-0.1,2.1-0.1,3.1c0,0.5-0.1,0.7-0.6,0.6c-1.3,0-2.6,0-4,0v-3.8
		C1638.1,1066.2,1639.7,1066.2,1641.3,1066.2L1641.3,1066.2z"/>
</g>
</svg>
