<svg version="1.1" xmlns="http://www.w3.org/2000/svg" xmlns:xlink="http://www.w3.org/1999/xlink" x="0px" y="0px" viewBox="0 0 260 500" style="enable-background:new 0 0 260 500;" xml:space="preserve">
    <path d="M241.6,499.9c-7,0-13.5-3.9-16.6-10.2L109.3,258.2c-4.5-9.2-0.8-20.3,8.4-24.8c2.5-1.2,5.3-1.9,8.1-1.9
	c53.7,1.7,98.6-40.4,100.4-94.1C227.9,83.7,185.7,38.7,132,37c-2.1-0.1-4.2-0.1-6.2,0H17.7C7.5,36.2-0.1,27.4,0.6,17.2
	C1.3,8,8.6,0.8,17.7,0.1h108.1c74,0,134.2,60.2,134.2,134.2c0,64.2-45.4,118.1-105.8,131.1L258,473.2c4.6,9.1,0.9,20.2-8.2,24.8
	C247.2,499.2,244.4,499.9,241.6,499.9z"/>
</svg>