<svg id="Layer_1" data-name="Layer 1" xmlns="http://www.w3.org/2000/svg" viewBox="0 0 150 150"><defs><style>.cls-1{fill:#c32361;}</style></defs><path class="cls-1" d="M75,0a75,75,0,1,0,75,75A75,75,0,0,0,75,0Zm49.5,34.6A63.1,63.1,0,0,1,139,74.4c-2.1-.4-23.2-4.7-44.6-2l-1.3-3.3c-1.3-3.1-2.8-6.3-4.3-9.3C112.4,50.2,123.2,36.4,124.5,34.6ZM75,11.1a64,64,0,0,1,42.5,16.1c-1.2,1.6-10.9,14.5-33.6,23.1A356.3,356.3,0,0,0,60,12.8,61.6,61.6,0,0,1,75,11.1Zm-27.3,6a387.6,387.6,0,0,1,23.8,37,238.4,238.4,0,0,1-59.2,7.8A64.3,64.3,0,0,1,47.7,17.1Zm-36.8,58v-2c2.8.1,33.8.5,65.8-9.1,1.9,3.6,3.6,7.3,5.2,10.9l-2.5.8c-33,10.6-50.6,39.7-52.1,42.2A64.3,64.3,0,0,1,10.9,75.1Zm64.1,64a63.4,63.4,0,0,1-39.3-13.5c1.1-2.4,14.2-27.4,50.3-40l.4-.2A272.4,272.4,0,0,1,100.1,134,64,64,0,0,1,75,139.1Zm35.7-11A275.9,275.9,0,0,0,98.3,82.5a93.8,93.8,0,0,1,39.8,2.7A63.2,63.2,0,0,1,110.7,128.1Z"/></svg>