<?xml version="1.0" encoding="utf-8"?>
<!-- Generator: Adobe Illustrator 28.2.0, SVG Export Plug-In . SVG Version: 6.00 Build 0)  -->
<svg version="1.1" id="Layer_2_00000127728220822053439310000014879719116146790589_"
	 xmlns="http://www.w3.org/2000/svg" xmlns:xlink="http://www.w3.org/1999/xlink" x="0px" y="0px" viewBox="0 0 1920 1080"
	 style="enable-background:new 0 0 1920 1080;" xml:space="preserve">
<g>
	<path d="M237.5,22.9L237.5,22.9l4-0.1v3.8h11.9v-3.7h3.7c0,1,0.1,2,0,2.9c0,0.7,0.3,0.9,1,0.9c1,0,1.9,0,3,0v4h4.1V23h3.8v15.7
		h-3.8c0,1.1-0.1,2.1,0,3.1c0,0.6-0.2,0.8-0.9,0.8c-0.7,0-1.5,0.1-2.3,0c-0.7,0-0.9,0.2-0.9,0.9c0,1-0.1,2.1-0.1,3.2l0,0
		c-1,0-1.9-0.1-2.9-0.1c-0.8,0-1-0.3-1-1c0-1,0-1.9,0-2.9h-19.6v3.8c-1.4,0.1-2.7,0.1-3.9,0.2l0,0c-0.1-1.3-0.1-2.7-0.2-4.1h-3.9
		v-3.9h-3.8V23c1.1,0,2.1,0,3.1,0c0.5,0,0.7,0.2,0.7,0.7c0,1.8,0,3.6,0,5.4c0,0.6,0,1.1,0,1.7h4v-4h4L237.5,22.9L237.5,22.9z
		 M237.5,34.6h3.8v-3.8h-3.8V34.6z M257,30.8h-3.8c0,1.2,0,2.4,0,3.5c0,0.2,0.4,0.4,0.6,0.4c0.9,0,1.7,0.1,2.6,0
		c0.2-0.1,0.6-0.3,0.6-0.5C257,33.1,257,32,257,30.8L257,30.8z"/>
	<path d="M260.8,46.6L260.8,46.6c1.2,0,2.5-0.1,3.8-0.1c0.1,0,0.4,0.3,0.4,0.4c0,1.2,0,2.3,0,3.5h-4
		C260.9,49.1,260.9,47.8,260.8,46.6L260.8,46.6z"/>
	<path d="M237.4,22.9c-1.2,0-2.5,0-3.9,0v-3.8h3.9V22.9C237.4,22.9,237.5,22.9,237.4,22.9z"/>
	<path d="M229.6,46.6c1.4,0,4,0,4,0c0,1,0,3.8,0,3.8s-2.9,0-4,0V46.6L229.6,46.6z"/>
	<path d="M260.8,22.9H257c0-1.2,0-2.3,0-3.4c0-0.2,0.3-0.5,0.4-0.5c1.1,0,2.3,0,3.4,0V22.9z"/>
</g>
<g>
	<path d="M640.4,102.8l-7.9,0.2c0,1.1-0.1,2.3,0,3.4c0,0.1,0.4,0.4,0.7,0.4c1.1,0,2.1,0,3.2,0v3.9h-7.9v-3.9h-3.9v-3.9
		c1.1,0,2.1,0,3.1,0c0.6,0.1,0.8-0.2,0.8-0.8c0-1,0-2,0-3.1h-7.8c-0.1-0.4-0.1-0.6-0.1-0.9c0-3.4,0-6.8,0-10.2
		c0-0.7,0.2-0.9,0.9-0.9c1,0,2,0,3.1,0v-3.9h11.9v-3.9h15.6V83H664v4.1h3.9c0.1,0.3,0.1,0.6,0.1,0.8c0,3.4,0,6.8,0,10.2
		c0,0.7-0.2,0.9-0.9,0.9c-2.3,0-4.5,0-6.9,0v3.9h3.8c0,1.2,0.1,2.4,0,3.5c0,0.2-0.4,0.4-0.6,0.4c-1,0-2.1,0-3.2,0v3.8h-7.9v-3.8
		c1.1,0,2.1,0,3.1,0c0.6,0,0.8-0.2,0.8-0.8c0-0.9,0.1-1.7,0-2.6c-0.1-0.2-0.4-0.6-0.6-0.6c-2.4-0.1-4.7,0-7.1,0l0,0
		c0-1.1,0-2.2,0-3.3c0-0.5-0.2-0.7-0.7-0.7c-2.2,0-4.5,0-6.7,0c-0.5,0-0.7,0.2-0.7,0.7C640.4,100.6,640.4,101.7,640.4,102.8
		L640.4,102.8L640.4,102.8z M632.6,91c0,1,0,2,0,3c-0.1,0.6,0.2,0.8,0.8,0.8c2.1,0,4.1,0,6.2,0c0.3,0,0.5-0.1,0.7-0.1V91H632.6z
		 M652.3,94.8c1,0,2.1,0,3.2-0.1c0.6,0.1,0.8-0.2,0.8-0.8c0-0.8,0-1.6,0-2.4c0-0.4-0.1-0.6-0.6-0.6c-2.2,0-4.3,0-6.5,0
		c-0.6,0-0.7,0.2-0.7,0.7c0,0.8,0,1.7,0,2.5c-0.1,0.6,0.2,0.7,0.7,0.7C650.2,94.8,651.3,94.8,652.3,94.8L652.3,94.8z"/>
	<path d="M648.5,102.8v3.8h-8.1c0-1.3,0-2.6,0-3.8l0,0C643.1,102.8,645.8,102.8,648.5,102.8L648.5,102.8L648.5,102.8z"/>
</g>
<g>
	<path d="M1133.8,106.7v-3.9c-0.3-0.1-0.6-0.1-0.9-0.1c-6,0-11.9,0-17.9,0c-0.8,0-1,0.2-1,1c0,1-0.1,2-0.1,3l0,0h-3.8
		c0-1.4,0-2.6,0-3.8c0-1.1,0-2.3,0-3.4c0-0.6-0.1-0.8-0.7-0.8c-1,0-2.1,0-3.2,0c-0.1,0.4-0.1,0.8-0.1,1.1c0,3.3,0,6.5,0,9.8
		c0,0.7-0.2,0.9-0.9,0.9c-1,0-1.9,0-3,0V94.7c1,0,2-0.1,3,0c0.7,0.1,0.9-0.2,0.9-0.9c0-1,0-1.9,0-3c1.1,0,2.1,0,3.1,0
		c0.6,0,0.8-0.2,0.8-0.8c0-1,0-2.1,0-3.2h3.8V83l0,0c1.1,0,2.3,0,3.4,0c0.5,0,0.7,0.1,0.7,0.7c0,1,0,2,0,3.1h11.7V83h4l0,0v3.9h3.9
		v4c1.1,0,2.1,0.1,3,0c0.8-0.1,1.2,0.1,1.1,1s0,1.9,0,2.9h4v15.8h-3.9c0-0.9,0-1.6,0-2.4c0-2.9,0-5.7,0-8.6c0-0.6-0.2-0.8-0.8-0.8
		c-1,0-2,0-3.2,0v7.9L1133.8,106.7L1133.8,106.7L1133.8,106.7z M1118.1,90.9c-1.3,0-2.4,0-3.6,0c-0.2,0-0.5,0.4-0.5,0.6
		c0,0.9,0,1.8,0,2.7c0,0.4,0.1,0.6,0.6,0.6c1,0,1.9,0.1,2.9,0c0.2,0,0.6-0.3,0.6-0.5C1118.1,93.2,1118.1,92.1,1118.1,90.9
		L1118.1,90.9z M1129.8,94.8h3.9V91h-3.9V94.8z"/>
	<path d="M1133.8,106.7v3.8h-7.9c0-1.1,0-2.3,0-3.4c0-0.1,0.3-0.4,0.5-0.4C1128.9,106.7,1131.3,106.7,1133.8,106.7L1133.8,106.7
		L1133.8,106.7z"/>
	<path d="M1113.9,106.7h7.9v3.8h-7.9C1113.9,109.2,1113.9,107.9,1113.9,106.7L1113.9,106.7L1113.9,106.7z"/>
	<path d="M1133.8,83.1v-3.9c1.2,0,2.3,0,3.5,0c0.2,0,0.4,0.3,0.4,0.5c0,1.1,0,2.2,0,3.4C1136.3,83.1,1135.1,83.1,1133.8,83.1
		L1133.8,83.1L1133.8,83.1z"/>
	<path d="M1113.9,83.1h-3.7v-3.9h3.7C1113.9,80.5,1113.9,81.8,1113.9,83.1L1113.9,83.1z"/>
</g>
<g>
	<path d="M1519.6,102.8l-7.9,0.2c0,1.1-0.1,2.3,0,3.4c0,0.1,0.4,0.4,0.7,0.4c1.1,0,2.1,0,3.2,0v3.9h-7.9v-3.9h-3.9v-3.9
		c1.1,0,2.1,0,3.1,0c0.6,0.1,0.8-0.2,0.8-0.8c0-1,0-2,0-3.1h-7.8c-0.1-0.4-0.1-0.6-0.1-0.9c0-3.4,0-6.8,0-10.2
		c0-0.7,0.2-0.9,0.9-0.9c1,0,2,0,3.1,0v-3.9h11.9v-3.9h15.6V83h11.9v4.1h3.9c0.1,0.3,0.1,0.6,0.1,0.8c0,3.4,0,6.8,0,10.2
		c0,0.7-0.2,0.9-0.9,0.9c-2.3,0-4.5,0-6.9,0v3.9h3.8c0,1.2,0.1,2.4,0,3.5c0,0.2-0.4,0.4-0.6,0.4c-1,0-2.1,0-3.2,0v3.8h-7.9v-3.8
		c1.1,0,2.1,0,3.1,0c0.6,0,0.8-0.2,0.8-0.8c0-0.9,0.1-1.7,0-2.6c-0.1-0.2-0.4-0.6-0.6-0.6c-2.4-0.1-4.7,0-7.1,0l0,0
		c0-1.1,0-2.2,0-3.3c0-0.5-0.2-0.7-0.7-0.7c-2.2,0-4.5,0-6.7,0c-0.5,0-0.7,0.2-0.7,0.7C1519.6,100.6,1519.6,101.7,1519.6,102.8
		L1519.6,102.8L1519.6,102.8z M1511.8,91c0,1,0,2,0,3c-0.1,0.6,0.2,0.8,0.8,0.8c2.1,0,4.1,0,6.2,0c0.3,0,0.5-0.1,0.7-0.1V91H1511.8z
		 M1531.5,94.8c1,0,2,0,3.2-0.1c0.6,0.1,0.8-0.2,0.8-0.8c0-0.8,0-1.6,0-2.4c0-0.4-0.1-0.6-0.6-0.6c-2.2,0-4.3,0-6.5,0
		c-0.6,0-0.7,0.2-0.7,0.7c0,0.8,0,1.7,0,2.5c-0.1,0.6,0.2,0.7,0.7,0.7C1529.4,94.8,1530.5,94.8,1531.5,94.8L1531.5,94.8z"/>
	<path d="M1527.7,102.8v3.8h-8.1c0-1.3,0-2.6,0-3.8l0,0C1522.3,102.8,1525,102.8,1527.7,102.8L1527.7,102.8L1527.7,102.8z"/>
</g>
<g>
	<path d="M1596.1,227L1596.1,227l-3.9-0.2v-7.9c-1.2,0-2.2,0-3.2,0c-0.6,0-0.8,0.2-0.8,0.8c0,2.9,0,5.7,0,8.6c0,0.8,0,1.6,0,2.4
		h-3.9V215h4c0-1.1,0.1-2,0-2.9c0-0.8,0.3-1,1.1-1c1,0,1.9,0,3,0v-4h3.9v-3.9l0,0h4v3.8h11.7c0-1.1,0-2.1,0-3.1
		c-0.1-0.5,0.2-0.7,0.7-0.7c1.1,0,2.3,0,3.4,0l0,0v3.8h3.8c0,1.1,0,2.2,0,3.2c-0.1,0.6,0.2,0.8,0.8,0.8c1,0,2,0,3.1,0
		c0,1.1,0.1,2.1,0,3c0,0.7,0.2,0.9,0.9,0.9c1,0,2,0,3,0v15.8c-1,0-2-0.1-3,0c-0.7,0-0.9-0.2-0.9-0.9c0-3.3,0-6.5,0-9.8
		c0-0.3-0.1-0.7-0.1-1.1c-1.1,0-2.2,0-3.2,0c-0.6,0-0.7,0.3-0.7,0.8c0,1.1,0,2.3,0,3.4c0,1.2,0,2.4,0,3.8h-3.8l0,0c0-1-0.1-2-0.1-3
		c0-0.7-0.2-1-1-1c-6,0-11.9,0-17.9,0c-0.2,0-0.5,0.1-0.9,0.1V227L1596.1,227z M1611.8,211.2c0,1.2,0,2.3-0.1,3.4
		c0,0.2,0.4,0.5,0.6,0.5c1,0,1.9,0,2.9,0c0.4,0.1,0.6-0.1,0.6-0.6c0-0.9,0.1-1.8,0-2.7c0-0.2-0.3-0.6-0.5-0.6
		C1614.2,211.2,1613.1,211.2,1611.8,211.2L1611.8,211.2z M1600.1,211.2h-3.9v3.8h3.9V211.2z"/>
	<path d="M1596.1,226.9L1596.1,226.9c2.4,0,4.9,0,7.4,0c0.2,0,0.5,0.2,0.5,0.4c0,1.1,0,2.2,0,3.4h-7.9V226.9L1596.1,226.9z"/>
	<path d="M1616,227L1616,227c0,1.2,0,2.5-0.1,3.8h-7.9V227H1616L1616,227z"/>
	<path d="M1596.1,203.3L1596.1,203.3c-1.3,0-2.5,0-3.9,0c0-1.2,0-2.3,0-3.4c0-0.2,0.3-0.5,0.4-0.5c1.2,0,2.3,0,3.5,0V203.3
		L1596.1,203.3z"/>
	<path d="M1616,203.3c0-1.2,0-2.5,0-3.9h3.7v3.9H1616L1616,203.3z"/>
</g>
<g>
	<path d="M956.8,263.4L956.8,263.4l4-0.1v3.8h11.9v-3.7h3.7c0,1,0.1,2,0,2.9c0,0.7,0.3,0.9,1,0.9c1,0,1.9,0,3,0v4h4.1v-7.7h3.8v15.7
		h-3.8c0,1.1-0.1,2.1,0,3.1c0,0.6-0.2,0.8-0.9,0.8s-1.5,0.1-2.3,0c-0.7,0-0.9,0.2-0.9,0.9c0,1-0.1,2.1-0.1,3.2l0,0
		c-1,0-1.9-0.1-2.9-0.1c-0.8,0-1-0.3-1-1c0-1,0-1.9,0-2.9h-19.6v3.8c-1.4,0.1-2.7,0.1-3.9,0.2l0,0c-0.1-1.3-0.1-2.7-0.2-4.1h-3.9
		v-3.9H945v-15.7c1.1,0,2.1,0,3.1,0c0.5,0,0.7,0.2,0.7,0.7c0,1.8,0,3.6,0,5.4c0,0.6,0,1.1,0,1.7h4v-4h4V263.4L956.8,263.4z
		 M956.8,275.2h3.8v-3.8h-3.8C956.8,271.4,956.8,275.1,956.8,275.2z M976.3,271.3h-3.8c0,1.2,0,2.4,0,3.5c0,0.2,0.4,0.4,0.6,0.4
		c0.9,0,1.7,0.1,2.6,0c0.2-0.1,0.6-0.3,0.6-0.5C976.3,273.6,976.3,272.5,976.3,271.3L976.3,271.3z"/>
	<path d="M980.1,287.1L980.1,287.1c1.3,0,2.5,0,3.8-0.1c0.1,0,0.4,0.3,0.4,0.4c0,1.2,0,2.3,0,3.5h-4
		C980.2,289.6,980.2,288.3,980.1,287.1L980.1,287.1z"/>
	<path d="M956.8,263.5c-1.3-0.1-2.6-0.1-3.9,0v-3.8h3.9V263.5C956.8,263.5,956.8,263.4,956.8,263.5z"/>
	<path d="M948.9,287.1c1.4,0,4,0,4,0c0,1,0,3.8,0,3.8s-2.9,0-4,0V287.1L948.9,287.1z"/>
	<path d="M980.2,263.4h-3.8c0-1.2,0-2.3,0-3.4c0-0.2,0.3-0.5,0.4-0.5c1.1,0,2.3,0,3.4,0L980.2,263.4L980.2,263.4z"/>
</g>
<g>
	<path d="M77.6,444L77.6,444h4v3.7h11.9V444h3.7c0,1,0.1,2,0,2.9c0,0.7,0.3,0.9,1,0.9c1,0,1.9,0,3,0v4h4.1v-7.7h3.8v15.7h-3.8
		c0,1.1-0.1,2.1,0,3.1c0,0.6-0.2,0.8-0.9,0.8c-0.7,0-1.5,0.1-2.3,0c-0.7,0-0.9,0.2-0.9,0.9c0,1-0.1,2.1-0.1,3.2l0,0
		c-1,0-1.9-0.1-2.9-0.1c-0.8,0-1-0.3-1-1c0-1,0-1.9,0-2.9H77.6v3.8c-1.4,0.1-2.7,0.1-3.9,0.2l0,0c-0.1-1.3-0.1-2.7-0.2-4.1h-3.9
		v-3.9h-3.8v-15.7c1.1,0,2.1,0,3.1,0c0.5,0,0.7,0.2,0.7,0.7c0,1.8,0,3.6,0,5.4c0,0.6,0,1.1,0,1.7h4v-4h4L77.6,444L77.6,444z
		 M77.6,455.7h3.8v-3.8h-3.8C77.6,451.9,77.6,455.7,77.6,455.7z M97.1,451.9h-3.8c0,1.2,0,2.4,0,3.5c0,0.2,0.4,0.4,0.6,0.4
		c0.9,0,1.7,0.1,2.6,0c0.2-0.1,0.6-0.3,0.6-0.5C97.1,454.2,97.1,453.1,97.1,451.9L97.1,451.9z"/>
	<path d="M101,467.7C101,467.7,100.9,467.7,101,467.7c1.2,0,2.5-0.1,3.8-0.1c0.1,0,0.4,0.3,0.4,0.4c0,1.2,0,2.3,0,3.5h-4
		C101.1,470.2,101.1,468.9,101,467.7L101,467.7z"/>
	<path d="M77.6,444c-1.3,0-2.6,0-3.9,0v-3.8h3.9V444L77.6,444z"/>
	<path d="M69.7,467.7c1.4,0,4,0,4,0c0,1,0,3.8,0,3.8s-2.9,0-4,0V467.7L69.7,467.7z"/>
	<path d="M101,444h-3.8c0-1.2,0-2.3,0-3.4c0-0.2,0.3-0.5,0.4-0.5c1.1,0,2.3,0,3.4,0C101,440.1,101,443.9,101,444z"/>
</g>
<g>
	<path d="M1131.2,523.9L1131.2,523.9c0-1.1,0-2.2,0.1-3.5c0-0.2-0.3-0.6-0.5-0.6c-2.9,0-5.8,0-8.9,0v4l0,0h-4.8c0-1.2-0.1-2.1,0-3.1
		c0.1-0.7-0.2-0.9-0.9-0.9c-1.8,0-3.6,0-5.4,0c-1.1,0-2.2,0-3.4,0V512h4.8v-4h4.9v-3.9h4.8v-3.8h9.3v3.9h4.8v3.9h5
		c0,1.2,0.1,2.2,0,3.2c0,0.7,0.2,0.9,0.9,0.9c1.2,0,2.4,0,3.7,0v7.8h-9.6v3.9H1131.2L1131.2,523.9z M1136,512.1h-4.7v3.8
		c1.4,0,2.9,0,4.3,0c0.1,0,0.4-0.2,0.4-0.4C1136,514.4,1136,513.3,1136,512.1L1136,512.1z M1121.9,516v-3.9c-1.5,0-2.9,0-4.4,0
		c-0.2,0-0.4,0.3-0.4,0.5c0,1-0.1,1.9,0,2.9c0,0.2,0.3,0.5,0.5,0.5C1118.9,516,1120.3,516,1121.9,516L1121.9,516z"/>
	<path d="M1121.8,523.9L1121.8,523.9c3.1,0,6.2,0,9.4-0.1l0,0c-0.1,1.4-0.1,2.7-0.1,4.1l0,0c-0.3,0-0.7-0.1-1-0.1
		c-2.5,0-4.9,0-7.3,0c-0.3,0-0.6,0-1,0V523.9L1121.8,523.9z"/>
	<path d="M1140.9,523.9c0,1,0.1,1.9,0.1,2.8c-0.1,0.8,0.1,1.2,1,1.1c1.1-0.1,2.3,0,3.5,0v3.8h-4.5c0-1-0.1-1.9,0-2.9
		c0-0.7-0.3-0.9-1-0.9c-1.3,0-2.7,0-4,0v-3.9L1140.9,523.9L1140.9,523.9z"/>
	<path d="M1116.8,527.9c-0.3,0-0.6-0.1-1-0.2c-1.2,0-2.5,0-3.7,0v-3.8h4.9C1116.9,525.3,1116.9,526.6,1116.8,527.9L1116.8,527.9z"/>
	<path d="M1107.3,527.9l4.7-0.1c0,1.2,0.1,2.3,0,3.4c0,0.2-0.4,0.5-0.6,0.5c-1.2,0-2.4,0-3.6,0c-0.1,0-0.5-0.3-0.5-0.5
		C1107.3,530.2,1107.3,529.1,1107.3,527.9L1107.3,527.9z"/>
	<path d="M1116.8,527.9L1116.8,527.9c1.7,0,3.3,0,4.9,0v3.7h-4.7c0-0.5,0-1,0-1.4C1116.9,529.4,1116.9,528.7,1116.8,527.9
		L1116.8,527.9z"/>
	<path d="M1131.1,527.9c1.6,0,3.1,0,4.7-0.1v3.8c-1.4,0-2.7,0-4,0c-0.5,0.1-0.6-0.1-0.6-0.6C1131.2,530,1131.1,528.9,1131.1,527.9
		L1131.1,527.9z"/>
</g>
<g>
	<path d="M491.6,608.9L491.6,608.9l4-0.1v3.8h11.9v-3.7h3.7c0,1,0.1,2,0,2.9c0,0.7,0.3,0.9,1,0.9c1,0,1.9,0,3,0v4h4.1V609h3.8v15.7
		h-3.8c0,1.1-0.1,2.1,0,3.1c0,0.6-0.2,0.8-0.9,0.8s-1.5,0.1-2.3,0c-0.7,0-0.9,0.2-0.9,0.9c0,1-0.1,2.1-0.1,3.2l0,0
		c-1,0-1.9-0.1-2.9-0.1c-0.8,0-1-0.3-1-1c0-1,0-1.9,0-2.9h-19.6v3.8c-1.4,0.1-2.7,0.1-3.9,0.2l0,0c-0.1-1.3-0.1-2.7-0.2-4.1h-3.9
		v-3.9h-3.8V609c1.1,0,2.1,0,3.1,0c0.5,0,0.7,0.2,0.7,0.7c0,1.8,0,3.6,0,5.4c0,0.6,0,1.1,0,1.7h4v-4h4L491.6,608.9L491.6,608.9z
		 M491.6,620.6h3.8v-3.8h-3.8V620.6z M511.1,616.8h-3.8c0,1.2,0,2.4,0,3.5c0,0.2,0.4,0.4,0.6,0.4c0.9,0,1.7,0.1,2.6,0
		c0.2-0.1,0.6-0.3,0.6-0.5C511.1,619.1,511.1,618,511.1,616.8L511.1,616.8z"/>
	<path d="M515,632.6C515,632.6,514.9,632.6,515,632.6c1.2,0,2.5-0.1,3.8-0.1c0.1,0,0.4,0.3,0.4,0.4c0,1.2,0,2.3,0,3.5h-4
		C515.1,635.1,515.1,633.8,515,632.6L515,632.6z"/>
	<path d="M491.6,608.9c-1.3,0-2.6,0-3.9,0v-3.8h3.9V608.9L491.6,608.9z"/>
	<path d="M483.7,632.6c1.4,0,4,0,4,0c0,1,0,3.8,0,3.8s-2.9,0-4,0V632.6L483.7,632.6z"/>
	<path d="M515,608.9h-3.8c0-1.2,0-2.3,0-3.4c0-0.2,0.3-0.5,0.4-0.5c1.1,0,2.3,0,3.4,0C515,605,515,608.8,515,608.9z"/>
</g>
<g>
	<path d="M1596.2,504.2L1596.2,504.2l4-0.1v3.8h11.9v-3.7h3.7c0,1,0.1,2,0,2.9c0,0.7,0.3,0.9,1,0.9c1,0,1.9,0,3,0v4h4.1v-7.7h3.8
		V520h-3.8c0,1.1-0.1,2.1,0,3.1c0,0.6-0.2,0.8-0.9,0.8c-0.7,0-1.5,0.1-2.3,0c-0.7,0-0.9,0.2-0.9,0.9c0,1-0.1,2.1-0.1,3.2l0,0
		c-1,0-1.9-0.1-2.9-0.1c-0.8,0-1-0.3-1-1c0-1,0-1.9,0-2.9h-19.6v3.8c-1.4,0.1-2.7,0.1-3.9,0.2l0,0c-0.1-1.3-0.1-2.7-0.2-4.1h-3.9
		V520h-3.8v-15.7c1.1,0,2.1,0,3.1,0c0.5,0,0.7,0.2,0.7,0.7c0,1.8,0,3.6,0,5.4c0,0.6,0,1.1,0,1.7h4v-4h4L1596.2,504.2L1596.2,504.2z
		 M1596.2,515.9h3.8v-3.8h-3.8C1596.2,512.1,1596.2,515.9,1596.2,515.9z M1615.7,512.1h-3.8c0,1.2,0,2.4,0,3.5
		c0,0.2,0.4,0.4,0.6,0.4c0.9,0,1.7,0.1,2.6,0c0.2-0.1,0.6-0.3,0.6-0.5C1615.7,514.4,1615.7,513.3,1615.7,512.1L1615.7,512.1z"/>
	<path d="M1619.5,527.9L1619.5,527.9c1.3,0,2.5-0.1,3.8-0.1c0.1,0,0.4,0.3,0.4,0.4c0,1.2,0,2.3,0,3.5h-4
		C1619.6,530.4,1619.6,529.1,1619.5,527.9L1619.5,527.9z"/>
	<path d="M1596.2,504.2c-1.3,0-2.6,0-3.9,0v-3.8h3.9V504.2L1596.2,504.2z"/>
	<path d="M1588.3,527.9c1.4,0,4,0,4,0c0,1,0,3.8,0,3.8s-2.9,0-4,0V527.9L1588.3,527.9z"/>
	<path d="M1619.6,504.2h-3.8c0-1.2,0-2.3,0-3.4c0-0.2,0.3-0.5,0.4-0.5c1.1,0,2.3,0,3.4,0C1619.6,500.3,1619.6,504.1,1619.6,504.2z"
		/>
</g>
<g>
	<path d="M1210.3,704.6L1210.3,704.6c0-1.1,0-2.2-0.1-3.5c0-0.5-0.2-0.7-0.7-0.7c-2.2,0-4.5,0-6.7,0c-0.5,0-0.7,0.2-0.7,0.7
		c0.1,1.1,0,2.2,0,3.3l0,0c-2.4,0-4.7,0-7.1,0c-0.2,0-0.6,0.4-0.6,0.6c0,0.9,0,1.7,0,2.6c0,0.6,0.2,0.8,0.8,0.8c1,0,2,0,3.1,0v3.8
		h-7.9v-3.8c-1.1,0-2.2,0-3.2,0c-0.2,0-0.6-0.3-0.6-0.4c0-1.1,0-2.3,0-3.5h3.8v-3.9c-2.3,0-4.6,0-6.9,0c-0.7,0-0.9-0.2-0.9-0.9
		c0-3.4,0-6.8,0-10.2c0-0.2,0.1-0.4,0.1-0.8h3.9v-3.9h11.9V681h15.6v3.7h11.9v3.9c1.1,0,2.1,0.1,3.1,0c0.7,0,0.9,0.2,0.9,0.9
		c0,3.4,0,6.8,0,10.2c0,0.3-0.1,0.5-0.1,0.9h-7.8c0,1.1,0,2.1,0,3.1c-0.1,0.6,0.2,0.8,0.8,0.8c1.1,0,2.1,0,3.1,0v3.9h-3.9v3.9h-7.9
		v-3.9c1.1,0,2.2,0,3.2,0c0.3,0,0.7-0.2,0.7-0.4c0-1.1,0-2.2,0-3.4L1210.3,704.6L1210.3,704.6z M1210.4,692.8v3.7
		c0.2,0,0.5,0.1,0.7,0.1c2.1,0,4.1,0,6.2,0c0.6,0,0.8-0.2,0.8-0.8c0-1,0-2,0-3H1210.4z M1198.4,696.6c1,0,2.1,0,3.2,0.1
		c0.5,0,0.7-0.1,0.7-0.7c0-0.8,0-1.7,0-2.5c0-0.5-0.2-0.7-0.7-0.7c-2.2,0-4.3,0-6.5,0c-0.5-0.1-0.6,0.1-0.6,0.6c0,0.8,0,1.6,0,2.4
		c0,0.6,0.2,0.8,0.8,0.8C1196.4,696.6,1197.4,696.6,1198.4,696.6L1198.4,696.6z"/>
	<path d="M1202.2,704.6L1202.2,704.6c2.7,0,5.4,0,8.1,0l0,0c0,1.3,0,2.5,0,3.8h-8.1V704.6L1202.2,704.6z"/>
</g>
<g>
	<path d="M1836,745L1836,745l3.9-0.1v3.8h11.9V745h3.7c0,1,0.1,2,0,2.9c0,0.7,0.3,0.9,1,0.9c1,0,1.9,0,3,0v4h4.1v-7.7h3.8v15.7h-3.8
		c0,1.1-0.1,2.1,0,3.1c0,0.6-0.2,0.8-0.9,0.8c-0.7,0-1.5,0.1-2.3,0c-0.7,0-0.9,0.2-0.9,0.9c0,1-0.1,2.1-0.1,3.2l0,0
		c-1,0-1.9-0.1-2.9-0.1c-0.8,0-1-0.3-1-1c0-1,0-1.9,0-2.9H1836v3.8c-1.4,0.1-2.7,0.1-3.9,0.2l0,0c-0.1-1.3-0.1-2.7-0.2-4.1h-3.9
		v-3.9h-3.8v-15.7c1.1,0,2.1,0,3.1,0c0.5,0,0.7,0.2,0.7,0.7c0,1.8,0,3.6,0,5.4c0,0.6,0,1.1,0,1.7h4v-4h4L1836,745L1836,745z
		 M1836,756.8h3.8V753h-3.8C1836,753,1836,756.7,1836,756.8z M1855.5,753h-3.8c0,1.2,0,2.4,0,3.5c0,0.2,0.4,0.4,0.6,0.4
		c0.9,0,1.7,0.1,2.6,0c0.2-0.1,0.6-0.3,0.6-0.5C1855.5,755.3,1855.5,754.2,1855.5,753L1855.5,753z"/>
	<path d="M1859.3,768.7C1859.3,768.7,1859.3,768.8,1859.3,768.7c1.2,0,2.5,0,3.8-0.1c0.1,0,0.4,0.3,0.4,0.4c0,1.2,0,2.3,0,3.5h-4
		C1859.4,771.2,1859.4,769.9,1859.3,768.7L1859.3,768.7z"/>
	<path d="M1835.9,745.1c-1.2-0.1-2.5-0.1-3.9,0v-3.8h3.9V745.1C1835.9,745.1,1836,745,1835.9,745.1z"/>
	<path d="M1828.1,768.8c1.4,0,4-0.1,4,0c0,1,0,3.8,0,3.8s-2.9,0-4,0V768.8L1828.1,768.8z"/>
	<path d="M1859.3,745h-3.8c0-1.2,0-2.3,0-3.4c0-0.2,0.3-0.5,0.4-0.5c1.1,0,2.3,0,3.4,0V745z"/>
</g>
<g>
	<path d="M315.1,745L315.1,745l4-0.1v3.8H331V745h3.7c0,1,0.1,2,0,2.9c0,0.7,0.3,0.9,1,0.9c1,0,1.9,0,3,0v4h4.1v-7.7h3.8v15.7h-3.8
		c0,1.1-0.1,2.1,0,3.1c0,0.6-0.2,0.8-0.9,0.8c-0.7,0-1.5,0.1-2.3,0c-0.7,0-0.9,0.2-0.9,0.9c0,1-0.1,2.1-0.1,3.2l0,0
		c-1,0-1.9-0.1-2.9-0.1c-0.8,0-1-0.3-1-1c0-1,0-1.9,0-2.9h-19.6v3.8c-1.4,0.1-2.7,0.1-3.9,0.2l0,0c-0.1-1.3-0.1-2.7-0.2-4.1h-3.9
		v-3.9h-3.8v-15.7c1.1,0,2.1,0,3.1,0c0.5,0,0.7,0.2,0.7,0.7c0,1.8,0,3.6,0,5.4c0,0.6,0,1.1,0,1.7h4v-4h4L315.1,745L315.1,745z
		 M315.1,756.8h3.8V753h-3.8C315.1,753,315.1,756.7,315.1,756.8z M334.6,753h-3.8c0,1.2,0,2.4,0,3.5c0,0.2,0.4,0.4,0.6,0.4
		c0.9,0,1.7,0.1,2.6,0c0.2-0.1,0.6-0.3,0.6-0.5C334.6,755.3,334.6,754.2,334.6,753L334.6,753z"/>
	<path d="M338.4,768.7C338.4,768.7,338.4,768.8,338.4,768.7c1.2,0,2.5,0,3.8-0.1c0.1,0,0.4,0.3,0.4,0.4c0,1.2,0,2.3,0,3.5h-4
		C338.5,771.2,338.5,769.9,338.4,768.7L338.4,768.7z"/>
	<path d="M315,745.1c-1.2-0.1-2.5-0.1-3.9,0v-3.8h3.9V745.1C315,745.1,315.1,745,315,745.1z"/>
	<path d="M307.2,768.8c1.4,0,4-0.1,4,0c0,1,0,3.8,0,3.8s-2.9,0-4,0V768.8L307.2,768.8z"/>
	<path d="M338.4,745h-3.8c0-1.2,0-2.3,0-3.4c0-0.2,0.3-0.5,0.4-0.5c1.1,0,2.3,0,3.4,0V745z"/>
</g>
<g>
	<path d="M707.4,628.5L707.4,628.5c0-1,0-2.2,0.1-3.5c0-0.2-0.3-0.6-0.5-0.6c-2.9,0-5.8,0-8.9,0v4l0,0h-4.8c0-1.2-0.1-2.1,0-3.1
		c0.1-0.7-0.2-0.9-0.9-0.9c-1.8,0-3.6,0-5.4,0c-1.1,0-2.2,0-3.4,0v-7.8h4.8v-4h4.9v-3.9h4.8v-3.8h9.3v3.9h4.8v3.9h5
		c0,1.2,0.1,2.2,0,3.2c0,0.7,0.2,0.9,0.9,0.9c1.2,0,2.4,0,3.7,0v7.8h-9.6v3.9L707.4,628.5L707.4,628.5z M712.2,616.8h-4.7v3.8
		c1.4,0,2.9,0,4.3,0c0.1,0,0.4-0.2,0.4-0.4C712.2,619.1,712.2,618,712.2,616.8L712.2,616.8z M698.1,620.6v-3.9c-1.5,0-2.9,0-4.4,0
		c-0.2,0-0.4,0.3-0.4,0.5c0,1-0.1,1.9,0,2.9c0,0.2,0.3,0.5,0.5,0.5c1.3,0,2.7,0,4.2,0H698.1z"/>
	<path d="M698,628.5L698,628.5c3.2,0.1,6.3,0.1,9.4-0.1l0,0c-0.1,1.4-0.1,2.7-0.1,4.1l0,0c-0.3,0-0.7-0.1-1-0.1c-2.5,0-4.9,0-7.3,0
		c-0.3,0-0.6,0-1,0L698,628.5L698,628.5z"/>
	<path d="M717.2,628.6c0,1,0,1.9,0.1,2.8c-0.1,0.8,0.1,1.2,1,1.1c1.1-0.1,2.3,0,3.5,0v3.8h-4.5c0-1-0.1-1.9,0-2.9
		c0-0.7-0.3-0.9-1-0.9c-1.3,0-2.7,0-4,0v-3.9L717.2,628.6L717.2,628.6z"/>
	<path d="M693.1,632.6c-0.4-0.1-0.7-0.2-1-0.2c-1.2,0-2.5,0-3.7,0v-3.8h4.9C693.2,630,693.2,631.3,693.1,632.6L693.1,632.6z"/>
	<path d="M683.5,632.5l4.7-0.1c0,1.2,0.1,2.3,0,3.4c0,0.2-0.4,0.5-0.6,0.5c-1.2,0-2.4,0-3.6,0c-0.1,0-0.5-0.3-0.5-0.5
		C683.5,634.8,683.5,633.7,683.5,632.5L683.5,632.5z"/>
	<path d="M693.1,632.6L693.1,632.6c1.6,0,3.2,0,4.9,0v3.7h-4.7c0-0.5,0-1,0-1.4C693.2,634.1,693.2,633.4,693.1,632.6L693.1,632.6z"
		/>
	<path d="M707.4,632.6c1.5,0,3.1,0,4.7,0v3.7c-1.4,0-2.7,0-4,0c-0.5,0.1-0.6-0.1-0.6-0.6C707.5,634.7,707.4,633.6,707.4,632.6
		L707.4,632.6z"/>
</g>
<g>
	<path d="M240,885.3h-4.7v-3.9h-9.6v-7.8c1.3,0,2.5,0,3.7,0c0.7,0,0.9-0.2,0.9-0.9c0-1.1,0-2.1,0-3.2h5v-3.9h4.8v-3.9h9.3v3.8h4.8
		v3.9h4.9v4h4.8v7.8c-1.2,0-2.3,0-3.4,0c-1.8,0-3.6,0-5.4,0c-0.7,0-0.9,0.2-0.9,0.9c0,1,0,2,0,3.1h-4.8l0,0v-4c-3.1,0-6,0-8.9,0
		c-0.2,0-0.5,0.4-0.5,0.6c-0.1,1.1,0,2.2,0,3.3l0,0L240,885.3L240,885.3z M235.2,873.4c0,1.2,0,2.3,0.1,3.4c0,0.1,0.3,0.4,0.4,0.4
		c1.4,0,2.8,0,4.3,0v-3.8L235.2,873.4L235.2,873.4z M249.4,877.2c1.5,0,2.9,0.1,4.3,0c0.2,0,0.5-0.3,0.5-0.5c0-1,0-1.9,0-2.9
		c0-0.2-0.3-0.5-0.4-0.5c-1.5,0-2.9,0-4.4,0L249.4,877.2L249.4,877.2z"/>
	<path d="M249.4,885.1v4c-0.4,0-0.7,0-1,0c-2.5,0-4.9,0-7.3,0c-0.3,0-0.7,0.1-1,0.1l0,0c-0.1-1.4-0.1-2.7-0.1-4.1l0,0
		C243.2,885.1,246.3,885.1,249.4,885.1L249.4,885.1L249.4,885.1z"/>
	<path d="M230.2,885.2h5v3.9c-1.4,0-2.7,0.1-4,0c-0.7-0.1-1,0.1-1,0.9c0,0.9,0,1.9,0,2.9h-4.5v-3.8c1.1,0,2.3-0.1,3.5,0
		c0.8,0,1.1-0.3,1-1.1C230.1,887.1,230.2,886.2,230.2,885.2L230.2,885.2z"/>
	<path d="M254.3,889.2c-0.1-1.3-0.1-2.6-0.2-4h4.9v3.8c-1.3,0-2.5,0-3.7,0C255,889.1,254.6,889.1,254.3,889.2L254.3,889.2z"/>
	<path d="M263.9,889.1c0,1.2,0,2.3-0.1,3.4c0,0.2-0.3,0.5-0.5,0.5c-1.2,0-2.4,0-3.6,0c-0.2-0.1-0.6-0.3-0.6-0.5c0-1.1,0-2.2,0-3.4
		H263.9L263.9,889.1z"/>
	<path d="M254.3,889.2c0,0.8-0.1,1.5-0.2,2.3c0,0.4,0,0.9,0,1.4h-4.7v-3.7C251.1,889.2,252.7,889.2,254.3,889.2L254.3,889.2
		L254.3,889.2z"/>
	<path d="M240.1,889.2c-0.1,1-0.1,2.1-0.1,3.2c0,0.4-0.1,0.6-0.6,0.6c-1.3,0-2.6,0-4,0v-3.8C237,889.2,238.5,889.2,240.1,889.2
		L240.1,889.2z"/>
</g>
<g>
	<path d="M973.9,865.5v4h4v4h4c0-0.6,0-1.1,0-1.7c0-1.8,0-3.6,0-5.4c0-0.5,0.1-0.7,0.7-0.7c1,0,2,0,3.1,0v15.7h-3.8v3.9H978
		c-0.1,1.4-0.1,2.8-0.2,4.1l0,0c-1.3-0.1-2.5-0.1-3.9-0.2v-3.8h-19.6c0,1-0.1,1.9,0,2.9c0,0.8-0.2,1-1,1c-1,0-1.9,0.1-2.9,0.1l0,0
		c0-1.1-0.1-2.1-0.1-3.2c0-0.7-0.2-0.9-0.9-0.9s-1.5,0-2.3,0c-0.7,0.1-0.9-0.1-0.9-0.8c0-1,0-2,0-3.1h-3.8v-15.7h3.8v7.7h4.1v-4
		c1.1,0,2-0.1,3,0c0.7,0.1,1.1-0.1,1-0.9c-0.1-1,0-1.9,0-2.9h3.7v3.7h11.9v-3.8h3.9l0,0L973.9,865.5L973.9,865.5z M973.8,873.4H970
		v3.8h3.8V873.4z M954.3,873.4c0,1.2,0,2.3,0,3.4c0,0.2,0.4,0.5,0.6,0.5c0.9,0.1,1.7,0,2.6,0c0.2,0,0.6-0.3,0.6-0.4
		c0-1.2,0-2.3,0-3.5H954.3L954.3,873.4z"/>
	<path d="M950.5,889.2c-0.1,1.2-0.1,2.4-0.1,3.8h-4c0-1.2,0-2.3,0-3.5c0-0.2,0.3-0.4,0.4-0.4C948,889.1,949.3,889.2,950.5,889.2
		L950.5,889.2L950.5,889.2z"/>
	<path d="M973.8,865.5v-3.8h3.9v3.8C976.4,865.5,975.1,865.5,973.8,865.5C973.8,865.5,973.9,865.5,973.8,865.5z"/>
	<path d="M981.7,889.2v3.8c-1.2,0-4,0-4,0s0-2.8,0-3.8C977.7,889.2,980.3,889.2,981.7,889.2L981.7,889.2z"/>
	<path d="M950.5,861.5c1.1,0,2.3,0,3.4,0c0.1,0.1,0.4,0.3,0.4,0.5c0,1.1,0,2.2,0,3.4h-3.8C950.5,865.4,950.5,861.6,950.5,861.5z"/>
</g>
<g>
	<path d="M1518.8,885.3h-4.7v-3.9h-9.6v-7.8c1.3,0,2.5,0,3.7,0c0.7,0,0.9-0.2,0.9-0.9c0-1.1,0-2.1,0-3.2h5v-3.9h4.8v-3.9h9.3v3.8
		h4.8v3.9h4.9v4h4.8v7.8c-1.2,0-2.3,0-3.4,0c-1.8,0-3.6,0-5.4,0c-0.7,0-0.9,0.2-0.9,0.9c0,1,0,2,0,3.1h-4.8l0,0v-4c-3.1,0-6,0-8.9,0
		c-0.2,0-0.5,0.4-0.5,0.6c-0.1,1.1,0,2.2,0,3.3l0,0L1518.8,885.3L1518.8,885.3z M1514,873.4c0,1.2,0,2.3,0.1,3.4
		c0,0.1,0.3,0.4,0.4,0.4c1.4,0,2.8,0,4.3,0v-3.8L1514,873.4L1514,873.4z M1528.2,877.2c1.5,0,2.9,0.1,4.3,0c0.2,0,0.5-0.3,0.5-0.5
		c0-1,0-1.9,0-2.9c0-0.2-0.3-0.5-0.4-0.5c-1.5,0-2.9,0-4.4,0V877.2L1528.2,877.2z"/>
	<path d="M1528.2,885.1v4c-0.4,0-0.7,0-1,0c-2.5,0-4.9,0-7.3,0c-0.3,0-0.7,0.1-1,0.1l0,0c-0.1-1.4-0.1-2.7-0.1-4.1l0,0
		C1522,885.1,1525.1,885.1,1528.2,885.1L1528.2,885.1L1528.2,885.1z"/>
	<path d="M1509,885.2h5v3.9c-1.4,0-2.7,0.1-4,0c-0.7-0.1-1,0.1-1,0.9c0,0.9,0,1.9,0,2.9h-4.5v-3.8c1.1,0,2.3-0.1,3.5,0
		c0.8,0,1.1-0.3,1-1.1C1508.9,887.1,1509,886.2,1509,885.2L1509,885.2z"/>
	<path d="M1533.1,889.2c-0.1-1.3-0.1-2.6-0.2-4h4.9v3.8c-1.3,0-2.5,0-3.7,0C1533.8,889.1,1533.4,889.1,1533.1,889.2L1533.1,889.2z"
		/>
	<path d="M1542.7,889.1c0,1.2,0,2.3-0.1,3.4c0,0.2-0.3,0.5-0.5,0.5c-1.2,0-2.4,0-3.6,0c-0.2-0.1-0.6-0.3-0.6-0.5c0-1.1,0-2.2,0-3.4
		H1542.7L1542.7,889.1z"/>
	<path d="M1533.1,889.2c0,0.8-0.1,1.5-0.2,2.3c0,0.4,0,0.9,0,1.4h-4.7v-3.7C1529.9,889.2,1531.5,889.2,1533.1,889.2L1533.1,889.2
		L1533.1,889.2z"/>
	<path d="M1518.9,889.2c-0.1,1-0.1,2.1-0.1,3.2c0,0.4-0.1,0.6-0.6,0.6c-1.3,0-2.6,0-4,0v-3.8
		C1515.8,889.2,1517.3,889.2,1518.9,889.2L1518.9,889.2z"/>
</g>
<g>
	<path d="M1293.6,985.9v3.9h4v4h4c0-0.6,0-1.1,0-1.7c0-1.8,0-3.6,0-5.4c0-0.5,0.1-0.7,0.7-0.7c1,0,2,0,3.1,0v15.7h-3.8v3.9h-3.9
		c-0.1,1.4-0.1,2.8-0.2,4.1l0,0c-1.3-0.1-2.5-0.1-3.9-0.2v-3.8H1274c0,1-0.1,1.9,0,2.9c0,0.8-0.2,1-1,1c-1,0-1.9,0.1-2.9,0.1l0,0
		c0-1.1-0.1-2.1-0.1-3.2c0-0.7-0.2-0.9-0.9-0.9c-0.7,0-1.5,0-2.3,0c-0.7,0.1-0.9-0.1-0.9-0.8c0-1,0-2,0-3.1h-3.8V986h3.8v7.8h4.1v-4
		c1.1,0,2-0.1,3,0c0.7,0.1,1.1-0.1,1-0.9c-0.1-1,0-1.9,0-2.9h3.7v3.7h11.9v-3.8h3.9l0,0L1293.6,985.9L1293.6,985.9z M1293.5,993.8
		h-3.8v3.8h3.8V993.8z M1274,993.8c0,1.2,0,2.3,0,3.4c0,0.2,0.4,0.5,0.6,0.5c0.9,0.1,1.7,0,2.6,0c0.2,0,0.6-0.3,0.6-0.4
		c0-1.2,0-2.3,0-3.5H1274L1274,993.8z"/>
	<path d="M1270.2,1009.6c-0.1,1.2-0.1,2.5-0.1,3.8h-4c0-1.2,0-2.3,0-3.5c0-0.2,0.3-0.4,0.4-0.4
		C1267.7,1009.5,1269,1009.6,1270.2,1009.6L1270.2,1009.6L1270.2,1009.6z"/>
	<path d="M1293.5,985.9v-3.8h3.9v3.8C1296.1,985.9,1294.8,985.9,1293.5,985.9C1293.5,985.9,1293.6,985.9,1293.5,985.9z"/>
	<path d="M1301.4,1009.6v3.8c-1.2,0-4,0-4,0s0-2.8,0-3.8C1297.4,1009.6,1300,1009.6,1301.4,1009.6L1301.4,1009.6z"/>
	<path d="M1270.2,981.9c1.1,0,2.3,0,3.4,0c0.1,0.1,0.4,0.3,0.4,0.5c0,1.1,0,2.2,0,3.4h-3.8C1270.2,985.8,1270.2,982,1270.2,981.9z"
		/>
</g>
<g>
	<path d="M1516.3,1042.5L1516.3,1042.5l4-0.1v3.8h11.9v-3.7h3.7c0,1,0.1,2,0,2.9c0,0.7,0.3,0.9,1,0.9c1,0,1.9,0,3,0v4h4.1v-7.7h3.8
		v15.7h-3.8c0,1.1-0.1,2.1,0,3.1c0,0.6-0.2,0.8-0.9,0.8c-0.7,0-1.5,0.1-2.3,0c-0.7,0-0.9,0.2-0.9,0.9c0,1-0.1,2.1-0.1,3.2l0,0
		c-1,0-1.9-0.1-2.9-0.1c-0.8,0-1-0.3-1-1c0-1,0-1.9,0-2.9h-19.6v3.8c-1.4,0.1-2.7,0.1-3.9,0.2l0,0c-0.1-1.3-0.1-2.7-0.2-4.1h-3.9
		v-3.9h-3.8v-15.7c1.1,0,2.1,0,3.1,0c0.5,0,0.7,0.2,0.7,0.7c0,1.8,0,3.6,0,5.4c0,0.6,0,1.1,0,1.7h4v-4h4L1516.3,1042.5
		L1516.3,1042.5z M1516.3,1054.2h3.8v-3.8h-3.8C1516.3,1050.4,1516.3,1054.2,1516.3,1054.2z M1535.8,1050.4h-3.8c0,1.2,0,2.4,0,3.5
		c0,0.2,0.4,0.4,0.6,0.4c0.9,0,1.7,0.1,2.6,0c0.2-0.1,0.6-0.3,0.6-0.5C1535.8,1052.7,1535.8,1051.6,1535.8,1050.4L1535.8,1050.4z"/>
	<path d="M1539.6,1066.1C1539.6,1066.1,1539.6,1066.2,1539.6,1066.1c1.2,0,2.5,0,3.8-0.1c0.1,0,0.4,0.3,0.4,0.4c0,1.2,0,2.3,0,3.5
		h-4C1539.7,1068.6,1539.7,1067.3,1539.6,1066.1L1539.6,1066.1z"/>
	<path d="M1516.2,1042.5c-1.2,0-2.5,0-3.9,0v-3.8h3.9V1042.5C1516.2,1042.5,1516.3,1042.5,1516.2,1042.5z"/>
	<path d="M1508.4,1066.2c1.4,0,4-0.1,4,0c0,1,0,3.8,0,3.8s-2.9,0-4,0V1066.2L1508.4,1066.2z"/>
	<path d="M1539.6,1042.5h-3.8c0-1.2,0-2.3,0-3.4c0-0.2,0.3-0.5,0.4-0.5c1.1,0,2.3,0,3.4,0
		C1539.6,1038.6,1539.6,1042.4,1539.6,1042.5z"/>
</g>
<g>
	<path d="M625.3,1062.1L625.3,1062.1c0-1,0.1-2.2,0.1-3.5c0-0.2-0.3-0.6-0.5-0.6c-2.9,0-5.8,0-8.9,0v4l0,0h-4.8c0-1.2-0.1-2.1,0-3.1
		c0.1-0.7-0.2-0.9-0.9-0.9c-1.8,0-3.6,0-5.4,0c-1.1,0-2.2,0-3.4,0v-7.8h4.8v-4h4.9v-3.9h4.8v-3.8h9.3v3.9h4.8v3.9h5
		c0,1.2,0.1,2.2,0,3.2c0,0.7,0.2,0.9,0.9,0.9c1.2,0,2.4,0,3.7,0v7.8h-9.6v3.9H625.3L625.3,1062.1z M630.2,1050.4h-4.7v3.8
		c1.4,0,2.9,0,4.3,0c0.1,0,0.4-0.2,0.4-0.4C630.2,1052.7,630.2,1051.6,630.2,1050.4L630.2,1050.4z M616.1,1054.2v-3.9
		c-1.5,0-2.9,0-4.4,0c-0.2,0-0.4,0.3-0.4,0.5c0,1-0.1,1.9,0,2.9c0,0.2,0.3,0.5,0.5,0.5c1.3,0,2.7,0,4.2,0H616.1z"/>
	<path d="M616.1,1062.1L616.1,1062.1c3.1,0.1,6.2,0.1,9.4-0.1l0,0c-0.1,1.4-0.1,2.7-0.1,4.1l0,0c-0.3,0-0.7-0.1-1-0.1
		c-2.5,0-4.9,0-7.3,0c-0.3,0-0.6,0-1,0V1062.1L616.1,1062.1z"/>
	<path d="M635.2,1062.2c0,1,0.1,1.9,0.1,2.8c-0.1,0.8,0.1,1.2,1,1.1c1.1-0.1,2.3,0,3.5,0v3.8h-4.5c0-1-0.1-1.9,0-2.9
		c0-0.7-0.3-0.9-1-0.9c-1.3,0-2.7,0-4,0v-3.9H635.2L635.2,1062.2z"/>
	<path d="M611.1,1066.2c-0.3-0.1-0.7-0.2-1-0.2c-1.2,0-2.5,0-3.7,0v-3.8h4.9C611.2,1063.6,611.2,1064.9,611.1,1066.2L611.1,1066.2z"
		/>
	<path d="M601.4,1066.1l4.7-0.1c0,1.2,0.1,2.3,0,3.4c0,0.2-0.4,0.5-0.6,0.5c-1.2,0-2.4,0-3.6,0c-0.1,0-0.5-0.3-0.5-0.5
		C601.4,1068.4,601.4,1067.3,601.4,1066.1L601.4,1066.1z"/>
	<path d="M611.1,1066.2L611.1,1066.2c1.6,0,3.3,0,4.9,0v3.7h-4.7c0-0.5,0-1,0-1.4C611.2,1067.7,611.2,1067,611.1,1066.2
		L611.1,1066.2z"/>
	<path d="M625.3,1066.2c1.5,0,3.1,0,4.7-0.1v3.8c-1.4,0-2.7,0-4,0c-0.5,0.1-0.6-0.1-0.6-0.6C625.4,1068.3,625.3,1067.2,625.3,1066.2
		L625.3,1066.2z"/>
</g>
</svg>
