<?xml version="1.0" encoding="utf-8"?>
<!-- Generator: Adobe Illustrator 28.2.0, SVG Export Plug-In . SVG Version: 6.00 Build 0)  -->
<svg version="1.1" id="Layer_2_00000127728220822053439310000014879719116146790589_"
	 xmlns="http://www.w3.org/2000/svg" xmlns:xlink="http://www.w3.org/1999/xlink" x="0px" y="0px" viewBox="0 0 1920 1080"
	 style="enable-background:new 0 0 1920 1080;" xml:space="preserve">
<g>
	<path d="M1655.7,22.9v3.9h4v4h4c0-0.6,0-1.1,0-1.7c0-1.8,0-3.6,0-5.4c0-0.5,0.2-0.7,0.7-0.7c1,0,2,0,3.1,0v15.7h-3.8v3.9h-3.9
		c-0.1,1.4-0.1,2.8-0.2,4.1l0,0c-1.2-0.1-2.5-0.1-3.9-0.2v-3.8h-19.6c0,1,0,1.9,0,2.9c0,0.7-0.2,1-1,1c-1,0-1.9,0.1-2.9,0.1l0,0
		c0-1.1-0.1-2.2-0.1-3.2c0-0.7-0.2-0.9-0.9-0.9c-0.8,0.1-1.6,0-2.3,0c-0.7,0-0.9-0.2-0.9-0.8c0.1-1,0-2,0-3.1h-3.8V23h3.8v7.7h4.1
		v-4c1.1,0,2,0,3,0c0.7,0,1-0.2,1-0.9c-0.1-0.9,0-1.9,0-2.9h3.7v3.7h11.9v-3.8L1655.7,22.9L1655.7,22.9L1655.7,22.9z M1655.7,30.8
		h-3.8v3.8h3.8V30.8z M1636.2,30.8c0,1.2,0,2.3,0,3.4c0,0.2,0.4,0.4,0.6,0.5c0.9,0.1,1.7,0,2.6,0c0.2,0,0.6-0.2,0.6-0.4
		c0-1.1,0-2.3,0-3.5H1636.2L1636.2,30.8z"/>
	<path d="M1632.4,46.6c-0.1,1.2-0.1,2.5-0.2,3.8h-4c0-1.2,0-2.3,0-3.5c0-0.1,0.3-0.4,0.4-0.4C1629.9,46.5,1631.2,46.6,1632.4,46.6
		L1632.4,46.6L1632.4,46.6z"/>
	<path d="M1655.8,22.9v-3.8h3.9v3.8C1658.3,22.9,1657,22.9,1655.8,22.9C1655.7,22.9,1655.8,22.9,1655.8,22.9z"/>
	<path d="M1663.6,46.6v3.8c-1.1,0-4,0-4,0s0-2.8,0-3.8C1659.6,46.6,1662.2,46.6,1663.6,46.6L1663.6,46.6z"/>
	<path d="M1632.4,19c1.1,0,2.3,0,3.4,0c0.1,0,0.4,0.3,0.4,0.5c0,1.1,0,2.2,0,3.4h-3.8V19z"/>
</g>
<g>
	<path d="M1318.9,106.7L1318.9,106.7h-3.9v-7.9c-1.2,0-2.2,0-3.2,0c-0.6,0-0.8,0.2-0.8,0.8c0,2.9,0,5.7,0,8.6c0,0.8,0,1.5,0,2.4
		h-3.9V94.8h4c0-1,0.1-2,0-2.9s0.3-1.1,1.1-1c0.9,0.1,1.9,0,3,0v-4h3.9V83l0,0h4v3.8h11.7c0-1.1,0-2.1,0-3.1c0-0.6,0.2-0.7,0.7-0.7
		c1.1,0,2.3,0,3.4,0l0,0v3.8h3.8c0,1.1,0,2.2,0,3.2c0,0.6,0.2,0.8,0.8,0.8c1,0,2,0,3.1,0c0,1.1,0,2,0,3c0,0.7,0.2,1,0.9,0.9
		c1-0.1,2,0,3,0v15.8c-1.1,0-2,0-3,0c-0.7,0-0.9-0.2-0.9-0.9c0-3.3,0-6.5,0-9.8c0-0.3,0-0.7-0.1-1.1c-1.1,0-2.2,0-3.2,0
		c-0.6,0-0.7,0.2-0.7,0.8c0,1.1,0,2.3,0,3.4c0,1.2,0,2.4,0,3.8h-3.8l0,0c0-1-0.1-2-0.1-3c0-0.8-0.2-1-1-1c-6,0-11.9,0-17.9,0
		c-0.3,0-0.6,0-0.9,0.1V106.7L1318.9,106.7z M1334.6,90.9c0,1.2,0,2.3,0,3.4c0,0.2,0.4,0.5,0.6,0.5c1,0.1,1.9,0,2.9,0
		c0.5,0,0.6-0.2,0.6-0.6c0-0.9,0-1.8,0-2.7c0-0.2-0.3-0.6-0.5-0.6C1337,90.9,1335.9,90.9,1334.6,90.9L1334.6,90.9z M1322.9,91h-3.9
		v3.8h3.9V91z"/>
	<path d="M1318.9,106.7L1318.9,106.7c2.5,0,4.9,0,7.4,0c0.2,0,0.5,0.3,0.5,0.4c0,1.1,0,2.3,0,3.4h-7.9V106.7L1318.9,106.7z"/>
	<path d="M1338.8,106.7L1338.8,106.7c0,1.2,0,2.5,0,3.8h-7.9v-3.8H1338.8L1338.8,106.7z"/>
	<path d="M1318.9,83.1L1318.9,83.1c-1.3,0-2.5,0-3.9,0c0-1.2,0-2.3,0-3.4c0-0.2,0.2-0.5,0.4-0.5c1.2,0,2.3,0,3.5,0V83.1L1318.9,83.1
		z"/>
	<path d="M1338.8,83.1c0-1.3,0-2.6,0-3.9h3.7v3.9H1338.8L1338.8,83.1z"/>
</g>
<g>
	<path d="M759.4,106.7L759.4,106.7h-3.9v-7.9c-1.2,0-2.2,0-3.2,0c-0.6,0-0.8,0.2-0.8,0.8c0,2.9,0,5.7,0,8.6c0,0.8,0,1.5,0,2.4h-3.9
		V94.8h4c0-1,0.1-2,0-2.9s0.3-1.1,1.1-1c0.9,0.1,1.9,0,3,0v-4h3.9V83l0,0h4v3.8h11.7c0-1.1,0-2.1,0-3.1c0-0.6,0.2-0.7,0.7-0.7
		c1.1,0,2.3,0,3.4,0l0,0v3.8h3.8c0,1.1,0,2.2,0,3.2c0,0.6,0.2,0.8,0.8,0.8c1,0,2,0,3.1,0c0,1.1,0,2,0,3c0,0.7,0.2,1,0.9,0.9
		c1-0.1,2,0,3,0v15.8c-1.1,0-2,0-3,0c-0.7,0-0.9-0.2-0.9-0.9c0-3.3,0-6.5,0-9.8c0-0.3,0-0.7-0.1-1.1c-1.1,0-2.2,0-3.2,0
		c-0.6,0-0.7,0.2-0.7,0.8c0,1.1,0,2.3,0,3.4c0,1.2,0,2.4,0,3.8h-3.8l0,0c0-1-0.1-2-0.1-3c0-0.8-0.2-1-1-1c-6,0-11.9,0-17.9,0
		c-0.3,0-0.6,0-0.9,0.1L759.4,106.7L759.4,106.7z M775.1,90.9c0,1.2,0,2.3,0,3.4c0,0.2,0.4,0.5,0.6,0.5c1,0.1,1.9,0,2.9,0
		c0.5,0,0.6-0.2,0.6-0.6c0-0.9,0-1.8,0-2.7c0-0.2-0.3-0.6-0.5-0.6C777.5,90.9,776.4,90.9,775.1,90.9L775.1,90.9z M763.4,91h-3.9v3.8
		h3.9V91z"/>
	<path d="M759.4,106.7L759.4,106.7c2.5,0,4.9,0,7.4,0c0.2,0,0.5,0.3,0.5,0.4c0,1.1,0,2.3,0,3.4h-7.9V106.7L759.4,106.7z"/>
	<path d="M779.3,106.7L779.3,106.7c0,1.2,0,2.5,0,3.8h-7.9v-3.8H779.3L779.3,106.7z"/>
	<path d="M759.4,83.1L759.4,83.1c-1.3,0-2.5,0-3.9,0c0-1.2,0-2.3,0-3.4c0-0.2,0.2-0.5,0.4-0.5c1.2,0,2.3,0,3.5,0V83.1L759.4,83.1z"
		/>
	<path d="M779.3,83.1c0-1.3,0-2.6,0-3.9h3.7v3.9H779.3L779.3,83.1z"/>
</g>
<g>
	<path d="M373.6,102.8L373.6,102.8c0-1.1,0-2.2,0-3.3c0-0.5-0.2-0.7-0.7-0.7c-2.2,0-4.5,0-6.7,0c-0.5,0-0.7,0.2-0.7,0.7
		c0,1.1,0,2.2,0,3.3l0,0c-2.4,0-4.7-0.1-7.1,0c-0.2,0-0.5,0.4-0.6,0.6c-0.1,0.9,0,1.7,0,2.6c0,0.6,0.2,0.8,0.8,0.8c1,0,2,0,3.1,0
		v3.8h-7.9v-3.8c-1.1,0-2.2,0-3.2,0c-0.2,0-0.6-0.2-0.6-0.4c-0.1-1.1,0-2.3,0-3.5h3.8V99c-2.4,0-4.6,0-6.9,0c-0.7,0-0.9-0.2-0.9-0.9
		c0-3.4,0-6.8,0-10.2c0-0.2,0-0.5,0.1-0.8h3.9V83h11.9v-3.8h15.6v3.9h11.9V87c1.1,0,2.1,0,3.1,0c0.7,0,0.9,0.2,0.9,0.9
		c0,3.4,0,6.8,0,10.2c0,0.3,0,0.5-0.1,0.9h-7.8c0,1.1,0,2.1,0,3.1c0,0.6,0.2,0.9,0.8,0.8c1,0,2,0,3.1,0v3.9h-3.9v3.9h-7.9v-3.9
		c1.1,0,2.1,0,3.2,0c0.3,0,0.7-0.3,0.7-0.4c0.1-1.1,0-2.3,0-3.4L373.6,102.8L373.6,102.8z M373.7,91v3.7c0.2,0,0.4,0.1,0.7,0.1
		c2.1,0,4.1,0,6.2,0c0.6,0,0.9-0.2,0.8-0.8c0-1,0-2,0-3C381.4,91,373.7,91,373.7,91z M361.7,94.8c1,0,2.1,0,3.1,0
		c0.5,0,0.8-0.1,0.7-0.7c0-0.8,0-1.7,0-2.5c0-0.5-0.1-0.7-0.7-0.7c-2.2,0-4.3,0-6.5,0c-0.5,0-0.6,0.2-0.6,0.6c0,0.8,0,1.6,0,2.4
		c0,0.6,0.2,0.9,0.8,0.8C359.7,94.8,360.7,94.8,361.7,94.8L361.7,94.8z"/>
	<path d="M365.5,102.8L365.5,102.8c2.7,0,5.4,0,8.1,0l0,0c0,1.2,0,2.5,0,3.8h-8.1V102.8L365.5,102.8z"/>
</g>
<g>
	<path d="M1653.2,162.9L1653.2,162.9c0-1.1,0.1-2.2,0-3.3c0-0.2-0.3-0.6-0.5-0.6c-2.9,0-5.8,0-8.9,0v4l0,0h-4.8c0-1.1,0-2.1,0-3.1
		c0-0.7-0.2-0.9-0.9-0.9c-1.8,0-3.6,0-5.4,0c-1.1,0-2.2,0-3.4,0v-7.8h4.8v-4h4.9v-3.9h4.8v-3.8h9.3v3.9h4.8v3.9h5c0,1.1,0,2.1,0,3.2
		c0,0.7,0.2,0.9,0.9,0.9c1.2,0,2.4,0,3.7,0v7.8h-9.6v3.9h-4.7L1653.2,162.9L1653.2,162.9z M1658,151.1h-4.8v3.8c1.5,0,2.9,0,4.3,0
		c0.1,0,0.4-0.3,0.4-0.4C1658,153.4,1658,152.3,1658,151.1L1658,151.1z M1643.8,154.9V151c-1.5,0-2.9,0-4.4,0
		c-0.1,0-0.4,0.3-0.4,0.5c0,1,0,1.9,0,2.9c0,0.2,0.3,0.5,0.5,0.5C1640.9,155,1642.3,154.9,1643.8,154.9L1643.8,154.9z"/>
	<path d="M1643.8,162.8L1643.8,162.8c3.1,0,6.2,0,9.4,0l0,0c0,1.4,0,2.7-0.1,4.1l0,0c-0.3,0-0.7-0.1-1-0.1c-2.4,0-4.8,0-7.3,0
		c-0.3,0-0.6,0-1,0V162.8L1643.8,162.8z"/>
	<path d="M1663,162.9c0,1,0.1,1.9,0,2.8c-0.1,0.8,0.2,1.1,1,1.1c1.2-0.1,2.4,0,3.5,0v3.8h-4.5c0-1,0-2,0-2.9c0-0.8-0.3-1-1-0.9
		c-1.3,0.1-2.6,0-4,0v-3.9L1663,162.9L1663,162.9z"/>
	<path d="M1638.9,166.9c-0.3-0.1-0.7-0.1-1-0.2c-1.2,0-2.4,0-3.7,0v-3.8h4.9C1639,164.3,1639,165.6,1638.9,166.9L1638.9,166.9z"/>
	<path d="M1629.3,166.8h4.8c0,1.2,0,2.3,0,3.4c0,0.2-0.4,0.4-0.6,0.5c-1.2,0-2.4,0-3.6,0c-0.2,0-0.5-0.3-0.5-0.5
		C1629.3,169.1,1629.3,168,1629.3,166.8L1629.3,166.8z"/>
	<path d="M1638.9,166.9L1638.9,166.9c1.6,0,3.2,0,4.9,0v3.7h-4.7c0-0.5,0-1,0-1.4C1639,168.4,1638.9,167.7,1638.9,166.9
		L1638.9,166.9z"/>
	<path d="M1653.1,166.9c1.6,0,3.1,0,4.7,0v3.8c-1.4,0-2.7,0-4,0c-0.5,0-0.6-0.2-0.6-0.6C1653.2,169,1653.2,167.9,1653.1,166.9
		L1653.1,166.9z"/>
</g>
<g>
	<path d="M879.8,223H872c0,1.2,0,2.3,0,3.4c0,0.2,0.4,0.4,0.7,0.4c1,0,2.1,0,3.2,0v3.9H868v-3.9h-3.9V223c1,0,2,0,3.1,0
		c0.6,0,0.9-0.2,0.8-0.8c0-1,0-2,0-3.1h-7.8c0-0.4-0.1-0.6-0.1-0.9c0-3.4,0-6.8,0-10.2c0-0.7,0.2-0.9,0.9-0.9c1,0.1,2,0,3.1,0v-3.9
		H876v-3.9h15.6v3.8h11.9v3.9h3.9c0,0.4,0.1,0.6,0.1,0.8c0,3.4,0,6.8,0,10.2c0,0.7-0.2,0.9-0.9,0.9c-2.3,0-4.6,0-6.9,0v3.9h3.8
		c0,1.2,0,2.4,0,3.5c0,0.1-0.4,0.4-0.6,0.4c-1,0-2.1,0-3.2,0v3.8h-7.9v-3.8c1.1,0,2.1,0,3.1,0c0.6,0,0.8-0.2,0.8-0.8
		c0-0.9,0-1.7,0-2.6c0-0.2-0.4-0.6-0.6-0.6c-2.4,0-4.7,0-7.1,0l0,0c0-1.1-0.1-2.2,0-3.3c0-0.5-0.2-0.7-0.7-0.7c-2.2,0-4.5,0-6.7,0
		c-0.5,0-0.7,0.2-0.7,0.7C879.8,220.8,879.8,222,879.8,223L879.8,223L879.8,223z M872,211.3c0,1,0,2,0,3c0,0.6,0.2,0.8,0.8,0.8
		c2.1,0,4.1,0,6.2,0c0.2,0,0.5-0.1,0.7-0.1v-3.7H872z M891.7,215.1c1,0,2,0,3.1,0c0.6,0,0.8-0.2,0.8-0.8c0-0.8,0-1.6,0-2.4
		c0-0.5-0.1-0.7-0.6-0.6c-2.2,0-4.3,0-6.5,0c-0.5,0-0.7,0.2-0.7,0.7c0,0.8,0,1.7,0,2.5c0,0.6,0.2,0.7,0.7,0.7
		C889.6,215.1,890.7,215.1,891.7,215.1L891.7,215.1z"/>
	<path d="M887.9,223v3.8h-8.1c0-1.3,0-2.5,0-3.8l0,0C882.5,223.1,885.2,223.1,887.9,223L887.9,223L887.9,223z"/>
</g>
<g>
	<path d="M297.1,227v-4c-0.4,0-0.7-0.1-0.9-0.1c-6,0-11.9,0-17.9,0c-0.8,0-1,0.3-1,1c0,1-0.1,2-0.1,3l0,0h-3.8c0-1.4,0-2.6,0-3.8
		c0-1.1,0-2.3,0-3.4c0-0.5-0.1-0.8-0.7-0.8c-1,0-2.1,0-3.2,0c0,0.4-0.1,0.8-0.1,1.1c0,3.3,0,6.5,0,9.8c0,0.7-0.2,0.9-0.9,0.9
		c-1-0.1-2,0-3,0v-15.8c1,0,2,0,3,0c0.7,0,0.9-0.2,0.9-0.9c-0.1-0.9,0-1.9,0-3c1.1,0,2.1,0,3.1,0c0.6,0,0.9-0.2,0.8-0.8
		c0-1,0-2.1,0-3.2h3.8v-3.8l0,0c1.1,0,2.3,0,3.4,0c0.5,0,0.8,0.2,0.7,0.7c0,1,0,2,0,3.1h11.7v-3.8h4l0,0v3.9h3.9v4c1.1,0,2,0,3,0
		c0.8,0,1.1,0.2,1.1,1c-0.1,0.9,0,1.8,0,2.9h4v15.7H305c0-0.8,0-1.6,0-2.4c0-2.9,0-5.7,0-8.6c0-0.6-0.2-0.8-0.8-0.8c-1,0-2,0-3.2,0
		v7.9L297.1,227L297.1,227L297.1,227z M281.4,211.2c-1.3,0-2.4,0-3.5,0c-0.2,0-0.5,0.4-0.5,0.6c-0.1,0.9,0,1.8,0,2.7
		c0,0.5,0.2,0.7,0.6,0.6c1,0,1.9,0,2.9,0c0.2,0,0.6-0.3,0.6-0.5C281.4,213.5,281.4,212.4,281.4,211.2L281.4,211.2z M293.1,215h3.9
		v-3.8h-3.9V215z"/>
	<path d="M297.1,226.9v3.8h-7.9c0-1.2,0-2.3,0-3.4c0-0.2,0.3-0.4,0.5-0.4C292.2,226.9,294.7,226.9,297.1,226.9L297.1,226.9
		L297.1,226.9z"/>
	<path d="M277.2,227h8v3.8h-7.9C277.2,229.5,277.2,228.2,277.2,227L277.2,227L277.2,227z"/>
	<path d="M297.1,203.3v-3.9c1.2,0,2.3,0,3.5,0c0.1,0,0.4,0.3,0.4,0.5c0,1.1,0,2.2,0,3.4C299.6,203.3,298.4,203.3,297.1,203.3
		L297.1,203.3L297.1,203.3z"/>
	<path d="M277.2,203.3h-3.7v-3.9h3.7C277.2,200.8,277.2,202.1,277.2,203.3L277.2,203.3z"/>
</g>
<g>
	<path d="M1638.6,407.4L1638.6,407.4h-3.9v-7.9c-1.2,0-2.2,0-3.2,0c-0.6,0-0.8,0.2-0.8,0.8c0,2.9,0,5.7,0,8.6c0,0.8,0,1.5,0,2.4
		h-3.9v-15.7h4c0-1,0.1-2,0-2.9s0.3-1.1,1.1-1c0.9,0.1,1.9,0,3,0v-4h3.9v-3.9l0,0h4v3.8h11.7c0-1.1,0-2.1,0-3.1
		c0-0.6,0.2-0.7,0.7-0.7c1.1,0,2.3,0,3.4,0l0,0v3.8h3.8c0,1.1,0,2.2,0,3.2c0,0.6,0.2,0.8,0.8,0.8c1,0,2,0,3.1,0c0,1.1,0,2,0,3
		c0,0.7,0.2,1,0.9,0.9c1-0.1,2,0,3,0v15.8c-1.1,0-2,0-3,0c-0.7,0-0.9-0.2-0.9-0.9c0-3.3,0-6.5,0-9.8c0-0.3,0-0.7-0.1-1.1
		c-1.1,0-2.2,0-3.2,0c-0.6,0-0.7,0.2-0.7,0.8c0,1.1,0,2.3,0,3.4c0,1.2,0,2.4,0,3.8h-3.8l0,0c0-1-0.1-2-0.1-3c0-0.8-0.2-1-1-1
		c-6,0-11.9,0-17.9,0c-0.3,0-0.6,0-0.9,0.1V407.4L1638.6,407.4z M1654.3,391.6c0,1.2,0,2.3,0,3.4c0,0.2,0.4,0.5,0.6,0.5
		c1,0.1,1.9,0,2.9,0c0.5,0,0.6-0.2,0.6-0.6c0-0.9,0-1.8,0-2.7c0-0.2-0.3-0.6-0.5-0.6C1656.7,391.6,1655.6,391.6,1654.3,391.6
		L1654.3,391.6z M1642.6,391.7h-3.9v3.8h3.9V391.7z"/>
	<path d="M1638.6,407.4L1638.6,407.4c2.5,0,4.9,0,7.4,0c0.2,0,0.5,0.3,0.5,0.4c0,1.1,0,2.3,0,3.4h-7.9V407.4L1638.6,407.4z"/>
	<path d="M1658.5,407.4L1658.5,407.4c0,1.2,0,2.5,0,3.8h-7.9v-3.8H1658.5L1658.5,407.4z"/>
	<path d="M1638.6,383.8L1638.6,383.8c-1.3,0-2.5,0-3.9,0c0-1.2,0-2.3,0-3.4c0-0.2,0.2-0.5,0.4-0.5c1.2,0,2.3,0,3.5,0V383.8
		L1638.6,383.8z"/>
	<path d="M1658.5,383.8c0-1.3,0-2.6,0-3.9h3.7v3.9H1658.5L1658.5,383.8z"/>
</g>
<g>
	<path d="M1721.1,523.9h-4.8V520h-9.6v-7.8c1.3,0,2.5,0,3.7,0c0.7,0,0.9-0.2,0.9-0.9c-0.1-1,0-2,0-3.2h5v-3.9h4.8v-3.9h9.3v3.8h4.8
		v3.9h4.9v4h4.8v7.8c-1.2,0-2.3,0-3.4,0c-1.8,0-3.6,0-5.4,0c-0.7,0-1,0.2-0.9,0.9c0.1,1,0,1.9,0,3.1h-4.8l0,0v-4c-3.1,0-6,0-8.9,0
		c-0.2,0-0.5,0.4-0.5,0.6C1721.1,521.7,1721.1,522.8,1721.1,523.9L1721.1,523.9L1721.1,523.9z M1716.3,512.1c0,1.2,0,2.3,0,3.4
		c0,0.2,0.3,0.4,0.4,0.4c1.4,0,2.9,0,4.3,0v-3.8L1716.3,512.1L1716.3,512.1z M1730.5,516c1.5,0,2.9,0,4.2,0c0.2,0,0.5-0.3,0.5-0.5
		c0.1-1,0-1.9,0-2.9c0-0.2-0.2-0.5-0.4-0.5c-1.5,0-2.9,0-4.4,0v3.9H1730.5z"/>
	<path d="M1730.5,523.9v3.9c-0.4,0-0.7,0-1,0c-2.4,0-4.8,0-7.3,0c-0.3,0-0.7,0.1-1,0.1l0,0c0-1.4,0-2.7-0.1-4.1l0,0
		C1724.3,523.9,1727.4,523.9,1730.5,523.9L1730.5,523.9L1730.5,523.9z"/>
	<path d="M1711.4,523.9h4.9v3.9c-1.3,0-2.7,0-4,0c-0.7,0-1,0.2-1,0.9c0.1,1,0,1.9,0,2.9h-4.5v-3.8c1.2,0,2.4-0.1,3.5,0
		c0.9,0.1,1.1-0.3,1-1.1C1711.3,525.8,1711.4,524.9,1711.4,523.9L1711.4,523.9z"/>
	<path d="M1735.5,527.9c-0.1-1.3-0.1-2.6-0.2-4h4.9v3.8c-1.2,0-2.5,0-3.7,0C1736.1,527.8,1735.8,527.9,1735.5,527.9L1735.5,527.9z"
		/>
	<path d="M1745,527.9c0,1.2,0,2.3,0,3.3c0,0.2-0.4,0.5-0.5,0.5c-1.2,0-2.4,0-3.6,0c-0.2,0-0.6-0.3-0.6-0.5c-0.1-1.1,0-2.2,0-3.4
		L1745,527.9L1745,527.9z"/>
	<path d="M1735.5,527.9c-0.1,0.8-0.1,1.5-0.2,2.3c0,0.4,0,0.9,0,1.4h-4.7v-3.7C1732.2,527.9,1733.8,527.9,1735.5,527.9L1735.5,527.9
		L1735.5,527.9z"/>
	<path d="M1721.2,527.9c0,1-0.1,2.1-0.1,3.1c0,0.5-0.1,0.7-0.6,0.6c-1.3,0-2.6,0-4,0v-3.8C1718.1,527.9,1719.6,527.9,1721.2,527.9
		L1721.2,527.9z"/>
</g>
<g>
	<path d="M1176.2,504.2v3.9h4v4h4c0-0.6,0-1.1,0-1.7c0-1.8,0-3.6,0-5.4c0-0.5,0.2-0.7,0.7-0.7c1,0,2,0,3.1,0V520h-3.8v3.9h-3.9
		c-0.1,1.4-0.1,2.8-0.2,4.1l0,0c-1.2-0.1-2.5-0.1-3.9-0.2V524h-19.6c0,1,0,1.9,0,2.9c0,0.7-0.2,1-1,1c-1,0-1.9,0.1-2.9,0.1l0,0
		c0-1.1-0.1-2.2-0.1-3.2c0-0.7-0.2-0.9-0.9-0.9c-0.8,0.1-1.6,0-2.3,0c-0.7,0-0.9-0.2-0.9-0.8c0.1-1,0-2,0-3.1h-3.8v-15.7h3.8v7.7
		h4.1v-4c1.1,0,2,0,3,0c0.7,0,1-0.2,1-0.9c-0.1-0.9,0-1.9,0-2.9h3.7v3.7h11.9v-3.8L1176.2,504.2L1176.2,504.2L1176.2,504.2z
		 M1176.2,512.1h-3.8v3.8h3.8C1176.2,515.9,1176.2,512.1,1176.2,512.1z M1156.7,512.1c0,1.2,0,2.3,0,3.4c0,0.2,0.4,0.4,0.6,0.5
		c0.9,0.1,1.7,0,2.6,0c0.2,0,0.6-0.2,0.6-0.4c0-1.1,0-2.3,0-3.5H1156.7L1156.7,512.1z"/>
	<path d="M1152.8,527.9c-0.1,1.2-0.1,2.5-0.2,3.8h-4c0-1.2,0-2.3,0-3.5c0-0.1,0.3-0.4,0.4-0.4
		C1150.3,527.8,1151.6,527.9,1152.8,527.9C1152.9,527.9,1152.8,527.9,1152.8,527.9L1152.8,527.9z"/>
	<path d="M1176.2,504.2v-3.8h3.9v3.8C1178.8,504.2,1177.5,504.2,1176.2,504.2L1176.2,504.2z"/>
	<path d="M1184.1,527.9v3.8c-1.1,0-4,0-4,0s0-2.8,0-3.8C1180.1,527.9,1182.7,527.9,1184.1,527.9L1184.1,527.9z"/>
	<path d="M1152.8,500.3c1.1,0,2.3,0,3.4,0c0.1,0,0.4,0.3,0.4,0.5c0,1.1,0,2.2,0,3.4h-3.8C1152.8,504.1,1152.8,500.3,1152.8,500.3z"
		/>
</g>
<g>
	<path d="M1016.3,564.4v3.9h4v4h4c0-0.6,0-1.1,0-1.7c0-1.8,0-3.6,0-5.4c0-0.5,0.2-0.7,0.7-0.7c1,0,2,0,3.1,0v15.7h-3.8v3.9h-3.9
		c-0.1,1.4-0.1,2.8-0.2,4.1l0,0c-1.2-0.1-2.5-0.1-3.9-0.2v-3.8h-19.6c0,1,0,1.9,0,2.9c0,0.7-0.2,1-1,1c-1,0-1.9,0.1-2.9,0.1l0,0
		c0-1.1-0.1-2.2-0.1-3.2c0-0.7-0.2-0.9-0.9-0.9c-0.8,0.1-1.6,0-2.3,0s-0.9-0.2-0.9-0.8c0.1-1,0-2,0-3.1H985v-15.7h3.8v7.7h4.1v-4
		c1.1,0,2,0,3,0c0.7,0,1-0.2,1-0.9c-0.1-0.9,0-1.9,0-2.9h3.7v3.7h11.9v-3.8L1016.3,564.4L1016.3,564.4L1016.3,564.4z M1016.3,572.3
		h-3.8v3.8h3.8V572.3z M996.8,572.3c0,1.2,0,2.3,0,3.4c0,0.2,0.4,0.4,0.6,0.5c0.9,0.1,1.7,0,2.6,0c0.2,0,0.6-0.2,0.6-0.4
		c0-1.1,0-2.3,0-3.5H996.8L996.8,572.3z"/>
	<path d="M993,588.1c-0.1,1.2-0.1,2.5-0.2,3.8h-4c0-1.2,0-2.3,0-3.5c0-0.1,0.3-0.4,0.4-0.4C990.5,588,991.8,588.1,993,588.1
		L993,588.1L993,588.1z"/>
	<path d="M1016.4,564.4v-3.8h3.9v3.8C1018.9,564.4,1017.6,564.4,1016.4,564.4C1016.3,564.4,1016.4,564.4,1016.4,564.4z"/>
	<path d="M1024.2,588.1v3.8c-1.1,0-4,0-4,0s0-2.8,0-3.8C1020.2,588.1,1022.8,588.1,1024.2,588.1L1024.2,588.1z"/>
	<path d="M993,560.5c1.1,0,2.3,0,3.4,0c0.1,0,0.4,0.3,0.4,0.5c0,1.1,0,2.2,0,3.4H993C993,564.3,993,560.5,993,560.5z"/>
</g>
<g>
	<path d="M54.7,644.3L54.7,644.3c0-1.1,0.1-2.2,0-3.3c0-0.2-0.3-0.6-0.5-0.6c-2.9,0-5.8,0-8.9,0v4l0,0h-4.8c0-1.1,0-2.1,0-3.1
		c0-0.7-0.2-0.9-0.9-0.9c-1.8,0-3.6,0-5.4,0c-1.1,0-2.2,0-3.4,0v-7.8h4.8v-4h4.9v-3.9h4.8v-3.8h9.3v3.9h4.8v3.9h5c0,1.1,0,2.1,0,3.2
		c0,0.7,0.2,0.9,0.9,0.9c1.2,0,2.4,0,3.7,0v7.8h-9.6v3.9h-4.7V644.3z M59.5,632.5h-4.8v3.8c1.5,0,2.9,0,4.3,0c0.1,0,0.4-0.3,0.4-0.4
		C59.5,634.8,59.5,633.7,59.5,632.5L59.5,632.5z M45.3,636.4v-3.9c-1.5,0-2.9,0-4.4,0c-0.1,0-0.4,0.3-0.4,0.5c0,1,0,1.9,0,2.9
		c0,0.2,0.3,0.5,0.5,0.5C42.4,636.4,43.8,636.4,45.3,636.4L45.3,636.4z"/>
	<path d="M45.3,644.3L45.3,644.3c3.1,0,6.2,0,9.4,0l0,0c0,1.4,0,2.7-0.1,4.1l0,0c-0.3,0-0.7-0.1-1-0.1c-2.4,0-4.8,0-7.3,0
		c-0.3,0-0.6,0-1,0V644.3L45.3,644.3z"/>
	<path d="M64.5,644.3c0,1,0.1,1.9,0,2.8c-0.1,0.8,0.2,1.1,1,1.1c1.2-0.1,2.4,0,3.5,0v3.8h-4.5c0-1,0-2,0-2.9c0-0.8-0.3-1-1-0.9
		c-1.3,0.1-2.6,0-4,0v-3.9L64.5,644.3L64.5,644.3z"/>
	<path d="M40.4,648.4c-0.3-0.1-0.7-0.1-1-0.2c-1.2,0-2.4,0-3.7,0v-3.8h4.9C40.5,645.8,40.5,647.1,40.4,648.4L40.4,648.4z"/>
	<path d="M30.8,648.3h4.8c0,1.2,0,2.3,0,3.4c0,0.2-0.4,0.4-0.6,0.5c-1.2,0-2.4,0-3.6,0c-0.2,0-0.5-0.3-0.5-0.5
		C30.8,650.5,30.8,649.5,30.8,648.3L30.8,648.3z"/>
	<path d="M40.4,648.4L40.4,648.4c1.6,0,3.2,0,4.9,0v3.7h-4.7c0-0.5,0-1,0-1.4C40.5,649.9,40.4,649.1,40.4,648.4L40.4,648.4z"/>
	<path d="M54.6,648.4c1.6,0,3.1,0,4.7,0v3.8c-1.4,0-2.7,0-4,0c-0.5,0-0.6-0.2-0.6-0.6C54.7,650.4,54.7,649.4,54.6,648.4L54.6,648.4z
		"/>
</g>
<g>
	<path d="M602.2,764.7h-4.8v-3.9h-9.6V753c1.3,0,2.5,0,3.7,0c0.7,0,0.9-0.2,0.9-0.9c-0.1-1,0-2,0-3.2h5V745h4.8v-3.9h9.3v3.8h4.8
		v3.9h4.9v4h4.8v7.8c-1.2,0-2.3,0-3.4,0c-1.8,0-3.6,0-5.4,0c-0.7,0-1,0.2-0.9,0.9c0.1,1,0,1.9,0,3.1h-4.8l0,0v-4c-3.1,0-6,0-8.9,0
		c-0.2,0-0.5,0.4-0.5,0.6C602.2,762.5,602.2,763.6,602.2,764.7L602.2,764.7L602.2,764.7z M597.4,753c0,1.2,0,2.3,0,3.4
		c0,0.2,0.3,0.4,0.4,0.4c1.4,0,2.9,0,4.3,0V753H597.4L597.4,753z M611.6,756.8c1.5,0,2.9,0,4.2,0c0.2,0,0.5-0.3,0.5-0.5
		c0.1-1,0-1.9,0-2.9c0-0.2-0.2-0.5-0.4-0.5c-1.5,0-2.9,0-4.4,0v3.9H611.6z"/>
	<path d="M611.5,764.7v3.9c-0.4,0-0.7,0-1,0c-2.4,0-4.8,0-7.3,0c-0.3,0-0.7,0.1-1,0.1l0,0c0-1.4,0-2.7-0.1-4.1l0,0
		C605.3,764.7,608.4,764.7,611.5,764.7L611.5,764.7L611.5,764.7z"/>
	<path d="M592.4,764.8h4.9v3.9c-1.3,0-2.7,0-4,0c-0.7,0-1,0.2-1,0.9c0.1,1,0,1.9,0,2.9h-4.5v-3.8c1.2,0,2.4-0.1,3.5,0
		c0.9,0.1,1.1-0.3,1-1.1C592.4,766.7,592.4,765.8,592.4,764.8L592.4,764.8z"/>
	<path d="M616.5,768.8c-0.1-1.3-0.1-2.6-0.2-4h4.9v3.8c-1.2,0-2.5,0-3.7,0C617.2,768.6,616.8,768.7,616.5,768.8L616.5,768.8z"/>
	<path d="M626.1,768.7c0,1.2,0,2.3,0,3.3c0,0.2-0.4,0.5-0.5,0.5c-1.2,0-2.4,0-3.6,0c-0.2,0-0.6-0.3-0.6-0.5c-0.1-1.1,0-2.2,0-3.4
		L626.1,768.7L626.1,768.7z"/>
	<path d="M616.5,768.8c-0.1,0.8-0.1,1.5-0.2,2.3c0,0.4,0,0.9,0,1.4h-4.7v-3.7C613.3,768.8,614.9,768.8,616.5,768.8L616.5,768.8
		L616.5,768.8z"/>
	<path d="M602.2,768.8c0,1-0.1,2.1-0.1,3.1c0,0.5-0.1,0.7-0.6,0.6c-1.3,0-2.6,0-4,0v-3.8C599.1,768.8,600.7,768.8,602.2,768.8
		L602.2,768.8z"/>
</g>
<g>
	<path d="M1096.4,768.7v-4c-0.4,0-0.7-0.1-0.9-0.1c-6,0-11.9,0-17.9,0c-0.8,0-1,0.3-1,1c0,1-0.1,2-0.1,3l0,0h-3.8c0-1.4,0-2.6,0-3.8
		c0-1.1,0-2.3,0-3.4c0-0.5-0.1-0.8-0.7-0.8c-1,0-2.1,0-3.2,0c0,0.4-0.1,0.8-0.1,1.1c0,3.3,0,6.5,0,9.8c0,0.7-0.2,0.9-0.9,0.9
		c-1-0.1-2,0-3,0v-15.8c1,0,2,0,3,0c0.7,0,0.9-0.2,0.9-0.9c-0.1-0.9,0-1.9,0-3c1.1,0,2.1,0,3.1,0c0.6,0,0.9-0.2,0.8-0.8
		c0-1,0-2.1,0-3.2h3.8v-3.8l0,0c1.1,0,2.3,0,3.4,0c0.5,0,0.8,0.2,0.7,0.7c0,1,0,2,0,3.1h11.7v-3.8h4l0,0v3.9h3.9v4c1.1,0,2,0,3,0
		c0.8,0,1.1,0.2,1.1,1c-0.1,0.9,0,1.8,0,2.9h4v15.7h-3.9c0-0.8,0-1.6,0-2.4c0-2.9,0-5.7,0-8.6c0-0.6-0.2-0.8-0.8-0.8c-1,0-2,0-3.2,0
		v7.9L1096.4,768.7L1096.4,768.7L1096.4,768.7z M1080.6,752.9c-1.3,0-2.4,0-3.5,0c-0.2,0-0.5,0.4-0.5,0.6c-0.1,0.9,0,1.8,0,2.7
		c0,0.5,0.2,0.7,0.6,0.6c1,0,1.9,0,2.9,0c0.2,0,0.6-0.3,0.6-0.5C1080.7,755.2,1080.6,754.1,1080.6,752.9L1080.6,752.9z
		 M1092.4,756.8h3.9V753h-3.9V756.8z"/>
	<path d="M1096.4,768.7v3.8h-7.9c0-1.2,0-2.3,0-3.4c0-0.2,0.3-0.4,0.5-0.4C1091.4,768.6,1093.9,768.7,1096.4,768.7L1096.4,768.7
		L1096.4,768.7z"/>
	<path d="M1076.4,768.7h8v3.8h-7.9C1076.5,771.2,1076.5,770,1076.4,768.7C1076.5,768.7,1076.4,768.7,1076.4,768.7L1076.4,768.7z"/>
	<path d="M1096.4,745.1v-3.9c1.2,0,2.3,0,3.5,0c0.1,0,0.4,0.3,0.4,0.5c0,1.1,0,2.2,0,3.4C1098.9,745,1097.6,745,1096.4,745.1
		L1096.4,745.1L1096.4,745.1z"/>
	<path d="M1076.5,745.1h-3.7v-3.9h3.7C1076.5,742.5,1076.5,743.8,1076.5,745.1L1076.5,745.1z"/>
</g>
<g>
	<path d="M773.3,885.2L773.3,885.2c0-1.1,0-2.2,0-3.3c0-0.5-0.2-0.7-0.7-0.7c-2.2,0-4.5,0-6.7,0c-0.5,0-0.7,0.2-0.7,0.7
		c0,1.1,0,2.2,0,3.3l0,0c-2.4,0-4.7-0.1-7.1,0c-0.2,0-0.5,0.4-0.6,0.6c-0.1,0.9,0,1.7,0,2.6c0,0.6,0.2,0.8,0.8,0.8c1,0,2,0,3.1,0
		v3.8h-7.9v-3.8c-1.1,0-2.2,0-3.2,0c-0.2,0-0.6-0.2-0.6-0.4c-0.1-1.1,0-2.3,0-3.5h3.8v-3.9c-2.4,0-4.6,0-6.9,0
		c-0.7,0-0.9-0.2-0.9-0.9c0-3.4,0-6.8,0-10.2c0-0.2,0-0.5,0.1-0.8h3.9v-3.9h11.9v-3.8H777v3.9h12v3.9c1.1,0,2.1,0,3.1,0
		c0.7,0,0.9,0.2,0.9,0.9c0,3.4,0,6.8,0,10.2c0,0.3,0,0.5-0.1,0.9H785c0,1.1,0,2.1,0,3.1c0,0.6,0.2,0.9,0.8,0.8c1,0,2,0,3.1,0v3.9
		H785v3.9h-7.9v-3.9c1.1,0,2.1,0,3.2,0c0.3,0,0.7-0.3,0.7-0.4c0.1-1.1,0-2.3,0-3.4L773.3,885.2L773.3,885.2z M773.3,873.4v3.7
		c0.2,0,0.4,0.1,0.7,0.1c2.1,0,4.1,0,6.2,0c0.6,0,0.9-0.2,0.8-0.8c0-1,0-2,0-3H773.3z M761.3,877.3c1,0,2.1,0,3.1,0
		c0.5,0,0.8-0.1,0.7-0.7c0-0.8,0-1.7,0-2.5c0-0.5-0.1-0.7-0.7-0.7c-2.2,0-4.3,0-6.5,0c-0.5,0-0.6,0.2-0.6,0.6c0,0.8,0,1.6,0,2.4
		c0,0.6,0.2,0.9,0.8,0.8C759.3,877.2,760.3,877.3,761.3,877.3L761.3,877.3z"/>
	<path d="M765.2,885.2L765.2,885.2c2.7,0,5.4,0,8.1,0l0,0c0,1.2,0,2.5,0,3.8h-8.1V885.2L765.2,885.2z"/>
</g>
<g>
	<path d="M919.4,865.5L919.4,865.5h3.9v3.8h11.9v-3.7h3.7c0,1,0.1,1.9,0,2.9c-0.1,0.8,0.3,1,1,0.9c1-0.1,1.9,0,3,0v4h4.1v-7.7h3.8
		v15.7H947c0,1.1,0,2.1,0,3.1c0,0.7-0.2,0.9-0.9,0.8c-0.8,0-1.6,0-2.3,0s-0.9,0.2-0.9,0.9c0,1.1-0.1,2.1-0.1,3.2l0,0
		c-1,0-1.9-0.1-2.9-0.1c-0.8,0-1-0.2-1-1c0.1-1,0-1.9,0-2.9h-19.6v3.8c-1.4,0.1-2.6,0.1-3.9,0.2l0,0c-0.1-1.3-0.1-2.7-0.2-4.1h-3.9
		v-3.9h-3.8v-15.7c1.1,0,2.1,0,3.1,0c0.6,0,0.7,0.2,0.7,0.7c0,1.8,0,3.6,0,5.4c0,0.6,0,1.1,0,1.7h4v-4h4v-4L919.4,865.5L919.4,865.5
		z M919.4,877.2h3.8v-3.8h-3.8V877.2z M938.9,873.4h-3.8c0,1.2,0,2.3,0,3.5c0,0.1,0.4,0.4,0.6,0.4c0.9,0,1.7,0.1,2.6,0
		c0.2,0,0.6-0.3,0.6-0.5C938.9,875.7,938.9,874.6,938.9,873.4L938.9,873.4z"/>
	<path d="M942.7,889.2L942.7,889.2c1.2,0,2.5-0.1,3.7-0.1c0.1,0,0.4,0.2,0.4,0.4c0,1.2,0,2.3,0,3.5h-4
		C942.8,891.6,942.8,890.4,942.7,889.2L942.7,889.2z"/>
	<path d="M919.4,865.5c-1.3,0-2.6,0-3.9,0v-3.8h3.9V865.5C919.3,865.5,919.4,865.5,919.4,865.5z"/>
	<path d="M911.5,889.2c1.4,0,4,0,4,0c0,1,0,3.8,0,3.8s-2.8,0-4,0V889.2L911.5,889.2z"/>
	<path d="M942.7,865.4h-3.8c0-1.2,0-2.3,0-3.4c0-0.2,0.3-0.4,0.4-0.5c1.1,0,2.3,0,3.4,0C942.7,861.6,942.7,865.4,942.7,865.4z"/>
</g>
<g>
	<path d="M599.7,985.9L599.7,985.9h3.9v3.8h11.9V986h3.7c0,1,0.1,1.9,0,2.9c-0.1,0.8,0.3,1,1,0.9c1-0.1,1.9,0,3,0v4h4.1V986h3.8
		v15.7h-3.8c0,1.1,0,2.1,0,3.1c0,0.7-0.2,0.9-0.9,0.8c-0.8,0-1.6,0-2.3,0s-0.9,0.2-0.9,0.9c0,1.1-0.1,2.1-0.1,3.2l0,0
		c-1,0-1.9-0.1-2.9-0.1c-0.8,0-1-0.2-1-1c0.1-1,0-1.9,0-2.9h-19.6v3.8c-1.4,0.1-2.6,0.1-3.9,0.2l0,0c-0.1-1.3-0.1-2.7-0.2-4.1h-3.9
		v-3.9h-3.8V986c1.1,0,2.1,0,3.1,0c0.6,0,0.7,0.2,0.7,0.7c0,1.8,0,3.6,0,5.4c0,0.6,0,1.1,0,1.7h4v-4h4v-3.9H599.7z M599.7,997.6h3.8
		v-3.8h-3.8V997.6z M619.2,993.8h-3.8c0,1.2,0,2.3,0,3.5c0,0.1,0.4,0.4,0.6,0.4c0.9,0,1.7,0.1,2.6,0c0.2,0,0.6-0.3,0.6-0.5
		C619.2,996.1,619.2,995,619.2,993.8L619.2,993.8z"/>
	<path d="M623,1009.6L623,1009.6c1.2,0,2.5-0.1,3.7-0.1c0.1,0,0.4,0.2,0.4,0.4c0,1.2,0,2.3,0,3.5h-4
		C623.1,1012.1,623.1,1010.8,623,1009.6L623,1009.6z"/>
	<path d="M599.7,985.9c-1.3,0-2.6,0-3.9,0v-3.8h3.9V985.9C599.6,985.9,599.7,985.9,599.7,985.9z"/>
	<path d="M591.8,1009.6c1.4,0,4,0,4,0c0,1,0,3.8,0,3.8s-2.8,0-4,0V1009.6L591.8,1009.6z"/>
	<path d="M623,985.8h-3.8c0-1.2,0-2.3,0-3.4c0-0.2,0.3-0.4,0.4-0.5c1.1,0,2.3,0,3.4,0C623,982,623,985.8,623,985.8z"/>
</g>
<g>
	<path d="M376.9,1042.5v3.9h4v4h4c0-0.6,0-1.1,0-1.7c0-1.8,0-3.6,0-5.4c0-0.5,0.2-0.7,0.7-0.7c1,0,2,0,3.1,0v15.7h-3.8v3.9H381
		c-0.1,1.4-0.1,2.8-0.2,4.1l0,0c-1.2-0.1-2.5-0.1-3.9-0.2v-3.8h-19.6c0,1,0,1.9,0,2.9c0,0.7-0.2,1-1,1c-1,0-1.9,0.1-2.9,0.1l0,0
		c0-1.1-0.1-2.2-0.1-3.2c0-0.7-0.2-0.9-0.9-0.9c-0.8,0.1-1.6,0-2.3,0c-0.7,0-0.9-0.2-0.9-0.8c0.1-1,0-2,0-3.1h-3.8v-15.7h3.8v7.7
		h4.1v-4c1.1,0,2,0,3,0c0.7,0,1-0.2,1-0.9c-0.1-0.9,0-1.9,0-2.9h3.7v3.7h11.9v-3.8L376.9,1042.5L376.9,1042.5L376.9,1042.5z
		 M376.9,1050.4h-3.8v3.8h3.8C376.9,1054.2,376.9,1050.4,376.9,1050.4z M357.4,1050.4c0,1.2,0,2.3,0,3.4c0,0.2,0.4,0.4,0.6,0.5
		c0.9,0.1,1.7,0,2.6,0c0.2,0,0.6-0.2,0.6-0.4c0-1.1,0-2.3,0-3.5H357.4L357.4,1050.4z"/>
	<path d="M353.6,1066.1c-0.1,1.2-0.1,2.5-0.2,3.8h-4c0-1.2,0-2.3,0-3.5c0-0.1,0.3-0.4,0.4-0.4
		C351.1,1066.1,352.4,1066.1,353.6,1066.1C353.6,1066.2,353.6,1066.1,353.6,1066.1L353.6,1066.1z"/>
	<path d="M377,1042.5v-3.8h3.9v3.8C379.5,1042.5,378.2,1042.5,377,1042.5C376.9,1042.5,377,1042.5,377,1042.5z"/>
	<path d="M384.8,1066.2v3.8c-1.1,0-4,0-4,0s0-2.8,0-3.8C380.8,1066.1,383.4,1066.2,384.8,1066.2L384.8,1066.2z"/>
	<path d="M353.6,1038.6c1.1,0,2.3,0,3.4,0c0.1,0,0.4,0.3,0.4,0.5c0,1.1,0,2.2,0,3.4h-3.8C353.6,1042.4,353.6,1038.6,353.6,1038.6z"
		/>
</g>
</svg>
