<?xml version="1.0" encoding="utf-8"?>
<svg version="1.1" id="Layer_1" xmlns="http://www.w3.org/2000/svg" xmlns:xlink="http://www.w3.org/1999/xlink" x="0px" y="0px"
	 viewBox="0 0 900 300" style="enable-background:new 0 0 900 300;" xml:space="preserve">
<style type="text/css">
	path{fill:hsl(0, 100%, 60%);}
</style>
<g>
	<g>
		<path class="st0" d="M281.8,269.2h-85.9c-4.9,0-8.9-4-8.9-8.9c0-4.9,4-8.9,8.9-8.9h85.9c56.1,0,101.7-45.6,101.7-101.7
			C383.5,93.6,337.9,48,281.8,48c-4.9,0-8.9-4-8.9-8.9c0-4.9,4-8.9,8.9-8.9c32,0,62,12.4,84.5,34.9c22.5,22.5,34.9,52.5,34.9,84.5
			c0,32-12.4,62-34.9,84.5C343.7,256.7,313.7,269.2,281.8,269.2z"/>
	</g>
	<g>
		<path class="st0" d="M780.6,269.2c-31.9,0-61.9-12.4-84.5-35s-35-52.6-35-84.5c0-31.9,12.4-61.9,35-84.5
			c22.6-22.6,52.6-35,84.5-35s61.9,12.4,84.5,35c22.6,22.6,35,52.6,35,84.5c0,31.9-12.4,61.9-35,84.5
			C842.5,256.7,812.5,269.2,780.6,269.2z M780.6,48c-56.1,0-101.7,45.6-101.7,101.7c0,56.1,45.6,101.7,101.7,101.7
			s101.7-45.6,101.7-101.7C882.3,93.6,836.6,48,780.6,48z"/>
	</g>
	<g>
		<path class="st0" d="M548.8,269.2c-32,0-62-12.4-84.5-34.9c-22.5-22.5-34.9-52.5-34.9-84.5c0-32,12.4-62,34.9-84.5
			c22.5-22.5,52.5-34.9,84.5-34.9c25.5,0,49.8,8,70.4,23c20,14.7,34.8,34.8,42.7,58.3c1.6,4.6-0.9,9.7-5.6,11.2
			c-4.6,1.6-9.7-0.9-11.2-5.6c-14-41.4-52.7-69.3-96.3-69.3c-56.1,0-101.7,45.6-101.7,101.7c0,56.1,45.6,101.7,101.7,101.7
			c43.8,0,82.5-27.8,96.3-69.2c1.5-4.6,6.6-7.2,11.2-5.6c4.6,1.5,7.2,6.6,5.6,11.2c-7.9,23.6-22.7,43.9-42.7,58.5
			C598.7,261.3,574.4,269.2,548.8,269.2z"/>
	</g>
	<g>
		<path class="st0" d="M415.3,269.7c-4.9,0-8.9-4-8.9-8.9V39.1c0-4.9,4-8.9,8.9-8.9c4.9,0,8.9,4,8.9,8.9v221.7
			C424.2,265.8,420.2,269.7,415.3,269.7z"/>
	</g>
	<g>
		<path class="st0" d="M167.7,269.7c-3.5,0-6.8-2.1-8.2-5.5L68.9,42.5c-1.9-4.5,0.3-9.7,4.9-11.6c4.5-1.9,9.7,0.3,11.6,4.9
			l90.6,221.7c1.9,4.5-0.3,9.7-4.9,11.6C169.9,269.5,168.8,269.7,167.7,269.7z"/>
	</g>
	<g>
		<path class="st0" d="M167.7,269.7c-1.1,0-2.3-0.2-3.4-0.7c-4.5-1.9-6.7-7-4.9-11.6L250,35.8c1.9-4.5,7-6.7,11.6-4.9
			c4.5,1.9,6.7,7,4.9,11.6l-90.6,221.7C174.5,267.7,171.2,269.7,167.7,269.7z"/>
	</g>
	<g>
		<path class="st0" d="M122.4,158.6H77.1c-4.9,0-8.9-4-8.9-8.9c0-4.9,4-8.9,8.9-8.9h45.3c4.9,0,8.9,4,8.9,8.9
			C131.3,154.6,127.3,158.6,122.4,158.6z"/>
	</g>
	<g>
		<path class="st0" d="M258.3,158.6H213c-4.9,0-8.9-4-8.9-8.9c0-4.9,4-8.9,8.9-8.9h45.3c4.9,0,8.9,4,8.9,8.9
			C267.1,154.6,263.2,158.6,258.3,158.6z"/>
	</g>
	<g>
		<path class="st0" d="M64.2,269.2c-3.3,0-6.4-1.8-7.9-4.9L0.9,153.7c-1.4-2.7-1.2-6,0.4-8.6c1.6-2.6,4.5-4.2,7.5-4.2
			c25.6,0,46.4-20.8,46.4-46.4S34.5,48,8.9,48C4,48,0,44,0,39.1c0-4.9,4-8.9,8.9-8.9c17.2,0,33.3,6.7,45.4,18.8S73,77.3,73,94.4
			c0,17.2-6.7,33.3-18.8,45.4c-8.8,8.8-19.8,14.8-31.8,17.3l49.6,99.2c2.2,4.4,0.4,9.7-4,11.9C66.9,268.9,65.5,269.2,64.2,269.2z"/>
	</g>
</g>
</svg>
