<?xml version="1.0" encoding="UTF-8"?>
<svg id="Layer_1" xmlns="http://www.w3.org/2000/svg" version="1.1" viewBox="0 0 360 71.1">
  <!-- Generator: Adobe Illustrator 29.2.1, SVG Export Plug-In . SVG Version: 2.1.0 Build 116)  -->
  <defs>
    <style>
      .st0 {
        fill: #dc1e5a;
      }

      .st1 {
        fill: #504664;
      }
    </style>
  </defs>
  <path class="st0" d="M190.4,7.4l11.7,39,11.6-39h18.9l-19.1,56.7h-23l-19.1-56.7h18.9Z"/>
  <path class="st0" d="M356.4,50.2c-2.4,4.3-6,7.8-10.3,10.2-4.8,2.6-10.2,3.8-15.6,3.7h-23.6V7.4h23.6c5.4-.1,10.8,1.1,15.6,3.6,4.3,2.3,7.9,5.7,10.3,10,2.4,4.5,3.7,9.5,3.6,14.6,0,5.1-1.1,10.1-3.6,14.6ZM338.4,45c2.4-2.2,3.5-5.3,3.5-9.4,0-4.1-1.2-7.2-3.5-9.4-2.3-2.2-5.5-3.3-9.5-3.3h-4.2v25.3h4.2c4,0,7.2-1.1,9.5-3.2Z"/>
  <path class="st0" d="M17.8,45.9v18H0V7.2h24.8c6.9,0,12.3,1.8,16,5.3,3.7,3.5,5.6,8.2,5.6,14.2,0,3.4-.8,6.8-2.5,9.7-1.7,3-4.3,5.4-7.3,6.9-3.6,1.8-7.7,2.7-11.7,2.6h-7.1ZM28.3,26.7c0-3.5-1.8-5.2-5.5-5.2h-5v10.4h5c3.7,0,5.5-1.7,5.5-5.2h0Z"/>
  <path class="st0" d="M143.2,45.9v18h-17.8V7.2h24.8c6.9,0,12.3,1.8,16,5.3,3.7,3.5,5.6,8.2,5.6,14.2,0,3.4-.8,6.8-2.5,9.7-1.7,3-4.3,5.4-7.3,6.9-3.6,1.8-7.7,2.7-11.7,2.6h-7ZM153.8,26.7c0-3.5-1.9-5.2-5.5-5.2h-5v10.4h5c3.7,0,5.5-1.7,5.5-5.2h0Z"/>
  <path class="st1" d="M49.3,38.4c1.6,19.6,18.8,34.1,38.3,32.5,19.6-1.6,34.1-18.8,32.5-38.3C118.6,13.1,101.4-1.5,81.9.1c-19.6,1.6-34.1,18.7-32.6,38.3,0,0,0,0,0,0ZM91.1,42.9c.6,7.4-4.9,13.9-12.4,14.5-7.4.6-13.9-4.9-14.5-12.4-.6-7.4,4.9-13.9,12.4-14.5,7.4-.6,13.9,4.9,14.6,12.4Z"/>
  <path class="st1" d="M300.7,28.8c-3.7-19.3-22.4-31.9-41.6-28.2s-31.9,22.4-28.2,41.6c3.7,19.3,22.4,31.9,41.6,28.2,0,0,0,0,0,0,19.3-3.7,31.9-22.3,28.2-41.6,0,0,0,0,0,0ZM258.7,29c-1.4-7.3,3.4-14.4,10.7-15.8,7.3-1.4,14.4,3.4,15.8,10.7,1.4,7.3-3.4,14.4-10.7,15.8,0,0,0,0,0,0-7.3,1.4-14.4-3.4-15.8-10.7h0Z"/>
</svg>