<svg id="Layer_1" data-name="Layer 1" xmlns="http://www.w3.org/2000/svg" viewBox="0 0 190.7 120"><defs><style>.cls-1{fill:#1769ff;}</style></defs><path class="cls-1" d="M56.5,0A75.1,75.1,0,0,1,72.1,1.5a33.9,33.9,0,0,1,12.1,5A22.3,22.3,0,0,1,92,15.6c1.9,3.8,2.8,8.5,2.8,14.1s-1.4,11.1-4.1,15.2a30.6,30.6,0,0,1-12.2,9.9C85.9,56.9,91.4,60.6,95,66s5.5,11.7,5.5,19.2A33.4,33.4,0,0,1,97,100.9a30.4,30.4,0,0,1-9.5,10.9A43.3,43.3,0,0,1,73.9,118a64.4,64.4,0,0,1-15.7,2H0V0ZM53.1,48.6c4.7,0,8.6-1.1,11.6-3.4s4.5-5.9,4.5-10.9a14.1,14.1,0,0,0-1.5-6.9,10.8,10.8,0,0,0-4-4.2,17.4,17.4,0,0,0-5.8-2.1,38.2,38.2,0,0,0-6.8-.6H26.4V48.6Zm1.5,50.9a35,35,0,0,0,7.4-.8,17.2,17.2,0,0,0,6.2-2.5,12.5,12.5,0,0,0,4.3-4.8,16,16,0,0,0,1.6-7.7c0-6.2-1.7-10.6-5.2-13.2s-8.1-3.9-13.8-3.9H26.4V99.5ZM133.7,97c3.6,3.5,8.8,5.2,15.5,5.2a21.3,21.3,0,0,0,12.4-3.6c3.5-2.4,5.6-5,6.4-7.7h21c-3.4,10.4-8.5,17.9-15.5,22.4s-15.3,6.7-25.2,6.7a49.6,49.6,0,0,1-18.5-3.3,39.5,39.5,0,0,1-13.9-9.3,40.9,40.9,0,0,1-8.8-14.5A51.9,51.9,0,0,1,104,74.5a49.4,49.4,0,0,1,3.2-18.2,42.3,42.3,0,0,1,9-14.5,43.5,43.5,0,0,1,32.1-13.2c7.4,0,13.9,1.4,19.4,4.3a37.7,37.7,0,0,1,13.5,11.5,46.6,46.6,0,0,1,7.6,16.4,59.3,59.3,0,0,1,1.7,19.4H127.8c.4,7.7,2.3,13.3,5.9,16.8Zm27-45.7c-2.9-3.2-7.2-4.7-13-4.7a20.6,20.6,0,0,0-9.5,1.9,17.7,17.7,0,0,0-9.3,10.8,29.6,29.6,0,0,0-1.1,5.7h38.9C165.5,59,163.5,54.4,160.7,51.3ZM123.8,6.1h48.5V19.5H123.8Z"/></svg>