<svg id="Layer_1" data-name="Layer 1" xmlns="http://www.w3.org/2000/svg" viewBox="0 0 150 150"><defs><style>.cls-1{fill:#231f20;}</style></defs><path class="cls-1" d="M149.9,51.3V51c0-.2-.1-.3-.1-.5a.4.4,0,0,1-.1-.3l-.2-.5c0-.1-.1-.2-.1-.3l-.3-.4c0-.1-.1-.2-.1-.3l-.3-.4c-.1-.1-.2-.2-.2-.3l-.4-.4-.2-.2-.4-.3-.3-.2c0-.1,0-.1-.1-.1L78.6,1.1a6.3,6.3,0,0,0-7.2,0L2.9,46.8c-.1,0-.1,0-.1.1l-.3.2-.4.3-.2.2-.4.4c0,.1-.1.2-.2.3l-.3.4c0,.1-.1.2-.1.3l-.3.4c0,.1-.1.2-.1.3l-.2.5a.4.4,0,0,1-.1.3c0,.2-.1.3-.1.5v.3a2.5,2.5,0,0,0-.1.8V97.9a2.5,2.5,0,0,0,.1.8V99c0,.2.1.3.1.5a.4.4,0,0,1,.1.3l.2.5c0,.1.1.2.1.3l.3.4v.3l.3.4.2.3.4.4.2.2.4.3.3.2c0,.1,0,.1.1.1l68.5,45.7a6.4,6.4,0,0,0,7.2,0l68.5-45.7c.1,0,.1,0,.1-.1l.3-.2.4-.3.2-.2.4-.4.2-.3.3-.4V101l.3-.4c0-.1.1-.2.1-.3l.2-.5a.4.4,0,0,1,.1-.3c0-.2.1-.3.1-.5v-.3a2.5,2.5,0,0,0,.1-.8V52.1A2.5,2.5,0,0,0,149.9,51.3ZM81.4,18.5l50.5,33.7-22.5,15-28-18.6Zm-12.8,0V48.6l-28,18.6-22.5-15ZM12.9,64.2,29,75,12.9,85.8Zm55.7,67.3L18.1,97.8l22.5-15,28,18.6ZM75,90.2,52.2,75,75,59.8,97.8,75Zm6.4,41.3V101.4l28-18.6,22.5,15Zm55.7-45.7L121,75l16.1-10.8Z"/></svg>