<svg id="Layer_1" data-name="Layer 1" xmlns="http://www.w3.org/2000/svg" viewBox="0 0 230.33 120"><defs><style>.cls-1{fill:#365463;}</style></defs><title>cv</title><path class="cls-1" d="M7,30.13A49,49,0,0,1,26.36,9.77Q39,2.5,56.07,2.5A60.44,60.44,0,0,1,82.34,8a48.4,48.4,0,0,1,18.85,15.57,56.46,56.46,0,0,1,9.67,23.48H73.48a20.21,20.21,0,0,0-7.27-8.7,19.07,19.07,0,0,0-10.78-3.12A16.91,16.91,0,0,0,41.3,42q-5.2,6.7-5.19,18t5.19,18a16.91,16.91,0,0,0,14.13,6.71,19.07,19.07,0,0,0,10.78-3.12,20.21,20.21,0,0,0,7.27-8.7h37.38a56.46,56.46,0,0,1-9.67,23.48A48.4,48.4,0,0,1,82.34,112a60.44,60.44,0,0,1-26.27,5.51q-17.08,0-29.71-7.27A49,49,0,0,1,7,89.87Q.17,76.78.17,60T7,30.13Z"/><path class="cls-1" d="M230.33,3.62l-38,113.08H146.47l-38-113.08h37.69L169.47,81.4,192.63,3.62Z"/></svg>