<?xml version="1.0" encoding="utf-8"?>
<!-- Generator: Adobe Illustrator 28.2.0, SVG Export Plug-In . SVG Version: 6.00 Build 0)  -->
<svg version="1.1" id="Layer_2_00000127728220822053439310000014879719116146790589_"
	 xmlns="http://www.w3.org/2000/svg" xmlns:xlink="http://www.w3.org/1999/xlink" x="0px" y="0px" viewBox="0 0 1354 174.6"
	 style="enable-background:new 0 0 1354 174.6;" xml:space="preserve">
<g>
	<g>
		<path d="M806.1,131.2h-43c0,6.4-0.2,12.7,0.2,19c0,0.9,2.5,2.3,3.9,2.3c5.8,0.3,11.6,0.1,17.5,0.1v21.5H741v-21.4h-21.6V131
			c5.8,0,11.4-0.2,16.9,0.1c3.5,0.1,4.7-1.1,4.6-4.6c-0.2-5.5-0.1-10.9-0.1-17h-43.2c-0.2-2-0.5-3.4-0.5-4.8
			c0-18.8,0.1-37.7-0.1-56.5c0-3.7,1-5,4.8-4.8c5.5,0.3,10.9,0.1,17,0.1V21.9h66.2V0.5h86.7v21.2h65.8v21.7h21.5
			c0.2,2,0.4,3.3,0.4,4.6c0,18.8-0.1,37.7,0.1,56.5c0,3.7-1.1,4.9-4.8,4.8c-12.7-0.2-25.3-0.1-38.4-0.1v21.7h21.3
			c0,6.9,0.1,13.2-0.2,19.5c0,0.8-2.3,2.1-3.5,2.2c-5.8,0.2-11.6,0.1-17.9,0.1v21.3h-43.8v-21.1c5.8,0,11.5-0.1,17.1,0.1
			c3.2,0.1,4.5-0.8,4.4-4.2c-0.2-4.8,0.1-9.7-0.2-14.5c-0.1-1.1-2-3.1-3.1-3.1c-13.2-0.1-26.3,0.1-39.5,0.2l0.1,0.2
			c-0.1-6.2-0.3-12.3-0.2-18.5c0-2.8-1-3.8-3.8-3.8c-12.5,0.1-25,0.1-37.5,0c-2.8,0-3.9,0.9-3.8,3.8c0.2,6.2,0,12.3,0,18.5
			L806.1,131.2L806.1,131.2z M763,65.9c0,5.8,0.2,11.3-0.1,16.8c-0.2,3.5,1.1,4.6,4.6,4.5c11.5-0.2,23-0.1,34.5-0.1
			c1.3,0,2.5-0.3,3.6-0.5V65.9H763z M872.3,87.1c5.7,0,11.3-0.2,17,0.1c3.6,0.2,4.7-1.2,4.5-4.6c-0.2-4.5-0.1-9,0-13.5
			c0.1-2.5-0.8-3.6-3.4-3.6c-12,0.1-24,0.1-35.9,0c-2.9,0-3.8,1.1-3.7,3.8c0.2,4.7,0.2,9.3,0,14c-0.1,3.2,1.3,4,4.2,3.9
			C860.7,87,866.5,87.1,872.3,87.1L872.3,87.1z"/>
		<path d="M851,131.2v21.1h-44.9c0-7.2,0-14.1,0-21.1l-0.1,0.1c15.1,0,30.1,0,45.2,0L851,131.2L851,131.2z"/>
	</g>
	<g>
		<path d="M1139.3,130.9h-26.4v-21.8h-53.3V65.6c7.1,0,13.9-0.2,20.7,0.1c3.7,0.1,5-1.1,4.8-4.8c-0.3-5.6-0.1-11.3-0.1-17.5h27.8
			V21.8h26.4V0.2h51.8v21.3h26.7v21.6h27.3v22.5h26.5V109c-6.5,0-12.6,0-18.7,0c-10,0-20,0.2-30-0.1c-3.8-0.1-5.4,0.9-5.2,5
			c0.3,5.3,0.1,10.6,0.1,17h-26.6l0.1,0.2v-22c-17,0-33.2-0.1-49.3,0.2c-1,0-2.7,2.2-2.8,3.4c-0.3,6.1-0.1,12.3-0.2,18.5
			L1139.3,130.9L1139.3,130.9z M1112.6,65.7c0,6.5-0.1,12.7,0.1,18.8c0,0.9,1.4,2.4,2.2,2.4c7.9,0.2,15.9,0.1,24,0.1V65.7H1112.6
			L1112.6,65.7z M1191.4,87c8.3,0,15.9,0.1,23.5-0.1c1,0,2.8-1.8,2.8-2.8c0.3-5.3,0.2-10.6,0-15.9c0-0.9-1.3-2.6-2.1-2.6
			c-8.1-0.2-16.1-0.1-24.3-0.1L1191.4,87L1191.4,87z"/>
		<path d="M1191.2,130.9v21.6c-2.1,0-3.9,0-5.6,0c-13.4,0-26.8,0-40.3,0c-1.9,0-3.9,0.5-5.8,0.8l0.1,0.1c-0.1-7.5-0.2-15-0.3-22.5
			l-0.1,0.1c17.4,0,34.8,0,52.2,0L1191.2,130.9L1191.2,130.9z"/>
		<path d="M1085,131.1h27.2v21.4c-7.5,0-14.8,0.2-22.1-0.1c-4.1-0.2-5.7,1-5.4,5.3c0.3,5.3,0.1,10.6,0.1,16.2h-25.1v-21.2
			c6.5,0,13.1-0.3,19.7,0.1c4.7,0.3,6.1-1.4,5.8-5.9C1084.7,141.8,1085,136.7,1085,131.1L1085,131.1z"/>
		<path d="M1218.8,153.5c-0.4-7.2-0.8-14.5-1.2-22.2h27.4v21.2c-6.9,0-13.7-0.1-20.4,0C1222.5,152.6,1220.6,153.1,1218.8,153.5
			L1218.8,153.5z"/>
		<path d="M1271.9,153c0,6.6,0.1,12.5-0.1,18.5c-0.1,1-1.9,2.6-3,2.7c-6.6,0.2-13.3,0.2-19.9,0c-1.1,0-3.1-1.6-3.2-2.5
			c-0.3-6.1-0.2-12.2-0.2-18.6L1271.9,153L1271.9,153z"/>
		<path d="M1218.7,153.4c-0.3,4.2-0.7,8.4-0.9,12.6c-0.1,2.5,0,4.9,0,7.8h-26.2v-20.4C1200.7,153.5,1209.8,153.5,1218.7,153.4
			L1218.7,153.4L1218.7,153.4z"/>
		<path d="M1139.5,153.3c-0.1,5.8-0.3,11.6-0.3,17.4c0,2.5-0.8,3.6-3.4,3.6c-7.3-0.1-14.6,0-22.4,0v-20.9c8.8,0,17.6,0,26.3,0
			L1139.5,153.3z"/>
	</g>
	<g>
		<path d="M531.6,152.9v-22c-2.1-0.1-3.7-0.4-5.3-0.4c-33.2,0-66.3,0.1-99.5-0.1c-4.5,0-5.7,1.4-5.5,5.7c0.2,5.6-0.3,11.3-0.5,16.9
			l0.1-0.1H400c0-7.6,0-14.2,0-20.9c0-6.3-0.1-12.7,0-19c0.1-2.8-0.6-4.3-3.9-4.2c-5.8,0.2-11.6,0.1-17.9,0.1
			c-0.1,2.4-0.3,4.3-0.3,6.2c0,18.2-0.1,36.3,0.1,54.5c0,3.7-1,5.1-4.8,4.9c-5.5-0.3-10.9-0.1-16.8-0.1V87c5.5,0,11.1-0.2,16.7,0.1
			c4.1,0.2,5.2-1.3,5-5.2c-0.3-5.3-0.1-10.6-0.1-16.5c6.2,0,11.8-0.2,17.4,0.1c3.4,0.1,4.8-0.9,4.6-4.5c-0.2-5.8-0.1-11.6-0.1-17.9
			h21.1V21.8L421,22c6.3-0.1,12.7,0,19-0.3c3-0.1,4.2,0.9,4.1,4c-0.2,5.6-0.1,11.2-0.1,17.1h65v-21h22.4l-0.1-0.1v21.4h21.5v22.4
			c5.9,0,11.2,0.2,16.5-0.1c4.4-0.3,6.4,0.9,5.9,5.7c-0.5,5.1-0.1,10.2-0.1,15.9h22v87.1h-21.9c0-4.6,0-8.9,0-13.2
			c0-15.8-0.1-31.6,0.1-47.5c0-3.5-1.1-4.7-4.6-4.6c-5.6,0.2-11.3,0.1-17.7,0.1v43.9h-21.6L531.6,152.9L531.6,152.9z M444.2,65.3
			c-7,0-13.3-0.2-19.5,0.2c-1.1,0.1-3,2-3,3.1c-0.3,5-0.1,9.9-0.2,14.9c-0.1,2.5,0.9,3.6,3.5,3.6c5.3-0.1,10.6,0.2,15.9-0.2
			c1.2-0.1,3.2-1.8,3.2-2.9C444.3,78,444.1,72.1,444.2,65.3L444.2,65.3z M509.4,86.7H531V65.6h-21.6
			C509.4,65.6,509.4,86.7,509.4,86.7z"/>
		<path d="M531.4,152.8v21.3h-44.1c0-6.5-0.1-12.7,0.1-19c0-0.9,1.8-2.4,2.7-2.4c13.8-0.1,27.6,0.1,41.3,0.2L531.4,152.8
			L531.4,152.8z"/>
		<path d="M420.8,153.1H465v21h-44c0-7.1,0-14.1,0-21.1C421,153,420.8,153.1,420.8,153.1L420.8,153.1z"/>
		<path d="M531.4,21.8V0c6.6,0,13-0.1,19.4,0.1c0.7,0,2,1.7,2,2.7c0.2,6,0.1,11.9,0.1,18.8c-7.5,0-14.6,0-21.7,0L531.4,21.8
			L531.4,21.8z"/>
		<path d="M421.2,21.8h-20.8V0.3H421c0,7.4,0,14.5,0,21.6L421.2,21.8z"/>
	</g>
	<g>
		<path d="M190.8,21.7v21.4H213v22.1h22.1c0-3.2,0-6.3,0-9.4c0-10,0.1-20-0.1-30c0-3,0.9-4.2,4-4.1c5.6,0.2,11.3,0,17.4,0V109h-21.3
			v21.5h-21.7c-0.4,8-0.8,15.4-1.1,22.8l0.1-0.1c-6.9-0.3-13.9-0.6-21.4-1v-21.1H82.4c0,5.4-0.2,10.8,0.1,16.2
			c0.2,4.1-1.1,5.6-5.3,5.4c-5.3-0.2-10.6,0.3-15.9,0.5l0.1,0.1c-0.2-6-0.7-11.9-0.6-17.9c0.1-3.8-1.2-5-4.9-4.7
			c-4.3,0.3-8.7-0.1-13,0.1c-3.6,0.2-5.1-0.8-4.9-4.7c0.3-5.4,0.1-10.9,0.1-17H17V22.2h20.8v43h22.8v-22c5.8,0,11.3-0.2,16.7,0.1
			c4,0.2,5.7-0.9,5.4-5.2c-0.4-5.1-0.1-10.3-0.1-15.8h20.7v20.7h66.1v-21h21.5L190.8,21.7L190.8,21.7z M190.8,65.7h-21.1v21h21.1
			C190.8,86.6,190.8,65.7,190.8,65.7z M82.4,65.6c0,6.6-0.1,12.7,0.2,18.8c0,0.9,2,2.4,3.2,2.5c4.8,0.3,9.6,0.2,14.4,0
			c1.1-0.1,3.2-1.3,3.2-2c0.3-6.4,0.2-12.8,0.2-19.3L82.4,65.6L82.4,65.6z"/>
		<path d="M61.3,153.2c-0.3,6.9-0.7,13.8-1,21H38.2c0-6.6-0.1-13,0.1-19.4c0-0.7,1.4-2,2.2-2c7,0,13.9,0.3,20.9,0.5
			C61.4,153.3,61.3,153.2,61.3,153.2L61.3,153.2z"/>
		<path d="M190.9,21.8V0.5h21.7v21.2c-7.4,0-14.6,0-21.9,0C190.8,21.7,190.9,21.8,190.9,21.8z"/>
		<path d="M234.6,153.3v21.2c-6.3,0-22-0.2-22-0.2s0.2-15.4,0-21.1C212.5,153.2,226.9,153.3,234.6,153.3L234.6,153.3z"/>
		<path d="M61.2,0.1c6.4,0,12.6-0.1,18.9,0.1c0.8,0,2.2,1.6,2.2,2.5c0.2,6.1,0.1,12.2,0.1,18.6H61.2C61.2,21.3,61.2,0.1,61.2,0.1z"
			/>
	</g>
</g>
</svg>
