<?xml version="1.0" encoding="UTF-8"?>
<svg id="svg1" xmlns="http://www.w3.org/2000/svg" version="1.1" viewBox="0 0 180 180">
  <!-- Generator: Adobe Illustrator 29.0.1, SVG Export Plug-In . SVG Version: 2.1.0 Build 192)  -->
  <g>
    <path d="M73.7,78.4c.6.5,1.2.2,1.7-.2,5.4-4.1,11.6-5.4,19.1-5.4s3.9.2,6.3.6c1.4.2,2.5,0,3.2-1.4s.2-2.4-.8-3.3c-.8-.7-1.7-1.1-2.7-1.4-4.1-1.3-8.2-1.6-12.4-.9-4.7.7-9,2.5-12.3,6-1.1,1.2-2.1,2.5-2.6,4.2-.2.8,0,1.4.7,1.9h-.2,0Z"/>
    <path d="M99.4,81.8c-3.1-3.2-7-3.2-10.9-2.6-4.6.7-7.9,3.6-10.8,7.1-.4.5-.6,1.1,0,1.5.6.6,1.1.2,1.6-.3,1-1.1,2-2.1,3-3.1,6.6-6.3,15.9-2,17.1-1,.3.2.6.5.9.2.4-.3,0-.7-.2-.9-.2-.3-.5-.6-.7-.8h0Z"/>
    <path d="M123.8,81.3c.5.3.8-.4,1.1-.7.9-.9,7.3-6.1,14.4,0,.3.3.7.6,1.1.2.3-.3-.2-.6-.4-.9-3.1-5.4-10.7-5.1-14.1-2.6-.8.6-1.6,1.4-2.1,2.3-.3.5-.6,1.1,0,1.5h0v.2Z"/>
    <path d="M40.5,97.2c-.6-.3-1.3-.4-1.9-.5-.6,0-1,.3-1,.9s0,.9.8,1.1c2.4.4,3.8,2.1,5.3,3.8.5.5.2.7-.2,1.1-1.4,1.2-2.3,2.6-2.6,4.5-.5,3.3,1,5.8,3,8.2.4.5.9.9,1.6.2.5-.5.5-1,0-1.6-1-1-1.7-2.2-2.2-3.6-.9-2.6-.3-4.9,1.7-6.6.9,1.3,1.5,2.7,1.9,4.2.2.8.5,1.2,1.2,1s.9-.8.7-1.5c-1.5-4.6-3.7-8.8-8.3-11.2h0Z"/>
    <path d="M52.7,124.3c.8,2.9,1.4,5.8,2.2,8.7,6.4,21.6,36.9,41.1,55.3,41.1,36.4,0,41-39.8,41-39.8.3-2.1.3-4.4.4-6.5.4-9.7-1.1-19.1-3.2-28.5-1.2-5.4-2.7-10.7-3.9-16.1-2-9.1-2.1-18.4-3.1-27.6-.3-2.9-.5-5.9-1.3-8.7.9-2.1,1.5-4.2,1.7-6.5.6-2.4.6-4.9,0-7.5-.8-3.4-2.6-6.1-5-8.4-.4-.5-.8-.9-1.2-1.4-2.1-2.2-3.3-4.2,0-6.8,1.5-1.2,1.8-3.2.8-5.1-1-2.1-2.4-.3-3.6-.3-4.5,0-9,.6-13.4-.5-8.5-2.1-17.1-3.3-25.9-4-11.2-1-21.9,0-31.8,6.8-6,4.2-11.8,8.6-16.4,14.4h0c-2.1-4.4-2.3-4.2-5-.5-1.3,1.8-2.6,3.8-2.4,6,0,.6.3,1.2.5,1.8-8.1,10.7-10.2,23.5-7.9,37.4.9,5.6,2.3,11.1,3.8,16.6.3.9,0,1.5-.8,2.1-3,2.2-4.7,5.3-5.1,9.1-.8,6.6,1.5,12.2,5.3,17.4,3.3,4.5,9.5,11,19,6.9h0ZM92.2,126.9c.2-.8.9-.5,1.4-.4,4.8.9,9.6,1.6,14.5,2,8.5.6,16.8-.3,24.5-4.1h.3c.5-.3,1-.5,1.4,0,.5.6-.1.9-.5,1.2-2.5,2.5-5.5,4.2-8.7,5.6-1.8.7-3.6,1.2-5.5,1.6-2,.4-4,.5-6,.5-7.2,0-14-2.1-20.4-5.2-.4-.2-1.2-.4-1-1h0v-.2ZM58.5,78.5c1.8-5.9,2-11.8,1-17.8-1.1-6.7.8-10.7,6.6-14,7-3.9,14.5-5.7,22.4-6.1,8.1-.4,15.9,1.4,23.8,3.3,4.5,1.1,12.1,2,16.8,1.7,1.7,0,3.4-.4,5-1.1.2,0,.4-.2.6-.2.3.2.6.4.9.5,0,0,.1.2.2.3,3.8,5.9,2.7,11.3,4,17.3.1.7.3,1.3.4,2,0,0,0,.2-.1.3-5.6-1.8-12.3-1.3-17.6,1.2-1,.5-1.9,1.1-2.6,1.9-.9,1-1.1,2.2-.3,3.3.7,1.1,1.7.8,2.8.4,3.6-1.4,7.2-2.3,11-2.2,2.4,0,4.6.7,6.7,1.7.5.2.9.4.9,1.1.3,7.4,2.3,14.5,4.2,21.6,2,7.5,1.9,14.8-1,22.1-.3.8-.5,1.6-1.2,2.2-3.4-4.1-7.4-6.8-13.2-5.7,1.5-5.2-.4-9.7-2.3-14.3-2.7-6.7-5.8-13.1-9.3-19.4-.2-.4-.4-1-1-1.2-.4-.2-.7.2-.9.4-.5.5,0,1,.2,1.4,2.6,4.8,5,9.7,7.2,14.6,1.9,4.1,3.7,8.3,4.6,12.8,1.2,5.7-3.2,9.9-8.9,8.6-2.3-.6-4.5-1.6-7-1.3-.6,0-1.2,0-1.8.2-2.1.4-3.3-.4-3.6-2.6,0-.6,0-1.1-.8-1.1s-.8.6-.8,1.1c0,1.1.4,2.1,1.1,3.1-5.6-1.2-10.9-.7-16,1.3-4.2,1.6-7.5,4.4-10.3,7.8-.6.8-1,1-2,.5-11.9-6.2-18.7-16-20.5-29.3-.5-3.2-.5-6.4-.8-9.6-.2-2.5.9-4.8,1.6-7.1h0v.3h0ZM39.5,120.7c-4.8-4.3-8-9.6-9-16.1-.5-3.3,0-6.5,1.7-9.5,2.5-4.4,7.4-5.7,11.9-3.2,3,1.7,5,4.2,6.5,7.1.6,1.2,0,2.6.2,3.8.5,5.8,1,11.6,1.6,17.3.2,1.4-.2,2.2-1.5,2.6-4.2,1.5-8.1.7-11.4-2.2h0s0,.2,0,.2Z"/>
  </g>
  <circle cx="86.9" cy="85.4" r="3.6"/>
  <circle cx="130.2" cy="81.6" r="3.6"/>
</svg>